<svg xmlns="http://www.w3.org/2000/svg" viewBox="0 0 62.51 73.15"><defs><style>.cls-1{fill:#fff;}.cls-1,.cls-2{stroke:#b28146;stroke-miterlimit:10;}.cls-2,.cls-3{fill:#b28146;}</style></defs><g id="レイヤー_2" data-name="レイヤー 2"><g id="フラット"><path class="cls-1" d="M61.48,55.44,54.32,5.26,21.88,9.89l-.3.44L11.74,22.68,8.8,26.38l5.12,35.85Z"/><path class="cls-1" d="M60.77,55.53,48,3,35.42,6.06l0,.44-1.7,12.31-.51,3.67L42.27,60Z"/><path class="cls-1" d="M60.24,55.67,39.65.64,9,12.12l-.17.56L2.43,28.47.54,33.19,15.24,72.5Z"/><rect class="cls-2" x="10.53" y="33.81" width="28.55" height="2.23" transform="translate(-10.67 10.91) rotate(-20.51)"/><rect class="cls-2" x="8.72" y="29" width="28.55" height="2.23" transform="translate(-9.09 9.97) rotate(-20.51)"/><rect class="cls-2" x="16.95" y="22.36" width="18.2" height="2.23" transform="translate(-6.58 10.62) rotate(-20.51)"/><path class="cls-3" d="M62.46,29.51s-1.32,2-10,5c-8.8,3-14.21,15.38-14.21,15.38-1.3,2.53-6.46,13-6.46,13-1.42,2.72,1.18,4.32,2.71,1.52,2.93-5.38,4.81-10.3,9.26-10.44,6.48-.2,10.92-6,9.52-5.71-1.83.81-5.88.06-3.5-.31,5.73-.47,9.26-4.86,8.11-5.16a5.4,5.4,0,0,1-4.3-.19C63.75,41.38,62.46,29.51,62.46,29.51Z"/></g></g></svg>