<?xml version="1.0" encoding="utf-8"?>
<!-- Generator: Adobe Illustrator 22.1.0, SVG Export Plug-In . SVG Version: 6.00 Build 0)  -->
<svg version="1.1" id="btn-form" xmlns="http://www.w3.org/2000/svg" xmlns:xlink="http://www.w3.org/1999/xlink" x="0px" y="0px"
	 width="81.7px" height="81.7px" viewBox="0 0 81.7 81.7" style="enable-background:new 0 0 81.7 81.7;" xml:space="preserve">
<style type="text/css">
	.st0{opacity:0.15;}
	.st1{fill:#2962FF;}
	.st2{fill:#FFFFFF;}
</style>
<g>
	<g>
		<g class="st0">
			<circle cx="42.2" cy="42.2" r="39.5"/>
		</g>
		<circle class="st1" cx="39.5" cy="39.5" r="39.5"/>
	</g>
	<path class="st2" d="M39.2,15.7c-12.2,0-23.9,10.1-24,22.6C15.3,50.7,26.6,60.6,38.5,61c-0.1,2.4-0.7,4.5-1,5.6
		c-0.1,0.4,0.2,0.7,0.6,0.5c3.4-1.3,16.3-7,22.2-18.4c1.8-3.1,2.9-6.6,2.9-10.3C63,25.8,51.3,15.7,39.2,15.7z M32.3,51.2
		c-2,0-3.6-1.6-3.6-3.6c0-2,1.6-3.6,3.6-3.6c2,0,3.6,1.6,3.6,3.6C35.9,49.6,34.3,51.2,32.3,51.2z M44.6,46.8c0,1.2-1,2.1-2.1,2.1
		h-2.7c0.2-0.7,0.3-1.5,0.3-2.2c-0.1-3.6-2.9-6.6-6.5-6.8c-1.1-0.1-2.2,0.1-3.2,0.5v-2.9c0-1.1,0.8-2.1,1.9-2.1c0.2,0,0.5,0,0.7,0
		C39.4,35.2,44.6,40.4,44.6,46.8C44.6,46.8,44.6,46.8,44.6,46.8z M55.8,46.8c0,1.1-1,2.1-2.1,2.1h-4.9c0.1-0.7,0.2-1.4,0.2-2.1
		C49,38,41.8,30.9,33,30.9c-0.9,0-1.8,0.1-2.7,0.2v-5c0-1.1,0.9-2.1,2.1-2.1c0.2,0,0.4,0,0.6,0C45.6,24,55.8,34.2,55.8,46.8
		C55.8,46.8,55.8,46.8,55.8,46.8z"/>
</g>
</svg>
