<?xml version="1.0" encoding="utf-8"?>
<!-- Generator: Adobe Illustrator 22.1.0, SVG Export Plug-In . SVG Version: 6.00 Build 0)  -->
<svg version="1.1" id="btn-side" xmlns="http://www.w3.org/2000/svg" xmlns:xlink="http://www.w3.org/1999/xlink" x="0px" y="0px"
	 width="46.1px" height="58px" viewBox="0 0 46.1 58" style="enable-background:new 0 0 46.1 58;" xml:space="preserve">
<style type="text/css">
	.st0{fill:#E0E0E0;}
	.st1{fill:#424242;}
</style>
<g>
	<path class="st0" d="M11.9,11.9C5.3,11.9,0,6.6,0,0v11.9V58h46.1V11.9H11.9z"/>
	<g>
		<path class="st1" d="M27.8,24.4l10.1,10.1c0.3,0.3,0.3,0.7,0,1L27.8,45.6c-0.4,0.4-1.2,0.1-1.2-0.5V24.8
			C26.6,24.2,27.3,23.9,27.8,24.4z"/>
	</g>
	<g>
		<path class="st1" d="M15.8,27.8c-0.2,0-0.3,0-0.5-0.1s-0.3-0.1-0.5-0.2c-0.1-0.1-0.3-0.2-0.3-0.3c-0.1-0.1-0.1-0.2-0.1-0.3
			c0-0.1,0.1-0.2,0.2-0.2c0,0,0.1,0,0.1,0c0.1,0,0.1,0.1,0.2,0.1c0.1,0,0.1,0.1,0.2,0.1c0.1,0,0.1,0,0.2,0c0.1,0,0.2,0,0.3-0.1
			c0.1-0.1,0.1-0.2,0.1-0.3c0-0.4-0.2-0.8-0.6-1c-0.4-0.2-1-0.3-1.9-0.3c-0.1,0-0.1,0-0.2,0c0,0.2,0,0.4,0,0.6c0,0.2,0,0.4,0,0.5
			c0,0-0.1,0-0.1,0c-0.1,0-0.1,0-0.2-0.1c0-0.3-0.1-0.5-0.1-0.6c0-0.1-0.1-0.3-0.1-0.3s-0.1-0.1-0.1-0.1s-0.1,0-0.1,0
			c-0.1,0-0.1,0-0.2,0c-0.1,0-0.2,0-0.3,0c-0.7,0-1.3-0.3-1.7-0.8c-0.4-0.5-0.7-1.2-0.7-2.1c0-0.2,0-0.3,0.1-0.5
			c0.1-0.2,0.1-0.3,0.2-0.5c0.1-0.1,0.2-0.3,0.3-0.4s0.2-0.2,0.3-0.2c0.3,0,0.6,0.1,0.9,0.3c0.3,0.2,0.6,0.4,0.8,0.7
			c0.2,0.3,0.4,0.7,0.6,1.1c0.1,0.4,0.2,0.9,0.2,1.3c0.2,0,0.4,0,0.6-0.1c0.2-0.1,0.4-0.1,0.6-0.2s0.4-0.1,0.6-0.2
			c0.2-0.1,0.4-0.1,0.5-0.1c0.2,0,0.5,0.1,0.7,0.2s0.4,0.3,0.6,0.5c0.2,0.2,0.4,0.4,0.5,0.7c0.1,0.3,0.2,0.5,0.3,0.8
			c0,0.1-0.1,0.3-0.2,0.5c-0.1,0.2-0.3,0.4-0.4,0.6c-0.2,0.2-0.3,0.4-0.5,0.5C16.1,27.7,15.9,27.8,15.8,27.8z M10,22.4
			c0.1,0.3,0.2,0.5,0.4,0.8c0.2,0.2,0.3,0.4,0.5,0.6c0.2,0.2,0.4,0.3,0.6,0.4c0.2,0.1,0.5,0.2,0.7,0.2c0-0.2-0.1-0.5-0.2-0.7
			c-0.1-0.3-0.3-0.5-0.5-0.7s-0.4-0.4-0.6-0.6c-0.2-0.2-0.4-0.2-0.5-0.2C10.3,22,10.2,22.2,10,22.4z"/>
		<path class="st1" d="M11.6,27.8c0.4,0,0.9,0.1,1.6,0.3s1.5,0.6,2.4,1c1.4,0.7,2.6,1.3,3.6,1.9s1.7,1.2,2.2,1.8
			c0,0.1-0.1,0.3-0.1,0.5c-0.1,0.2-0.1,0.4-0.2,0.6c-0.1,0.2-0.2,0.4-0.2,0.5c-0.1,0.1-0.2,0.2-0.2,0.3c-0.8-0.9-1.6-1.6-2.5-2.3
			s-1.9-1.2-3.1-1.8c-1-0.5-1.9-0.8-2.7-1.1c-0.8-0.2-1.5-0.4-2-0.4c-0.1,0-0.2,0-0.3,0s-0.1,0-0.1,0c0-0.2,0-0.3,0.1-0.4
			c0-0.1,0.1-0.2,0.2-0.2c0,0,0.1-0.1,0.2-0.2c0.1-0.1,0.1-0.2,0.2-0.3c0.1-0.1,0.2-0.2,0.4-0.2C11.1,27.9,11.3,27.8,11.6,27.8z"/>
		<path class="st1" d="M11.6,31.8c0.1,0,0.2,0,0.3,0s0.3,0,0.5,0.1c0.2,0,0.4,0.1,0.7,0.2c0.3,0.1,0.6,0.2,1,0.3
			c0.1,0,0.2,0.1,0.4,0.1s0.4,0.2,0.6,0.3c0.2,0.1,0.4,0.3,0.6,0.5c0.2,0.2,0.3,0.4,0.4,0.7c0,0.2-0.1,0.4-0.3,0.7
			c-0.1,0.3-0.3,0.6-0.6,0.8c-0.2-0.3-0.4-0.5-0.7-0.6s-0.4-0.3-0.7-0.5s-0.5-0.3-0.7-0.4c-0.3-0.1-0.5-0.2-0.8-0.4
			c-0.2-0.1-0.5-0.2-0.7-0.3c-0.3-0.1-0.5-0.2-0.7-0.2c-0.2,0-0.3,0-0.3,0c-0.1,0-0.1,0-0.1-0.1c0,0,0-0.1,0.1-0.3
			c0-0.1,0.1-0.3,0.2-0.4c0.1-0.1,0.2-0.3,0.3-0.4C11.3,31.8,11.4,31.8,11.6,31.8z M17.1,34.9c0.1,0,0.1,0,0.2,0
			c0-0.1,0.1-0.1,0.2-0.1c0.1,0,0.2-0.1,0.2-0.1c0.1,0,0.2,0,0.3,0c0.1,0,0.3,0.1,0.4,0.1c0.2,0,0.3,0.1,0.5,0.2s0.3,0.1,0.5,0.2
			c0,0.1,0,0.3-0.1,0.5c-0.1,0.2-0.1,0.4-0.2,0.6s-0.2,0.4-0.3,0.5c-0.1,0.2-0.2,0.3-0.3,0.4c-0.1-0.1-0.2-0.3-0.4-0.5
			c-0.2-0.2-0.3-0.4-0.5-0.6c-0.2-0.2-0.4-0.4-0.5-0.5c-0.2-0.2-0.3-0.3-0.3-0.3c0-0.1,0.1-0.2,0.1-0.3C17,35,17.1,34.9,17.1,34.9z"
			/>
		<path class="st1" d="M16.7,39.3c0,0.2-0.1,0.5-0.2,0.8s-0.2,0.5-0.4,0.8c0.3-0.1,0.7-0.1,1-0.2s0.6-0.2,0.9-0.4
			c0.3-0.2,0.7-0.4,1.1-0.6c0.4-0.3,0.8-0.6,1.3-1c0.1,0,0.2,0.1,0.3,0.2c0.1,0.1,0.2,0.2,0.3,0.4c0.1,0.1,0.2,0.3,0.2,0.5
			c0.1,0.2,0.1,0.3,0.1,0.5c-0.3,0.3-0.6,0.6-1,0.9c-0.4,0.3-0.8,0.5-1.3,0.7s-0.9,0.4-1.4,0.5c-0.5,0.1-0.9,0.2-1.4,0.2
			c-0.4,0-0.9-0.1-1.4-0.2c-0.5-0.1-0.9-0.3-1.4-0.5c-0.4-0.2-0.9-0.5-1.3-0.8s-0.8-0.6-1.1-1c-0.3-0.3-0.6-0.7-0.8-1.1
			c-0.2-0.4-0.3-0.8-0.4-1.1c0.1-0.8,0.3-1.3,0.6-1.7c0.3-0.4,0.7-0.6,1.3-0.6c0.3,0,0.6,0.1,0.9,0.2c0.3,0.1,0.7,0.3,1,0.5
			c0.3,0.2,0.7,0.4,1,0.7c0.3,0.3,0.6,0.5,0.9,0.8c0.3,0.3,0.5,0.6,0.6,0.9C16.5,38.7,16.6,39,16.7,39.3z M10.6,37.6
			c0.1,0.4,0.3,0.8,0.7,1.2c0.3,0.4,0.8,0.7,1.2,1s1,0.6,1.5,0.8s1.1,0.3,1.6,0.3c0.1,0,0.2,0,0.3,0s0.1,0,0.1,0
			c-0.1-0.3-0.2-0.5-0.4-0.8c-0.2-0.3-0.4-0.6-0.7-0.9c-0.3-0.3-0.6-0.6-0.9-0.8c-0.3-0.3-0.6-0.5-0.9-0.7c-0.3-0.2-0.6-0.4-0.9-0.5
			s-0.5-0.2-0.8-0.2C10.9,36.8,10.6,37.1,10.6,37.6z"/>
		<path class="st1" d="M16,48.7c-0.5,0-1-0.2-1.4-0.4c-0.4-0.2-0.7-0.5-1-0.9c-0.3-0.4-0.5-0.8-0.8-1.3c-0.2-0.5-0.4-1.1-0.7-1.9
			c-0.1,0-0.1,0-0.2,0c-0.1,0-0.1,0-0.2,0c-0.1,0-0.2,0-0.3,0c-0.1,0-0.2,0.1-0.3,0.1c-0.1,0.1-0.2,0.1-0.2,0.2
			c-0.1,0.1-0.1,0.2-0.1,0.4c0,0.3,0.1,0.6,0.2,0.9c0.1,0.3,0.2,0.6,0.4,0.8c0.1,0.3,0.3,0.5,0.5,0.7s0.3,0.4,0.5,0.6
			c-0.1,0.1-0.1,0.2-0.2,0.3c-0.5-0.5-0.9-1-1.3-1.6c-0.3-0.6-0.5-1.1-0.6-1.7c0.1-0.8,0.3-1.4,0.6-1.8c0.4-0.4,0.8-0.6,1.3-0.6
			c0.3,0,0.7,0.1,1.1,0.2c0.4,0.1,0.7,0.3,1,0.5c0.3,0.2,0.7,0.5,0.9,0.8c0.3,0.3,0.6,0.6,0.8,1c0.2,0.3,0.4,0.7,0.5,1.1
			s0.2,0.7,0.2,1.1C16.7,47.8,16.5,48.3,16,48.7z M15.6,47.6c0-0.3-0.1-0.6-0.3-0.9c-0.2-0.3-0.4-0.6-0.6-0.9
			c-0.3-0.3-0.6-0.5-0.9-0.8s-0.7-0.4-1.1-0.5c0.3,0.9,0.8,1.6,1.3,2.2C14.5,47.2,15,47.5,15.6,47.6z"/>
	</g>
</g>
</svg>
