<?xml version="1.0" encoding="utf-8"?>
<!-- Generator: Adobe Illustrator 22.1.0, SVG Export Plug-In . SVG Version: 6.00 Build 0)  -->
<svg version="1.1" id="icn-kotoba" xmlns="http://www.w3.org/2000/svg" xmlns:xlink="http://www.w3.org/1999/xlink" x="0px" y="0px"
	 width="36.5px" height="22.1px" viewBox="0 0 36.5 22.1" style="enable-background:new 0 0 36.5 22.1;" xml:space="preserve">
<style type="text/css">
	.st0{fill:#565656;}
</style>
<g>
	<path class="st0" d="M1.1,7.7l2.4,2.1H4L4,9.7c0-0.4-0.2-0.8-0.6-1.1L3.1,8.2L2.4,7.7V7.5L1.5,6.8l0.1-0.5c0.8-0.8,1.7-1.5,2.7-1.9
		l0.1-0.1V4L4,3.5C3,3.8,2.1,4.4,1.4,5.2H1.2L1.1,4.7l0.1-0.6V2.4L1.1,2.3L1.2,2L1,1L0.5,0.6L0.1,0.8l0.1,0.6v1.7l0.1,0.1L0.2,3.7
		l0.1,0.7L0.2,4.6v1.3L0.1,5.9v1.7L0.1,7.7v1.7L0,9.5v0.6l0.5,0.6l0.3-0.1L1,10L1,9.4V8.1L1.1,7.7z"/>
	<path class="st0" d="M8.1,10.6h0.7L9,10.4c0.9-0.9,1.4-2,1.6-3.2V6.4l0.1-0.1V5l-0.1-0.8V3.3c0-0.7-0.2-1.3-0.4-1.8
		c-0.7-0.3-1.3-0.7-2-1.1L7.5,0.4c-0.7,1.5-1.1,3.2-1.2,5v2.1l0.3,1.2C7,9.4,7.5,10.1,8.1,10.6z M7.3,5.9L7.3,5.9L7.3,5
		c0.1-1.2,0.5-2.3,0.9-3.3l1.1,0.1l0.4,1.8V5L9.8,5v0.8L9.7,5.9v0.7c-0.2,1.1-0.6,2.1-1.3,3L8.3,9.7L8.1,9.6
		C7.6,8.9,7.4,8.1,7.3,7.2V5.9z"/>
	<path class="st0" d="M13.9,2.6l0.4,0.1l0.3,1.4v1.1l0.1,0.1v3.4l0.1,0.1l-0.1,0.4l0.1,0.2l-0.1,0.2l0.3,0.8l0.4,0.2l0.5-0.4
		l-0.1-0.6V8.4l-0.1-0.1l0.1-0.4l-0.1-0.2V5.9l-0.1-0.1l0.1-0.5V4.4l-0.2-1.3l0.1-0.6h1l0.1,0.1h0.7l0.1,0.1c0.4,0,0.8,0,1.1-0.3
		L18.3,2l-0.6-0.4l-0.5,0.1h-1l-0.1-0.1l-0.3,0.1h-2c-0.8,0.1-1.5,0.3-2.1,0.5v0.2L12.3,3L13.9,2.6z"/>
	<path class="st0" d="M21,10.6h0.7l0.2-0.1c0.9-0.9,1.4-2,1.6-3.2V6.4l0.1-0.1V5l-0.1-0.8V3.3c0-0.7-0.2-1.3-0.4-1.8
		c-0.7-0.3-1.3-0.7-2-1.1l-0.6,0.1c-0.7,1.5-1.1,3.2-1.2,5v2.1l0.3,1.2C19.8,9.4,20.3,10.1,21,10.6z M20.1,5.9L20.1,5.9L20.2,5
		c0.1-1.2,0.5-2.3,0.9-3.3l1.1,0.1l0.4,1.8V5L22.7,5v0.8l-0.1,0.1v0.7c-0.2,1.1-0.6,2.1-1.3,3l-0.1,0.1L21,9.6
		c-0.5-0.7-0.8-1.5-0.9-2.3V5.9z"/>
	<path class="st0" d="M28.6,4.7l0.3-0.3c0.6-0.6,1-1.3,1.3-2.1l-0.1-0.6C29.8,1.2,29.4,1,28.9,1c-0.8,0-1.5,0.1-2.1,0.4l-0.2-0.1H26
		L26,1.7l-0.6,0.6v0.4L26,3.3v2.3L26,5.7l-0.4,0.2l-0.2,0.2l-0.1,0.1c0.1,0.4,0.3,0.7,0.7,1v1L26.1,9v0.9l0.1,0.2l0.6,0.6
		c0.7,0,1.2-0.3,1.7-0.8c1-0.9,1.6-2,1.9-3.2c0-0.5-0.1-1-0.4-1.4L28.6,4.7z M26.9,2.5L27,2.3l1.6-0.5l0.6,0.1c-0.4,1-1,1.8-1.8,2.6
		l-0.2,0.1H27V3.5l-0.1-0.1V2.5z M29.2,7.1c-0.4,0.8-0.9,1.5-1.6,2.1l-0.2,0.1l-0.3-0.1l-0.2-0.5V7.6l-0.1-0.1L27,6.5l1.6-0.8H29
		l0.4,0.4L29.2,7.1z"/>
	<path class="st0" d="M35,1l0.1-0.4L34.7,0c-0.4-0.1-0.7,0-0.9,0.4L34,0.7c-0.5,2-1.1,3.9-1.7,5.8l0.1,0.2l-0.5,3.1l0.1,0.6l0.5,0.4
		l0.4-0.1l0.6-3.4c0.5-0.1,1-0.3,1.6-0.6h0.2l0.4,2.4v0.7l0.1,0.2l0.4,0.4l0.5-0.1v-1C36,6.5,35.5,3.7,35,1z M34.8,5.9L34,6.2
		l-0.4-0.1C33.8,5,34,3.9,34.4,2.9C34.7,3.5,34.9,4.2,35,5L34.8,5.9z"/>
	<path class="st0" d="M31.4,15.9c0,0-0.1-0.2-0.1-0.2C31.3,15.7,31.4,15.9,31.4,15.9z"/>
	<polygon class="st0" points="30.9,16.7 30.9,16.6 30.9,16.5 	"/>
	<path class="st0" d="M30.3,16.8c0.2,0.3,0.2-0.2,0.4-0.1l0.1,0.1l-0.1-0.3C30.6,16.6,30.5,16.9,30.3,16.8z"/>
	<path class="st0" d="M29.8,16.2C29.8,16.2,29.8,16.2,29.8,16.2C29.8,16.2,29.8,16.2,29.8,16.2C29.8,16.4,29.7,16.4,29.8,16.2z"/>
	<path class="st0" d="M29.8,16.2C29.8,16.2,29.7,16.1,29.8,16.2L29.8,16.2z"/>
	<path class="st0" d="M29.6,16.3c0-0.1-0.1-0.1-0.1-0.1c-0.1,0.1,0,0.2,0.1,0.3L29.6,16.3z"/>
	<path class="st0" d="M29.5,16.7L29.5,16.7C29.5,16.6,29.5,16.6,29.5,16.7z"/>
	<path class="st0" d="M29.6,16.5l0,0.1C29.6,16.7,29.6,16.8,29.6,16.5C29.6,16.7,29.6,16.6,29.6,16.5z"/>
	<path class="st0" d="M29.7,16.5c0.1,0.1,0.2,0.1,0.1,0.2C30,16.6,29.8,16.4,29.7,16.5z"/>
	<path class="st0" d="M30.5,17.2l0.1,0.1l0-0.1C30.6,17.2,30.4,17.1,30.5,17.2z"/>
	<path class="st0" d="M28.9,16.4c0,0.1,0.1,0.2,0.1,0.3l0-0.1C29.1,16.6,29,16.5,28.9,16.4z"/>
	<path class="st0" d="M29.1,16.7l0,0.2C29.1,16.9,29.1,16.8,29.1,16.7z"/>
	<polygon class="st0" points="29.7,17.1 29.7,16.8 29.7,17.1 	"/>
	<polygon class="st0" points="28.6,16.4 28.6,16.7 28.6,16.5 	"/>
	<path class="st0" d="M28.2,16.3c-0.1,0-0.1,0.2-0.1,0.3c0-0.1,0.1-0.1,0.2,0C28.3,16.5,28.2,16.4,28.2,16.3z"/>
	<path class="st0" d="M28.7,16.7l0.1,0.2l0,0C28.8,16.8,28.8,16.7,28.7,16.7z"/>
	<path class="st0" d="M28.8,16.9L28.8,16.9C28.8,16.9,28.8,16.9,28.8,16.9C28.8,16.9,28.8,16.9,28.8,16.9z"/>
	<path class="st0" d="M29.5,17.4c0-0.2-0.1-0.2-0.1-0.4C29.4,17.1,29.3,17.3,29.5,17.4z"/>
	<path class="st0" d="M29.1,16.9L29,17.1l0.1,0C29.1,17.1,29.1,17,29.1,16.9z"/>
	<polygon class="st0" points="29,17.2 29,17.1 29,17.1 	"/>
	<path class="st0" d="M28.4,17c0,0.1-0.1,0.1-0.1,0.2c0.1,0,0.1,0,0.2,0C28.4,17.1,28.4,17,28.4,17z"/>
	<path class="st0" d="M28.6,17C28.6,17,28.6,17,28.6,17L28.6,17z"/>
	<polygon class="st0" points="27.8,17.4 27.8,17.3 27.7,17.3 	"/>
	<path class="st0" d="M28.5,17.2c0.1,0,0.1,0,0.1-0.1C28.5,17.1,28.5,17.1,28.5,17.2C28.5,17.2,28.5,17.2,28.5,17.2z"/>
	<path class="st0" d="M28,17c0,0,0.1,0.1,0.1,0.1C28.1,17,28,16.9,28,17z"/>
	<path class="st0" d="M28.6,16.9L28.6,16.9C28.5,16.9,28.5,16.9,28.6,16.9z"/>
	<path class="st0" d="M28.6,17.1C28.6,17.1,28.6,17,28.6,17.1c0-0.1,0-0.1,0-0.1C28.5,17,28.6,17,28.6,17.1z"/>
	<path class="st0" d="M27.8,17.7c0.1,0.1,0.3,0.2,0.3,0.4c-0.1,0.1-0.1,0-0.2-0.1c0.1,0.2-0.1,0.4,0.1,0.8l0.1-0.2
		c0,0.1,0,0.2,0.1,0.2c-0.1-0.2,0-0.4,0.2-0.2c0.1-0.2-0.2-0.8-0.4-1.1C27.8,17.4,27.8,17.5,27.8,17.7z"/>
	<path class="st0" d="M27.8,17.1c0,0.1,0,0.2,0,0.3l0.2,0l0,0l0,0C27.9,17.3,27.9,17.2,27.8,17.1z"/>
	<path class="st0" d="M28.1,17.1L28.1,17.1L28.1,17.1C28.2,17.1,28.2,17.1,28.1,17.1L28.1,17.1c0,0.1,0,0.1,0,0.1
		C28.1,17.2,28.1,17.2,28.1,17.1L28.1,17.1L28.1,17.1L28,17.3c0.1,0,0.1,0,0.2-0.1c0,0.2,0,0.3,0.1,0.6c0.1-0.1,0-0.2,0.1-0.3
		c-0.2,0.1,0-0.1-0.2-0.2c0-0.1,0.1-0.1,0.1-0.1C28.2,17.1,28.2,17.1,28.1,17.1L28.1,17.1z"/>
	<path class="st0" d="M29.4,17.6L29.4,17.6c-0.1,0-0.3-0.2-0.3-0.3c0.1,0.2,0.2,0.3,0.3,0.5C29.4,17.8,29.4,17.7,29.4,17.6
		c0.1,0.1,0.1,0.2,0.1,0.3C29.5,17.8,29.5,17.7,29.4,17.6z"/>
	<path class="st0" d="M28.7,17.7l0.1,0.2l0-0.1c0.1,0,0-0.1,0-0.2L28.7,17.7z"/>
	<polygon class="st0" points="27.6,17.3 27.7,17.2 27.6,17 	"/>
	<polygon class="st0" points="27.4,17.3 27.5,17.3 27.4,17.1 	"/>
	<path class="st0" d="M22.3,18.5c-0.1-0.2-0.2-0.5-0.2-0.2l0.1,0.2C22.2,18.5,22.2,18.5,22.3,18.5z"/>
	<path class="st0" d="M18.6,20.2L18.6,20.2c0,0,0.1-0.1,0.1-0.1C18.7,20.1,18.6,20.2,18.6,20.2z"/>
	<path class="st0" d="M12.9,21.3l-0.1,0.2C13,21.6,12.9,21.4,12.9,21.3z"/>
	<path class="st0" d="M25.3,18c-0.1-0.1-0.1-0.1-0.2-0.1C25.3,18,25.4,18.2,25.3,18z"/>
	<path class="st0" d="M25.2,17.9c-0.1-0.1-0.2-0.1-0.2,0c0,0,0,0,0,0C25.1,18,25.1,17.9,25.2,17.9z"/>
	<path class="st0" d="M24.8,19.4L24.8,19.4C24.9,19.5,24.9,19.5,24.8,19.4z"/>
	<path class="st0" d="M26.7,17.5C26.7,17.5,26.7,17.5,26.7,17.5C26.7,17.4,26.7,17.4,26.7,17.5z"/>
	<path class="st0" d="M26.6,17.5C26.6,17.5,26.6,17.5,26.6,17.5C26.6,17.5,26.6,17.5,26.6,17.5C26.6,17.5,26.6,17.5,26.6,17.5z"/>
	<path class="st0" d="M9.6,19.9C9.6,19.9,9.6,19.9,9.6,19.9C9.5,19.9,9.6,19.9,9.6,19.9z"/>
	<polygon class="st0" points="21.3,21 21.3,21 21.3,21 	"/>
	<path class="st0" d="M21.1,21.2c0-0.3,0.1-0.3,0.2-0.2l-0.1-0.6L21.1,21.2z"/>
	<path class="st0" d="M27.4,18.2L27.2,18c0.1-0.2,0.1-0.5,0.2-0.5c-0.2-0.3,0,0-0.2-0.3c0.2,0.4-0.3,0.1-0.1,0.5
		c-0.2-0.4-0.2-0.1-0.4-0.4c0,0.1,0.1,0.2,0,0.2c0,0,0,0.1,0,0.1l0,0l0,0c0,0,0,0,0,0c0,0,0.1,0.1,0.1,0.1c0,0.2-0.2,0.3-0.2,0.4
		c-0.1,0,0-0.1-0.1-0.2l0,0.2c-0.1-0.2-0.3-0.3-0.2-0.5l-0.1,0c-0.1-0.1-0.2-0.1-0.3,0c-0.1,0-0.1,0.3-0.1,0.1l-0.2,0.2l0-0.1
		c-0.2,0-0.3,0.5-0.7,0.1c-0.1,0.1-0.1,0.2-0.2,0.1l-0.1-0.2c-0.1,0.1-0.3-0.1-0.3,0.1c-0.2-0.5-0.5,0-0.6-0.1l0,0.3
		c-0.1,0-0.2,0.1-0.3,0.2l0.1,0.2c-0.1,0.2-0.3-0.1-0.5,0c0-0.1,0-0.1,0.1,0c-0.3-0.5-0.4,0.5-0.7,0.1c0,0.1-0.1,0.1-0.1,0
		c0,0,0,0,0,0l0,0c0,0-0.1-0.1-0.1-0.1c0,0.1,0.1,0.1,0.1,0.1c0,0-0.1,0-0.1,0.1l-0.1-0.2c0,0,0,0,0,0c-0.1-0.1,0,0.1,0,0.3
		c0,0,0,0.1-0.1,0.2c-0.1-0.4-0.1,0.2-0.3-0.3c0,0.2-0.3,0.2-0.3,0.6c0-0.1,0-0.1,0-0.1c-0.1,0-0.1-0.1-0.2,0.1L21.3,19l-0.1,0.4
		c-0.1-0.2-0.2-0.3-0.1-0.5c-0.2,0.4-0.2,0.2-0.3,0.5l0-0.2c-0.1,0-0.1,0.3-0.2,0.1c-0.2-0.4-0.7,0-1.1-0.3c0.1,0.6-0.2-0.3-0.2,0.2
		c0-0.1-0.1-0.2,0-0.3c-0.2,0.1-0.3-0.2-0.4,0.2c0-0.1,0-0.2,0-0.3c0,0-0.1,0.1-0.1,0c0-0.1,0-0.1,0-0.2c-0.2,0-0.2,0.5-0.2,0.9
		c-0.1-0.2-0.1-0.2-0.2,0.1c0-0.1-0.1-0.3,0-0.3c-0.1,0-0.4-0.2-0.4,0.1c0-0.1-0.1,0-0.1,0c-0.2,0-0.2,0-0.3,0l0,0.1
		c-0.1,0.4-0.1,0.1-0.2,0.1l0,0c-0.3-0.3-0.1,0.1-0.4-0.2l0,0.3c0,0.5-0.2-0.3-0.4-0.1l0.1,0.1c-0.1,0.2-0.2-0.7-0.3-0.8
		c0,0,0-0.1,0.1-0.1c-0.2-0.3,0,0.3-0.2,0.4c0-0.2,0.1-0.4-0.1-0.5c0-0.1-0.3,0.6-0.5,0.2c0,0.1,0.1,0.3,0,0.4
		c-0.1,0-0.3-0.5-0.4-0.1c0,0,0-0.1,0-0.1c-0.1,0.1-0.3,0.2-0.4,0.4c0-0.9-0.6,0.4-0.5-0.4l-0.3,0l0-0.1c-0.2-0.1-0.3,0.1-0.3,0.3
		c0-0.1,0-0.1,0-0.2c-0.2-0.2-0.3-0.2-0.5,0.2l0-0.3c-0.1,0.1-0.3-0.5-0.6-0.2c0,0,0-0.1,0-0.1c-0.3,0.3-0.5-0.8-0.8,0.1L11.7,19
		c0.2,0.1-0.1,0.4,0,0.6c-0.1,0-0.2-0.3-0.1-0.4l0,0c0.1-0.5-0.3-0.2-0.2-0.6c-0.5-0.1-0.9-0.4-1.3-0.6l0,0.4l-0.1-0.1
		c0-0.1,0-0.3,0.1-0.3c0-0.2-0.2,0.1-0.2,0.2C9.6,18.2,10,18,9.9,18l-0.1,0l0,0c-0.1,0.1-0.2,0.3-0.3,0.2c-0.1-0.1,0-0.2,0-0.3
		c0,0,0,0,0,0l-0.2-0.1l0,0.3c-0.1,0.1-0.2-0.1-0.2,0.3c0-0.5-0.7-0.4-0.7-0.6C8.3,18.1,8.2,18.1,8,18c0,0.1-0.1,0.4-0.2,0.3
		c0.3-0.7-0.1-0.4-0.1-0.9c0,0.3-0.4,0-0.4,0.5c-0.1-0.1,0.1-0.3,0-0.4c-0.3,0.2-0.5-0.4-0.8-0.4c0,0.1,0,0.2-0.1,0.3l0-0.5
		c-0.1,0-0.2,0.5-0.2,0.1c0,0.1,0,0.2-0.1,0.2c-0.4-0.6-1.3-0.1-1.6-1.2c0,0.2-0.1,0.2-0.1,0.2c0,0.1-0.1,0.2-0.1,0.3l-0.1-0.4
		c-0.2,0.3-0.3-0.1-0.4,0.2l0.1,0c-0.3,0.3-0.2,0.9-0.4,1.3c0.3-0.4,0,0.7,0.5,0.2c0,0.1-0.1,0.1-0.1,0.2C4,18.1,4.1,18,4.1,18.2
		l0,0c0.3,0.1,0.4,0.3,0.7,0.6l0.1-0.2c0.1,0.1,0.1,0.1,0.1,0.2c0.2-0.3-0.2-0.1,0-0.5c-0.1,0.5,0.5,0.2,0.4,0.8
		c0.1,0,0.1-0.3,0.2-0.2l0,0.2l0.1-0.2c0.1,0.1,0,0.3,0,0.4c0,0-0.1,0-0.1,0c0,0.2,0.3,0,0.3,0.1l-0.1-0.1c0.4,0,0.7,0.3,1.1,0.1
		l0-0.1c0.3-0.1,0.2,0.2,0.5,0.2l0,0c0.1-0.1,0.2-0.1,0.2-0.1c-0.1,0.1,0.1,0.3-0.1,0.4c0.3-0.1,0.2-0.1,0.5-0.5l0,0.2
		c0.1-0.1,0.1-0.2,0.3-0.2c-0.2,0.1,0,0.3-0.2,0.5c0.2,0.5,0.5-0.3,0.5,0.3c0.3-0.5-0.2-0.3-0.1-0.4c0-0.2,0.2-0.4,0.3-0.3
		c0.1,0,0,0.7,0.2,0.7c0,0,0,0-0.1,0C9,20.3,9.2,20,9.3,20.2c0.1-0.3,0.1,0.1,0.3-0.3l-0.2,0c0.1-0.1,0.4-0.5,0.5-0.2
		c0,0.1-0.1,0.2-0.2,0.2c0,0.1,0.1-0.1,0.2,0.1c-0.1,0.4-0.3,0-0.5,0.3c0,0.2,0.3-0.2,0.1,0.2c0.2-0.5,0.2,0.1,0.5-0.3l-0.1,0.2
		c0,0,0.1-0.1,0.2-0.1l-0.2,0.3c0.2-0.2,0.2,0.3,0.4,0.2c-0.3,0,0-0.3-0.1-0.5c0.4-0.3,0,0.7,0.4,0.6c-0.1,0-0.2-0.2-0.1-0.3
		c0.1,0.1,0.1,0.2,0.1,0.3c0.2,0,0-0.3,0.1-0.4c0,0.3,0.1-0.1,0.3-0.2l0,0.2c0.2,0.2,0.2-0.5,0.4-0.3l-0.2,0.3l0.1-0.1l-0.1,0.3
		c0.2-0.2,0.2-0.1,0.3,0c0-0.2,0.1-0.4,0.2-0.4c0.1,0.2-0.1,0.2,0.1,0.2c-0.1,0.1-0.1,0.3-0.2,0.1c0,0.1-0.1,0.1-0.1,0.2
		c0.1,0.2,0.2,0.1,0.3,0.1c0,0,0,0-0.1-0.1l0.3-0.3c0,0.1,0,0.2-0.1,0.2c0.1,0,0.1-0.1,0.2-0.1c-0.1,0.2-0.1,0.4-0.2,0.5l0.3-0.2
		c0,0.1,0.1,0.3,0,0.3c0.1,0.1,0.4-0.3,0.5-0.2c0,0,0-0.1,0.1-0.1c0.2,0.1,0.3,0.3,0.5,0.1l0.1,0.4c0.2-0.1-0.1-0.5,0.2-0.6
		c0.2-0.1,0,0.3,0.1,0.4c0.1-0.2,0.3-0.5,0.4-0.2c-0.1,0.1-0.1,0-0.2,0l0.1,0.2c-0.2,0.3-0.3,0.2-0.2,0.5c0.1-0.7,0.5,0,0.6-0.7
		l0.1,0.2c0,0,0,0-0.1,0c0.1,0.4,0.2-0.5,0.4-0.4c0.1,0.1,0.1,0.2,0.1,0.2l0.2-0.2c0,0,0,0.1,0,0.1l0.3,0l0,0c0-0.1,0.1-0.3,0.2-0.3
		c0.1,0.1,0,0.1,0,0.2l0.1-0.2c0,0.2-0.1,0.4-0.2,0.3c0.1,0.7,0.1-0.2,0.4,0.3l-0.1,0.1c0.1,0.4,0.2,0.3,0.3,0.5
		c0-0.1-0.3-0.6-0.1-0.8c0,0.1,0.1,0.1,0.2-0.1c0,0.3,0.1,0.2,0.2,0.2l0,0.3c0.1-0.1,0.1-0.3,0.2-0.4c0.1,0,0.1,0.3,0.2,0.5
		c0.2,0.1-0.1-0.4,0.1-0.5c0.2,0.1,0.3,0,0.5-0.2c0.1,0.1,0,0.2,0,0.3l0.1-0.3c0,0,0,0.1,0,0.1c0.1-0.1,0-0.3,0.1-0.4
		c0-0.4,0.3,0.5,0.4,0.1c0,0.1,0,0.2,0,0.3c0.2-0.3,0.2-0.2,0.4-0.6l0.2,0.2c-0.1-0.2,0-0.5,0.1-0.8c0-0.1-0.1-0.2-0.1-0.3l0.2-0.2
		c0,0.1,0,0.2,0,0.3c0,0,0-0.1,0-0.1c0.1,0.1,0,0.3,0,0.5c0-0.1-0.1-0.1-0.1-0.2c0,0.2-0.1,0.4-0.1,0.6c0,0,0-0.1,0.1-0.1
		c0,0.1,0,0.1,0,0.1c0,0,0,0,0.1-0.1l0.1,0.4l0-0.1l0.3,0.2c0.2-0.4,0.3-0.9,0.6-1.1c-0.1,0.3,0,0.4,0,0.8c-0.1-0.3-0.2,0.2-0.4,0.1
		c0.1,0,0.1,0.2,0.1,0.2l0.3-0.3c0,0.3,0.1,0.2,0.1,0.3c-0.1-0.5,0.2-0.4,0.3-0.5c0,0.2,0,0.4-0.1,0.3c0.2,0.4,0.2-0.6,0.3-0.3
		c0,0-0.1,0-0.1,0.1c0.1-0.2,0.3-0.1,0.2,0.1l0,0c0.2,0,0.7-0.1,0.7-0.5c0,0.1,0,0.5,0,0.6l0.2-1.5c0,0.4,0.2,1.3,0.1,1.5
		c0.1,0,0.1,0.1,0.2,0c0,0-0.1-0.5-0.1-0.6c0.2,0.4,0.1,0.2,0.3,0.6c-0.1-0.1-0.1-0.7,0-0.7c0,0.1,0.1,0.6,0.1,0.7l0.1-0.6
		c0,0.1,0.1,0.5,0.1,0.7c0-0.1,0.2,0,0.2-0.1l-0.1-0.1c0.2,0.1,0.1-0.8,0.4-0.9c0,0.1,0,0.7,0.2,0.8c0-0.3,0-1.5,0.2-1.7l0.1,0.2
		l0.1-0.2c0,0.5-0.1,1.4-0.2,1.8C23,20.9,22.9,21,23,21c0.1,0.2,0,0.3-0.1,0.3l0.3,0.1c-0.1-0.3,0.2-0.4,0.1-0.7L23.1,21
		c-0.1-0.3,0-1,0.3-1c0.1,0.1,0.1,0.6,0.1,0.7c0-0.1,0.2-0.3,0.2-0.2l-0.1,0.2c0.1,0.1,0.1-0.5,0.3-0.2c0.1,0,0.2,0.4,0.2,0.2
		c-0.2-0.4-0.4-1.6-0.4-1.9c0,0,0.3,0.3,0.4,0.5c0.1,0.3,0,0.8,0.1,1c0-0.1,0-0.2,0-0.3c0.1,0.1,0,0.3,0.1,0.2c-0.1-0.4,0.2,0,0-0.3
		c0.1-0.1,0.1,0,0.3,0c-0.1-0.2,0-0.8,0-0.9c0,0.1,0.1,0.2,0.1,0.3c0.2,0,0.4,0.1,0.6,0.1c0,0.1,0.2,0.2,0.2,0.3
		c0-0.1,0-0.2,0.1-0.2c0.2,0.3-0.1,0.1,0,0.4c0-0.2,0.1-0.3,0.2-0.5c-0.1-0.3-0.2,0-0.3,0.1c-0.1-0.4-0.1-0.9,0.1-1.2
		c0.1-0.1,0.1,0.3,0.2,0.2c0.3,0,0.1-0.8,0.4-0.6c0.2,0.2,0.2,0.5,0.2,0.7c-0.1,0.1-0.3-0.1-0.3-0.1l0.1,0.1c0,0.1-0.1,0.2-0.2,0.1
		c0.2,0.2,0.6-0.1,0.9,0.1c0-0.1,0.1-0.2,0-0.3l-0.1,0.1c-0.1-0.2,0.1-0.3-0.1-0.4c0.1-0.2,0.1-0.5,0.3-0.4l0.1,0.3
		c0-0.1-0.1-0.2-0.2,0C27.1,18.1,27.4,18.6,27.4,18.2z M9.5,18.1L9.5,18.1C9.5,18.2,9.5,18.2,9.5,18.1z M15.9,21.3
		c0.1-0.3,0.1-0.1,0.1-0.1C16,21.3,15.9,21.5,15.9,21.3z M18.8,20.6c0,0,0.1,0,0.1,0.1C18.9,20.8,18.8,20.7,18.8,20.6z M26.2,17.8
		C26.1,17.8,26.1,17.8,26.2,17.8C26.2,17.8,26.2,17.8,26.2,17.8z"/>
	<polygon class="st0" points="13,21.3 13,21.3 12.9,21.3 	"/>
	<path class="st0" d="M24.4,20.5c0,0-0.1-0.1-0.1-0.1C24.3,20.5,24.3,20.5,24.4,20.5z"/>
	<path class="st0" d="M27,17.3c0,0,0.1,0,0.1,0.1C27.1,17.3,27,17.2,27,17.3L27,17.3z"/>
	<path class="st0" d="M28.4,18.5C28.4,18.4,28.4,18.4,28.4,18.5l0-0.2C28.3,18.3,28.3,18.4,28.4,18.5z"/>
	<path class="st0" d="M27.4,18c0.1,0.2,0.1,0.1,0.2,0.1c0,0,0,0,0,0C27.5,17.8,27.4,17.9,27.4,18z"/>
	<path class="st0" d="M27.6,18C27.6,18,27.6,18,27.6,18C27.6,17.9,27.6,18,27.6,18z"/>
	<path class="st0" d="M26.5,17.7c0,0-0.1-0.3,0-0.2C26.5,17.2,26.4,17.9,26.5,17.7z"/>
	<polygon class="st0" points="27.6,18.6 27.6,18.7 27.5,18.4 	"/>
	<path class="st0" d="M27,18.6l0.1,0c0,0,0-0.1,0-0.1C27.1,18.6,27,18.6,27,18.6z"/>
	<polygon class="st0" points="27.4,18.7 27.5,18.8 27.5,18.7 	"/>
	<path class="st0" d="M25.8,19.1c0-0.1,0.1-0.1,0-0.2L25.8,19.1C25.7,19.1,25.8,19.2,25.8,19.1z"/>
	<path class="st0" d="M26.3,19.7l0-0.1c0,0-0.1-0.1-0.1-0.2L26.3,19.7z"/>
	<path class="st0" d="M26,19.7c0,0.1-0.1,0.3,0,0.2C26,19.8,26.2,19.7,26,19.7z"/>
	<polygon class="st0" points="24.1,19.7 24,19.2 24,19.7 	"/>
	<path class="st0" d="M22.6,20.8c-0.1,0.1-0.1,0.1,0,0.4c0.2,0.1,0-0.3,0.2-0.2C22.7,20.9,22.5,20.9,22.6,20.8z"/>
	<polygon class="st0" points="4.2,15.9 4.2,15.8 4.1,16 	"/>
	<path class="st0" d="M3.9,16.2L4,15.9L3.9,16.2C3.8,16.2,3.9,16.1,3.9,16.2z"/>
	<path class="st0" d="M16.2,21.8l0.1,0.2l0-0.1C16.3,21.8,16.3,21.8,16.2,21.8z"/>
	<polygon class="st0" points="14.9,21.6 15,21.6 14.9,21.3 	"/>
	<path class="st0" d="M13.7,21.9c0,0,0.1,0,0.2,0C13.8,21.9,13.8,21.5,13.7,21.9z"/>
</g>
</svg>
