<svg id="レイヤー_1" data-name="レイヤー 1" xmlns="http://www.w3.org/2000/svg" width="179.75" height="125.28" viewBox="0 0 179.75 125.28"><defs><style>.cls-1{fill:#fff;}.cls-2{fill:#485f91;}</style></defs><title>icn-info</title><ellipse class="cls-1" cx="85.25" cy="63.17" rx="72.63" ry="42.14"/><circle class="cls-1" cx="143.29" cy="39.12" r="19"/><circle class="cls-1" cx="118.92" cy="26.46" r="20.89"/><circle class="cls-1" cx="89.67" cy="21.55" r="21.55"/><circle class="cls-1" cx="70.13" cy="22.8" r="19.28"/><circle class="cls-1" cx="58.63" cy="24.15" r="21.5"/><circle class="cls-1" cx="34.06" cy="33.31" r="15.55"/><circle class="cls-1" cx="18.95" cy="46.23" r="16.34"/><circle class="cls-1" cx="17.89" cy="78.33" r="15.57"/><circle class="cls-1" cx="21.06" cy="81.93" r="21.06"/><circle class="cls-1" cx="49.03" cy="98.89" r="21.16"/><circle class="cls-1" cx="71.01" cy="103.64" r="21.64"/><circle class="cls-1" cx="93.45" cy="104.34" r="15.46"/><circle class="cls-1" cx="98.89" cy="103.71" r="19.96"/><circle class="cls-1" cx="122.68" cy="98.41" r="17.62"/><circle class="cls-1" cx="139.48" cy="90.49" r="20.3"/><circle class="cls-1" cx="157.88" cy="63.17" r="21.87"/><path class="cls-2" d="M45.44,62.81a1,1,0,0,1-.29,0,10.2,10.2,0,0,1-2-.84,1,1,0,0,1-.3-.25,1.44,1.44,0,0,1-.27-.54,1,1,0,0,1,0-.58l.08-.25a1,1,0,0,1,.55-.6,2.07,2.07,0,0,1,.74-.16h.2l.25,0,.38-1.41c-1.4-.07-2.81-.11-4.21-.14H39.05q-1.48,0-3,0l-.4.05h-.12a1,1,0,0,1-.41-.09l-.41-.18a1,1,0,0,1-.39-.31,1.6,1.6,0,0,1-.31-.74,1,1,0,0,1,0-.41q.26-1,.54-1.92a7.75,7.75,0,0,0,.3-1.75l-.27,0-.8,0a2.7,2.7,0,0,1-.8.1,4.8,4.8,0,0,1-.86-.08,1,1,0,0,1-.71-.53,2,2,0,0,1-.15-.42,1,1,0,0,1,0-.51l.13-.47a1,1,0,0,1,.42-.57,2.44,2.44,0,0,1,.79-.32l.14,0,1-.09,1.48-.18L35.41,47a1.39,1.39,0,0,1-.28-.53,1,1,0,0,1,0-.57l.1-.3a1,1,0,0,1,.57-.61,3,3,0,0,1,1.06-.22,5.93,5.93,0,0,0,1.31-.19l.16,0,3.93-.38h.6A13.37,13.37,0,0,0,45.19,44a5.82,5.82,0,0,1,1-.09,4.53,4.53,0,0,1,1.5.25,1,1,0,0,1,.58.53,5.71,5.71,0,0,1,.47,2.28l-.08,1.71c.63,0,1.14-.08,1.53-.13a2.64,2.64,0,0,1,.39,0,3.12,3.12,0,0,1,.91.14,1,1,0,0,1,.59.48,1.67,1.67,0,0,1,.19.71,1,1,0,0,1-.05.36l-.12.36a1,1,0,0,1-.23.38,1.82,1.82,0,0,1-.54.4,1,1,0,0,1-.37.09l-2.19.08c-.05.73-.12,1.43-.21,2.08s-.2,1.31-.35,2l1.37.17a1,1,0,0,1,.82.67,1.91,1.91,0,0,1,.1.55,1,1,0,0,1,0,.33l-.1.31a1,1,0,0,1-.34.49,1.49,1.49,0,0,1-.95.33l-1.39-.06a11.88,11.88,0,0,1-.45,1.73L46.59,62a1,1,0,0,1-.22.36,1.27,1.27,0,0,1-.89.42Zm-.12-7.37a1,1,0,0,1,0-.14c.16-.62.29-1.25.39-1.86a16.51,16.51,0,0,0,.18-1.79l-2.27.16a14,14,0,0,1-.3,1.82q-.19.8-.42,1.67Zm-5.5-.23,0-.11a10.31,10.31,0,0,0,.53-1.54,10.61,10.61,0,0,0,.26-1.43h-.32l-2.47.34a12.44,12.44,0,0,1-.19,1.45l-.25,1.28ZM38.2,49.54l1.31-.14c.41,0,.84-.09,1.29-.16l.05-.45,0-1.7-1.73.15-.8.11Zm5.63-2.64a1,1,0,0,1,0,.19l-.06,1.85,2.07-.14,0-1.91v-.25l-2,.22Zm-9.67-1.12a1,1,0,0,1-.41-.09l-.33-.15a1,1,0,0,1-.47-.43,2.51,2.51,0,0,1-.21-.5,1,1,0,0,1,0-.69l.14-.32a1,1,0,0,1,.35-.42,13.23,13.23,0,0,0,1.78-1.47,9.19,9.19,0,0,0,1.52-1.93l.4-.63.14-.47a1,1,0,0,1,.54-.61,1.66,1.66,0,0,1,.67-.15h0a1,1,0,0,1,.46.11l.52.27a1,1,0,0,1,.34.29,1.23,1.23,0,0,1,.18,1.19,1,1,0,0,1-.09.19l-.66,1.07h.58c1.31-.12,2.62-.25,3.91-.4s2.34-.26,3.14-.32l.41,0a3.41,3.41,0,0,1,1.44.28,1,1,0,0,1,.51.53,2.42,2.42,0,0,1,.16.79,1,1,0,0,1-.29.75,2.66,2.66,0,0,1-1.74.58q-1.55.1-4.4.35c-1.81.16-3.59.38-5.28.64h-.15a1,1,0,0,1-.35-.06l-.25-.09q-.51.47-1,.88a6.66,6.66,0,0,1-1,.68,1,1,0,0,1-.44.12Z"/><path class="cls-2" d="M78.47,59.57a1,1,0,0,1-.39-.08,12.89,12.89,0,0,0-1.79-.6,10.51,10.51,0,0,1-1.79-.63,1,1,0,0,1-.4-.33,1.55,1.55,0,0,1-.23-.48,1,1,0,0,1,0-.62L74,56.5a1,1,0,0,1,.52-.56,1.91,1.91,0,0,1,.77-.16h0l.24,0,1.32.32L76.74,55l-.33-4.58-.89.06-5.86.73h-.12a1,1,0,0,1-.39-.08L68.82,51a1,1,0,0,1-.49-.45,1.81,1.81,0,0,1-.2-.6,1,1,0,0,1,0-.41l.06-.22a1,1,0,0,1,.76-.71c1.05-.22,2.19-.4,3.38-.55l4-.49,0-1a1,1,0,0,1,.07-.4l.13-.32A1,1,0,0,1,77,45.3a1.5,1.5,0,0,1,.45-.15h.17a1,1,0,0,1,.42.09l.24.11a1,1,0,0,1,.54.64,6,6,0,0,1,.24,1.3l.87-.13H80a1,1,0,0,1,.42.09l.31.14a1,1,0,0,1,.42.37,1.43,1.43,0,0,1,.22.64,1,1,0,0,1-.06.46l-.11.27a1,1,0,0,1-.36.46,3.23,3.23,0,0,1-1.71.55l.17,3,.48,4.84a1,1,0,0,1,0,.36l-.13.48a1,1,0,0,1-.38.55,1.44,1.44,0,0,1-.66.26Zm-5.8-3.93a1,1,0,0,1-.42-.09l-.45-.21a1,1,0,0,1-.25-.17c-.48-.44-1-.87-1.51-1.27a1,1,0,0,1-.35-.52l0-.1a1,1,0,0,1,0-.59l.11-.33a1,1,0,0,1,.53-.58,2,2,0,0,1,.72-.16h0a1,1,0,0,1,.36.07,6.38,6.38,0,0,1,1.93,1.19A1.74,1.74,0,0,1,74,54.08a1,1,0,0,1-.06.42l-.15.41a1,1,0,0,1-.28.41,1.33,1.33,0,0,1-.56.29ZM61,55.13a1,1,0,0,1-.44-.1l-.28-.14a1,1,0,0,1-.43-.4,2,2,0,0,1-.26-.84l0-.75-.08-3.31c-.13-1.28-.27-2.54-.42-3.78s-.32-2.35-.53-3.47a1,1,0,0,1,0-.45l.09-.34a1,1,0,0,1,.33-.51,1,1,0,0,1,.58-.63,1.75,1.75,0,0,1,.66-.13h.62a22.66,22.66,0,0,0,2.4-.29c.74-.13,1.48-.25,2.23-.35h.13a1,1,0,0,1,.44.1l.23.11a1,1,0,0,1,.5.54,7,7,0,0,1,.46,2.23c0,.62.08,1.25.16,1.87l.08-.23a1,1,0,0,1,.58-.6,7.38,7.38,0,0,1,2-.45c.73-.06,1.53-.16,2.38-.28l-.18-1.54-.42,0c-.65.1-1.28.18-1.92.23h-.07a1,1,0,0,1-.42-.09l-.51-.24a1,1,0,0,1-.43-.39,1.76,1.76,0,0,1-.21-.53,1,1,0,0,1,0-.51l.11-.36a1,1,0,0,1,.56-.62,2,2,0,0,1,.79-.15l.35-.08.18,0a14.64,14.64,0,0,0,1.88-.16v-.12a7.53,7.53,0,0,1-.22-1.73,1,1,0,0,1,0-.34l.14-.43a1,1,0,0,1,.55-.61,1.3,1.3,0,0,1,.45-.1h.06a1,1,0,0,1,.39.08l.34.14a1,1,0,0,1,.53.53A3.73,3.73,0,0,1,74.7,37q.06.59.13,1.16h.05a4.72,4.72,0,0,1,1.37-.24c.39,0,.77,0,1.15-.08h.11a1,1,0,0,1,.41.09l.3.14a1,1,0,0,1,.47.44,1.83,1.83,0,0,1,.19.53,1,1,0,0,1-.06.57l-.12.28a1,1,0,0,1-.46.5,3.67,3.67,0,0,1-1.6.41,11.92,11.92,0,0,0-1.69.18l.15,1.64h.26l2.25-.33a13.94,13.94,0,0,1,1.55-.1h0a1,1,0,0,1,.41.09l.35.15a1,1,0,0,1,.5.5,1.62,1.62,0,0,1,.14.61,1,1,0,0,1,0,.33l-.08.25a1,1,0,0,1-.44.56,2.93,2.93,0,0,1-1.53.4h-.22l-2.31.26c-1.17.19-2.41.37-3.64.52s-2.31.31-3.42.49h-.16a1,1,0,0,1-.41-.09l-.3-.14a1,1,0,0,1-.44-.39l-.07-.13.14,1.82.16.94L68,51.07a7.45,7.45,0,0,1,0,1.52,5.14,5.14,0,0,1-.29,1.2,1,1,0,0,1-.43.51,3.15,3.15,0,0,1-1.64.43l-.44,0H64c-.49.1-1.05.18-1.61.24a10.61,10.61,0,0,0-1.18.19ZM62.07,49l.34,2.69a1,1,0,0,1,0,.13v.25h.29l1.59-.22h.16l.77,0-.09-2.81-.14-.9-.44,0-.19.09a1,1,0,0,1-.25.06l-2.1.23Zm-.67-5.92c.09.44.16.85.24,1.28a7.87,7.87,0,0,1,.11,1.37l1.73-.2a4.49,4.49,0,0,1,1.22-.21l-.08-1.18-.15-1.47h-.09a11.45,11.45,0,0,1-1.55.26Z"/><path class="cls-2" d="M91.23,58.53a1,1,0,0,1-.41-.09l-.36-.16a1,1,0,0,1-.39-.32,1.89,1.89,0,0,1-.35-.8,1,1,0,0,1,0-.32A32.68,32.68,0,0,0,89.39,52l-.29-3-.25-3.16-.31-2-.33-4.28-.38-2.76c-.11-1.55.66-1.91,1.12-2,.68-.13,1.67-.29,3-.48s2.31-.32,3.34-.45h.12a1,1,0,0,1,.42.09l.44.2a1,1,0,0,1,.46.43l.09.17a1,1,0,0,1,.12.39l.35,4.23,0,1.92.18,1.75a1,1,0,0,1-.05.43l-.08.22a1,1,0,0,1-.62.61,13.16,13.16,0,0,1-2.5.54c-1,.13-1.87.26-2.61.39l.31,3.79.27,3q.28,2.89.33,3.6c0,.41.07.82.12,1.23a1,1,0,0,1-.08.52l-.15.34a1,1,0,0,1-.27.37,1.59,1.59,0,0,1-.69.35Zm0-16,3.35-.43-.15-1.15a1,1,0,0,1,0-.24h0l-3.27.46Zm-.32-4a12.33,12.33,0,0,1,1.72-.27L94.34,38l-.1-1.14-3.49.51ZM109,57a1,1,0,0,1-.46-.11,5.12,5.12,0,0,0-1.29-.46,6.33,6.33,0,0,1-1.42-.48,1,1,0,0,1-.44-.4,2,2,0,0,1-.22-.55,1,1,0,0,1,0-.59l.12-.31a1,1,0,0,1,.49-.53,1.73,1.73,0,0,1,.78-.18l.23,0,.64.15-.06-1.14-.17-1.29-.59-5.7-.18-2.35h-.13l-2.59.42c-.87.14-1.66.24-2.35.29h-.08a1,1,0,0,1-.58-.19l-.31-.23a1,1,0,0,1-.23-.23,2.23,2.23,0,0,1-.4-1.11l-.15-3.12c-.05-.75-.13-1.49-.23-2.16s-.2-1.27-.32-1.91a1,1,0,0,1,0-.53l.11-.3a1,1,0,0,1,.52-.56,2,2,0,0,1,.7-.18h.07a1,1,0,0,1,.28,0l.3.09a16.81,16.81,0,0,1,3.14-.5,27.52,27.52,0,0,0,3.17-.42l.2,0a1,1,0,0,1,.46.11l.27.14a1,1,0,0,1,.39.36l.1.16a1,1,0,0,1,.15.48l.09,2,0,1.22,0,2.65.27,3.29.05,1.81.54,5.79.19,1.29.2,3.68a1,1,0,0,1-.07.42l-.13.33a1,1,0,0,1-.26.38,1.4,1.4,0,0,1-.9.36Zm-6.4-16.06,1.88-.32a18.68,18.68,0,0,1,1.9-.21l-.05-.82a1.12,1.12,0,0,1,0-.11v-.25h-.14l-3.73.6Zm-.33-4.64.09.82c.56-.13,1.25-.25,2-.36s1.4-.18,2-.22V36.4l-.1-.91c-.63.06-1.33.15-2.12.28l-1.9.32ZM96.52,56.48a1,1,0,0,1-.44-.1l-.37-.18a1,1,0,0,1-.4-.34,1.59,1.59,0,0,1-.26-.84l-.22-5.11c-.06-.46-.14-.93-.23-1.38s-.18-1-.26-1.53a1.43,1.43,0,0,1,.37-1.28,1,1,0,0,1,.44-.25,29,29,0,0,1,3.29-.71c1.11-.17,2.26-.32,3.4-.42h.09a1,1,0,0,1,.42.09l.32.15a1,1,0,0,1,.48.48,2.31,2.31,0,0,1,.21,1,.93.93,0,0,1,0,.13l-.08.69.55,3.1a1.13,1.13,0,0,1,0,.12l.12,2.29.27,1.31a1,1,0,0,1,0,.15l0,.52a1,1,0,0,1-.07.41l-.09.24a1,1,0,0,1-.37.46l-.21.15a1,1,0,0,1-.51.17l-2.9.16c-.57.12-1.19.24-1.82.35s-1.15.17-1.73.21Zm1.32-3,.51,0a7.78,7.78,0,0,1,1.53-.26l1.35-.09-.12-1.57-1.78.24q-.82.12-1.57.27Zm-.3-4.31h.15a9.66,9.66,0,0,1,1.62-.28l1.39-.14,0-.4-.15-1-.19,0c-.51.06-1,.14-1.6.24l-1.41.25Z"/><path class="cls-2" d="M121.45,53.61h-.15a1.2,1.2,0,0,1-.94-.56l-.45-.53a5.72,5.72,0,0,1-.92-2,19.72,19.72,0,0,1-.53-2.15c-.08-.51-.17-1.27-.24-2.25s-.11-1.83-.09-2.46.09-1.59.26-2.93a8.24,8.24,0,0,1,.7-2.8,3.23,3.23,0,0,1,.44-.62,1,1,0,0,1,.73-.31h0a1.36,1.36,0,0,1,.56.13,1.18,1.18,0,0,1,.56.53,1,1,0,0,1,.1.64,2.44,2.44,0,0,1-.1.43,6.75,6.75,0,0,0-.24,1.18q-.08.66-.29,2.05a17.77,17.77,0,0,0-.06,3.67,18,18,0,0,0,.4,3.21,11.76,11.76,0,0,0,.51,1.42,9.84,9.84,0,0,1,1-1,1,1,0,0,1,.92-.17l.11,0a1,1,0,0,1,.62.57,1.47,1.47,0,0,1,.12.57,2.67,2.67,0,0,1-.08.59,1,1,0,0,1-.16.35,3.3,3.3,0,0,1-.51.56,3.73,3.73,0,0,0-.77.89,2.77,2.77,0,0,1-.76.81,1,1,0,0,1-.53.18Zm10.37-3.05a12.86,12.86,0,0,1-2-.32,4.65,4.65,0,0,1-1.88-1l-.13-.13a1.66,1.66,0,0,1-.16-.23,1,1,0,0,1-.07-.84c0-.06,0-.13.08-.22a1,1,0,0,1,.43-.5,1.22,1.22,0,0,1,.55-.14,1.82,1.82,0,0,1,.81.23,5.23,5.23,0,0,0,1.34.36,8.58,8.58,0,0,0,1.41.15c.45,0,.8,0,1.12-.07s.64-.08,1-.14a2.26,2.26,0,0,1,.41,0,1.59,1.59,0,0,1,.55.09l.21.09a1,1,0,0,1,.53,1.12,2,2,0,0,1-.12.35,1.49,1.49,0,0,1-.58.64,3.38,3.38,0,0,1-1.38.44,15.75,15.75,0,0,1-1.93.16h-.11Zm-4-7.93-.21,0-.3-.06a1,1,0,0,1-.64-.46,1.69,1.69,0,0,1-.15-.39,1,1,0,0,1,0-.36,1.49,1.49,0,0,1,.75-1.24,14.9,14.9,0,0,1,2-.68,15.52,15.52,0,0,1,2.77-.54c.38,0,.7-.06,1-.06a2.49,2.49,0,0,1,.88.12,2,2,0,0,1,.72.41,1,1,0,0,1,.28.89,2.43,2.43,0,0,1-.05.31,3.06,3.06,0,0,1-.25.66,1,1,0,0,1-.89.54l-.2,0a1.49,1.49,0,0,1-.43-.07,1.33,1.33,0,0,1-.58-.33.26.26,0,0,0-.12,0l-.22,0-1.06.25q-.63.16-1.54.46c-.5.17-.94.33-1.32.49A1,1,0,0,1,127.82,42.62Z"/><path class="cls-2" d="M21,95.18a1,1,0,0,1-.42-.09l-.37-.17a1,1,0,0,1-.41-.36,1.5,1.5,0,0,1-.23-.77l-.7-10.46a9.32,9.32,0,0,0-.71,1.24,4.45,4.45,0,0,1-1,1.39,1,1,0,0,1-.58.26h-.1a1,1,0,0,1-.45-.1l-.34-.17a1,1,0,0,1-.41-.38,1.64,1.64,0,0,1-.21-.6,1,1,0,0,1,0-.41l.15-.54a1,1,0,0,1,.17-.34,8.71,8.71,0,0,0,.8-1.25c.24-.46.51-.93.8-1.39a25.25,25.25,0,0,0,1.87-3.54A12.67,12.67,0,0,0,19.82,74a1,1,0,0,1,1-.88,1,1,0,0,1,.4.08l.36.15a1,1,0,0,1,.51.49,2.15,2.15,0,0,1,.2,1.13,11.5,11.5,0,0,1-.64,2.85q-.45,1.24-.95,2.52l.12.08a1,1,0,0,1,.31.34,3.06,3.06,0,0,1,.39,1.51l.83,11.52a1,1,0,0,1-.06.41l-.1.29a1,1,0,0,1-.37.49,1.43,1.43,0,0,1-.62.24Zm13.65-.66a1,1,0,0,1-.43-.1,7.67,7.67,0,0,0-1.52-.53,6.69,6.69,0,0,1-1.56-.58,1,1,0,0,1-.38-.35,1.63,1.63,0,0,1-.2-.49,1,1,0,0,1,0-.52l.12-.38a1,1,0,0,1,.56-.62,1.77,1.77,0,0,1,.55-.14h.09a1,1,0,0,1,.29,0l1,.31,0-1.06-.62-6.45-.2-3-.46-3.86h-.09c-1.42.16-2.86.33-4.3.52s-2.65.3-3.8.38h-.06a1,1,0,0,1-.46-.11l-.31-.16a1,1,0,0,1-.47-.52,1.59,1.59,0,0,1-.09-.75,1,1,0,0,1,0-.2l.09-.29a1,1,0,0,1,.81-.69c1.61-.24,3.38-.48,5.28-.71s4.09-.45,6.15-.62h.08a1,1,0,0,1,.49.13l.32.18a1,1,0,0,1,.36.34,1.44,1.44,0,0,1,.21.65,1,1,0,0,1-.07.46l-.14.36a1,1,0,0,1-.2.32,1.67,1.67,0,0,1-1.19.55v.08L34.91,80l.27,3.83c.52,6,.68,7.85.73,8.3a4.39,4.39,0,0,1-.13,1.63,1,1,0,0,1-.35.52,1.21,1.21,0,0,1-.62.25ZM24.63,88.09a1,1,0,0,1-.51-.14l-.32-.19a1,1,0,0,1-.27-.23,1.55,1.55,0,0,1-.29-.58,1,1,0,0,1,0-.62,2.73,2.73,0,0,0,.12-1.45c-.11-.52-.21-1.1-.29-1.72s-.15-1-.23-1.53a1,1,0,0,1,0-.46l.09-.31a1,1,0,0,1,.56-.63,10,10,0,0,1,2.77-.73l3.07-.34h.1a1,1,0,0,1,.46.11l.39.2a1,1,0,0,1,.44.44,1.86,1.86,0,0,1,.19.91l0,1.53.21,2.11a1.1,1.1,0,0,1,0,.12v.54a1.54,1.54,0,0,1,.25.84,1,1,0,0,1,0,.33l0,.15a1,1,0,0,1-.61.64,11.63,11.63,0,0,1-2.9.63c-1,.09-2.06.22-3.06.38Zm1.08-5.47L26,85l.2,0a4.58,4.58,0,0,1,1.16-.14h.2a3.37,3.37,0,0,0,.9-.12V83l-.09-.85-.41,0-2.27.29Z"/><path class="cls-2" d="M47.77,91.25a1,1,0,0,1-.31,0,2,2,0,0,1-.3-.13A10.53,10.53,0,0,1,45.42,90a1,1,0,0,1-.17-.16,4.42,4.42,0,0,1-.4-.58,1,1,0,0,1,.53-1.44l.29-.07h.16a1,1,0,0,1,.38.07,6.34,6.34,0,0,1,1,.53,9.77,9.77,0,0,0,1.41-6.62,4.07,4.07,0,0,0-.25-1.27,4.14,4.14,0,0,0-.67-1.08,2.23,2.23,0,0,0-1.07-.26,2.82,2.82,0,0,0-.46,0l-.64.23c-.08.92-.21,1.94-.39,3.06a20,20,0,0,1-.81,3.28,1,1,0,0,1-.29.43,1.35,1.35,0,0,1-.56.29,1,1,0,0,1-.67-.06l-.32-.15a1,1,0,0,1-.43-.39,1.67,1.67,0,0,1-.2-.52,1,1,0,0,1,0-.49,25.25,25.25,0,0,0,.6-2.5c.14-.72.23-1.38.28-2a8.27,8.27,0,0,1-1.39.56,1,1,0,0,1-.73-.07l-.26-.13a1,1,0,0,1-.4-.36,1.56,1.56,0,0,1-.19-.43,1,1,0,0,1,0-.6,1.83,1.83,0,0,1,.54-.85l.12-.08a12.35,12.35,0,0,1,1.12-.55L43,77.16c.06-.49.1-1,.11-1.54a6.18,6.18,0,0,1,.2-1.41,1,1,0,0,1,.51-.63,1.35,1.35,0,0,1,.36-.12l.19,0a1,1,0,0,1,.42.09l.29.14a1,1,0,0,1,.48.48,3,3,0,0,1,.25,1.36l-.09.84a6.92,6.92,0,0,1,.8,0,6,6,0,0,1,1.05.09,4.26,4.26,0,0,1,1.58.55,3.25,3.25,0,0,1,1,1,8,8,0,0,1,.76,1.77,7.38,7.38,0,0,1,.4,2q0,.79,0,1.92a16.41,16.41,0,0,1-2,6.22,8.79,8.79,0,0,1-.81,1.09A1,1,0,0,1,47.77,91.25ZM59,79.8a1,1,0,0,1-.29,0,2.12,2.12,0,0,1-1-.66,27.89,27.89,0,0,0-2.59-2.25q-1.39-1.06-2.05-1.52a2.44,2.44,0,0,1-.75-.78,1,1,0,0,1-.08-.79l.08-.26a1,1,0,0,1,.43-.55,1,1,0,0,1,.55-.15,1,1,0,0,1,.37.07h0c.13,0,.32.11.6.23a10.4,10.4,0,0,1,1.87,1.19c.77.58,1.55,1.21,2.32,1.87l.09.09a8,8,0,0,0,1,.94,1.89,1.89,0,0,1,.71,1.1,1,1,0,0,1,0,.55L60.2,79a1,1,0,0,1-.34.47,1.47,1.47,0,0,1-.74.29Z"/><path class="cls-2" d="M71.07,89.15a1.45,1.45,0,0,1-.42-.06,1,1,0,0,1-.41-.24c-.09-.08-.23-.19-.42-.38a3.88,3.88,0,0,1-1.3-1,1.43,1.43,0,0,1-.15-1,1,1,0,0,1,.59-.75,1.47,1.47,0,0,1,.59-.12,1,1,0,0,1,.31,0,5.08,5.08,0,0,1,.93.46A9.06,9.06,0,0,0,72,82.36,17.31,17.31,0,0,0,72,79.17a5.89,5.89,0,0,0-.69-2.28,1.89,1.89,0,0,0-.92-.24,2.24,2.24,0,0,0-.44,0l-.72.2a23.58,23.58,0,0,1-.5,3.33c-.23,1-.51,2.12-.82,3.23a1,1,0,0,1-.3.48,1.34,1.34,0,0,1-.48.27,1,1,0,0,1-.3,0,1,1,0,0,1-.45-.11L66,84a1,1,0,0,1-.4-.37,1.72,1.72,0,0,1-.23-.61,1,1,0,0,1,0-.41L66,80.14a22.32,22.32,0,0,0,.42-2.32,5,5,0,0,1-1.45.42h-.14a1,1,0,0,1-.45-.11l-.3-.15a1,1,0,0,1-.41-.38,1.92,1.92,0,0,1-.23-.57,1,1,0,0,1,0-.53,1.88,1.88,0,0,1,.43-.77,1,1,0,0,1,.31-.2c.2-.09.59-.23,1.11-.39l1.34-.44a11.8,11.8,0,0,1,.06-2.52,2.33,2.33,0,0,1,.13-.36,1,1,0,0,1,.91-.59H68a1,1,0,0,1,.3.1,1.84,1.84,0,0,1,.82.73,1,1,0,0,1,.07.16A6.2,6.2,0,0,1,69.3,74l1.28-.16h.24a4.22,4.22,0,0,1,2.12.9,1,1,0,0,1,.22.23,9.12,9.12,0,0,1,1.15,2.24,12.25,12.25,0,0,1,.44,3,14.34,14.34,0,0,1-.49,4.24A10.43,10.43,0,0,1,72,88.65,1.21,1.21,0,0,1,71.07,89.15Zm9.61-9.85h-.14a1.57,1.57,0,0,1-.62-.21l-.16-.13c-.09-.09-.4-.36-.9-.78s-1.29-1.12-2.3-2-1.77-1.59-2.27-2.06a4.16,4.16,0,0,1-.79-.93,1,1,0,0,1-.08-.81l.07-.21a1,1,0,0,1,.49-.58,1.64,1.64,0,0,1,.44-.15l.19,0a1,1,0,0,1,.42.09l.4.19a1,1,0,0,1,.22.14c.71.59,1.2,1,1.48,1.28a23.84,23.84,0,0,0,2.6,2.3,14.29,14.29,0,0,1,2,1.71,1.37,1.37,0,0,1,.17,1.53,1,1,0,0,1-.22.31A1.34,1.34,0,0,1,80.68,79.3Zm-.29-4.42A1,1,0,0,1,80,74.8l-.39-.16a1,1,0,0,1-.36-.25,6.65,6.65,0,0,0-1.15-1,2.61,2.61,0,0,1-1-1.19,1,1,0,0,1,0-.68l.07-.22a1,1,0,0,1,.53-.6,1.7,1.7,0,0,1,.61-.15h.06a1,1,0,0,1,.25,0,1.92,1.92,0,0,1,.74.4L81,72.44l.06,0a1,1,0,0,1,.53.48,1.44,1.44,0,0,1,.13.42,1,1,0,0,1,0,.49l-.09.26a1,1,0,0,1-.31.44,1.39,1.39,0,0,1-.8.31Zm1.76-2a1,1,0,0,1-.28,0,2.35,2.35,0,0,1-1.13-.75,3.4,3.4,0,0,1-1.2-1.43,1,1,0,0,1,0-.72l.07-.22a1,1,0,0,1,.55-.61,1.66,1.66,0,0,1,.67-.13L81,69a1.81,1.81,0,0,1,1,.56l.66.73.25.14a1,1,0,0,1,.31.31,1.54,1.54,0,0,1,.23.65,1,1,0,0,1,0,.43l-.09.28a1,1,0,0,1-.33.47,1.32,1.32,0,0,1-.64.27Z"/><path class="cls-2" d="M90.32,87.51l-.39,0-.11,0a3,3,0,0,1-1.28-.67l-.1-.1a3.07,3.07,0,0,1-.61-1.18,5.18,5.18,0,0,1-.06-1.79,7.51,7.51,0,0,1,.65-2.28,8.45,8.45,0,0,1,1.52-2.24,9.67,9.67,0,0,1,1-.94q.42-.33.9-.66l.19-.1v-.19l-.31-2q-.13-.88-.29-1.7h0c-.71.15-1.29.28-1.73.41a10.65,10.65,0,0,1-1.3.29h-.15a2.12,2.12,0,0,1-1.11-.3,1,1,0,0,1-.34-.33,1.51,1.51,0,0,1-.2-.48,1,1,0,0,1,.07-.63,1.31,1.31,0,0,1,.92-.83l1.32-.28,1.79-.36V71a11.46,11.46,0,0,0-.35-1.41,1.8,1.8,0,0,1,0-1.07,1,1,0,0,1,.66-.69,1.66,1.66,0,0,1,.51-.08h.13a1.32,1.32,0,0,1,1,.51,3.59,3.59,0,0,1,.28.44,2.33,2.33,0,0,1,.23.92,6.7,6.7,0,0,0,.15.91h.39A13.36,13.36,0,0,1,95,70.33c.45-.06.78-.12,1-.17l.23,0a1,1,0,0,1,.53.15l.25.13a1,1,0,0,1,.4.43,1.47,1.47,0,0,1,.15.56,1,1,0,0,1-.1.51,1.71,1.71,0,0,1-.6.71,3.15,3.15,0,0,1-1.36.34c-.5,0-1,.11-1.48.21v0a12.17,12.17,0,0,1,.35,1.73q.11.81.2,1.38A6.49,6.49,0,0,1,96,76a11.4,11.4,0,0,1,1.35-.08h.32a5.67,5.67,0,0,1,2.29.59,7.59,7.59,0,0,1,1.91,1.4,5.84,5.84,0,0,1,1.44,2.38,7.42,7.42,0,0,1,.3,2.84,15.36,15.36,0,0,1-.33,1.53,4.48,4.48,0,0,1-.61,1.34,1,1,0,0,1-.21.23,1.44,1.44,0,0,1-.79.32h-.09a1,1,0,0,1-.44-.1l-.34-.16a1,1,0,0,1-.44-.42,1.33,1.33,0,0,1-.16-.6,1,1,0,0,1,.06-.38l.19-.51a1,1,0,0,1,.08-.16A2.81,2.81,0,0,0,101,83a7.45,7.45,0,0,0,0-1.22,6.34,6.34,0,0,0-.37-1.21,3.23,3.23,0,0,0-.66-1,4.94,4.94,0,0,0-1.46-.88,3.26,3.26,0,0,0-1.16-.21,3.89,3.89,0,0,0-.53,0,6.64,6.64,0,0,0-1.94.5v2.09a9.24,9.24,0,0,1-.47,2.68A5.7,5.7,0,0,1,93,86.09a5.63,5.63,0,0,1-1.62,1.23A2.7,2.7,0,0,1,90.32,87.51Zm.11-2.67.15-.09.22-.17a1,1,0,0,1,.21-.31,3.73,3.73,0,0,0,.74-.92c.14-.29.25-.53.33-.73a2.92,2.92,0,0,0,.15-.91q0-.47,0-1a3.8,3.8,0,0,0-.76.69,6.42,6.42,0,0,0-.76,1.35,5.08,5.08,0,0,0-.4,2l.06.12ZM104,75.75a1,1,0,0,1-.6-.2q-.75-.56-1.52-1.08c-.55-.37-1-.66-1.33-.84a3.34,3.34,0,0,1-.42-.26,1,1,0,0,1-.39-.71s0-.15,0-.18a1,1,0,0,1,.09-.42l.13-.29a1,1,0,0,1,.54-.51,1.7,1.7,0,0,1,.34-.09h.11a1,1,0,0,1,.28,0l.64.22a9.18,9.18,0,0,1,1.42.76,6.61,6.61,0,0,1,1.31,1c.25.26.38.42.44.51a1,1,0,0,1,.2.6,2,2,0,0,1,0,.3,1,1,0,0,1-.09.28l-.12.26a1,1,0,0,1-.39.42,1.38,1.38,0,0,1-.37.16A1,1,0,0,1,104,75.75Z"/><path class="cls-2" d="M114.5,85.25a9,9,0,0,1-2.57-.37,6.48,6.48,0,0,1-2.18-1,5.46,5.46,0,0,1-.85-.78,1,1,0,0,1-.12-.2,1.65,1.65,0,0,1-.13-.42,1,1,0,0,1,0-.52l.12-.34a1,1,0,0,1,1.39-.55,4.52,4.52,0,0,1,.62.4,7.57,7.57,0,0,0,2,.91,5.86,5.86,0,0,0,1.8.28,7.15,7.15,0,0,0,1.24-.11,15.87,15.87,0,0,0,1.54-.45,4.44,4.44,0,0,0,1.27-.67,2.36,2.36,0,0,1,.79-.44,1,1,0,0,1,.57,0,5.27,5.27,0,0,1,.55.19,1,1,0,0,1,.52.48,1.49,1.49,0,0,1,.14.47,1,1,0,0,1,0,.46l-.07.21a1,1,0,0,1-.34.47,8.68,8.68,0,0,1-2.58,1.36,12.65,12.65,0,0,1-3.17.58Zm1.74-12.06a1,1,0,0,1-.4-.08L115.5,73a1,1,0,0,1-.45-.38,1.49,1.49,0,0,1-.19-.48,1,1,0,0,1,0-.44,2.54,2.54,0,0,1,.54-1.06,7.42,7.42,0,0,0,.52-.71,11.68,11.68,0,0,0-3-.4H112c-.87,0-1.76,0-2.63-.08a1,1,0,0,1-.89-.7s0-.18-.05-.22a1,1,0,0,1,0-.26,1.76,1.76,0,0,1,.41-1.07,1,1,0,0,1,.65-.29h.14c.22,0,.5,0,.79,0h1.8a25.5,25.5,0,0,1,2.87.21,8.16,8.16,0,0,1,3.53,1.28,1,1,0,0,1,.28.27,1.64,1.64,0,0,1,.28.91,1,1,0,0,1-.07.39,5.38,5.38,0,0,1-.82,1.38c-.36.45-.7.92-1,1.39a1,1,0,0,1-.31.31,1.37,1.37,0,0,1-.53.21Z"/><path class="cls-2" d="M131.38,84a7.81,7.81,0,0,1-1-.06,2.45,2.45,0,0,1-1.54-.91,4,4,0,0,1-.71-1.4,3.37,3.37,0,0,1,0-1.54,3.3,3.3,0,0,1,1.06-1.7,3.81,3.81,0,0,1,2-1,6.06,6.06,0,0,1,1-.08,7.43,7.43,0,0,1,1.29.12,8.17,8.17,0,0,1,2,.65l.24-.87a5.52,5.52,0,0,0,.14-1.44,2,2,0,0,0-.79-1.51,3,3,0,0,0-2-.74H133a7,7,0,0,0-4.37,1.71,7,7,0,0,1-1.2,1l-.81.46a1,1,0,0,1-1,0l-.3-.18a1,1,0,0,1-.45-.59,1.27,1.27,0,0,1,0-.61,1.7,1.7,0,0,1,.65-.95,20.22,20.22,0,0,0,2-2.27c1-1.2,1.91-2.41,2.81-3.61a1,1,0,0,1,.36-.3,6.68,6.68,0,0,0,.81-1.35,7.28,7.28,0,0,0-1.71.35,17.26,17.26,0,0,1-1.72.49l-.22,0a1,1,0,0,1-.55-.17l-.27-.18a1,1,0,0,1-.29-.3,1.39,1.39,0,0,1-.19-.45,1,1,0,0,1,0-.23,1.76,1.76,0,0,1,.18-.7,1,1,0,0,1,.46-.47,2.58,2.58,0,0,1,.52-.21q.66-.19,1.94-.51a8.39,8.39,0,0,1,1.9-.28h.13a6.5,6.5,0,0,1,1.19.14,1.58,1.58,0,0,1,.82.51,4.91,4.91,0,0,1,.51.71,1,1,0,0,1,.13.61,5.51,5.51,0,0,1-.16,1,5,5,0,0,1-1.18,2.2c-.43.49-.86,1-1.25,1.54.32-.06.64-.1.94-.12l.41,0a6,6,0,0,1,1.2.13,5.28,5.28,0,0,1,1.71.71,6.66,6.66,0,0,1,1.56,1.4,4.1,4.1,0,0,1,.92,2,8.21,8.21,0,0,1,0,2.5,7.36,7.36,0,0,1-1,2.75,9,9,0,0,1-2,2.26A6.35,6.35,0,0,1,133,83.76,6.47,6.47,0,0,1,131.38,84Zm.67-4.13a1.73,1.73,0,0,0-1.13.45c-.35.34-.23.56-.17.67a.78.78,0,0,0,.76.34,3.74,3.74,0,0,0,1.44-.31L134,80.2a4.22,4.22,0,0,0-1.75-.36Z"/><path class="cls-2" d="M145.84,83h-.29a2.05,2.05,0,0,1-1.18-.62,2.59,2.59,0,0,1-1-1.79,1.08,1.08,0,0,1,0-.24,2.79,2.79,0,0,1,.69-1.51,1,1,0,0,1,.18-.17,2.86,2.86,0,0,1,1.68-.5h.17a3.23,3.23,0,0,1,1.46.48,1,1,0,0,1,.25.23,2.68,2.68,0,0,1-.1,3.4l-.08.08A2.52,2.52,0,0,1,145.84,83Zm0-6.1a1,1,0,0,1-.45-.11l-.31-.15a1,1,0,0,1-.42-.39,2.25,2.25,0,0,1-.27-1.42,18.69,18.69,0,0,1,.52-2.52,6.45,6.45,0,0,1,1.93-3.07,10,10,0,0,0,1.74-1.91,1.86,1.86,0,0,0,.27-1.06,2.71,2.71,0,0,0-.52-1.2,2.12,2.12,0,0,0-1.14-.89,3.19,3.19,0,0,0-.94-.14,4,4,0,0,0-.62,0,4.14,4.14,0,0,0-1.35.41,2.57,2.57,0,0,0-.87.88,2,2,0,0,0-.35,1.22,4,4,0,0,1-.08,1.11,1,1,0,0,1-.28.49,1.25,1.25,0,0,1-.9.45,1,1,0,0,1-.52-.14l-.2-.12a2,2,0,0,1-.65-.84,2.7,2.7,0,0,1-.12-1.56,5.79,5.79,0,0,1,.41-1.5,6.89,6.89,0,0,1,.93-1.38,4.83,4.83,0,0,1,2-1.36,6.39,6.39,0,0,1,2.34-.45h.33a6,6,0,0,1,2.42.6,6.1,6.1,0,0,1,1.79,1.35,5.11,5.11,0,0,1,1,1.61,4.22,4.22,0,0,1,.22,1.76,4.7,4.7,0,0,1-.59,1.92A7,7,0,0,1,150,70.18q-.72.7-1.38,1.38a3.42,3.42,0,0,0-.85,1.4,9.67,9.67,0,0,0-.34,1.56,5.08,5.08,0,0,1-.47,1.56,1.46,1.46,0,0,1-.55.64A1,1,0,0,1,145.89,76.87Z"/><path class="cls-2" d="M156.32,82h-.38a2,2,0,0,1-1.09-.61,2.58,2.58,0,0,1-1-1.79,1.05,1.05,0,0,1,0-.24,2.82,2.82,0,0,1,.68-1.51,1,1,0,0,1,.19-.17,2.87,2.87,0,0,1,1.68-.49h.16a3.23,3.23,0,0,1,1.46.48,1,1,0,0,1,.25.23,2.69,2.69,0,0,1-.1,3.4l-.08.08A2.53,2.53,0,0,1,156.32,82Zm.92-6.26a1,1,0,0,1-.25,0,1,1,0,0,1-.71-.69,3.17,3.17,0,0,1-.05-1.18q.14-1.31.5-5.53c.25-2.92.42-4.62.55-5.34s.21-1.24.27-1.5a2,2,0,0,1,.36-.79,1.52,1.52,0,0,1,.66-.51,2.64,2.64,0,0,1,.83-.17h.06a1,1,0,0,1,.48.12,1.15,1.15,0,0,1,.4.3,2.3,2.3,0,0,1,.45,1,5.72,5.72,0,0,1,0,1.76c-.09.77-.31,2.12-.67,4s-.64,3.35-.85,4.27-.41,1.78-.6,2.51a3.25,3.25,0,0,1-.71,1.49A1,1,0,0,1,157.24,75.77Z"/><path class="cls-2" d="M105.06,10.83a10.85,10.85,0,0,1-1.38,1.75c-.48.54-1,1.06-1.42,1.61a17.46,17.46,0,0,0-2.34,3.57,5.15,5.15,0,0,1,.39-2.25,7.15,7.15,0,0,1,1.19-2A9.86,9.86,0,0,1,103.16,12,15.32,15.32,0,0,1,105.06,10.83Z"/><path class="cls-2" d="M70.88,8.86A8.5,8.5,0,0,1,70,7.77c-.28-.37-.54-.74-.83-1.08a9,9,0,0,0-2-1.83,4.13,4.13,0,0,1,2.38,1.51A8.57,8.57,0,0,1,70.88,8.86Z"/><path class="cls-2" d="M76.74,5.16a10.84,10.84,0,0,1-1.38,1.75c-.48.54-1,1.06-1.42,1.61A17.46,17.46,0,0,0,71.6,12.1,5.15,5.15,0,0,1,72,9.85a7.15,7.15,0,0,1,1.19-2,9.85,9.85,0,0,1,1.66-1.54A15.31,15.31,0,0,1,76.74,5.16Z"/><path class="cls-2" d="M37.79,19.46a13.3,13.3,0,0,1-.08,2.45c-.07.8-.15,1.58-.17,2.35s0,1.55,0,2.34.14,1.57.2,2.4a7.16,7.16,0,0,1-1-2.29,9.29,9.29,0,0,1-.23-2.49,11,11,0,0,1,.4-2.45A17.86,17.86,0,0,1,37.79,19.46Z"/><path class="cls-2" d="M139.79,26.16a13.34,13.34,0,0,1-.42-2.44c-.09-.79-.25-1.54-.37-2.41a3.81,3.81,0,0,1,1.11,2.31,5,5,0,0,1,0,1.29A6.38,6.38,0,0,1,139.79,26.16Z"/><path class="cls-2" d="M23.76,31a13.34,13.34,0,0,1-2.39-.62c-.76-.24-1.5-.41-2.35-.66a3.81,3.81,0,0,1,2.57-.06,5,5,0,0,1,1.17.54A6.38,6.38,0,0,1,23.76,31Z"/><path class="cls-2" d="M86.08,118.82a10.85,10.85,0,0,1,1.15-1.91c.41-.6.83-1.17,1.2-1.77a17.47,17.47,0,0,0,1.87-3.84,5.15,5.15,0,0,1-.1,2.28,7.15,7.15,0,0,1-.93,2.1,9.85,9.85,0,0,1-1.45,1.74A15.32,15.32,0,0,1,86.08,118.82Z"/><path class="cls-2" d="M110.79,110.78a8.49,8.49,0,0,1,1,1c.32.33.63.66,1,1a9,9,0,0,0,2.21,1.56,4.13,4.13,0,0,1-2.55-1.2A8.57,8.57,0,0,1,110.79,110.78Z"/><path class="cls-2" d="M50.07,107.72a10.84,10.84,0,0,1,2,1c.63.36,1.23.74,1.86,1.07a17.46,17.46,0,0,0,4,1.58,5.15,5.15,0,0,1-2.28.07,7.15,7.15,0,0,1-2.16-.77,9.86,9.86,0,0,1-1.84-1.32A15.32,15.32,0,0,1,50.07,107.72Z"/><path class="cls-2" d="M136.74,109.71a7.79,7.79,0,0,1,.46-1.75c.19-.55.39-1.08.56-1.62s.34-1.07.51-1.62.29-1.12.48-1.72a5.5,5.5,0,0,1,0,3.66,7.26,7.26,0,0,1-.81,1.65A9.32,9.32,0,0,1,136.74,109.71Z"/><path class="cls-2" d="M53.47,113.67A13.34,13.34,0,0,1,54.2,116c.19.77.45,1.49.67,2.34a3.81,3.81,0,0,1-1.4-2.15,5,5,0,0,1-.15-1.28A6.38,6.38,0,0,1,53.47,113.67Z"/><path class="cls-2" d="M154.74,84.76a13.33,13.33,0,0,1,2.45.32c.78.15,1.54.21,2.41.36a3.81,3.81,0,0,1-2.54.38,5,5,0,0,1-1.23-.39A6.38,6.38,0,0,1,154.74,84.76Z"/></svg>