<?xml version="1.0" encoding="utf-8"?>
<!-- Generator: Adobe Illustrator 22.1.0, SVG Export Plug-In . SVG Version: 6.00 Build 0)  -->
<svg version="1.1" id="icn-line" xmlns="http://www.w3.org/2000/svg" xmlns:xlink="http://www.w3.org/1999/xlink" x="0px" y="0px"
	 width="38.4px" height="36.6px" viewBox="0 0 38.4 36.6" style="enable-background:new 0 0 38.4 36.6;" xml:space="preserve">
<style type="text/css">
	.st0{fill:#424242;}
	.st1{fill:#FFFFFF;}
</style>
<g>
	<g id="TYPE_A_1_">
		<g>
			<path class="st0" d="M38.4,15.6C38.4,7,29.8,0,19.2,0C8.6,0,0,7,0,15.6C0,23.3,6.8,29.8,16.1,31c0.6,0.1,1.5,0.4,1.7,0.9
				c0.2,0.5,0.1,1.2,0.1,1.7c0,0-0.2,1.4-0.3,1.6c-0.1,0.5-0.4,1.9,1.7,1c2.1-0.9,11.1-6.5,15.1-11.2h0C37.1,22.1,38.4,19,38.4,15.6
				"/>
			<g>
				<path class="st1" d="M15.3,11.4H14c-0.2,0-0.4,0.2-0.4,0.4v8.4c0,0.2,0.2,0.4,0.4,0.4h1.3c0.2,0,0.4-0.2,0.4-0.4v-8.4
					C15.7,11.6,15.5,11.4,15.3,11.4"/>
				<path class="st1" d="M24.6,11.4h-1.3c-0.2,0-0.4,0.2-0.4,0.4v5L19,11.6c0,0,0,0,0,0c0,0,0,0,0,0c0,0,0,0,0,0c0,0,0,0,0,0
					c0,0,0,0,0,0c0,0,0,0,0,0c0,0,0,0,0,0c0,0,0,0,0,0c0,0,0,0,0,0c0,0,0,0,0,0c0,0,0,0,0,0c0,0,0,0,0,0c0,0,0,0,0,0c0,0,0,0,0,0
					c0,0,0,0,0,0c0,0,0,0,0,0c0,0,0,0,0,0c0,0,0,0,0,0c0,0,0,0,0,0h-1.3c-0.2,0-0.4,0.2-0.4,0.4v8.4c0,0.2,0.2,0.4,0.4,0.4h1.3
					c0.2,0,0.4-0.2,0.4-0.4v-5l3.8,5.2c0,0,0.1,0.1,0.1,0.1c0,0,0,0,0,0c0,0,0,0,0,0c0,0,0,0,0,0c0,0,0,0,0,0c0,0,0,0,0,0
					c0,0,0,0,0,0c0,0,0,0,0,0c0,0,0,0,0,0c0,0,0.1,0,0.1,0h1.3c0.2,0,0.4-0.2,0.4-0.4v-8.4C25,11.6,24.8,11.4,24.6,11.4"/>
				<path class="st1" d="M12.1,18.5H8.4v-6.7c0-0.2-0.2-0.4-0.4-0.4H6.7c-0.2,0-0.4,0.2-0.4,0.4v8.4v0c0,0.1,0,0.2,0.1,0.3
					c0,0,0,0,0,0c0,0,0,0,0,0c0.1,0.1,0.2,0.1,0.3,0.1h0h5.4c0.2,0,0.4-0.2,0.4-0.4v-1.3C12.4,18.6,12.3,18.5,12.1,18.5"/>
				<path class="st1" d="M32,13.5c0.2,0,0.4-0.2,0.4-0.4v-1.3c0-0.2-0.2-0.4-0.4-0.4h-5.4h0c-0.1,0-0.2,0-0.3,0.1c0,0,0,0,0,0
					c0,0,0,0,0,0c-0.1,0.1-0.1,0.2-0.1,0.3v0v8.4v0c0,0.1,0,0.2,0.1,0.3c0,0,0,0,0,0c0,0,0,0,0,0c0.1,0.1,0.2,0.1,0.3,0.1h0H32
					c0.2,0,0.4-0.2,0.4-0.4v-1.3c0-0.2-0.2-0.4-0.4-0.4h-3.7V17H32c0.2,0,0.4-0.2,0.4-0.4v-1.3c0-0.2-0.2-0.4-0.4-0.4h-3.7v-1.4H32z
					"/>
			</g>
		</g>
	</g>
</g>
</svg>
