<?xml version="1.0" encoding="utf-8"?>
<!-- Generator: Adobe Illustrator 22.1.0, SVG Export Plug-In . SVG Version: 6.00 Build 0)  -->
<svg version="1.1" id="icn-fb" xmlns="http://www.w3.org/2000/svg" xmlns:xlink="http://www.w3.org/1999/xlink" x="0px" y="0px"
	 width="35.1px" height="35.1px" viewBox="0 0 35.1 35.1" style="enable-background:new 0 0 35.1 35.1;" xml:space="preserve">
<style type="text/css">
	.st0{fill:#424242;}
	.st1{fill:#FFFFFF;}
</style>
<g>
	<g>
		<path id="Blue_2_" class="st0" d="M33.2,35.1c1.1,0,1.9-0.9,1.9-1.9V1.9c0-1.1-0.9-1.9-1.9-1.9H1.9C0.9,0,0,0.9,0,1.9v31.2
			c0,1.1,0.9,1.9,1.9,1.9H33.2z"/>
		<path id="f_1_" class="st1" d="M24.2,35.1V21.5h4.6l0.7-5.3h-5.2v-3.4c0-1.5,0.4-2.6,2.6-2.6l2.8,0V5.5c-0.5-0.1-2.2-0.2-4.1-0.2
			c-4,0-6.8,2.5-6.8,7v3.9h-4.6v5.3h4.6v13.6H24.2z"/>
	</g>
</g>
</svg>
