<?xml version="1.0" encoding="utf-8"?>
<!-- Generator: Adobe Illustrator 22.1.0, SVG Export Plug-In . SVG Version: 6.00 Build 0)  -->
<svg version="1.1" id="icn-personal" xmlns="http://www.w3.org/2000/svg" xmlns:xlink="http://www.w3.org/1999/xlink" x="0px"
	 y="0px" width="29.4px" height="29.3px" viewBox="0 0 29.4 29.3" style="enable-background:new 0 0 29.4 29.3;"
	 xml:space="preserve">
<style type="text/css">
	.st0{fill:#565656;}
</style>
<g>
	<path class="st0" d="M11.4,24.7c0.3,0.1,0.5,0.1,0.6,0.1c0.1,0,0.2-0.1,0.2-0.2c0-0.1,0-0.4,0-0.7c0-0.4,0.1-0.9,0.4-1.4
		c0.2-0.5,0.5-1.1,0.7-1.6c0.3-0.6,0.6-1.2,0.8-1.7c0.2-0.5,0.5-1.1,0.8-1.6c0.3-0.5,0.6-1,1-1.5c0.4-0.5,0.8-1,1.4-1.4
		c-0.5-0.5-1-0.9-1.7-1.2C14.9,13.2,14.4,13,14,13c-0.5,0.2-1,0.5-1.4,0.9c-0.4,0.4-0.7,0.9-1,1.3c-0.3,0.4-0.5,0.9-0.7,1.3
		c-0.2,0.4-0.3,0.7-0.3,0.9c-0.2,0.8-0.4,1.5-0.6,2.1c-0.2,0.6-0.3,1.1-0.4,1.5c-0.1,0.4-0.2,0.7-0.2,1c0,0.2-0.1,0.5-0.1,0.6
		c0,0.4,0.1,0.8,0.4,1c0.2,0.3,0.5,0.5,0.8,0.7C10.8,24.5,11.1,24.7,11.4,24.7z"/>
	<path class="st0" d="M19,9.5c0.4-0.4,0.8-0.8,1.2-1.1c0.4-0.4,0.8-0.6,1-0.8c-0.2-0.2-0.5-0.4-0.8-0.6c-0.4-0.2-0.7-0.4-1.2-0.6
		C18.9,6.1,18.4,6,18,5.8c-0.4-0.1-0.8-0.2-1.1-0.2c-0.1,0.3-0.3,0.6-0.4,1c-0.1,0.4-0.3,0.7-0.4,1C16.1,8,16,8.3,16,8.6
		c-0.1,0.3-0.1,0.5-0.1,0.7c0,0.1,0,0.3,0.1,0.5c0.1,0.2,0.2,0.3,0.3,0.4c-0.1,0.2-0.1,0.4-0.1,0.5c0,0.1,0.1,0.3,0.3,0.5
		c0.2,0.2,0.5,0.3,0.7,0.3c0.1-0.1,0.3-0.4,0.6-0.7C18.2,10.3,18.6,9.9,19,9.5z"/>
	<path class="st0" d="M29,14.4l0,0.2C29.2,14.7,29.1,14.6,29,14.4z"/>
	<path class="st0" d="M29.2,13.9c0.1-0.3,0-0.8-0.2-0.9C29.2,13.3,29.1,13.7,29.2,13.9z"/>
	<polygon class="st0" points="29.1,13.5 28.9,13.3 29,13.5 	"/>
	<polygon class="st0" points="28.9,13.7 29,13.7 28.8,13.3 	"/>
	<path class="st0" d="M28.9,12l0.1,0.3c-0.1,0.3-0.2-0.2-0.2,0c0.1,0.4,0.2,0.1,0.3,0.6c0.1-0.1-0.1-0.8,0.1-0.7
		C29.1,11.8,29,12.2,28.9,12z"/>
	<path class="st0" d="M10.9,2.1c-0.1,0-0.1,0-0.2,0c0,0,0.1,0,0.1,0L10.9,2.1z"/>
	<path class="st0" d="M18.9,1.6c0,0-0.1-0.1-0.2-0.1C18.8,1.6,18.9,1.6,18.9,1.6z"/>
	<path class="st0" d="M2.5,21.2C2.5,21.2,2.5,21.2,2.5,21.2L2.5,21.2L2.5,21.2L2.5,21.2z"/>
	<path class="st0" d="M6.4,5C6.4,5,6.3,5.1,6.3,5.1C6.4,5.1,6.4,5,6.4,5z"/>
	<path class="st0" d="M27.4,7.4c0-0.1-0.1-0.1-0.1-0.2C27.3,7.3,27.3,7.3,27.4,7.4z"/>
	<path class="st0" d="M27.3,7.2c0-0.2,0.1-0.3-0.2-0.4l0,0.1c0-0.1-0.2-0.2-0.3-0.3c0,0,0,0,0,0.1c0,0.1,0.1,0.1,0.1,0.3
		C27,7.1,27.2,7.1,27.3,7.2z"/>
	<path class="st0" d="M15.7,1.3C15.7,1.3,15.8,1.3,15.7,1.3L15.7,1.3z"/>
	<path class="st0" d="M22.5,3.4L22.5,3.4C22.4,3.4,22.5,3.4,22.5,3.4z"/>
	<path class="st0" d="M24.2,26.3c-0.1,0.1-0.2,0.1-0.3,0.1c-0.1,0.3,0.4-0.3,0.2,0c0.1-0.1,0.2-0.1,0.2-0.2L24.2,26.3
		C24,26.4,24.3,26.2,24.2,26.3z"/>
	<path class="st0" d="M3,22.7L3,22.7c-0.1,0-0.1,0,0,0.2c0.2,0.1,0.1-0.2,0.4,0c0,0-0.1-0.1-0.1-0.2C3.3,22.8,3.2,22.8,3,22.7z"/>
	<path class="st0" d="M3.3,22.7L3.3,22.7C3.3,22.6,3.3,22.6,3.3,22.7c0-0.1,0-0.1,0-0.2C3.2,22.5,3.3,22.6,3.3,22.7z"/>
	<path class="st0" d="M5.5,3.4c0-0.1,0.1-0.1,0.1-0.1C5.5,3.3,5.5,3.3,5.5,3.4z"/>
	<path class="st0" d="M1.8,20.1c0,0,0-0.1,0-0.1c0,0,0-0.1,0-0.1L1.8,20.1z"/>
	<path class="st0" d="M8.7,25.9c-0.2,0.1,0.1,0,0.2,0.2l0.2,0C9,26,8.8,26,8.7,25.9z"/>
	<polygon class="st0" points="24.4,26.3 24.4,26.3 24.4,26.3 	"/>
	<path class="st0" d="M2.8,21.7c-0.1-0.2-0.2-0.4-0.3-0.6l0.1,0.2C2.6,21.3,2.6,21.6,2.8,21.7z"/>
	<path class="st0" d="M29.4,14.7l-0.1-0.1c-0.1,0.2-0.2,0.6-0.1,0.9c-0.1-0.3-0.3,0.4-0.4,0.3l0.1,0.1c-0.3,0.7-0.5,1.6-0.9,2.4
		c0.1,0.6-0.4,0.9-0.4,1.5c0.2,0.2,0,0.1-0.2,0.6c0.1-0.3-0.1-0.1-0.2,0c0,0.1,0,0.2-0.1,0.4c-0.1,0.1-0.6,0.5-0.6,0.8
		c-0.2,0.2,0-0.1,0-0.2c-0.2,0-0.1,0.3-0.2,0.3c0,0,0,0,0,0c-0.2,0.4-0.5,0.6-0.8,1c0.1,0.2-0.2,0.4-0.3,0.6c0-0.1-0.2,0.2-0.4,0.2
		l-0.1,0.3c-0.1,0.3-0.3,0.2-0.5,0.5l0.1,0c-0.1,0.2-0.7,0.6-1,0.6c-0.8,0.9-1.6,1.3-2.4,1.6c-0.4,0.1-0.8,0.3-1.3,0.4
		c-0.2,0.1-0.5,0.1-0.7,0.2c-0.3,0.1-0.5,0.1-0.8,0.2c-0.1,0.1,0.1,0.1,0,0.2c-0.2,0.1-0.3,0.1-0.5,0.1c0.2,0,0.2-0.1,0.1,0l0.3-0.1
		c0,0,0,0,0,0c0.1,0,0.2-0.1,0.4-0.1c-0.2,0.1-0.2,0.3-0.5,0.3c0,0,0.1,0,0.1-0.1c-0.2,0-0.2,0.1-0.4,0.1c-0.2,0-0.2,0-0.2,0l-0.7,0
		c0.1,0,0.3-0.1,0.5-0.1c-0.1-0.1,0.2-0.2,0-0.1l-0.4,0.1l0.1-0.1c-0.3,0-0.2,0.1-0.5,0.1c0,0.1,0.1,0.1-0.2,0.2
		c0.2-0.1,0.4-0.1,0.5-0.1c-0.3,0.3-0.7,0.1-0.9,0.1c0.1-0.1,0.4-0.1,0.6-0.2c-0.1,0-0.2,0-0.2-0.1l0,0.1l-0.3,0l0,0
		c0,0-0.1,0.1-0.2,0.1c0,0-0.1,0,0-0.1l-0.2,0.1c0.1-0.1-0.2,0-0.2-0.2c-0.8,0-1,0.1-1.7-0.1c0.1,0.1-0.2,0.2-0.5,0.1
		c-0.1-0.1-0.1-0.1-0.1-0.1l-0.3,0c-0.3-0.2-0.7-0.2-1.2-0.4l0-0.1c-0.2,0-0.4,0-0.7-0.1l0.1-0.1c-0.3-0.2-0.3,0.1-0.7-0.1
		c0,0.1,0.2,0.3,0.2,0.4c0-0.2-0.4-0.3-0.4-0.2c-0.4-0.1-0.3-0.1-0.3-0.1c-0.1,0-0.2,0-0.2,0c-0.2-0.1,0-0.2,0.1-0.2
		c-0.3,0-0.5-0.2-0.7-0.3l0.1,0l-0.3-0.2c-0.3,0-0.6-0.2-0.8-0.4l0.3,0c-0.1-0.2-0.1,0-0.2,0c-0.3-0.1-0.4-0.2-0.5-0.4
		c-0.5-0.2-0.7-0.9-1.2-1l0-0.1c-0.6-0.3-0.9-1-1.5-1.2c-0.2-0.8-0.6-0.2-0.8-1l0,0c-0.6-1-1.2-2.2-1.5-3.3
		c-0.3-1.2-0.6-2.3-0.7-3.5l0.1,0C2.1,11.5,3.4,8,6,5.5C6.2,5.2,5.9,5.2,6.1,5c0.1-0.1,0.3-0.3,0.4-0.2c-0.2,0.2,0,0.2,0,0.2
		c0.3-0.3,0.8-0.5,1-0.8L7.1,4.3C7.2,4.1,7.4,4,7.5,4C7.5,4,7.7,4,7.6,4.1c0.5-0.7,0.6-0.2,1-0.6c0-0.3,0.6-0.8,1.1-1.2
		c0.1,0,0.2,0,0.3,0c-0.4,0.1,0.1,0.1-0.4,0.3c0.4-0.1,0.7-0.3,1-0.4c-0.1,0-0.1-0.1,0-0.2c0.2,0,0.3,0,0.5,0C11.2,2,11.1,2,11,2.1
		c0.2,0,0.3-0.1,0.4-0.2c0.1,0.1,0.5,0,0.4,0.1c0.3-0.2,0.4-0.2,0.8-0.3c-0.4,0,0.1-0.1,0-0.2c-0.1,0-0.3,0.1-0.4,0.1
		c0.6-0.1-0.2,0.1-0.1,0.2c-0.3,0,0.3-0.4-0.1-0.2c0.6-0.2,0.7-0.1,1.3-0.4c-0.4,0.1,0.1-0.1-0.1-0.1c0.5-0.1,0.1,0,0.3,0.1
		c0.3,0,0.4,0.1,0.6-0.1c0.4,0-0.1,0.1,0.2,0.2c-0.1,0.1-1.1,0-1,0.3c-0.2,0-0.4,0.2-0.7,0.2c0.3,0,0.6,0.1,1-0.1l0-0.2
		c0.2,0,0.3-0.2,0.5-0.2c-0.1,0.1,0.1,0.1,0.3,0.1c-0.1,0-0.1,0-0.1-0.1c0.4,0,0.4-0.2,0.9-0.2c-0.4,0-0.4-0.1-0.8-0.2
		c0.1-0.1,0.2,0,0.4-0.1c0,0-0.1,0,0,0.1L14.7,1c0.5,0-0.1,0.2,0.3,0.3c0.3,0.1,0.4,0,0.6,0c0,0,0,0,0,0c0,0,0.1,0,0.1,0l0,0
		c0.2,0,0.5,0,0.6-0.1c0,0,0.2,0,0.3,0c0.1,0,0.5-0.1,0.7,0.1l0,0c0.3,0.1,0.5,0.2,0.4,0.2c0.2,0,0.3,0.1,0.5,0.2L18,1.8
		c0.4,0.1,0.4,0,0.7-0.1c0.3,0.1,0.8,0.3,1,0.3c0,0,0.1,0,0.2,0.1L19.8,2c0.3,0.1,0.3,0,0.5,0.1c0,0,0,0,0.1,0c0,0,0,0-0.1,0
		c0,0,0,0,0.1,0.1l0,0c0,0,0.1,0,0.1,0.1c0,0-0.1,0-0.1,0l0,0.1c0.2,0.3,0.4,0.1,0.7,0.3c0,0-0.1,0-0.1,0c0.1,0.1,0.3,0.4,0.4,0.3
		c0,0,0.1,0,0.2,0l0.1,0.1c0,0-0.1-0.1-0.1-0.1c0.1,0,0.2,0,0.2,0l0.4,0.2c0.1,0.1,0.2,0.1,0.3,0.1l0,0.1c0.1,0.1,0.1,0.1,0.1,0.1
		c0.3,0.5,0.7,0.4,1.1,0.9c0.1,0,0-0.2,0-0.2c0.1,0,0.4,0.2,0.6,0.3c0.1,0.3,0.6,0.9,0.4,1c0.3,0.4,0-0.2,0.2-0.1l0,0
		c-0.1-0.1-0.1-0.3-0.2-0.4C24.7,4.8,25,5.1,25,5.2l-0.2,0c0.3,0.3,0.4,0.1,0.8,0.2c0.2,0.3,0,0.2-0.1,0.4c0.1,0.1,0.2,0.2,0.3,0.3
		l-0.1,0.1c0.2,0.2,0.3,0.2,0.5,0.5c-0.2-0.1,0.2,0.5-0.1,0.3c0.1,0.2,0.3,0.1,0.2,0.3c0.2,0,0-0.2-0.1-0.3c0.1-0.2,0.3,0.3,0.5,0.5
		c-0.1,0.1-0.2-0.1-0.1,0.2c0.1,0,0.2,0.1,0.2,0.3c0.1-0.1,0.2,0.2,0.2,0.4c0-0.2-0.1-0.4,0-0.4c0.1,0.1,0.2,0.2,0.3,0.5l0-0.2
		c0.3,0.2,0.1,0.5,0.3,0.8c-0.1-0.1-0.2-0.2-0.3-0.3c0.1,0.1,0.3,0.4,0.5,0.6l0,0.4c0.1,0,0.1,0.3,0.2,0.3c0.1,0.4-0.2-0.2-0.3-0.2
		c0.1,0.5,0.3,0.3,0.3,0.8l-0.2-0.1c0,0.1,0.2,0.4,0.1,0.4c0,0,0-0.1,0-0.2c0.2,0,0.3,0.6,0.5,0.5l0-0.2c0.1,0.3,0.3,0.5,0.3,0.8
		c0,0.2-0.2-0.1-0.3-0.2c0.1,0.3,0.3,0.2,0.4,0.6c0-0.2,0.1-0.2,0.2-0.1c0-0.2-0.1-0.7-0.2-0.6l0,0.1c-0.1,0-0.1-0.1-0.2-0.2
		c-0.1-0.3,0.1-0.2,0.1-0.2c-0.1-0.5-0.2,0-0.3-0.4l0-0.1c-0.1-0.2-0.2-0.5-0.4-0.5c0.1-0.2-0.2-0.4-0.2-0.7
		c0.3-0.2,0.2,0.7,0.5,0.9c0-0.2,0.2,0.1,0.3,0.2l-0.4-0.7c0-0.1,0.1-0.3-0.1-0.4l0,0.1C28.1,9.1,28,9.2,27.9,9c0,0,0.1,0,0.1,0
		c-0.1-0.2-0.2-0.1-0.2-0.3c-0.1-0.2,0.2,0,0.1-0.1c-0.2-0.2-0.2-0.4-0.3-0.6c-0.1,0.2-0.7-0.7-0.6-0.2l-0.4-0.4
		c0-0.2,0.4,0.2,0.5,0l0.2,0.4c0.2-0.2-0.6-0.7-0.6-1.1c-0.1-0.2-0.1-0.1-0.3-0.6l-0.1,0.2c-0.1-0.2-0.1-0.3,0-0.4
		c-0.1-0.1-0.2-0.2-0.2-0.3c0,0,0.1,0,0.2,0.1c0-0.2-0.1-0.2-0.2-0.2c-0.1,0-0.2-0.2-0.3-0.3L26,5.2c-0.1-0.1-0.2-0.1-0.2-0.1
		c0,0-0.1-0.1-0.1-0.1c0,0.1,0,0.2,0.1,0.4c-0.3-0.5-0.6-0.8-0.9-1.2c0.1,0,0.3,0,0.2,0c-0.2-0.2-0.4-0.3-0.5-0.2
		c0,0-0.1-0.1-0.1-0.1c0-0.1,0-0.1-0.1-0.2c0,0,0-0.1-0.1-0.1c-0.2,0.1-0.5-0.3-0.6-0.3c0.1,0.1,0.2,0.2,0.3,0.2
		c-0.2,0-0.4,0-0.5-0.2c0.3,0.1-0.2-0.4,0.3-0.1c-0.2-0.4-0.2,0-0.5-0.3l-0.2-0.2c0.1-0.1,0.4,0.2,0.3,0.1l-0.2-0.1
		c0.2,0,0.7,0.5,1.1,0.6C24.2,3.2,24,3,23.8,2.8c-0.9-0.6-2-1.3-3-1.5l0,0c0,0,0,0-0.1,0.1l0,0c-0.1,0-0.1,0-0.2,0
		C20.4,1.2,20,1,19.8,0.8C19.9,1,19.9,1,19.9,1.1c-0.1,0.1-0.1,0.1-0.4,0c0-0.1,0.2,0,0-0.2C19.6,1,19.5,1,19.4,1
		C19.3,0.9,19,0.8,19,0.7c0.1,0,0.1,0,0.2,0.1c0.1,0-0.3-0.2,0-0.2l-0.3-0.1c-0.2-0.1,0.1-0.1,0.1-0.1c-0.5-0.1-0.8,0-1.3,0
		c0,0,0.1-0.2,0.1-0.2c-0.3-0.1-0.8,0.1-1.2,0c0.1,0,0.2,0,0.3,0c-0.6-0.1-1.2-0.1-1.7-0.2c-0.6,0-1.1,0-1.7-0.1l-0.3,0.2l-0.3-0.1
		c-0.6,0-1.2,0.1-1.7,0.3c-0.5,0.1-1,0.4-1.5,0.6C9.3,1.2,9.4,1,9.2,1c-0.7,0.3-0.8,0.6-1.5,1C7.8,2,7.9,1.7,7.6,1.9
		c0,0.1,0,0.2-0.2,0.3L7.4,2c-0.2,0-0.3,0.2-0.7,0.4c-0.6,0.4-1,0.9-1.3,1.5C5,4.3,5.4,3.7,5.3,3.7c0.4-0.2,0.2-0.2,0.2-0.3
		C5.4,3.6,5.2,3.8,5,3.8C4.8,4,4.6,4.1,4.5,4.4c0.1-0.2,0.2-0.2,0.2,0C4.5,4.5,4.1,5,3.9,4.9C3,6,2,7.5,1.4,9c0,0.3,0.1-0.2,0.1,0
		c0,0.4-0.2,0.3-0.2,0.6l0-0.2c-0.2,0.4-0.2,1-0.2,1.4c-0.1-0.1-0.2,0.3-0.1,0c0,0.2-0.6,0.4-0.5,0.6l0.5-0.1c0,0-0.1,0.3,0,0.3
		c-0.1,0.2-0.3,0.4-0.3,0.5c-0.1,0-0.1-0.3,0-0.5c-0.2-0.1-0.2,0.6-0.4,0.3c0,0.4,0.1,0,0.1,0.2l-0.1,0.3l0.1-0.3
		c0,0.3,0.1,0.4,0,0.8c0,0.1,0.1,0.3,0.2,0.4c-0.2,0,0,0.3-0.1,0.5l-0.1-0.1c0,0.3,0,0.4-0.1,0.6c-0.1-0.2,0-0.3-0.1-0.3l-0.1,0.3
		c0.1,0,0.1,0.2,0.2,0c0.1,0.3,0.3,0.4,0.3,1.1c-0.1,0.3-0.1-0.3-0.3-0.2c0,0.7,0.4,0.9,0.5,1.3c0,0.5,0.2,0.5,0.2,1
		c-0.1-0.1,0,0.4-0.1,0.5l-0.2-0.2c0.1,0.2,0.1,0.3,0,0.3c0.1-0.1,0.3,0.7,0.5,1L1.3,19c0.1,0.3,0.3,0.6,0.4,0.9
		c0.2,0.4,0.3,0.3,0.5,0.5c0,0.2-0.1,0.3-0.3,0.2c0-0.1-0.1-0.3-0.2-0.5c-0.3-0.5-0.7-0.9-0.8-1.4c-0.3-0.2,0.1,0.4,0.2,0.7
		c0,0,0,0,0,0c0,0,0,0,0,0.1C1,19.3,0.9,19,0.7,18.9c0.1,0.3,0.3,0.2,0.4,0.6c0.2,0.3,0.1,0.6,0.1,0.8c0.2,0.2,0.4,0.1,0.6,0.6
		l-0.2-0.1c0.3,0.6,0.3,0.2,0.6,0.7c-0.1-0.2,0.2,0.1,0.1-0.2c0.1,0.1,0.4,0.5,0.5,0.7c0.1,0.1,0.1,0,0.1,0
		c-0.1-0.3-0.4-0.4-0.4-0.7l-0.2-0.1c-0.1-0.3,0-0.4,0.2-0.3c0-0.1-0.1-0.1-0.1-0.2C2.5,20.5,2.3,21,2.6,21l-0.1-0.2
		c0.1-0.2,0.3,0.4,0.5,0.6C3,21.8,3.2,22,3.1,22.1l-0.3-0.3c0,0.2,0.3,0.4,0.4,0.6c0,0,0,0,0,0.1c0,0,0,0,0,0c0,0,0,0.1,0,0.1
		c0.1,0.2,0.4,0.4,0.5,0.6l0.1-0.1l-0.1,0c-0.1-0.2-0.2-0.4-0.1-0.3c0.3,0.3,0.2,0.5,0.2,0.6c-0.2,0-0.3-0.3-0.4-0.5
		c0,0.2,0.3,0.4,0.5,0.8c-0.2,0-0.3-0.4-0.5-0.4c0.2,0.3,0.3,0.3,0.6,0.7c-0.1,0-0.3-0.3-0.4-0.2L3.7,24c-0.4-0.5-0.1,0.2-0.4-0.1
		c0.1,0.2,0.3,0.2,0.4,0.5c0-0.1-0.1-0.4,0.2-0.2l0.2,0.3c0,0.2-0.4-0.2-0.3,0.1l0.3,0.2c0,0-0.1-0.2,0.1-0.2
		c0.1,0.2,0.4,0.1,0.6,0.3C4.9,25,5,25.1,5,25.2C5.5,25.4,6,25.8,6.5,26c-0.3-0.1-0.1,0.1,0,0.3c-0.3-0.2-0.4-0.1-0.5,0
		c0.2,0.1,0.4,0.1,0.4,0c0.3,0.3,0.3,0.1,0.5,0.3c0.1,0.2-0.2,0.1-0.2,0.2C7,27,6.9,26.7,7.2,27c0,0-0.1,0-0.1,0
		c0.2,0.2,0.4,0.2,0.5,0.2c0.1,0.3,0.6,0.3,0.5,0.5c0.5,0.2,0-0.1,0.1-0.2c0.3,0,0.6,0.3,0.7,0.4c-0.1-0.1-0.3-0.1-0.4-0.2l0,0.2
		c0.6,0.4,0.5-0.1,1.1,0.3c-0.4-0.1-0.2,0.1-0.4,0.1c0.1,0,0.6,0.2,0.3,0c0.2,0.1,0.4,0.2,0.6,0.3c0.2,0,0.5,0.1,0.6,0
		c0.3,0.1,0.6,0.3,0.7,0.4c0.4,0.1,0.7,0.1,1.1,0.2c0.4,0.1,0.7,0.2,1.2,0.1l-0.1,0c0.6,0.1-0.3-0.2,0.4-0.2
		c-0.1,0.2,0.4,0.1,0.6,0.2c0.8,0,1.4-0.1,2.1-0.2c0,0,0,0.1-0.2,0.1c0.6,0,1-0.1,1.5-0.2l0,0c0.4,0,0.8-0.1,1.2-0.3
		c0.4-0.2,0.7-0.4,1.1-0.5c-0.1,0,0,0.1-0.1,0.2c0.4-0.1,1-0.4,1.2-0.7c0.5-0.1,0.3-0.2,0.9-0.4c0,0,0,0.1-0.1,0.1
		c0.3-0.1,0.5-0.3,0.8-0.4c0.5-0.5,0.5-0.8,1.2-1.3c0.2,0.2-0.3,0.4-0.2,0.5c0.1-0.1,0.2-0.3,0.4-0.4c0,0.2,0,0.1,0,0.2
		c0.2-0.1,0.4-0.7,0.4-0.6c0,0-0.1,0-0.2,0.1c0-0.2,0.6-0.5,0.8-0.9c-0.1,0.1-0.4,0.4-0.4,0.2c0.4-0.4,0.3-0.6,0.5-1
		c0.4-0.3-0.1,0.4,0.1,0.4c0.1,0,0.3-0.1,0.2,0.1c0.3-0.3,0.4-0.7,0.6-1l0,0c0.3-0.5,0.5-1.1,0.8-1.4l-0.2,0.2
		c0-0.1,0.2-0.3,0.2-0.5c0.1,0.1,0.3-0.2,0.3-0.1c-0.1-0.3,0.4-1.2,0.3-1.5c0.1-0.1,0.2,0,0.2,0.1c-0.2,0.3-0.3,0.4-0.2,0.6
		c0.1-0.3,0.3-0.4,0.3-0.4c0-0.3,0.1-1,0-1.2c0.1-0.2,0.3-0.3,0.4-0.2c0.2-0.9-0.5,0.3-0.2-0.6c0.2-0.4,0.1,0.5,0.3-0.1l0,0.1
		c0.4-0.4-0.2-0.4,0-0.8c0.2,0,0,0.4,0.3,0.1c0-0.5-0.2-0.7-0.1-1.2l0.1,0.1c0-0.3,0.1-0.9,0.1-1.2c0,0,0,0,0,0.1
		C29.4,14.9,29.2,15.2,29.4,14.7z M26.1,5.4L26.1,5.4L26.1,5.4L26.1,5.4z M22.4,3.3L22.4,3.3C22.5,3.3,22.6,3.3,22.4,3.3z M19.5,1.8
		c0.4,0.1,0.2,0.1,0.3,0.2c-0.3-0.2-0.6-0.2-0.9-0.4c0,0,0,0.1,0,0.1c-0.1,0-0.2-0.1-0.3-0.2C18.9,1.4,19.7,2,19.5,1.8z"/>
	<path class="st0" d="M28.3,11.5l-0.1-0.1l0,0.2c0.2,0.3,0.3,0.4,0.4,0.4c-0.1-0.3-0.2-0.5-0.3-0.9L28.3,11.5z"/>
	<path class="st0" d="M29,10.9L29,10.9L29,11.1C29,11,29,10.9,29,10.9z"/>
	<path class="st0" d="M27.4,6.6L27.5,7C27.6,7,27.5,6.6,27.4,6.6z"/>
	<path class="st0" d="M27.1,8.6l0.1,0.1c0-0.2-0.1-0.4-0.2-0.4C27.2,8.6,27.1,8.4,27.1,8.6z"/>
	<path class="st0" d="M26.8,5.7c-0.2,0-0.2-0.3-0.3-0.3C26.5,5.5,26.6,5.8,26.8,5.7z"/>
	<path class="st0" d="M25.9,6.7c0,0.2,0.2,0.2,0.3,0.4C26.1,7,26,6.7,25.9,6.7z"/>
	<path class="st0" d="M25.1,4.4c0.1-0.1,0.2,0.1,0.3,0.2c-0.1,0-0.1,0-0.2-0.1c0.3,0.2,0.3,0.2,0.5,0.3c-0.1-0.2-0.3-0.5-0.2-0.6
		C25.3,4.3,25,4.2,25.1,4.4z"/>
	<path class="st0" d="M25.6,6.3c0.1,0.2,0.1,0.3,0.2,0.5c0-0.1,0.1-0.2-0.1-0.4l0.1,0C25.7,6.1,25.8,6.6,25.6,6.3z"/>
	<path class="st0" d="M25.3,4c-0.3-0.2-0.6-0.5-0.8-0.5l0.1,0.1C24.8,3.7,25.1,4,25.3,4z"/>
	<path class="st0" d="M25.3,5.7c-0.2-0.2,0.1-0.1-0.1-0.3L25,5.5c0.2,0.2,0,0,0.1,0C25.1,5.6,25.2,5.7,25.3,5.7z"/>
	<path class="st0" d="M24.1,4.8l0.1,0.3c0.3,0.2,0.1-0.1,0.2-0.1L24.1,4.8z"/>
	<path class="st0" d="M23.6,4.4c0.3,0.1,0.3,0.1,0.5,0.2l0,0L23.6,4.4z"/>
	<path class="st0" d="M19.3,0.7c0.1,0-0.3-0.2-0.1-0.1C19.1,0.7,19.4,0.8,19.3,0.7z"/>
	<path class="st0" d="M19.9,2.2C19.8,2.1,19.3,2,19.1,2C19.4,2.1,19.9,2.3,19.9,2.2z"/>
	<path class="st0" d="M11,2.3c0.1,0,0.4-0.1,0.4-0.2c-0.2,0.1-0.4,0.2-0.6,0.3C10.9,2.4,11.1,2.4,11,2.3z"/>
	<path class="st0" d="M9.3,3c0.1-0.1,0.2-0.1,0.1-0.2C9.3,2.9,9.2,3,9.3,3z"/>
	<path class="st0" d="M0.2,12.9c-0.1,0.2,0,0.3,0.1,0.3C0.3,12.9,0.2,13,0.2,12.9z"/>
	<polygon class="st0" points="0.2,13.4 0.2,13.6 0.3,13.4 	"/>
	<path class="st0" d="M0.1,14.9C0.1,14.9,0.1,14.8,0.1,14.9C0.1,14.9,0.1,14.9,0.1,14.9z"/>
	<path class="st0" d="M0.1,14.6L0.1,14.6C0,14.7,0,14.7,0.1,14.6C0,14.7,0,14.7,0.1,14.6z"/>
	<path class="st0" d="M0,15.1l0.1,0.2L0.2,15C0.1,14.7,0.2,15.4,0,15.1z"/>
	<path class="st0" d="M0.8,17.7c-0.1-0.8-0.4-0.3-0.4-1.1c-0.1,0.4-0.1-0.2-0.2-0.3c0,0.3,0.3,0.6,0.1,0.8
		C0.5,17.8,0.6,16.8,0.8,17.7z"/>
	<path class="st0" d="M0.5,16.1c-0.1,0-0.1,0.3,0,0.4C0.5,16.4,0.6,16.2,0.5,16.1z"/>
	<polygon class="st0" points="0.5,17.7 0.5,17.9 0.6,18 	"/>
	<path class="st0" d="M0.7,18.5l-0.2-0.2C0.6,18.4,0.7,18.7,0.7,18.5z"/>
	<path class="st0" d="M1.1,19.7c0,0,0,0.2-0.2,0C1,20,1.3,20,1.1,19.7L1.1,19.7z"/>
	<path class="st0" d="M2.5,22.1c-0.1-0.1-0.2-0.3-0.2-0.2l0.2,0.3L2.5,22.1z"/>
	<path class="st0" d="M2.9,21.8c0.1-0.2-0.2-0.3-0.3-0.5C2.8,21.5,2.8,21.5,2.9,21.8z"/>
	<path class="st0" d="M2.3,22.3c0,0.1,0.1,0.3,0.2,0.3C2.4,22.5,2.4,22.4,2.3,22.3z"/>
	<path class="st0" d="M3.5,23.5c-0.3-0.3-0.7-0.3-0.6-0.6c-0.1,0-0.3-0.1-0.4-0.2c0.2,0.3,0.3,0.1,0.4,0.3c0,0.1-0.1,0-0.1,0.1
		c0.1,0.3,0.3,0.5,0.5,0.6C3.3,23.7,3.4,23.5,3.5,23.5z"/>
	<path class="st0" d="M3.1,22.5c0.1-0.2-0.2-0.3-0.3-0.4l0,0.2C2.9,22.2,3,22.4,3.1,22.5z"/>
	<path class="st0" d="M4.8,25.1C4.7,25,4.6,25,4.6,24.9c0.1,0.1,0.3,0.2,0.4,0.3L4.8,25.1z"/>
	<polygon class="st0" points="4.7,25.1 4.7,25.2 5.1,25.4 	"/>
	<polygon class="st0" points="4.8,25.3 5.1,25.5 5.1,25.5 	"/>
	<path class="st0" d="M5.5,25.9c0.1,0.1,0.3,0.2,0.3,0.3l0-0.1C5.7,26.1,5.6,25.8,5.5,25.9z"/>
	<path class="st0" d="M9.6,26.4l0.2-0.1c0,0-0.1,0-0.1-0.1C9.5,26.3,9.6,26.3,9.6,26.4z"/>
	<path class="st0" d="M10.4,26.7c-0.3-0.1-0.4-0.1-0.7-0.2c0.1,0.1,0.3,0.1,0.5,0.2l-0.1,0L10.4,26.7z"/>
	<path class="st0" d="M29.1,16.7C29.1,16.7,29.1,16.7,29.1,16.7C29.1,16.7,29.1,16.7,29.1,16.7z"/>
	<path class="st0" d="M29.1,16.7c0,0,0.1,0,0.1-0.1C29.2,16.4,29.1,16.6,29.1,16.7z"/>
</g>
</svg>
