<?xml version="1.0" encoding="utf-8"?>
<!-- Generator: Adobe Illustrator 22.1.0, SVG Export Plug-In . SVG Version: 6.00 Build 0)  -->
<svg version="1.1" id="heart" xmlns="http://www.w3.org/2000/svg" xmlns:xlink="http://www.w3.org/1999/xlink" x="0px" y="0px"
	 viewBox="0 0 6.4 7" style="enable-background:new 0 0 6.4 7;" xml:space="preserve">
<style type="text/css">
	.st0{fill:#FFFFFF;}
</style>
<g>
	<path class="st0" d="M4.8,0L4.8,0L1.4,0C1.2,0,1.1,0.2,1.1,0.4V2h0.5V0.5h2.8v1.6h1.6v4.5H1.5V5H1.1v1.6C1.1,6.8,1.2,7,1.4,7H6
		c0.2,0,0.4-0.2,0.4-0.4l0-5.1l0,0L4.8,0z M4.8,1.6V0.7l0.9,0.9H4.8z"/>
	<g>
		<path class="st0" d="M1.9,3.1H1.8v0.7h0.1c0.2,0,0.3-0.1,0.3-0.4C2.2,3.3,2.1,3.1,1.9,3.1z"/>
		<path class="st0" d="M3.9,2.4H0.1C0.1,2.4,0,2.4,0,2.5v2c0,0.1,0.1,0.1,0.1,0.1h3.8C4,4.6,4,4.6,4,4.5v-2C4,2.4,4,2.4,3.9,2.4z
			 M0.9,3.7H0.7v0.4H0.5V2.9h0.5c0.2,0,0.4,0.2,0.4,0.4C1.3,3.5,1.2,3.7,0.9,3.7z M2.4,4C2.3,4.1,2.1,4.1,2,4.1H1.5V2.9H2
			c0.3,0,0.6,0.2,0.6,0.6C2.5,3.7,2.5,3.8,2.4,4z M3.5,3.1H3v0.3h0.4v0.2H3v0.5H2.7V2.9h0.8V3.1z"/>
		<path class="st0" d="M0.9,3.1H0.7v0.3h0.1C1,3.4,1,3.4,1,3.3C1,3.2,1,3.1,0.9,3.1z"/>
	</g>
</g>
</svg>
