<svg id="heart" xmlns="http://www.w3.org/2000/svg" width="7" height="6.8" viewBox="0 0 7 6.8"><defs><style>.cls-1{fill:#333;}</style></defs><title>icn-heart</title><path class="cls-1" d="M5.27,1l.17,0a.66.66,0,0,1,.42.27A.89.89,0,0,1,6,1.81a1.71,1.71,0,0,1-.25.88A11.72,11.72,0,0,1,4.24,4.56l-.74.78-.74-.78A11.72,11.72,0,0,1,1.24,2.69,1.69,1.69,0,0,1,1,1.82a.89.89,0,0,1,.13-.51A.69.69,0,0,1,1.56,1l.17,0a1.4,1.4,0,0,1,1,.65l.77,1,.78-1a1.44,1.44,0,0,1,1-.66m0-1A2.33,2.33,0,0,0,3.5,1,2.3,2.3,0,0,0,1.73,0a1.64,1.64,0,0,0-.44.06,1.7,1.7,0,0,0-1,.68A1.86,1.86,0,0,0,0,1.82,2.69,2.69,0,0,0,.38,3.19,13,13,0,0,0,2,5.24L3.5,6.8,5,5.25A13,13,0,0,0,6.62,3.19,2.7,2.7,0,0,0,7,1.81,1.86,1.86,0,0,0,6.69.74a1.66,1.66,0,0,0-1-.68A1.66,1.66,0,0,0,5.27,0Z"/></svg>