<?xml version="1.0" encoding="utf-8"?>
<!-- Generator: Adobe Illustrator 22.1.0, SVG Export Plug-In . SVG Version: 6.00 Build 0)  -->
<svg version="1.1" id="icn-tw" xmlns="http://www.w3.org/2000/svg" xmlns:xlink="http://www.w3.org/1999/xlink" x="0px" y="0px"
	 width="37.5px" height="30.5px" viewBox="0 0 37.5 30.5" style="enable-background:new 0 0 37.5 30.5;" xml:space="preserve">
<style type="text/css">
	.st0{fill:#424242;}
</style>
<path class="st0" d="M37.5,3.6c-1.4,0.6-2.9,1-4.4,1.2c1.6-1,2.8-2.5,3.4-4.3c-1.5,0.9-3.1,1.5-4.9,1.9C30.2,0.9,28.2,0,26,0
	c-4.3,0-7.7,3.4-7.7,7.7c0,0.6,0.1,1.2,0.2,1.8c-6.4-0.3-12.1-3.4-15.9-8c-0.7,1.1-1,2.5-1,3.9c0,2.7,1.4,5,3.4,6.4
	c-1.3,0-2.4-0.4-3.5-1c0,0,0,0.1,0,0.1c0,3.7,2.7,6.8,6.2,7.5c-0.6,0.2-1.3,0.3-2,0.3c-0.5,0-1,0-1.4-0.1c1,3.1,3.8,5.3,7.2,5.3
	c-2.6,2.1-6,3.3-9.6,3.3c-0.6,0-1.2,0-1.8-0.1c3.4,2.2,7.5,3.5,11.8,3.5c14.2,0,21.9-11.7,21.9-21.9c0-0.3,0-0.7,0-1
	C35.2,6.5,36.5,5.2,37.5,3.6z"/>
</svg>
