<?xml version="1.0" encoding="utf-8"?>
<!-- Generator: Adobe Illustrator 22.1.0, SVG Export Plug-In . SVG Version: 6.00 Build 0)  -->
<svg version="1.1" id="icn-guide" xmlns="http://www.w3.org/2000/svg" xmlns:xlink="http://www.w3.org/1999/xlink" x="0px" y="0px"
	 width="27.4px" height="31.3px" viewBox="0 0 27.4 31.3" style="enable-background:new 0 0 27.4 31.3;" xml:space="preserve">
<style type="text/css">
	.st0{fill:#565656;}
</style>
<g>
	<path class="st0" d="M7.7,2.1c-0.1-0.1,0,0,0,0.1L7.7,2.1z"/>
	<path class="st0" d="M7.5,2.5C7.5,2.7,7.5,3,7.6,3.1C7.5,2.9,7.6,2.6,7.5,2.5z"/>
	<polygon class="st0" points="7.7,2.8 7.6,2.7 7.7,2.9 	"/>
	<polygon class="st0" points="7.7,2.6 7.7,2.7 7.8,2.9 	"/>
	<path class="st0" d="M7.6,3.7l0-0.2c0.1-0.2,0.1,0.1,0.2,0c0-0.2-0.2-0.1-0.1-0.4c-0.1,0,0,0.5-0.1,0.4C7.4,3.8,7.5,3.6,7.6,3.7z"
		/>
	<path class="st0" d="M8.6,16.4C8.7,16.4,8.7,16.5,8.6,16.4C8.7,16.4,8.7,16.4,8.6,16.4L8.6,16.4z"/>
	<path class="st0" d="M22.8,11.3C22.8,11.3,22.8,11.3,22.8,11.3L22.8,11.3L22.8,11.3L22.8,11.3z"/>
	<path class="st0" d="M11.8,14.9c0,0,0.1,0,0.1-0.1C11.8,14.9,11.8,14.9,11.8,14.9z"/>
	<path class="st0" d="M7.5,6.8c0,0.1-0.2,0.1,0,0.2l0,0c0,0.1,0,0.2,0,0.3c0,0,0,0,0,0c0,0,0-0.1,0-0.2C7.6,7,7.5,6.9,7.5,6.8z"/>
	<path class="st0" d="M8.2,15.3C8.2,15.3,8.2,15.2,8.2,15.3L8.2,15.3z"/>
	<path class="st0" d="M15.3,4.5c0.1,0,0.1,0.1,0.2,0.1c0.2,0-0.3-0.1-0.1-0.1C15.3,4.5,15.3,4.5,15.3,4.5L15.3,4.5
		C15.4,4.6,15.2,4.5,15.3,4.5z"/>
	<path class="st0" d="M23.7,11.1L23.7,11.1c0,0,0,0.1,0.1,0c0.1-0.1-0.1-0.1,0-0.3c0,0-0.1,0-0.1,0C23.8,10.9,23.8,11,23.7,11.1z"/>
	<path class="st0" d="M23.7,10.9L23.7,10.9L23.7,10.9c-0.1,0-0.1,0-0.1,0C23.6,10.9,23.7,10.9,23.7,10.9z"/>
	<path class="st0" d="M22,11.7C22,11.7,22,11.7,22,11.7c-0.1,0-0.1,0-0.1,0L22,11.7z"/>
	<path class="st0" d="M23.9,9.6C24,9.6,23.8,9.6,23.9,9.6C23.8,9.6,23.8,9.6,23.9,9.6C23.8,9.6,23.8,9.6,23.9,9.6z"/>
	<polygon class="st0" points="15.2,4.4 15.2,4.4 15.2,4.4 	"/>
	<path class="st0" d="M22.6,11.3l0.1,0c0-0.1,0.3-0.1,0.3-0.1L22.6,11.3z"/>
	<path class="st0" d="M26.4,9.5c-0.2-0.2-0.4-0.1-0.5-0.2c-0.1-0.1,0.3,0,0.3,0c-0.4-0.2-0.3,0-0.7-0.2c0,0,0.1,0,0.1,0
		c-0.2-0.1-0.5-0.2-0.6-0.2c-0.1-0.2-0.6-0.2-0.5-0.4c-0.5-0.2,0,0.1-0.1,0.1c-0.3,0-0.4-0.2-0.5-0.2c0.1,0,0.2,0,0.2,0.1l0-0.1
		c-0.4-0.2-0.3,0.1-0.7-0.1c0.2,0,0.1,0,0.2-0.1c-0.1,0-0.4-0.2-0.2,0C23.3,8.1,23.2,8,23.1,8c-0.1,0-0.3,0-0.4,0
		c-0.2-0.1-0.3-0.2-0.4-0.3c-0.4-0.1-0.8-0.4-1.3-0.5l0,0c-0.3-0.2,0.1,0.2-0.3,0c0.1-0.1-0.2-0.2-0.3-0.3c-0.4-0.2-0.8-0.2-1.2-0.5
		c0,0,0.1,0,0.1,0c-0.3-0.2-0.5-0.2-0.8-0.4l0,0c-0.4-0.3-0.9-0.3-1.3-0.5c0,0,0.1,0,0.1,0c-0.2-0.1-0.6-0.3-0.8-0.3
		c-0.2-0.2-0.2,0-0.5-0.3c0,0,0,0,0.1,0c-0.2-0.1-0.3-0.2-0.5-0.2c-0.4-0.1-0.6,0-1-0.2c0-0.2,0.3,0.1,0.4,0c-0.1,0-0.2,0-0.3-0.1
		c0.1,0,0,0,0.1-0.1c-0.1-0.1-0.5,0-0.4,0c0,0,0,0.1,0.1,0.1c-0.1,0.1-0.4-0.2-0.7-0.2c0.1,0,0.3,0.2,0.2,0.2
		c-0.3-0.2-0.4,0-0.7-0.1c-0.2-0.2,0.3,0,0.3-0.2c0-0.1-0.1-0.2,0-0.2c-0.2-0.1-0.4-0.1-0.7-0.2l0,0c-0.3-0.1-0.7-0.1-0.9-0.3
		l0.1,0.1c-0.1,0-0.2-0.1-0.3,0c0,0-0.1-0.2,0-0.2c-0.2,0.1-0.7-0.2-0.9-0.1C10.9,3.1,11,3,11.1,3c0.2,0.1,0.2,0.2,0.4,0.1
		C11.3,3.1,11.2,3,11.2,3c-0.2,0-0.6-0.1-0.7,0c-0.1-0.1-0.2-0.2-0.1-0.2C9.9,2.6,10.5,3.1,10,2.8c-0.2-0.2,0.3,0,0-0.2l0.1,0
		c-0.2-0.3-0.2,0.1-0.5,0c0-0.1,0.2,0,0.1-0.2C9.3,2.4,9.1,2.5,8.8,2.4l0.1,0C8.7,2.2,8.4,2.1,8.2,2c0,0,0,0,0.1,0
		C8,1.9,8.1,2,7.9,1.9l-0.1,0C7.9,2,8.2,2.1,8.4,2.1c-0.2,0,0.2,0.3,0.1,0.3l0,0C8.8,2.8,9.3,3,9.8,3.3c0.4,0,0.5,0.3,0.9,0.4
		c0.1-0.1,0.1,0,0.4,0.1c-0.2-0.1-0.1,0.1,0,0.2c0.1,0,0.2,0,0.2,0c0,0.1,0.4,0.4,0.6,0.3c0.2,0.1-0.1,0-0.1,0c0,0.1,0.2,0,0.2,0.1
		c0,0,0,0,0,0c0.3,0.1,0.4,0.2,0.7,0.4c0.1-0.1,0.3,0.1,0.5,0.1c-0.1,0,0.1,0.1,0.2,0.2l0.2,0c0.2,0,0.2,0.2,0.4,0.2l0,0
		c0.2,0,0.5,0.3,0.6,0.4c1.5,0.3,2.1,1,3.5,1.6c0.1,0,0-0.1,0.1-0.1c0.2,0,0.2,0.1,0.3,0.1c-0.1-0.1-0.1,0-0.1-0.1l-0.2,0
		c0,0,0,0,0,0c-0.1,0-0.2,0-0.3-0.1c0.1,0,0.2-0.1,0.4,0c0,0,0,0-0.1,0C18.5,7,18.5,7,18.6,7c0.1,0.1,0.1,0,0.1,0.1l0.4,0.2
		c0.3,0,0.5,0.2,0.5,0.2c-0.1,0.1-0.3-0.1-0.4,0l0.1,0.1l0-0.1l0.2,0.1l0,0c0,0,0.1,0,0.1,0c0,0,0,0,0,0l0.2,0
		c-0.1,0,0.1,0.1,0.1,0.2c0.5,0.3,0.7,0.1,1,0.4c-0.1-0.1,0.2-0.1,0.3,0c0.1,0.1,0.1,0.1,0,0.1l0.2,0c0.2,0.2,0.4,0.2,0.7,0.4l0,0
		c0.1,0,0.3,0,0.4,0.1l-0.1,0.1c0.2,0.1,0.2-0.1,0.5,0.1c0-0.1-0.1-0.2-0.1-0.3c0,0.1,0.3,0.2,0.2,0.1c0.3,0.1,0.2,0.1,0.2,0.1
		l0.2,0c0.2,0.1,0,0.1-0.1,0.2c0.2,0,0.3,0.1,0.5,0.2l-0.1,0c0.1,0,0.1,0.1,0.1,0.1c0.1,0,0.2,0,0.2,0c-0.1,0-0.1,0-0.2,0.1
		c-0.1,0,0.1,0,0.1,0c0.1,0,0,0-0.1,0.1c0.2,0,0,0-0.1,0c0,0,0,0,0.1,0l-0.2,0c0.2,0,0.1,0,0.1,0c0,0,0,0,0,0.1
		c-0.1,0-0.1-0.1-0.1,0c0,0-0.1,0.1-0.1,0.1c-0.1,0.1-0.1,0.2-0.4,0.2l0,0c-1.5,0.6-3.1,1.1-4.5,1.8l0,0c-2.3,0.9-4.4,1.9-6.7,2.8
		c-0.2,0.1,0,0.2-0.2,0.3c-0.1,0-0.3,0.1-0.3,0.1c0.1-0.1,0-0.1,0.1-0.2c-0.2,0.1-0.6,0.2-0.8,0.3l0.2,0c-0.1,0.1-0.2,0.1-0.3,0.1
		c0-0.1-0.1-0.1-0.1-0.1c-0.4,0.4-0.4,0.1-0.8,0.3c0,0.2-0.5,0.5-0.7,0.8l-0.2,0c0.2-0.1-0.1-0.1,0.2-0.2c-0.3,0.1-0.4,0.2-0.7,0.3
		c0.1,0,0,0.1,0,0.1c-0.1,0-0.1-0.1-0.2-0.1l0-0.1c0-0.1-0.1,0-0.1,0.1c0-0.1,0-0.1,0-0.2c-0.1,0.1-0.1,0.1-0.1,0.1c0,0,0,0,0,0
		c0,0,0,0.1,0,0.1l0,0c0,0.1-0.1,0-0.1,0.1l0,0l0.1,0c-0.1,0,0.1,0,0.1-0.2c0,0-0.2,0.3-0.1,0.2c-0.1,0.1-0.1,0.1-0.2,0.1
		c0-0.1,0-0.1-0.1-0.2c0,0.1-0.1,0-0.1,0.2c0-0.2,0-0.1,0.1-0.2c0-0.1,0.1-0.2,0-0.2c0-0.2,0.1,0,0.1-0.1c0.1,0-0.1,0.4,0.2,0.2
		c0,0,0.1,0,0.1,0c0,0,0,0,0,0l0,0c0-0.1,0.1-0.1,0-0.1l-0.1,0.1c0,0-0.1,0-0.1,0c0,0,0.1-0.1,0.1-0.1c0,0,0,0,0,0c0,0,0,0-0.1-0.1
		c0-0.1-0.1-0.2-0.1-0.3c0,0.2-0.1,0.3-0.1,0.4c-0.1,0,0-0.1,0-0.2c0,0,0,0,0,0l0-0.1c0-0.3,0.1,0,0.2-0.2c0.1-0.2,0-0.2,0-0.4
		c0,0,0,0,0,0c0,0,0,0,0-0.1l0,0c0-0.2,0-0.3-0.1-0.4c0,0,0-0.1,0-0.2c0-0.1-0.1-0.3,0-0.4c0,0,0,0,0,0c0-0.2,0.1-0.4,0.1-0.3l0-0.3
		l0.1,0c0-0.3-0.1-0.3-0.2-0.5c0.1-0.2,0-0.6,0-0.7c0,0,0-0.1,0-0.1l0,0.1c0-0.2,0-0.2,0-0.3c0,0,0,0,0,0c0,0,0,0,0,0c0,0,0,0,0-0.1
		l0,0c0,0,0,0,0-0.1c0,0,0,0,0,0.1l0,0C8.1,12,8,11.9,8,11.7c0,0,0,0,0,0.1c0-0.1,0.2-0.3,0.1-0.3c0,0,0-0.1,0-0.1l0-0.1
		c0,0,0,0.1,0,0.1c0,0-0.1-0.1,0-0.1L8,11c0-0.1,0-0.1,0-0.2l0,0c0-0.1,0-0.1,0-0.1c0.1-0.4-0.1-0.5,0.1-0.9C8.1,9.6,8,9.8,8,9.8
		C8,9.8,7.9,9.5,7.9,9.4C8,9.3,8.1,8.7,8.2,8.8c0-0.3-0.1,0.1-0.1-0.1l0,0C8,8.8,8,8.9,7.9,9C7.9,9,7.8,8.7,7.9,8.6L8,8.7
		c0-0.3-0.2-0.2-0.3-0.4c0-0.2,0.1-0.1,0.2-0.1l0-0.2H8c0-0.2-0.1-0.2-0.1-0.4C8,7.7,8,7.2,8.1,7.4c0-0.1-0.1-0.2,0-0.2
		C8,7.1,8,7.3,8,7.3c-0.1,0-0.1-0.3-0.1-0.4C8,6.9,8,7,8,6.9c0,0-0.1-0.1,0-0.2c-0.1,0,0-0.2,0-0.3c0,0.1-0.1,0.3-0.1,0.2
		c0-0.1,0-0.2,0-0.3l0,0.1C7.6,6.1,7.8,6,7.8,5.8c0,0.1,0,0.2,0.1,0.2c0-0.1-0.1-0.3-0.1-0.5l0.1-0.2c-0.1,0,0-0.2-0.1-0.2
		C7.9,4.9,7.9,5.3,8,5.4C8,5.1,7.8,5.1,8,4.8L8,4.9c0-0.1,0-0.3,0-0.3c0,0,0,0,0,0.1C7.9,4.7,7.9,4.3,7.7,4.3l0,0.1
		c0-0.2-0.1-0.3-0.1-0.5C7.7,3.8,7.8,4,7.8,4.1c0-0.2-0.2-0.2-0.2-0.4c0,0.1-0.1,0.1-0.1,0c0,0.1,0,0.4,0,0.4l0,0
		c0,0,0.1,0.1,0.1,0.1c0,0.2-0.1,0.1-0.1,0.1c0,0.3,0.2,0,0.2,0.3l0,0c0,0.1,0,0.3,0.1,0.4c-0.1,0.1,0,0.3,0,0.4
		c-0.2,0,0-0.5-0.1-0.6c0,0.1-0.1-0.1-0.2-0.1l0.1,0.5c0,0-0.1,0.2-0.1,0.3l0,0c0,0.2,0.1,0.1,0.1,0.3c0,0-0.1,0-0.1,0
		c0,0.1,0.1,0.1,0.1,0.2c0,0.1-0.1-0.1-0.1,0c0.1,0.2,0,0.3,0,0.4c0.1-0.1,0.2,0.6,0.3,0.3l0.1,0.3C7.8,7,7.7,6.7,7.6,6.8l0-0.3
		c-0.2,0,0.1,0.6-0.1,0.8c0,0.1,0,0.1-0.1,0.4l0.1,0c0,0.1-0.1,0.2-0.1,0.2c0,0.1,0,0.2,0,0.2c0,0,0-0.1,0-0.1
		C7.3,8,7.4,8.1,7.4,8.1c0,0.1,0,0.1,0,0.2L7.4,8.3c0,0.1,0,0.1,0.1,0.1c0,0,0,0.1,0,0.1c0,0,0.1-0.1,0.1-0.2
		c-0.1,0.3,0,0.6-0.1,0.9c0,0-0.1-0.1-0.1-0.1c0,0.1,0.1,0.3,0.1,0.3c0,0,0,0.1,0,0.1c0,0-0.1,0.1-0.1,0.1c0,0,0,0,0,0.1
		c0.1,0,0.1,0.3,0.1,0.4c0-0.1,0-0.1,0-0.2c0.1,0.1,0.2,0.2,0.1,0.3c-0.1-0.2-0.1,0.2-0.2-0.1c-0.1,0.2,0.1,0.1,0.1,0.4l-0.1,0.2
		c-0.1,0,0-0.3-0.1-0.2l0,0.1c-0.1-0.1,0-0.5-0.1-0.8l0,0.5c0.1,0.6,0,1.4,0.2,2l0,0c0,0,0,0,0.1,0l0,0l0.1,0.1
		c-0.1,0.1-0.1,0.4-0.2,0.5c0.1-0.1,0.1-0.1,0.1-0.1c0.1,0,0.1,0,0.1,0.2c-0.1,0-0.1-0.1-0.1,0c0-0.1,0.1,0,0.1,0.1
		c0,0.1,0,0.3-0.1,0.3c0,0,0-0.1,0-0.1c0,0-0.1,0.2-0.1,0.1l0,0.2c-0.1,0.1-0.1-0.1-0.1,0c0,0.3,0.2,0.5,0.2,0.7c0,0-0.2,0-0.1,0
		c0,0.2,0.1,0.5,0.2,0.7c0,0,0-0.1,0-0.2c0,0.4,0,0.7-0.1,1c0,0.4-0.1,0.8-0.1,1.3c0,0.1,0.1,0.1,0.1,0.2l-0.1,0.4
		c0,0.2,0,0.4,0,0.6c0.4-0.2,0.8-0.3,1.2-0.5c0.2-0.1,0.4-0.2,0.6-0.3c0.1-0.1,0.3-0.1,0.4-0.2c0.2-0.1,0.2,0,0.3,0
		c0.4-0.2,0.5-0.4,0.9-0.6c0,0.1-0.1,0.2,0.1,0.1c0-0.1,0-0.1,0.1-0.1l0,0.1c0.1,0,0.2-0.1,0.4-0.1c0.4-0.2,0.7-0.4,1-0.7
		c0.3-0.1,0,0.2,0.1,0.2c-0.3,0.1-0.2,0.1-0.2,0.2c0.1-0.1,0.3-0.2,0.4-0.1c0.2-0.1,0.3-0.1,0.4-0.2c-0.1,0.1-0.2,0-0.1,0
		c0.2,0,0.5-0.2,0.5-0.1c0.8-0.4,1.8-0.7,2.6-1.1c0.1-0.1-0.1,0-0.1-0.1c0.2-0.2,0.2,0,0.3-0.2l0,0.1c0.3-0.1,0.5-0.3,0.7-0.5
		c0,0.1,0.2,0,0,0.1c0.1-0.1,0.4,0.2,0.5,0.1l-0.3-0.2c0,0,0.2-0.1,0.1-0.1c0.1,0,0.3,0,0.4,0c0.1,0.1-0.1,0.1-0.2,0.2
		c0,0.1,0.4-0.1,0.3,0.1c0.2-0.1-0.1-0.1,0.1-0.2l0.2-0.1l-0.2,0c0.1-0.1,0.2-0.2,0.4-0.2l0.2-0.2c0.1,0.1,0.2,0,0.3-0.1l0,0.1
		c0.1-0.1,0.2-0.1,0.3-0.1c0,0.1-0.1,0-0.1,0.1l0.2,0c0-0.1,0.1-0.1-0.1-0.1c0.1-0.2,0.2-0.3,0.5-0.4c0.2,0-0.2,0.2,0,0.2
		c0.4-0.1,0.4-0.5,0.6-0.5c0.3-0.1,0.3-0.2,0.6-0.3c-0.1,0.1,0.2,0,0.3,0l-0.1,0.1c0.1-0.1,0.2-0.1,0.2,0c-0.1-0.1,0.4-0.2,0.5-0.4
		L21.4,12c0.2-0.1,0.4-0.2,0.5-0.3c0.2-0.1,0.2-0.2,0.3-0.3c0.1,0,0.2,0.1,0.2,0.2c-0.1,0-0.2,0.1-0.3,0.1c-0.3,0.2-0.5,0.5-0.8,0.6
		c-0.1,0.2,0.2-0.1,0.4-0.1c0,0,0,0,0,0c0,0,0,0,0,0c-0.1,0.1-0.3,0.2-0.3,0.3c0.2-0.1,0.1-0.2,0.3-0.3c0.2-0.1,0.4,0,0.5-0.1
		c0.1-0.1,0-0.3,0.3-0.4l-0.1,0.2c0.3-0.1,0.1-0.2,0.4-0.3c-0.1,0,0.1-0.1-0.1-0.1c0.1-0.1,0.3-0.2,0.5-0.2c0,0,0,0,0-0.1
		c-0.2,0-0.3,0.2-0.5,0.2l-0.1,0.2c-0.2,0-0.2,0-0.2-0.1c0,0-0.1,0.1-0.1,0.1c-0.1-0.2,0.2,0,0.2-0.2l-0.1,0.1
		c-0.1-0.1,0.2-0.2,0.4-0.3c0.2,0,0.4-0.1,0.4,0l-0.2,0.1c0.1,0,0.3-0.2,0.4-0.2c0,0,0,0,0,0c0,0,0,0,0,0c0,0,0.1,0,0.1,0
		c0.1,0,0.3-0.2,0.4-0.2l0-0.1l0,0c-0.1,0-0.3,0.1-0.2,0c0.2-0.2,0.3,0,0.4,0c0,0.1-0.3,0.1-0.4,0.2c0.1,0.1,0.2-0.1,0.6-0.2
		c0,0.1-0.1,0.1-0.2,0.2c-0.1,0-0.1,0.1-0.2,0.1c0.1,0,0.1,0,0.1-0.1l0.1-0.1c0.1-0.1,0.2-0.1,0.4-0.2c0,0.1-0.3,0.2-0.3,0.3
		l0.3-0.1c-0.6,0.3,0.2,0.1-0.3,0.3c0.3-0.1,0.3-0.2,0.7-0.3c-0.2,0-0.5,0-0.2-0.1l0.4-0.1c0.2,0-0.2,0.2,0.1,0.2l0.3-0.2
		c-0.1,0-0.3,0-0.2,0c0.3-0.1,0.1-0.2,0.3-0.3c0.2-0.1,0.3-0.1,0.5-0.1c0.1-0.1,0.3-0.2,0.5-0.4c-0.2-0.1-0.5-0.1-0.7-0.2
		c0.4,0.1,0.3,0,0.2-0.1c0.3,0.1,0.6,0.1,0.8,0.1C26.7,9.4,26.4,9.4,26.4,9.5z M8,10.7L8,10.7C8,10.7,8,10.6,8,10.7z M8,12.8
		c0-0.2,0-0.2,0-0.2c0,0.2,0,0.4,0,0.6c0,0,0.1,0,0.1-0.1c0,0.1,0,0.2-0.1,0.2C7.9,13.3,8.1,12.7,8,12.8z M7.4,8.2L7.4,8.2L7.4,8.2
		L7.4,8.2z"/>
	<path class="st0" d="M8,4.1L8,4.1L8,4.1c0-0.3-0.1-0.3-0.1-0.4c0.1,0.2,0,0.3,0.1,0.6L8,4.1z"/>
	<path class="st0" d="M7.4,4.2c0,0-0.1,0.1-0.1,0.1l0,0L7.4,4.2z"/>
	<path class="st0" d="M7.2,6.9c0-0.1-0.1,0.2,0,0.2L7.2,6.9z"/>
	<path class="st0" d="M8,6.1L8,6c0,0.1,0,0.3,0,0.3C8,6.1,8,6.2,8,6.1z"/>
	<path class="st0" d="M7.2,7.7c0.1,0.1,0,0.2,0,0.3C7.2,7.9,7.3,7.7,7.2,7.7z"/>
	<path class="st0" d="M8.1,7.5c0.1-0.1,0-0.2,0-0.3C8.1,7.3,8,7.5,8.1,7.5z"/>
	<path class="st0" d="M7.5,8.9c-0.1,0-0.1-0.1,0-0.2c0,0,0.1,0.1,0.1,0.1c-0.1-0.2,0-0.2-0.1-0.3c0,0.1-0.1,0.4-0.2,0.3
		C7.3,8.9,7.4,9.1,7.5,8.9z"/>
	<path class="st0" d="M8.1,7.9c0-0.1,0.1-0.2,0.1-0.3C8.1,7.6,8.1,7.6,8.1,7.9L8,7.7C7.9,7.9,8.1,7.7,8.1,7.9z"/>
	<path class="st0" d="M7.3,9.5C7.2,9.4,7.3,9.1,7.2,9C7.2,9.3,7.2,9.5,7.3,9.5L7.3,9.5z"/>
	<path class="st0" d="M8,8.5l0.1,0C8.1,8.3,8,8.5,8,8.5C8,8.4,8,8.3,8,8.3C8,8.5,7.9,8.3,8,8.5z"/>
	<path class="st0" d="M8.1,9l0,0.2l0.1-0.2C8.2,8.8,8.2,9.1,8.1,9z"/>
	<path class="st0" d="M8,9.3l0.2,0.3C8.1,9.5,8.1,9.5,8,9.3L8,9.3z"/>
	<path class="st0" d="M7.3,13.2C7.3,13.1,7.2,13.4,7.3,13.2C7.3,13.3,7.4,13.1,7.3,13.2z"/>
	<path class="st0" d="M8.2,13c0-0.2,0-0.5-0.1-0.5C8.1,12.6,8.2,12.9,8.2,13z"/>
	<path class="st0" d="M8.6,16.3C8.6,16.2,8.6,16.2,8.6,16.3C8.6,16.2,8.6,16.2,8.6,16.3z"/>
	<path class="st0" d="M8.5,16.4C8.6,16.3,8.6,16.3,8.5,16.4C8.6,16.3,8.6,16.3,8.5,16.4z"/>
	<path class="st0" d="M8.6,16.3C8.6,16.3,8.6,16.3,8.6,16.3C8.6,16.3,8.6,16.3,8.6,16.3C8.6,16.3,8.6,16.3,8.6,16.3z"/>
	<path class="st0" d="M9.7,15.8c0,0.1-0.1,0.1-0.1,0.1C9.6,16,9.7,15.9,9.7,15.8z"/>
	<path class="st0" d="M18.1,13.8c0.1,0,0.2-0.1,0.1-0.1C18.1,13.7,18.2,13.7,18.1,13.8z"/>
	<polygon class="st0" points="18.4,13.6 18.5,13.6 18.4,13.6 	"/>
	<path class="st0" d="M19.2,13.4C19.2,13.4,19.3,13.3,19.2,13.4C19.2,13.4,19.2,13.4,19.2,13.4z"/>
	<path class="st0" d="M19.1,13.4C19.1,13.4,19.1,13.4,19.1,13.4C19.2,13.4,19.1,13.4,19.1,13.4L19.1,13.4z"/>
	<path class="st0" d="M19.4,13.4l0.1-0.1l-0.2,0C19.1,13.3,19.5,13.2,19.4,13.4z"/>
	<path class="st0" d="M20.1,12.8c0.2,0-0.1,0.1-0.2,0.2c0.2,0,0.3-0.3,0.4-0.2c0.4-0.2-0.2-0.2,0.3-0.4
		C20.2,12.5,20.5,12.7,20.1,12.8z"/>
	<path class="st0" d="M19.8,12.8c0,0.1,0.2,0,0.2-0.1C20,12.8,19.9,12.7,19.8,12.8z"/>
	<polygon class="st0" points="20.9,12.6 20.9,12.6 20.7,12.6 	"/>
	<path class="st0" d="M21.1,12.6c0,0,0.2-0.1,0.1-0.1L21.1,12.6z"/>
	<path class="st0" d="M21.8,12.2L21.8,12.2C21.9,12.2,22,12.2,21.8,12.2C22,12.2,22.1,12,21.8,12.2z"/>
	<path class="st0" d="M23.2,11.5l0.2-0.1l-0.1,0C23.2,11.4,23.1,11.5,23.2,11.5z"/>
	<path class="st0" d="M22.8,11.1c0.2,0,0.2,0,0.4-0.1C23,10.9,22.9,11.1,22.8,11.1z"/>
	<path class="st0" d="M23.6,11.4c0,0.1-0.1,0.1-0.2,0.1C23.5,11.5,23.6,11.5,23.6,11.4z"/>
	<path class="st0" d="M24.3,10.9c-0.2,0.1-0.3,0.4-0.5,0.3l-0.1,0.2c0.2-0.1,0.1-0.2,0.2-0.2c0.1,0,0,0.1,0.1,0.1
		c0.2,0,0.3-0.1,0.4-0.2C24.3,11.1,24.2,11,24.3,10.9z"/>
	<path class="st0" d="M23.6,11c-0.1-0.1-0.2,0.1-0.3,0.1l0.2,0C23.4,11.1,23.5,11,23.6,11z"/>
	<polygon class="st0" points="26.1,10.2 25.8,10.3 26.2,10.1 	"/>
	<polygon class="st0" points="26.2,10.2 26.3,10.2 26.5,10.1 	"/>
	<polygon class="st0" points="26.5,10.2 26.8,10 26.7,10.1 	"/>
	<path class="st0" d="M27.2,9.6L27.2,9.6c0,0.1,0.1,0.1,0.2,0.1c-0.1,0-0.1,0,0,0c0,0,0,0,0.1,0C27.3,9.7,27.2,9.6,27.2,9.6z"/>
	<path class="st0" d="M23.5,9.5l-0.1,0.1C23.4,9.5,23.5,9.5,23.5,9.5C23.6,9.6,23.5,9.5,23.5,9.5z"/>
	<path class="st0" d="M23,9.3c0.2,0.1,0.3,0,0.5,0.1c-0.1-0.1-0.2,0-0.3-0.1l0.1,0L23,9.3z"/>
	<path class="st0" d="M19.2,7.5c0-0.1,0-0.1,0.2,0c-0.2,0-0.4-0.1-0.6-0.2c0,0.1-0.2,0.1-0.1,0.1L19,7.4l-0.1,0
		C19.1,7.5,19.1,7.4,19.2,7.5z"/>
	<path class="st0" d="M9,2.3c-0.2,0,0,0.1,0,0.1C9,2.4,9,2.3,9,2.3z"/>
	<path class="st0" d="M3.1,31.3C3.4,31.4,3.2,31.3,3.1,31.3L3.1,31.3z"/>
	<path class="st0" d="M3.1,31.3L3.1,31.3C3.1,31.2,3.1,31.2,3.1,31.3z"/>
	<path class="st0" d="M3.4,30.8c0.2,0.1-0.1,0.2,0.3,0.3C3.9,31,3.8,30.8,3.4,30.8z"/>
	<polygon class="st0" points="3.1,30.9 3.3,31 3,30.9 	"/>
	<polygon class="st0" points="2.8,30.8 2.9,31 3,31 	"/>
	<path class="st0" d="M3.5,30.4l0.1,0.1c-0.3,0.1-0.4-0.1-0.6,0c0,0.1,0.6,0,0.5,0.2c0.3,0,0-0.3,0.4-0.2C4,30.3,3.6,30.5,3.5,30.4z
		"/>
	<path class="st0" d="M1.3,23.7C1.3,23.7,1.3,23.7,1.3,23.7C1.3,23.7,1.2,23.7,1.3,23.7z"/>
	<path class="st0" d="M1,21.9C1,21.9,1.1,21.9,1,21.9C1,21.8,1,21.8,1,21.9L1,21.9z"/>
	<path class="st0" d="M2,24.9c0,0-0.1,0.1-0.1,0.1C2,24.9,2,24.9,2,24.9z"/>
	<path class="st0" d="M3.5,13.2c0,0,0.1,0,0.1,0c0,0,0,0,0,0L3.5,13.2L3.5,13.2z"/>
	<path class="st0" d="M4,28.7C4,28.7,4,28.7,4,28.7C3.9,28.6,3.8,28.7,4,28.7z"/>
	<path class="st0" d="M3.9,28.1C3.9,28.1,3.9,28.1,3.9,28.1C4,28.1,4,28.1,3.9,28.1z"/>
	<path class="st0" d="M4,27.6C4,27.6,4,27.6,4,27.6C4,27.6,4,27.6,4,27.6z"/>
	<path class="st0" d="M3.9,28.6c0.2-0.1,0.7-0.1,0.1-0.1l-0.1,0c0.1,0-0.1-0.1-0.1-0.2c-0.1,0-0.1,0-0.1,0c0,0,0,0.1-0.1,0.1
		C3.5,28.5,3.8,28.6,3.9,28.6z"/>
	<path class="st0" d="M1.4,23.7C1.3,23.7,1.3,23.8,1.4,23.7L1.4,23.7z"/>
	<path class="st0" d="M1.8,24.3C1.8,24.3,1.8,24.3,1.8,24.3C1.8,24.3,1.8,24.3,1.8,24.3z"/>
	<path class="st0" d="M1.7,26.4C1.7,26.4,1.7,26.4,1.7,26.4C1.6,26.4,1.6,26.4,1.7,26.4z"/>
	<path class="st0" d="M1.8,24.2C1.8,24.2,1.8,24.2,1.8,24.2C1.8,24.2,1.9,24.2,1.8,24.2z"/>
	<path class="st0" d="M5.4,4.5c0,0-0.1,0.1-0.1,0.1c0.4,0.1,0-0.2,0.3-0.1C5.6,4.5,5.5,4.5,5.4,4.5l-0.3,0C5.2,4.6,5.2,4.5,5.4,4.5z
		"/>
	<path class="st0" d="M4.3,12.7L4.3,12.7c0.1,0,0.2,0,0.3-0.1c-0.2-0.1-0.6,0-0.9-0.1c0,0,0,0.1,0,0.1C3.9,12.6,4.1,12.7,4.3,12.7z"
		/>
	<path class="st0" d="M3.6,12.7C3.6,12.7,3.6,12.7,3.6,12.7c-0.1,0-0.1,0-0.1,0c0,0,0,0,0,0C3.5,12.7,3.6,12.7,3.6,12.7z"/>
	<path class="st0" d="M5.2,5.9C5.2,5.9,5.2,6,5.2,5.9C5.2,6,5.2,5.9,5.2,5.9z"/>
	<path class="st0" d="M3.9,13.7C3.9,13.7,3.9,13.7,3.9,13.7C3.9,13.8,3.9,13.8,3.9,13.7L3.9,13.7z"/>
	<path class="st0" d="M0.5,10.4c0.4,0,0,0,0.2-0.1l-0.2-0.1C0.4,10.3,0.5,10.3,0.5,10.4z"/>
	<path class="st0" d="M5.5,4.5C5.5,4.5,5.5,4.5,5.5,4.5C5.5,4.5,5.5,4.5,5.5,4.5L5.5,4.5z"/>
	<path class="st0" d="M3.5,13.1l0,0.3l0.1-0.1C3.3,13.2,3.7,13.1,3.5,13.1z"/>
	<path class="st0" d="M5.3,16.5l0.1-0.1L5.3,16.5c-0.2-0.1-0.6-0.2-0.3-0.3l-0.5-0.1c0.4,0,0.1-0.1,0.2-0.2L5,16
		c0-0.1,0.1-0.1,0.2-0.2c0.3,0.1-0.1,0.1,0.2,0.1l0.1-0.1c-0.2,0-0.4-0.1-0.5,0c-0.4-0.1-0.7-0.1-0.7-0.4c0.4-0.1,0.3,0.1,0.7,0.1
		C5.1,15.2,4,15.2,4.1,15c0.1-0.2-0.2-0.2-0.2-0.4c0.2,0.1,0.3-0.1,0.5-0.2l0.3,0.1c-0.1-0.1,0-0.1,0.2-0.1c-0.3,0-0.3-0.2-0.5-0.4
		l-0.3,0C4,14,3.8,13.9,3.9,13.8c-0.1-0.2-0.3-0.1-0.7-0.2c0.3-0.1,0.6-0.1,0.9,0c-0.1,0-0.1,0.1-0.1,0.2c0.2,0.2,0.8,0.4,0.7,0.6
		c0.7,0.1-0.1-0.1,0.2-0.2c0,0,0.1,0,0.1,0c0,0,0,0,0,0c0.1,0.1,0.2,0.2,0.5,0.2C5.4,14.1,4.8,14.1,5,14c-0.2-0.1,0.4-0.2,0.4-0.3
		c-0.3-0.1-0.8-0.1-0.7-0.3l0.4,0.1c0-0.2-0.6-0.1-0.6-0.3c0,0.1-0.4-0.1-0.4,0.1C4,13.2,3.9,13.1,4.1,13c-0.1,0-0.1,0-0.3,0
		c-0.3,0.1,0.3,0.2-0.1,0.3l0.4,0.1c-0.2,0.1-0.5,0.1-0.7,0.1c0,0,0.1,0.1,0,0.1c-0.6,0,0.2-0.1-0.3-0.2l0,0.1
		c-0.4,0-0.4-0.2-0.3-0.3C3,13,3.1,12.9,3.4,12.9L3.5,13c0.2-0.1-0.1-0.2-0.1-0.3c0,0,0.1,0,0.1,0c0,0-0.1,0-0.1,0c0,0,0.1,0,0.1,0
		c0-0.1-0.2-0.2-0.1-0.3l-0.3,0l0.1,0c0,0.1-0.2,0.2-0.4,0.1c-0.2-0.2,0.3-0.2,0.6-0.2c0.4,0,0,0.2,0.1,0.2c0.4,0,0-0.2,0.3-0.3
		c0.4,0.1,0,0.2,0.4,0.2c0.1-0.1-0.2-0.2-0.1-0.3c0.2,0,0.2,0.2,0.5,0.1l0.1-0.1c0,0.2,0.5,0,0.7,0.1c0.2-0.1-0.4-0.1-0.1-0.2
		c-0.2,0-0.5,0.1-0.7,0L4.8,12c0.2-0.1,0.5,0.1,0.6,0l-0.1-0.1c-0.1,0-0.2,0.1-0.4,0c0.1-0.1-0.5-0.1-0.7-0.2c0-0.1,0-0.1,0.2-0.1
		c-0.4-0.2-0.4-0.4-0.7-0.6C4,11.2,4.2,11,4.4,11c0.1,0.1,0.5,0.1,0.7,0.1C5,11,4.6,11,4.5,11c0.2-0.1-0.3-0.1,0-0.2
		c0.1-0.1,0.4,0,0.6,0c0-0.1-0.5,0-0.4-0.2c0.1,0,0.1,0,0.1,0c0.1-0.1-0.1-0.2-0.3-0.2c0.5-0.1-0.1-0.2,0.5-0.2
		c-0.1-0.2-0.3,0-0.5,0c-0.2-0.1,0-0.2,0-0.3c0,0,0.2,0.1,0.1,0.1l0.4,0c0.3-0.2-0.8-0.2-0.5-0.4c0.2,0.1,0.3,0,0.5,0.1
		c-0.1,0,0-0.2-0.3-0.1c0-0.1,0.1-0.2,0.2-0.2C4.7,9.4,4.6,9.3,4.4,9.2c0-0.1,0.3-0.2,0.5-0.3C4.6,8.7,5,8.4,4.7,8.2l0,0
		C4.8,8,4.2,8.3,4.3,8.1c0.4,0,0.3-0.1,0.5-0.2c0.2-0.3-0.3-0.5,0-0.7c0.1,0,0.2,0,0.2,0.1C5.1,7,5,6.9,5,6.7l0.1,0
		C5.5,6.4,5,6.2,4.9,5.9c0.1,0,0.2,0,0.3,0C5.3,5.8,5.4,5.6,5,5.5c0.4-0.2-0.1-0.1,0.3-0.3c0.1,0,0.1,0,0.1,0C5.5,5,5.4,5,5.5,4.9
		C5.2,4.6,4.6,4.6,4.8,4.3c0.6,0,0.1,0.2,0.6,0.2C5.3,4.4,5.2,4.4,5.4,4.3c0.2,0,0.1,0,0.4,0c0.2-0.1-0.6-0.2-0.6-0.2
		C5,4.1,5,4.1,5,4.2C4.6,4.1,5,3.9,4.8,3.7c0,0-0.1,0.2-0.4,0.1C4.5,3.7,4,3.6,3.7,3.5C4,3.3,4.2,3.6,4.6,3.6c0.2,0,0.5-0.1,0.7,0
		C5.4,3.4,5,3.3,4.9,3.2l0.1,0C5,3,4.5,2.8,4.7,2.6L4.6,2.7c-0.1,0,0-0.1-0.3-0.2c0.2,0,0.4-0.1,0.5-0.1C4.2,2.4,4.5,2,3.9,2
		c0.2-0.1,0.4,0,0.6,0C4.4,2.1,4.2,2.1,4.5,2.2C4.5,2.1,4.6,2,4.8,2C4.4,1.9,4.2,1.7,3.8,1.6C4,1.6,4.1,1.5,4.5,1.5
		c-0.2-0.3-1,0.1-1-0.2C3.8,1.2,3.9,1.5,4,1.3l0.1,0C4.9,1.2,3.5,1.2,3.5,1c0.5,0,0.3,0.1,0.7,0C4,0.9,3.3,0.8,3.5,0.6l0.2,0
		c0-0.1,0.1-0.3,0-0.4c0.1,0,0.1,0,0.1,0C4,0.1,3.6,0.2,3.9,0L3.7,0C3.5,0.1,3.3,0.2,3.5,0.3C3.3,0.2,3,0.5,2.6,0.4l0.2,0
		C2,0.7,2,1,1.7,1.4c0.5,0.2-0.2,0.4,0.1,0.6C2.4,2,2,2,2.1,2.2C2,2.1,1.7,2.2,1.6,2.2c0.1,0,0.2,0.1,0.2,0.1
		c-0.2,0-0.6,0.3-0.3,0.4c-0.2,0.1-0.2,0-0.3-0.1c-0.3,0,0.2,0.1,0,0.1c0,0-0.1,0-0.1,0C1.2,3,1.1,3.1,1,3.3c0.5,0,0.2,0.2,0.4,0.3
		c-0.2,0-0.2,0.1-0.3,0.2l0.4,0.1C1.9,3.9,1.3,3.9,1.5,4l0.1,0c0.2,0.1-0.2,0.3-0.4,0.4c1,0.9-0.6,1.3-0.3,2.2c0.2,0.1,0.3,0,0.5,0
		c0.1,0.1,0,0.1,0,0.2c0.1-0.1,0-0.1,0.1-0.1L1.3,6.7c0,0,0.1,0,0.1,0c0,0-0.2-0.1-0.1-0.1c0.1,0.1,0.5,0.1,0.4,0.2
		c-0.1,0-0.1,0-0.1-0.1c0,0.1,0.2,0.1,0.1,0.2c-0.1,0.1,0,0.1-0.1,0.1L1.3,7.2c0.5,0.1,0,0.3,0,0.3c-0.4,0-0.1-0.2-0.5-0.2L0.6,7.3
		l0.3,0L0.8,7.5l-0.1,0c0.1,0,0.2,0,0.1,0.1c0,0-0.1,0-0.1,0l0.2,0.1C0.6,7.6,0.8,7.7,0.5,7.7C0.3,8,0.9,8.1,0.5,8.3
		c0.2,0,0.5,0.1,0.5,0.2c-0.1,0-0.2,0.1-0.3,0l0.2,0.1C0.3,8.8,0.6,8.9,0.4,9.1l-0.1,0c0.2,0.1,0.3,0.2,0.3,0.3l-0.3,0
		C0,9.5,0.9,9.5,0.7,9.6c0.3,0,0.5-0.1,0.8-0.1c-0.3,0-0.4,0.2-0.1,0.2c0.1,0.1,0,0.1-0.1,0.1l0.2,0.1c0,0.1-0.4,0-0.6,0
		c0.3,0.1,0.1,0.2,0,0.3l-0.1,0l-0.1,0.1c0.2,0.1,0.3,0.2,0.1,0.3l-0.4-0.1c-0.2,0.1,0.1,0,0.2,0.1c0.2,0.1-0.1,0.2-0.3,0.2
		c0.4,0.2-0.7,0.4-0.1,0.6l-0.2,0c0.5,0.3-0.2,0.5,0.5,0.7c-0.9,0.3,0.8,0.2,0,0.5l0.1,0c-0.1,0.9-0.6,1.9-0.2,2.8l-0.2,0
		c-0.3,1.4,0.1,2.8-0.1,4.1c0.2,0.1,0.5,0.1,0.7,0.2c0,0,0,0.2-0.2,0.2c-0.1-0.1-0.3,0-0.4-0.1c0,0.2-0.2,0.4,0,0.5l0.3-0.1
		c0.1,0.1,0,0.1,0,0.2c-0.1,0-0.4,0.1-0.5,0c0.7,0.3-0.3,0.2,0,0.5c0.6,0,1.1,0.4,1.5,0.6l-0.2,0.1c0-0.1-0.4,0-0.4-0.2
		c-0.2,0.1,0.1,0.3,0,0.4c0.1,0,0.3,0,0.4,0C1.4,22,1.1,22,1.1,22.1L0.9,22C0.7,22,1,22.1,1,22.1c-0.2,0-0.3,0.2-0.6,0.1
		c0.3,0.1,0.1,0.2,0.4,0.3c0.3-0.1,0.3,0,0.5,0l-0.1-0.2c-0.2,0.2,0-0.1-0.5-0.1c0.2-0.1,0.7,0.2,0.6,0c0.2,0.2,0,0.3,0.4,0.5
		c-0.1-0.1,0.3,0,0.4,0c0,0.2-0.1,0-0.4,0.1c0,0.1-0.2,0.1,0.1,0.2c-0.1,0.2-0.3,0-0.5,0.1c-0.3-0.1,0.4-0.4-0.6-0.4
		c0-0.1-0.4-0.2-0.3-0.3c-0.1,0.1-0.4,0.2-0.2,0.4l0.5,0c0,0.1,0.4,0.1,0.3,0.2c-0.1,0-0.4,0-0.3,0.1c0.1,0,0.1-0.1,0.1,0
		c0,0.1,0.4,0.2,0.5,0.3c0.1-0.1,0.3-0.2,0.5-0.3c0.4,0,0.1,0.1,0.1,0.2c0,0-0.1,0-0.1,0L2,23.4c-0.2,0.2-0.5,0-0.7,0.1
		c-0.3,0.1,0.2,0.1,0,0.2c0,0,0.1,0,0.1,0c0,0,0,0,0,0c0,0,0,0,0,0c0.1,0.1,0,0.2,0.3,0.2c-0.1,0,0,0.1,0.1,0.1
		c0.1,0.1,0.4,0.2,0,0.2c0,0,0,0,0,0c-0.1,0.1-0.2,0.2-0.3,0.2l-0.1,0.2l-0.4,0c0.1,0.2,0.3,0.1,0.7,0.3c-0.2,0.1,0,0.3,0.1,0.4
		c0,0,0,0,0,0.1l0.1-0.1c0,0.1,0.2,0.1,0.2,0.2c0,0,0.1,0,0,0c0,0,0,0,0,0c0,0,0,0,0,0l0,0c0,0,0,0,0,0c0,0,0,0,0,0l-0.1,0
		c-0.4,0.1,0.2,0.2,0.1,0.3c0,0,0,0,0,0c-0.1,0.1-0.6,0.2-0.3,0.2c0,0,0,0,0.1,0.1l-0.1,0c0,0,0,0,0.1,0c0.1,0,0.2,0.1,0.2,0.1
		l-0.1,0.2c-0.1,0,0,0.1,0,0.1l-0.1,0c0,0.1-0.1,0.1-0.1,0.1c-0.5,0.2,0.3,0.3-0.2,0.5c0.2,0,0.4,0,0.5-0.1c0.2,0,0.4,0.2,0.5,0.2
		c-0.3,0.1-0.6,0.4-1.1,0.3c0,0.2,0.3-0.1,0.5,0l0,0c0.1-0.1,0.2-0.1,0.4-0.1c0.3,0,0.3,0.1,0.3,0.2l-0.4,0c0.1,0.2,0.7,0.1,1.1,0.2
		c-0.1,0.1-0.5,0.1-0.8,0.1L2.4,28H2.1c0.1,0.1,0.3,0.1,0.2,0.2c-0.3-0.1-0.3,0.2-0.6,0.1c-0.1,0.1,0.4,0.1,0.1,0.1
		c0.3,0,0.1-0.1,0.2-0.1c0.4,0,0.2,0.2,0.3,0.2c-0.2,0-0.3-0.1-0.4,0c0.2,0,0.3,0.1,0.1,0.1c0.3,0,0.1,0.1,0,0.2
		c0.1-0.1,0.3-0.2,0.5-0.1c0.1,0,0.2,0.1,0.1,0.2l0.1-0.1c0.4,0.1-0.3,0.2-0.2,0.3c-0.2-0.1-0.2-0.1-0.4-0.1
		c0.1,0.1,0.3,0.2,0.5,0.3l-0.4,0.1c0.2,0,0,0.1,0.3,0.1c-0.2,0.1-0.3-0.1-0.5-0.1c-0.2,0.2,0.5,0.1,0,0.3l-0.3-0.1
		c0,0.1,0.1,0.2,0,0.2c0.1,0,0.1,0,0.1-0.1c0.6,0,0.4,0.3,1,0.2L3,30c0.1,0.1,0.5,0.2,0.3,0.3c-0.2,0.1-0.4,0-0.5-0.1
		c0,0.1,0.6,0.1,0.6,0.2c0.1-0.1,0.3-0.1,0.4,0c0-0.1,0.1-0.2-0.1-0.2l-0.1,0c-0.1,0-0.2,0-0.3-0.1c0-0.1,0.3,0,0.4-0.1
		c0.1-0.2-0.6,0-0.6-0.2l0.1,0c-0.1-0.1-0.2-0.2-0.5-0.2c0.4-0.1-0.1-0.2,0.1-0.3c0.8,0-0.1,0.3,0.4,0.4c0.2-0.1,0.4,0,0.6,0.1
		l-0.4-0.3c0.1,0,0.5-0.1,0.2-0.1l0,0c-0.1-0.1-0.4-0.1-0.3-0.2c0.1,0,0.2,0,0.3,0c0.1-0.1-0.2-0.1-0.3-0.1c0.1-0.1,0.3,0,0.4,0
		c-0.3-0.1,0.1-0.2,0.1-0.2c-0.5,0-0.6-0.3-1-0.2l-0.3-0.2c0.2-0.1,0.7,0.1,1,0.1l0,0.2c0.6,0-0.4-0.3,0.3-0.4
		c0-0.1-0.1-0.1,0.2-0.2l-0.5,0c0.1-0.1,0.4-0.1,0.5-0.1c0,0,0-0.1,0-0.1c0.1,0,0.1,0,0.2,0.1c0.3-0.1,0.2-0.1,0-0.1
		C4,27.8,4,27.8,4,27.7l0.2,0c0,0-0.1-0.1-0.2-0.1c0,0,0,0,0-0.1c-0.1,0-0.4,0-0.5,0.1c0.2-0.2,0.1-0.3,0.5-0.5
		c0.1,0,0.3,0.1,0.4,0.1c0.1-0.1-0.2-0.2-0.4-0.2c0,0,0,0,0,0c0.1,0,0.3,0,0.3-0.1c0,0,0.1,0,0.1-0.1c-0.4,0-0.2-0.2-0.4-0.2
		c0,0,0,0.1,0,0.1c-0.3-0.1-0.6-0.1-0.4-0.2c0.3,0.1,0.4-0.1,0.5,0.1c0.5-0.1-0.4-0.1-0.2-0.2L4,26.5c0.3,0,0.1,0.1,0.3,0.1l0-0.1
		c0.2,0.1,0.1,0.3,0.4,0.4l0.2-0.3c-0.4-0.4,0.1-0.8-0.6-1.1c0,0,0,0,0,0c0,0-0.1,0-0.2,0l0.1,0l-0.2-0.1c0.3-0.1,0.3-0.2,0.6-0.3
		c-0.2,0.1-0.2,0.1-0.4,0.1c-0.3,0-0.4,0-0.3-0.1c0.2,0,0.2,0.1,0.4,0c-0.1,0-0.3,0-0.3,0C4,25,4,24.9,4.2,24.9c0.1,0,0,0,0,0.1
		c0.1,0,0.2-0.1,0.4,0l-0.1-0.1c0.2-0.1,0.3,0,0.4,0c-0.1-0.2-0.6-0.3-0.8-0.4c0.1,0,0.6,0,0.5,0C4.7,24.3,4,24.2,4,24
		c0.1,0,0.1,0.1,0.2,0.1c0.2-0.4,0.2-0.8,0.6-1.2l-0.5-0.1l0.3-0.1c0.3-0.4,0-0.7-0.1-1.1c0-0.1,0.3-0.1,0.5-0.1
		c0.1-0.3-0.5-0.3-0.6-0.6c0.1,0,0.6,0.1,0.6,0c-0.1,0-0.4,0-0.3-0.1l0.1,0c0.2-0.1,0-0.1,0.1-0.3c0-0.2-0.4-0.5-0.9-0.7
		c0-0.2,0.5,0,0.6,0C4.5,20,4.7,20,4.9,20c-0.1-0.1-0.2-0.2,0.1-0.2c0-0.1,0-0.2-0.2-0.3c0.1,0.1-0.1,0.1-0.2,0
		c0.1-0.1,0-0.3,0.4-0.3c-0.1-0.5,0-1.1,0-1.6c-0.2-0.1-0.1,0.1-0.2,0c-0.3-0.1,0.2-0.1-0.1-0.2l0.2,0c0-0.2-0.4-0.3-0.6-0.5
		c0.3,0,0.2-0.1,0.4,0c0-0.1,1.2-0.2,0.9-0.2l-1.1,0.1c-0.1,0,0-0.1-0.1-0.1c0.2-0.1,0.5-0.1,0.5-0.2c0.3,0,0.2,0.1,0.2,0.2
		c0.5,0,0.3-0.2,0.7-0.1C5.7,16.4,5.5,16.6,5.3,16.5z M1.9,26.4L1.9,26.4C2,26.4,2.1,26.4,1.9,26.4z M2,25.2c0.2,0.1,0,0.1-0.1,0.1
		c0.1-0.1,0-0.2,0.1-0.3c-0.1,0-0.2,0-0.3,0c0,0,0.1-0.1,0.3-0.1C2.4,24.9,1.7,25.2,2,25.2z M4,27.8L4,27.8C4,27.9,4,27.9,4,27.8
		C4,27.8,4,27.8,4,27.8z"/>
	<path class="st0" d="M2.4,30l-0.3,0.1l-0.1,0l-0.2,0.1c0.2,0.1,0.4,0.1,0.7,0.2C2.4,30.3,2.5,30.2,2.4,30z"/>
	<path class="st0" d="M4,30.1c0.1,0,0.3,0,0.3-0.1l-0.2,0L4,30.1z"/>
	<path class="st0" d="M4.7,28.6c0.1,0,0.4-0.1,0.1-0.1L4.7,28.6z"/>
	<path class="st0" d="M2.1,29.1C2.2,29,2.2,29,2,29C2.1,29,1.9,29,1.9,29L2.1,29.1z"/>
	<path class="st0" d="M4.9,28.1c-0.3,0,0.1-0.1-0.2-0.2C4.8,28,4.5,28.1,4.9,28.1z"/>
	<path class="st0" d="M1.7,28.2c-0.3,0,0,0.1-0.1,0.2C1.6,28.3,1.9,28.2,1.7,28.2z"/>
	<path class="st0" d="M3.9,27.5c0.2,0.1,0.1,0.1,0.3,0.2c0.2-0.1,0.3-0.2,0.6-0.2C4.5,27.4,4.1,27.3,3.9,27.5c0.3-0.1,0.3,0,0.2,0.1
		C4,27.5,3.9,27.5,3.9,27.5z"/>
	<path class="st0" d="M1.6,28c-0.1,0.1-0.3,0.1-0.3,0.2C1.5,28.2,1.8,28.1,1.6,28L2,28.1C2.2,28,1.6,28.1,1.6,28z"/>
	<path class="st0" d="M4.6,27l-0.1,0c0.2,0.1,0.1,0.2,0.5,0.3C4.9,27.2,4.7,27.1,4.6,27z"/>
	<path class="st0" d="M2,27.8c-0.1-0.1,0.3,0,0.2-0.1l-0.4,0C1.7,27.7,1.9,27.6,2,27.8C1.9,27.7,1.9,27.7,2,27.8z"/>
	<path class="st0" d="M1.6,27.2l-0.4,0.1c0.1,0.1,0.2,0,0.6,0L1.6,27.2z"/>
	<path class="st0" d="M2.1,27.2L1.5,27C1.7,27.1,1.7,27.1,2.1,27.2L2.1,27.2z"/>
	<path class="st0" d="M4.3,25c0.1,0,0.4-0.1,0.2,0C4.4,24.9,4.2,25,4.3,25z"/>
	<path class="st0" d="M1.2,25.1c0.1,0.1,0,0.3,0.2,0.3C1.5,25.3,1.3,25.2,1.2,25.1z"/>
	<path class="st0" d="M0.4,21.9c-0.1,0.1,0,0.2,0.2,0.2C0.5,22,0.4,21.9,0.4,21.9C0.3,21.9,0.1,21.9,0.4,21.9z"/>
	<path class="st0" d="M0.4,21.2c0.1,0,0.1,0.1,0.2,0.1C0.7,21.2,0.6,21.2,0.4,21.2z"/>
	<path class="st0" d="M5.1,16.2c0,0.1,0.2,0,0.2,0.1C5.4,16.2,5.4,16.1,5.1,16.2z"/>
	<polygon class="st0" points="5.1,16.1 5.2,16.1 5.4,16 	"/>
	<path class="st0" d="M5.4,15.6c0,0,0.1,0,0.1,0C5.5,15.6,5.5,15.6,5.4,15.6z"/>
	<path class="st0" d="M5.6,15.6C5.6,15.6,5.5,15.6,5.6,15.6L5.6,15.6C5.6,15.6,5.6,15.6,5.6,15.6z"/>
	<path class="st0" d="M5.5,15.4l-0.4,0.1c0.2,0.1,0.2-0.1,0.6,0L5.5,15.4z"/>
	<path class="st0" d="M5.4,15.1c0.1-0.1-0.5-0.2,0-0.3c-0.2-0.3-0.7,0.1-0.9-0.2C4.2,14.9,5.3,14.7,5,15C5.3,14.9,5.3,15.1,5.4,15.1
		z"/>
	<path class="st0" d="M4.6,15.1c0.2,0,0.2-0.1,0.1-0.1C4.7,15,4.4,15.1,4.6,15.1z"/>
	<polygon class="st0" points="5.2,14.6 5.3,14.5 5.2,14.5 	"/>
	<path class="st0" d="M5.3,14.3l0.3,0.1C5.4,14.4,5.4,14.3,5.3,14.3z"/>
	<path class="st0" d="M5.2,13.9L5.2,13.9c0.1,0,0.3-0.1,0.4,0C5.7,13.8,5.1,13.8,5.2,13.9z"/>
	<path class="st0" d="M4.6,13c0,0,0.1,0.1,0.2,0.1L4.6,13L4.6,13z"/>
	<path class="st0" d="M3.2,13c-0.4,0,0,0.1-0.1,0.2C3.2,13.1,3.2,13.1,3.2,13z"/>
	<path class="st0" d="M5.2,12.8c0.1,0,0.1,0.1,0,0.1C5.4,12.9,5.3,12.8,5.2,12.8z"/>
	<path class="st0" d="M5,12.6c0.1,0,0.2,0,0.3,0c0.2-0.1,0.1-0.2-0.1-0.2c-0.2,0-0.6,0.1-0.8,0c0.1,0.1,0.8,0.2,0.3,0.3l0.6,0.1
		C5.5,12.7,5,12.7,5,12.6z"/>
	<path class="st0" d="M3.8,12.9l0.2-0.1c-0.2,0-0.2,0-0.3-0.1C3.3,12.8,3.8,12.9,3.8,12.9z"/>
	<polygon class="st0" points="4.8,11.8 4.7,11.6 4.6,11.7 	"/>
	<polygon class="st0" points="4.9,11.7 5,11.7 4.8,11.6 	"/>
	<polygon class="st0" points="5.1,11.5 5,11.5 5.2,11.6 	"/>
	<path class="st0" d="M5.2,11.2l-0.2,0c0.1,0-0.2,0.1,0.1,0.1C5,11.3,5,11.2,5.2,11.2z"/>
	<path class="st0" d="M0.6,10l-0.3,0c0,0,0,0,0,0.1C0.4,10,0.5,10,0.6,10z"/>
	<path class="st0" d="M0.8,9.8L0.4,9.7C0.3,9.8,0.6,9.8,0.7,10c0.1-0.1-0.1-0.1,0-0.2L0.8,9.8z"/>
	<path class="st0" d="M1.1,7.3c0.2,0,0.2,0,0.4,0.1C1.3,7.2,1.3,7.1,1.3,7c-0.2,0-0.4-0.1-0.4,0l0.1,0.2l-0.2,0
		C0.7,7.2,1.2,7.2,1.1,7.3z"/>
	<path class="st0" d="M3.6,0.7c0.1,0,0.2,0,0.3,0C3.8,0.6,3.6,0.7,3.6,0.7z"/>
</g>
</svg>
