<?xml version="1.0" encoding="utf-8"?>
<!-- Generator: Adobe Illustrator 22.1.0, SVG Export Plug-In . SVG Version: 6.00 Build 0)  -->
<svg version="1.1" id="icn-post" xmlns="http://www.w3.org/2000/svg" xmlns:xlink="http://www.w3.org/1999/xlink" x="0px" y="0px"
	 width="29.8px" height="31.5px" viewBox="0 0 29.8 31.5" style="enable-background:new 0 0 29.8 31.5;" xml:space="preserve">
<style type="text/css">
	.st0{fill:#565656;}
</style>
<g>
	<path class="st0" d="M10.8,14.6c0.1,0,0-0.1,0-0.2C10.7,14.5,10.8,14.6,10.8,14.6z"/>
	<path class="st0" d="M9.9,15L9.9,15c0,0,0,0-0.1,0.1L9.9,15z"/>
	<path class="st0" d="M9.7,15.1L9.7,15.1L9.8,15c-0.1,0.1-0.3,0.3-0.3,0.2C9.4,15.5,9.7,15.1,9.7,15.1z"/>
	<path class="st0" d="M9.6,14.6C9.7,14.6,9.7,14.6,9.6,14.6C9.7,14.6,9.7,14.6,9.6,14.6C9.6,14.7,9.6,14.7,9.6,14.6z"/>
	<path class="st0" d="M9.7,14.6C9.7,14.6,9.7,14.5,9.7,14.6L9.7,14.6z"/>
	<path class="st0" d="M9.5,14.7l0.1-0.1c0-0.1,0-0.1,0.1-0.1C9.7,14.5,9.6,14.5,9.5,14.7z"/>
	<path class="st0" d="M9.3,14.9C9.3,14.9,9.4,14.9,9.3,14.9C9.4,14.9,9.4,14.8,9.3,14.9z"/>
	<path class="st0" d="M9.5,14.8l-0.1,0.1C9.3,14.9,9.3,15.1,9.5,14.8C9.3,14.9,9.4,14.8,9.5,14.8z"/>
	<path class="st0" d="M9.3,15c0.1-0.1,0.2-0.3,0.1-0.2C9.4,14.9,9.5,14.9,9.3,15z"/>
	<path class="st0" d="M9.3,15.5C9.3,15.5,9.3,15.5,9.3,15.5l0.1-0.1C9.4,15.5,9.4,15.4,9.3,15.5z"/>
	<path class="st0" d="M9.6,14.4c-0.1,0.1-0.1,0.1-0.2,0.2l0.1,0C9.5,14.5,9.6,14.5,9.6,14.4z"/>
	<path class="st0" d="M9.4,14.6C9.4,14.6,9.4,14.6,9.4,14.6C9.3,14.7,9.4,14.7,9.4,14.6z"/>
	<path class="st0" d="M9.1,15.3L9.1,15.3c0.1,0,0.2-0.1,0.2-0.2l-0.1,0.2C9.1,15.2,9.1,15.2,9.1,15.3z"/>
	<path class="st0" d="M9.8,14.2c-0.1,0-0.1,0.1-0.2,0.1l0.1,0L9.8,14.2z"/>
	<path class="st0" d="M9.6,14.3c0.1,0,0.2-0.1,0.2-0.1C9.8,14.2,9.8,14.2,9.6,14.3C9.7,14.2,9.7,14.2,9.6,14.3z"/>
	<path class="st0" d="M9.5,14.4l-0.1,0.1l0,0C9.4,14.5,9.5,14.5,9.5,14.4z"/>
	<path class="st0" d="M9.4,14.5C9.4,14.5,9.4,14.5,9.4,14.5L9.4,14.5C9.4,14.5,9.4,14.5,9.4,14.5z"/>
	<path class="st0" d="M8.9,15.2C9,15.2,9.1,15,9.2,14.9C9.1,15,9,15,8.9,15.2z"/>
	<path class="st0" d="M9.3,14.7c0,0-0.1,0-0.1,0l0,0.1C9.2,14.8,9.2,14.7,9.3,14.7z"/>
	<polygon class="st0" points="9.2,14.7 9.1,14.7 9.2,14.7 	"/>
	<path class="st0" d="M9.4,14.3C9.4,14.3,9.4,14.3,9.4,14.3c-0.1,0-0.1,0-0.1,0.1C9.3,14.4,9.4,14.3,9.4,14.3z"/>
	<polygon class="st0" points="9.3,13.7 9.3,13.7 9.3,13.7 	"/>
	<path class="st0" d="M9.3,14.4C9.3,14.4,9.3,14.4,9.3,14.4C9.3,14.4,9.3,14.4,9.3,14.4C9.2,14.4,9.3,14.4,9.3,14.4z"/>
	<path class="st0" d="M9.5,14.2C9.5,14.2,9.4,14.2,9.5,14.2C9.5,14.2,9.5,14.2,9.5,14.2z"/>
	<path class="st0" d="M9.4,14.4L9.4,14.4C9.5,14.4,9.4,14.4,9.4,14.4z"/>
	<path class="st0" d="M9.4,14.4C9.4,14.4,9.4,14.4,9.4,14.4C9.3,14.4,9.4,14.4,9.4,14.4C9.4,14.4,9.4,14.4,9.4,14.4z"/>
	<path class="st0" d="M9.3,14L9.3,14c0,0,0.1,0,0.2-0.1c-0.1-0.1-0.1-0.1-0.2-0.1L9.3,14L9.3,14z"/>
	<path class="st0" d="M9.3,14.2c-0.2,0-0.2-0.1-0.4,0c0,0.1,0.1,0.1,0.2,0.1C9.1,14.2,9.2,14.3,9.3,14.2C9.3,14.2,9.3,14.3,9.3,14.2
		C9.4,14.2,9.4,14.2,9.3,14.2C9.4,14.2,9.4,14.2,9.3,14.2L9.3,14.2L9.3,14.2C9.4,14.2,9.4,14.2,9.3,14.2L9.3,14.2
		C9.4,14.2,9.3,14.2,9.3,14.2C9.4,14.2,9.4,14.2,9.3,14.2L9.3,14.2L9.3,14.2c0.1,0,0-0.1,0-0.2C9.3,14.1,9.3,14.1,9.3,14.2
		C9.3,14.2,9.3,14.2,9.3,14.2z"/>
	<path class="st0" d="M9,14.9c-0.1,0.1-0.2,0.2-0.3,0.4c0,0,0.1,0,0.1,0c0,0.1-0.1,0.1-0.1,0.1c0,0,0.1,0,0.2-0.2l0,0
		C8.8,15.1,8.9,15,9,14.9z"/>
	<path class="st0" d="M9,14.6l-0.1-0.1c0,0-0.1,0.1-0.1,0.1l0.1,0C8.8,14.7,8.9,14.6,9,14.6z"/>
	<polygon class="st0" points="9.4,13.6 9.4,13.7 9.6,13.7 	"/>
	<polygon class="st0" points="9.5,13.4 9.4,13.4 9.5,13.4 	"/>
	<path class="st0" d="M13.4,12.8l0-0.1c-0.1,0-0.1,0-0.1-0.1C13.4,12.7,13.4,12.9,13.4,12.8z"/>
	<path class="st0" d="M10.2,12.1c0.1,0,0.1,0.1,0.1,0.1C10.2,12.1,10.1,12,10.2,12.1z"/>
	<path class="st0" d="M10.4,12.2C10.4,12.2,10.4,12.2,10.4,12.2c-0.1,0-0.1,0-0.1,0C10.3,12.2,10.4,12.3,10.4,12.2z"/>
	<path class="st0" d="M9.6,12.8C9.6,12.8,9.6,12.8,9.6,12.8C9.6,12.8,9.6,12.8,9.6,12.8C9.6,12.8,9.6,12.8,9.6,12.8z"/>
	<path class="st0" d="M9.5,13C9.5,13.1,9.5,13.1,9.5,13C9.5,13.1,9.6,13.1,9.5,13C9.5,13.1,9.5,13.1,9.5,13z"/>
	<path class="st0" d="M8.9,13.2C8.9,13.2,8.9,13.2,8.9,13.2c0.2,0,0.1-0.1,0.1-0.1C8.9,13.1,8.9,13.2,8.9,13.2z"/>
	<path class="st0" d="M8.9,13.3C9,13.3,8.9,13.3,8.9,13.3C8.9,13.3,8.9,13.3,8.9,13.3z"/>
	<path class="st0" d="M9.5,12.7C9.5,12.7,9.7,12.8,9.5,12.7C9.8,12.9,9.5,12.5,9.5,12.7z"/>
	<path class="st0" d="M8.8,12.5c0,0-0.1,0.1-0.1,0.1c0,0,0,0,0,0.1C8.8,12.6,8.8,12.5,8.8,12.5z"/>
	<path class="st0" d="M9.9,11.5C9.8,11.4,9.8,11.4,9.9,11.5c-0.1,0-0.2,0.1-0.1,0.1L9.9,11.5z"/>
	<path class="st0" d="M11.2,14.6L11.2,14.6c0-0.1,0-0.1-0.1-0.1L11.2,14.6z"/>
	<path class="st0" d="M10.8,14.8c0,0,0.1,0,0.1,0l0-0.2L10.8,14.8z"/>
	<path class="st0" d="M10.8,9.1c0.1,0,0.1-0.1,0.1-0.2C10.7,9,10.8,9.1,10.8,9.1z"/>
	<path class="st0" d="M9.6,9.5L9.6,9.5c0,0-0.1,0.1-0.1,0.1L9.6,9.5z"/>
	<path class="st0" d="M9,9.4C8.9,9.6,8.9,9.6,9,9.7l0,0l0,0l0.1,0c0.1,0,0.1,0,0.1,0l0,0.1c0.1-0.1,0.1-0.2,0.2-0.2
		c-0.1,0-0.2,0.1-0.3,0.1C9,9.6,9,9.5,9,9.4z"/>
	<path class="st0" d="M9.5,8.8C9.6,8.8,9.6,8.8,9.5,8.8C9.6,8.8,9.6,8.8,9.5,8.8C9.5,8.8,9.5,8.8,9.5,8.8z"/>
	<path class="st0" d="M9.6,8.8C9.6,8.8,9.7,8.7,9.6,8.8L9.6,8.8z"/>
	<path class="st0" d="M9.5,8.7C9.5,8.7,9.6,8.7,9.5,8.7c0.1,0,0.2,0,0.2,0c0,0,0-0.1-0.1-0.1C9.6,8.6,9.6,8.7,9.5,8.7z"/>
	<path class="st0" d="M9.3,8.5L9.3,8.5C9.4,8.6,9.4,8.6,9.3,8.5z"/>
	<path class="st0" d="M9.4,8.6C9.3,8.7,9.3,8.7,9.4,8.6C9.3,8.7,9.4,8.7,9.4,8.6C9.4,8.7,9.4,8.7,9.4,8.6z"/>
	<path class="st0" d="M9.2,8.8c0,0.1,0.2,0,0.2-0.1C9.4,8.8,9.3,8.9,9.2,8.8z"/>
	<path class="st0" d="M8.8,9.6L8.7,9.8c0,0,0.1,0,0.1,0C8.8,9.8,8.9,9.5,8.8,9.6z"/>
	<path class="st0" d="M9.6,7.6c-0.1,0-0.1,0.1-0.2,0.1l0.1,0.1C9.5,7.7,9.6,7.6,9.6,7.6z"/>
	<path class="st0" d="M9.4,7.7L9.3,7.5C9.3,7.7,9.4,7.7,9.4,7.7z"/>
	<path class="st0" d="M9.2,8.6L9.1,8.4l0,0.1L9.2,8.6c0,0.1,0.1,0.1,0.1,0.1C9.2,8.7,9.2,8.7,9.2,8.6z"/>
	<polygon class="st0" points="9.7,6.9 9.8,7 9.6,6.8 	"/>
	<path class="st0" d="M9.7,6.2c0,0.1,0,0.1-0.1,0.2c0.1,0,0.1,0,0.1,0c0,0,0.1,0,0.1,0C9.8,6.3,9.8,6.3,9.7,6.2z"/>
	<path class="st0" d="M9.5,7L9.4,7.1c0,0,0,0,0,0.1C9.4,7.1,9.5,7.1,9.5,7z"/>
	<path class="st0" d="M9.4,6.9c0,0,0,0.1,0,0.2l0,0C9.4,7,9.4,6.9,9.4,6.9z"/>
	<path class="st0" d="M9.2,8C9.1,7.9,9,7.6,8.9,7.9C9,8,9.1,7.8,9.2,8z"/>
	<path class="st0" d="M9.3,7.5L9.2,7.3l0,0.2C9.2,7.5,9.2,7.4,9.3,7.5z"/>
	<polygon class="st0" points="9.2,7.2 9.1,7.2 9.2,7.3 	"/>
	<path class="st0" d="M9.4,6.3c-0.1-0.1-0.1-0.1,0-0.2c0,0.1-0.1,0.1-0.1,0.2C9.4,6.3,9.4,6.3,9.4,6.3z"/>
	<polygon class="st0" points="9.7,5.5 9.7,5.5 9.7,5.5 	"/>
	<path class="st0" d="M9.3,6.4c0-0.1,0-0.1,0-0.2c0,0,0,0,0,0C9.2,6.3,9.3,6.4,9.3,6.4z"/>
	<path class="st0" d="M9.6,5.9c0,0-0.1,0-0.1,0C9.5,6,9.6,6,9.6,5.9z"/>
	<path class="st0" d="M9.4,6.6L9.4,6.6C9.5,6.5,9.4,6.5,9.4,6.6z"/>
	<path class="st0" d="M9.4,6.6c0,0-0.1-0.1-0.1-0.1C9.3,6.5,9.4,6.5,9.4,6.6C9.4,6.6,9.4,6.6,9.4,6.6z"/>
	<path class="st0" d="M9.5,5.7C9.5,5.7,9.5,5.7,9.5,5.7c0,0,0.1,0,0.2,0c0-0.1,0-0.1-0.1-0.2C9.6,5.6,9.6,5.7,9.5,5.7L9.5,5.7z"/>
	<path class="st0" d="M9.1,5.7C9,5.9,9.2,5.9,9.2,6c0-0.3,0.1,0.1,0.2-0.1c0,0.1,0,0.1,0,0.1C9.4,6,9.4,6,9.5,6l0,0l0,0l0,0
		c0,0,0,0,0,0l0,0c0,0,0,0,0,0c0.1-0.1,0,0,0,0l0,0l0,0c0-0.1,0-0.2,0-0.2c0,0-0.1,0.1-0.1,0.2C9.3,5.9,9.3,5.7,9.1,5.7z"/>
	<path class="st0" d="M8.6,7.7C8.6,7.6,8.6,7.6,8.6,7.7C8.6,7.6,8.6,7.6,8.6,7.7z"/>
	<path class="st0" d="M8.8,7.7L8.8,7.7C8.8,7.5,9,7.3,9,7.3c-0.1,0-0.2,0.1-0.4,0.2C8.7,7.5,8.7,7.5,8.8,7.7c-0.1,0.1-0.1,0-0.2,0
		C8.6,7.7,8.7,7.8,8.8,7.7z"/>
	<path class="st0" d="M9,6.6L8.9,6.3c0,0-0.1,0.1-0.1,0.1l0.1,0C8.8,6.6,8.9,6.5,9,6.6z"/>
	<path class="st0" d="M9.8,5.5c0,0,0,0.1,0,0.1l0.1,0.1C9.8,5.6,9.8,5.5,9.8,5.5z"/>
	<path class="st0" d="M10,5.5c0,0,0-0.1,0-0.1c0,0,0,0-0.1,0L10,5.5z"/>
	<path class="st0" d="M19.1,8.2L19.1,8C19,8,19,8,19,7.9C19,8.1,19,8.3,19.1,8.2z"/>
	<path class="st0" d="M13.7,5.5c0.1,0.1,0.2,0.1,0.3,0.2C13.8,5.5,13.7,5.4,13.7,5.5z"/>
	<path class="st0" d="M24.7,18.8C24.8,18.8,24.8,18.8,24.7,18.8C24.8,18.8,24.8,18.7,24.7,18.8z"/>
	<path class="st0" d="M14.3,5.7C14.3,5.7,14.2,5.7,14.3,5.7c-0.1,0-0.2,0-0.3-0.1C14,5.7,14.1,5.8,14.3,5.7z"/>
	<path class="st0" d="M12.1,9.4c0,0,0.1,0,0.2,0C12.3,9.4,12.2,9.4,12.1,9.4z"/>
	<path class="st0" d="M11.2,5.3C11.1,5.3,11.1,5.3,11.2,5.3L11.2,5.3z"/>
	<path class="st0" d="M11,5.3C11,5.3,11,5.3,11,5.3C11,5.3,11,5.3,11,5.3z"/>
	<path class="st0" d="M11.1,5.3C11.2,5.3,11.2,5.3,11.1,5.3c0,0,0.1,0,0.1,0C11.2,5.3,11.2,5.3,11.1,5.3z"/>
	<path class="st0" d="M10.4,5.4C10.4,5.4,10.4,5.4,10.4,5.4c0,0,0-0.1,0-0.1C10.4,5.3,10.4,5.4,10.4,5.4z"/>
	<path class="st0" d="M10.2,4.9c0-0.1-0.1-0.1-0.2,0c0,0,0,0,0,0C10,5.1,10.1,5,10.2,4.9z"/>
	<path class="st0" d="M9.9,4.9C9.9,4.9,9.8,4.9,9.9,4.9C9.8,5,9.9,4.9,9.9,4.9z"/>
	<path class="st0" d="M11.4,5.2c-0.1,0,0,0.2-0.1,0.1C11.3,5.5,11.8,5.2,11.4,5.2z"/>
	<path class="st0" d="M11,4.5c-0.1,0-0.1,0-0.2-0.1c0,0,0,0-0.1,0.1C10.9,4.5,11,4.6,11,4.5z"/>
	<path class="st0" d="M10.6,4.5c0,0,0.1,0,0.2,0C10.7,4.5,10.6,4.5,10.6,4.5z"/>
	<path class="st0" d="M13.5,4.7c-0.1,0-0.2,0-0.1,0.1l0.2,0C13.7,4.7,13.6,4.7,13.5,4.7z"/>
	<polygon class="st0" points="11.3,9.2 11.4,9.1 11.2,9 	"/>
	<path class="st0" d="M10.8,9.3c0,0,0.1,0,0.2,0l0-0.2L10.8,9.3z"/>
	<path class="st0" d="M10.4,17.6c0,0,0-0.2,0-0.2C10.4,17.4,10.4,17.6,10.4,17.6z"/>
	<polygon class="st0" points="10.7,17.2 10.8,17.1 10.8,17.2 	"/>
	<path class="st0" d="M11.1,17.2c0-0.2-0.1,0-0.2-0.1l0-0.1l-0.1,0.2C10.9,17.3,11.1,17.2,11.1,17.2z"/>
	<path class="st0" d="M11,17.8C11,17.8,11,17.8,11,17.8C11,17.8,11.1,17.8,11,17.8C11.1,17.7,11.1,17.7,11,17.8z"/>
	<path class="st0" d="M11,17.8C11,17.8,11,17.9,11,17.8L11,17.8z"/>
	<path class="st0" d="M11.1,18c0.1,0,0.1-0.1,0.1-0.2l-0.1,0.1C11.1,17.9,11.1,17.9,11.1,18z"/>
	<path class="st0" d="M11.3,17.6L11.3,17.6C11.3,17.7,11.3,17.7,11.3,17.6z"/>
	<path class="st0" d="M11.2,17.7C11.3,17.6,11.2,17.7,11.2,17.7L11.2,17.7C11.3,17.6,11.3,17.5,11.2,17.7z"/>
	<path class="st0" d="M11.2,17.7c0-0.1,0-0.1,0.1-0.2C11.1,17.5,11.1,17.7,11.2,17.7z"/>
	<path class="st0" d="M11.2,17L11.2,17L11.2,17C11.1,16.9,11.2,17.1,11.2,17z"/>
	<path class="st0" d="M11.4,17.9c0,0,0,0.1,0,0.1C11.4,18,11.4,17.9,11.4,17.9L11.4,17.9z"/>
	<path class="st0" d="M11.4,17.8L11.4,17.8C11.5,17.7,11.4,17.8,11.4,17.8z"/>
	<polygon class="st0" points="11.4,17.4 11.3,17.5 11.4,17.4 	"/>
	<polygon class="st0" points="11.4,18.1 11.4,18.2 11.5,18.1 	"/>
	<path class="st0" d="M11.5,18.1c-0.1,0.1-0.1,0.1-0.1,0.2C11.4,18.3,11.5,18.3,11.5,18.1C11.5,18.2,11.5,18.2,11.5,18.1z"/>
	<path class="st0" d="M11.5,18l0.1-0.1l0,0C11.5,17.9,11.5,17.9,11.5,18z"/>
	<path class="st0" d="M11.6,17.8C11.6,17.9,11.6,17.9,11.6,17.8C11.6,17.9,11.6,17.9,11.6,17.8L11.6,17.8z"/>
	<path class="st0" d="M11.7,17.3c-0.1,0.1-0.1,0.2-0.2,0.2C11.5,17.5,11.6,17.5,11.7,17.3z"/>
	<path class="st0" d="M11.5,17.7l0.1-0.1l0-0.1C11.6,17.6,11.6,17.7,11.5,17.7z"/>
	<polygon class="st0" points="11.6,17.7 11.7,17.6 11.6,17.7 	"/>
	<path class="st0" d="M11.7,18c0.1,0,0.1,0,0.1,0c0,0,0-0.1,0-0.1C11.7,17.9,11.7,18,11.7,18z"/>
	<polygon class="st0" points="12,18.2 12,18.2 12,18.2 	"/>
	<path class="st0" d="M11.7,17.9C11.7,17.9,11.8,17.9,11.7,17.9C11.8,17.9,11.8,17.9,11.7,17.9C11.8,17.8,11.8,17.9,11.7,17.9z"/>
	<path class="st0" d="M11.8,18.2C11.8,18.1,11.8,18.1,11.8,18.2C11.8,18.1,11.7,18.2,11.8,18.2z"/>
	<path class="st0" d="M11.6,17.9L11.6,17.9C11.6,18,11.6,18,11.6,17.9z"/>
	<path class="st0" d="M11.6,17.9C11.7,17.9,11.7,17.9,11.6,17.9C11.7,17.9,11.7,17.9,11.6,17.9C11.7,17.9,11.6,17.9,11.6,17.9z"/>
	<path class="st0" d="M11.9,18.1L11.9,18.1c0,0-0.1,0.1-0.1,0.2C11.9,18.2,11.9,18.2,11.9,18.1L11.9,18.1L11.9,18.1z"/>
	<path class="st0" d="M12.1,17.8c-0.1,0-0.1,0.1-0.2,0.1c0.1,0-0.1,0-0.1,0.1c0,0,0,0-0.1,0c0,0,0,0.1,0,0.1c0,0,0,0,0,0h0l0,0
		c0,0,0,0,0,0l0,0c0,0,0,0,0,0c0,0,0,0,0,0l0,0l0,0c0,0,0.1,0,0.1,0c0,0,0,0-0.1-0.1C12,17.9,12.1,17.9,12.1,17.8z"/>
	<path class="st0" d="M11.9,17.2C11.9,17.2,11.8,17.2,11.9,17.2C11.8,17.2,11.8,17.2,11.9,17.2c0,0-0.1,0-0.1,0.1L11.9,17.2
		c-0.1,0.1-0.1,0.2-0.1,0.3C11.8,17.4,11.8,17.3,11.9,17.2z"/>
	<path class="st0" d="M12.1,17.5L12.1,17.5c-0.1,0-0.1,0.1-0.2,0.1c0,0,0.1,0,0.1,0L12.1,17.5z"/>
	<polygon class="st0" points="11.9,18.2 11.8,18.3 12,18.2 	"/>
	<polygon class="st0" points="11.9,18.4 12,18.4 12,18.3 	"/>
	<path class="st0" d="M11.9,20.5l0.1,0.1c0,0,0,0,0,0C12,20.5,11.8,20.5,11.9,20.5z"/>
	<path class="st0" d="M12.4,19.2C12.4,19.3,12.4,19.3,12.4,19.2C12.4,19.3,12.6,19.2,12.4,19.2z"/>
	<path class="st0" d="M12.4,19.4C12.4,19.4,12.4,19.4,12.4,19.4C12.4,19.3,12.4,19.3,12.4,19.4C12.3,19.3,12.3,19.4,12.4,19.4z"/>
	<path class="st0" d="M12.1,18.7C12.1,18.6,12.1,18.6,12.1,18.7C12.1,18.6,12.1,18.6,12.1,18.7z"/>
	<path class="st0" d="M12.2,18.7C12.2,18.7,12.2,18.7,12.2,18.7C12.2,18.7,12.2,18.7,12.2,18.7C12.2,18.7,12.2,18.7,12.2,18.7z"/>
	<path class="st0" d="M12.1,18.5C12,18.5,12,18.5,12.1,18.5L12.1,18.5C12,18.5,12.1,18.5,12.1,18.5z"/>
	<path class="st0" d="M12.4,18.1L12.4,18.1c-0.2,0.1-0.1,0.1,0,0.1C12.5,18.1,12.5,18.1,12.4,18.1z"/>
	<path class="st0" d="M12.4,18.1C12.3,18.1,12.4,18.1,12.4,18.1C12.4,18.1,12.4,18.1,12.4,18.1z"/>
	<path class="st0" d="M12.3,18.7c0,0-0.2,0.1-0.1,0C12,18.8,12.4,18.7,12.3,18.7z"/>
	<path class="st0" d="M12.9,18.3L12.9,18.3C12.9,18.2,12.8,18.2,12.9,18.3C12.8,18.2,12.8,18.3,12.9,18.3z"/>
	<path class="st0" d="M13.2,19c0,0-0.1,0-0.1,0L13.2,19C13.2,19.1,13.2,19,13.2,19z"/>
	<polygon class="st0" points="10.3,17.5 10.3,17.5 10.3,17.4 	"/>
	<path class="st0" d="M10.3,17.2l0,0.2L10.3,17.2C10.4,17.2,10.3,17.2,10.3,17.2z"/>
	<path class="st0" d="M14.9,31.3c-0.1,0,0,0.2,0,0.2C15.1,31.3,14.9,31.2,14.9,31.3z"/>
	<polygon class="st0" points="16.8,30.1 17,29.8 16.8,30 	"/>
	<path class="st0" d="M17.6,29.5L17.6,29.5l-0.1,0.2c0.4-0.3,0.8-0.7,1.1-0.8C18.3,28.9,18,29.4,17.6,29.5z"/>
	<path class="st0" d="M19.6,28.9C19.7,28.9,19.7,28.9,19.6,28.9c0.1,0,0.1-0.1,0.2-0.1C19.8,28.8,20,28.6,19.6,28.9z"/>
	<path class="st0" d="M19.7,28.9C19.5,29.1,19.9,28.9,19.7,28.9L19.7,28.9z"/>
	<path class="st0" d="M20.5,28.3l-0.2,0.2c0.1,0,0.3-0.1,0.3,0C20.8,28.3,20.7,28.3,20.5,28.3z"/>
	<path class="st0" d="M20.7,28l-0.1,0.1C20.6,28.1,20.6,28.1,20.7,28z"/>
	<path class="st0" d="M20.4,28.2c0-0.1,0,0-0.1,0.1l0.2-0.3C20.5,28.1,20.4,28.1,20.4,28.2z"/>
	<path class="st0" d="M20,28.3c-0.5,0.3-0.3,0.4,0.2,0.1C20,28.5,19.8,28.6,20,28.3z"/>
	<path class="st0" d="M18.6,28.7l-0.2,0.1l-0.1,0.2C18.3,28.8,18.6,28.8,18.6,28.7z"/>
	<path class="st0" d="M21.7,27.4c0.1,0,0.3-0.1,0.4-0.1c0-0.1-0.2,0-0.2-0.1L21.7,27.4z"/>
	<path class="st0" d="M21.9,27.2l0.2-0.3C21.8,27.1,21.8,27.2,21.9,27.2z"/>
	<polygon class="st0" points="20.5,27.7 20.2,28.2 20.6,27.7 	"/>
	<polygon class="st0" points="23,26.7 23.1,26.4 23.1,26.5 	"/>
	<path class="st0" d="M23.7,25.9c0,0.2,0.3,0,0.2,0.1c0.2-0.2,0.2-0.4,0.3-0.5C24.1,25.7,23.9,25.8,23.7,25.9z"/>
	<path class="st0" d="M22.8,26.6l-0.2,0c0,0-0.1,0.1-0.1,0.1C22.5,26.6,22.6,26.7,22.8,26.6z"/>
	<path class="st0" d="M22.6,26.5L22.6,26.5c0.1-0.1,0.2-0.1,0.2-0.2C22.8,26.4,22.7,26.4,22.6,26.5z"/>
	<path class="st0" d="M21.3,27c0,0.2,0.2,0.1,0,0.4C21.4,27.2,21.7,26.9,21.3,27z"/>
	<path class="st0" d="M22,26.9l0.2-0.3L22,26.8C22,26.8,22.1,26.8,22,26.9z"/>
	<polygon class="st0" points="22.2,26.6 22.3,26.5 22.3,26.4 	"/>
	<path class="st0" d="M23.8,25.6c0.1-0.1,0.2-0.3,0.3-0.4c-0.2,0.1-0.3,0.3-0.5,0.4C23.6,25.6,23.6,25.7,23.8,25.6z"/>
	<polygon class="st0" points="25.3,23.8 25.3,23.8 25.3,23.8 	"/>
	<path class="st0" d="M23.6,25.5c-0.1,0.1-0.2,0.2-0.2,0.3C23.4,25.7,23.5,25.6,23.6,25.5C23.6,25.5,23.6,25.5,23.6,25.5z"/>
	<path class="st0" d="M24.6,24.8c-0.1,0-0.2,0.1-0.2,0.1C24.5,24.9,24.6,24.9,24.6,24.8z"/>
	<path class="st0" d="M23.3,26L23.3,26C23.3,26,23.3,26,23.3,26z"/>
	<path class="st0" d="M23.3,26c0-0.1,0.1-0.1,0.1-0.2C23.3,25.9,23.3,25.9,23.3,26C23.2,26,23.3,26,23.3,26z"/>
	<path class="st0" d="M24.8,24.3l-0.1,0.1c0.1-0.1,0.2-0.2,0.5-0.2c0.1-0.2,0.1-0.3,0.1-0.3L24.8,24.3L24.8,24.3z"/>
	<path class="st0" d="M24.3,24.9c0-0.2,0.2-0.5-0.1-0.4c-0.3,0.3-0.1,0.3-0.2,0.5C24.4,24.4,23.9,25.1,24.3,24.9
		c-0.1,0.1-0.2,0.2-0.2,0.3C24.2,25.1,24.3,25,24.3,24.9L24.3,24.9L24.3,24.9L24.3,24.9C24.3,25,24.3,24.9,24.3,24.9
		C24.3,24.9,24.3,24.9,24.3,24.9C24.3,24.9,24.3,24.9,24.3,24.9C24.5,24.7,24.4,24.9,24.3,24.9C24.3,24.9,24.3,24.9,24.3,24.9
		L24.3,24.9c0.2-0.1,0.3-0.3,0.4-0.5C24.6,24.5,24.5,24.6,24.3,24.9z"/>
	<path class="st0" d="M21.4,26.5C21.4,26.5,21.4,26.5,21.4,26.5C21.4,26.5,21.4,26.5,21.4,26.5z"/>
	<path class="st0" d="M22.1,26.5c-0.1-0.1-0.3-0.1-0.5-0.1c0,0,0,0.1-0.1,0.2c-0.1,0,0-0.1-0.1-0.1c0,0.1-0.2,0.3,0.1,0.2l0,0
		C21.7,26.5,22.1,26.5,22.1,26.5z"/>
	<path class="st0" d="M23,25.3L23,25.3c-0.2,0.2-0.1,0.3-0.1,0.3l0.4-0.4L23,25.3z"/>
	<polygon class="st0" points="25.5,23.9 25.5,23.6 25.4,23.8 	"/>
	<polygon class="st0" points="26,23.3 26,23.1 25.9,23.2 	"/>
	<path class="st0" d="M26.8,5.8l-0.1,0.2C26.9,6,26.9,6.2,27,6.3C26.9,6,26.9,5.7,26.8,5.8z"/>
	<path class="st0" d="M29.2,16.5c0.1-0.2,0.2-0.4,0.2-0.5C29.3,16.2,29.1,16.4,29.2,16.5z"/>
	<path class="st0" d="M6.4,2.4C6.3,2.5,6.3,2.6,6.3,2.6C6.4,2.5,6.4,2.4,6.4,2.4z"/>
	<path class="st0" d="M29.5,15.4c0,0,0,0.1,0,0.1c0,0.2,0,0.3,0,0.5C29.5,15.8,29.6,15.6,29.5,15.4z"/>
	<path class="st0" d="M14.2,28.6c0-0.1,0-0.2,0-0.2c0,0,0,0,0,0C14.2,28.4,14.2,28.5,14.2,28.6z"/>
	<path class="st0" d="M27.6,20.8C27.5,20.9,27.6,20.8,27.6,20.8L27.6,20.8z"/>
	<path class="st0" d="M27.5,21c0,0-0.1,0.1-0.1,0.1C27.4,21.1,27.4,21.1,27.5,21z"/>
	<path class="st0" d="M27.6,20.8c0,0,0.1-0.1,0.1-0.2C27.6,20.7,27.6,20.7,27.6,20.8C27.5,20.8,27.5,20.8,27.6,20.8z"/>
	<path class="st0" d="M29.7,12.4c-0.1-0.4-0.2-0.8-0.2-1.1l-0.2,0c-0.1-0.4-0.2-0.7-0.4-1.1l-0.1,0.1c-0.2-0.3-0.3-1-0.5-1.6
		c0.1,0,0.1,0.2,0.1,0.3c0-0.4-0.2-0.8-0.5-1.1c-0.2-0.3-0.5-0.6-0.6-0.9c-0.1-0.1-0.2-0.2-0.2-0.3c0,0,0,0,0,0c0,0,0,0,0-0.1
		c0-0.1,0-0.2-0.1-0.2c0,0.1,0,0.2,0,0.2c-0.1-0.1-0.2-0.3-0.4-0.4l0.1-0.2c0,0,0,0,0,0c-0.1-0.2-0.2-0.1-0.2,0.1
		c-0.1-0.1-0.2-0.1-0.2-0.1c0.1-0.3-0.4-0.3-0.3-0.7c-0.2,0-0.8-0.6-1-0.5c0,0,0-0.1,0.1,0c-0.1-0.2-0.2-0.4-0.5-0.4L24.6,4
		l-0.5-0.1c-0.1-0.3-0.2-0.4,0.1-0.4c-0.7-0.3-0.5-0.3-1.1-0.4L23.2,3c-0.2-0.1-0.5-0.2-0.6-0.3c-0.1-0.2-0.6-0.5-1.2-0.9
		c-0.6-0.3-1.3-0.6-1.8-0.9c0.1,0.5-0.5-0.4-0.6-0.1c0-0.1-0.2-0.2,0-0.2c-0.6-0.1-0.9-0.4-1.3-0.2c0-0.1,0.2-0.1,0.1-0.2
		c-0.1,0-0.2,0-0.3,0C17.5,0,17.7,0,17.8,0c-0.6-0.1-0.8,0.2-0.8,0.4c-0.3-0.2-0.5-0.2-0.7,0c-0.1-0.1-0.3-0.2,0.1-0.2
		C16.2,0.1,15,0,15,0.2c-0.1-0.1-0.3,0-0.4,0c-0.5,0-0.5,0-1,0l0.1,0c-0.2,0.3-0.4,0.1-0.8,0.2l0,0c-0.9-0.1-0.4,0.1-1.3,0.1
		l0.1,0.2c0,0.4-0.8,0-1.2,0.2l0.2,0c-0.2,0.2-0.9-0.2-1.2-0.2c-0.1,0,0.1-0.1,0.1-0.1C9,0.7,9.8,0.8,9.3,1.1C9.1,1,9.3,0.7,8.9,0.9
		c-0.2,0-0.8,0.8-1.4,0.8c0.1,0,0.3,0,0.1,0.2C7.3,2.2,6.5,2.1,6.4,2.6c-0.1,0-0.1,0-0.1,0C6.1,2.8,5.6,3.2,5.6,3.5
		C5.3,3.3,5,3.7,4.7,4C4.4,4.3,4.2,4.7,4,4.5L3.4,5.2l0-0.1C3,5.6,3,5.8,2.9,6C2.8,6.1,2.8,6,2.8,6C2.2,6.6,2.2,6.7,2,7.4l-0.2,0
		c0,0.2-0.9,0.9-1,1.8c0,0,0,0,0-0.1c0,0.2-0.2,0.5-0.3,0.7c-0.1,0.2-0.2,0.5-0.3,0.7c-0.2,0.5-0.3,0.9,0,1.1l0,0.6
		c0.2-0.8,0.2,0.2,0.4-0.1c0,0.3-0.3,0.8-0.3,0.4c0,0,0,0,0-0.1c-0.3-0.2-0.2,1-0.4,0.9c0,1.6,0.1,3.2,0.6,4.6l0.2-0.2l0.2,0.5
		c0,0.1-0.1,0.2-0.2-0.1c-0.1,0.2,0.3,0.5,0.4,0.5c0.2,0.7-0.4-0.1-0.3,0.1L0.9,19l0-0.1c0.2,0.2,0.3,0.2,0.5,0.6
		c0.1,0.3-0.1,0.2,0,0.3c0,0,0,0,0.1,0.2c0.1,0.2,0.2,0.4,0.3,0.6l0-0.3c0.2,0.2,0.3,0.5,0.4,0.1c-0.1,0.6,1.3,2,1.4,2.3
		c0.4,0.2,0.6,0.5,1,0.8c-0.1-0.1,0-0.3,0.3,0c-0.4,0.2,0.4,0.7,0.5,1.1c-0.1-0.4,1,0.7,0.8,0.1c0.3,0.2-0.1,0.2,0.1,0.4
		c0.4,0.2,0.8,0.4,1.2,0.7c0.4,0.3,0.9,0.6,1.4,0.7c0-0.1-0.1-0.2,0.2-0.2l0.4,0.5c0.2,0,0.3-0.3,0.6,0.1c0-0.1-0.1-0.2,0.1-0.1
		c0.5,0.2,1,0.4,1.5,0.5c0.5,0.1,1,0.2,1.6,0.2c0.6,0,0.8,0.1,1.1,0.1l0.1,0c0,0,0.1,0,0,0.1c0,0.1,0,0.2-0.1,0.2
		c0,0.2-0.1,0.3-0.2,0.4c0.1-0.1,0.1-0.1,0.1,0c0-0.1,0.2,0,0.2,0c-0.1,0.2-0.2,0.5-0.3,0.7c0.2,0.2-0.1,0.9,0.1,1l0-0.3
		c0.1,0.2,0.3,0.1,0.5-0.1c-0.1,0.3-0.1,0.6-0.2,0.8c2.2-0.9,6.4-3.1,9.6-6.6c0,0,0,0,0,0l0.1,0c0.1-0.1,0.2-0.3,0.1-0.2
		c0.1-0.1,0.2-0.2,0.3-0.4c-0.1,0.3,0.4,0.4,0.7,0.4c0,0-0.1-0.1,0.1-0.4c-0.1,0-0.6,0.5-0.5,0.2c0.2-0.4,0.3-0.2,0.5-0.4
		c-0.2,0,0.1-0.5,0-0.6c0.5-0.7,1-1.4,1.5-2.2c0,0,0,0,0.1,0l0.1-0.2c0.2-0.1,0,0.5,0.2,0.3c-0.1,0.3-0.1,0.8-0.4,1.1l-0.2,0
		c0.1,0,0.3-0.2,0.3-0.3c0,0.2-0.6,0.5-0.5,0.8l0.3-0.2c-0.1,0.3-0.1,0.8-0.5,1.1c0.3,0,0-0.1,0.4-0.2c-0.4,0,0.6-0.9,0.1-0.7
		c0.4-0.1,0.4-0.4,0.8-0.6c-0.1,0-0.2,0.1,0-0.2c0,0,0-0.1,0-0.1c0,0,0,0,0,0l0,0c0,0,0,0,0,0c-0.1,0.1-0.1,0.1-0.2,0.1
		c-0.1-0.2,0.2-0.7,0.3-0.9c0.1-0.2,0,0.1,0.1,0.1l0-0.3c0.2,0.1,0.5-0.4,0.3,0.1l0.2-0.4c0.2-0.2,0.4-0.5,0.4-0.8
		c0.1-0.2,0.1-0.6,0.1-0.4c0.1-0.2,0.1-0.5,0.2-0.7l0,0c0.3-0.7,0.2-1.5,0.6-2.3c0-0.2,0-0.5,0-0.9l0.1-0.1c0-0.2,0-0.4,0.1-0.6
		c0-0.2,0-0.4-0.1-0.5C29.8,13.2,29.8,12.8,29.7,12.4z M1.5,19.8l0-0.1C1.6,19.9,1.5,19.9,1.5,19.8z M24.1,12.7
		C24.1,12.7,24.1,12.7,24.1,12.7c0,0.2,0,0.2,0,0.3l-0.3-0.3C23.8,12.6,23.9,12.6,24.1,12.7c-0.1-0.1-0.1-0.1-0.2-0.1
		c0-0.1,0-0.1,0.1-0.1C24,12.5,24,12.6,24.1,12.7C24,12.6,24,12.6,24.1,12.7C24,12.6,24,12.7,24.1,12.7z M24,3.9
		c-0.1,0-0.1,0.1-0.2,0.2c-0.1-0.1-0.2-0.2-0.3-0.2C23.7,3.9,23.9,3.9,24,3.9z M21.2,8.6c0.1,0.1,0.1,0.1,0.2,0.2
		c-0.1,0-0.3,0-0.4,0.1C21,8.8,21.1,8.7,21.2,8.6z M18.6,6.6c0.1,0.1,0.3,0.2,0.4,0.3C18.7,6.9,18.5,7,18.3,7l0-0.1l-0.3,0
		C18.1,6.7,18.3,6.7,18.6,6.6z M17.2,5.8C17.1,6,17,6.2,16.9,6.2c0,0-0.3-0.4-0.4-0.6c0,0,0-0.1,0-0.1c0.1,0,0.2,0.1,0.3,0.1
		l-0.1,0.2l0.1-0.2C17,5.7,17.1,5.8,17.2,5.8z M16.8,0.6c0.1,0,0,0.1-0.1,0.2c0,0,0.1,0,0.1,0c0.1,0,0.1,0.1,0.1,0.1
		c-0.1,0-0.2,0-0.3,0c0,0,0.1,0,0.1-0.1c0,0-0.1,0-0.2,0c0,0-0.1,0-0.1,0c-0.1-0.1-0.2-0.1-0.2-0.2L16.8,0.6z M15.4,5.1
		c0.1,0,0.2,0.1,0.3,0.1c-0.1,0-0.2,0.1-0.3,0.1C15.4,5.2,15.4,5.1,15.4,5.1z M12.1,4.5c0.3-0.1,0.4,0.2,0.6,0.2l-0.2-0.1
		c0.1,0,0.3-0.1,0.4,0c0,0,0,0-0.1-0.1c0.4,0.1,0.8,0.1,1.3,0.2C13.9,4.9,13.6,5,13.4,5c-0.3,0-0.1-0.2-0.2-0.2
		c-0.6-0.1-0.6,0.4-1.1,0.2C12,4.8,12.2,4.6,12.1,4.5z M12.1,5.2L12.1,5.2C12.3,5.3,12.2,5.3,12.1,5.2z M9.4,4.7
		C9.4,4.7,9.4,4.7,9.4,4.7C9.4,4.7,9.4,4.7,9.4,4.7C9.4,4.7,9.4,4.7,9.4,4.7z M9.3,4.8C9.3,4.9,9.2,5,9.1,5C9.1,4.9,9.2,4.9,9.3,4.8
		z M8.5,13.5L8.5,13.5C8.5,13.5,8.5,13.5,8.5,13.5L8.5,13.5z M8.5,13.6c0.1,0.1,0.1,0.1,0,0.2V13.6z M11,22.4
		C11,22.3,11,22.3,11,22.4C11,22.3,11,22.3,11,22.4C11,22.4,10.9,22.4,11,22.4c-0.1-0.1-0.1-0.1-0.1-0.1c0,0,0.1-0.1,0.1-0.1
		C11,22.1,11,22.2,11,22.4c0-0.1,0-0.1,0-0.1C11,22.3,11,22.3,11,22.4C11,22.3,11,22.4,11,22.4z M12.3,21.7
		c-0.1-0.1-0.1-0.2-0.1-0.3C12.2,21.4,12.3,21.5,12.3,21.7C12.4,21.6,12.3,21.6,12.3,21.7z M12.4,20.3
		C12.3,20.3,12.3,20.3,12.4,20.3c-0.3-0.1,0.1,0.3-0.1,0.2c0,0,0,0.1,0,0c0,0,0,0,0,0c0,0,0,0,0,0c0,0-0.1,0-0.1,0c0,0,0.1,0,0.1,0
		c0,0,0,0.1,0,0.1l-0.1-0.1c0,0,0,0,0,0c-0.1,0,0.1,0.1,0.2,0.1c0,0,0,0.1,0.1,0.1c-0.2-0.1,0,0.1-0.2,0c0.1,0.1,0,0.2,0.2,0.4
		c0,0,0,0,0,0c0,0-0.1,0-0.1,0.1L12,21.1c0.1,0.1,0.1,0.2,0.1,0.3c-0.1-0.1-0.2-0.1-0.3-0.3c0.1,0.3,0,0.1,0.1,0.4l-0.1-0.1
		c0,0,0,0.2,0,0.1c-0.2-0.2-0.3,0.2-0.6,0c0.2,0.4-0.1-0.1,0,0.2c0-0.1-0.1-0.1-0.1-0.2c-0.1,0.1-0.2-0.1-0.1,0.2c0-0.1,0-0.1,0-0.2
		c0,0,0,0.1,0,0c0-0.1,0-0.1,0-0.1c-0.1,0,0,0.3,0,0.6c-0.1-0.1-0.1-0.1-0.1,0.1c0-0.1-0.1-0.2,0-0.2c0,0-0.2-0.1-0.2,0.1
		c0-0.1-0.1,0-0.1,0c-0.1,0-0.1,0-0.2,0l0,0c0,0.3-0.1,0.1-0.1,0.1l0,0c-0.1-0.2-0.1,0.1-0.2-0.1l0,0.2C10,22.4,10,21.9,9.9,22
		l0,0.1c-0.1,0.1,0-0.5,0-0.6c0,0,0,0,0-0.1c0-0.2-0.1,0.2-0.2,0.2c0-0.1,0.1-0.3,0.1-0.3c0-0.1-0.3,0.3-0.3,0.1
		c0,0.1,0,0.2-0.1,0.2c-0.1,0,0-0.4-0.2-0.1c0,0,0,0,0-0.1c-0.1,0-0.2,0-0.3,0.1c0.3-0.5-0.4,0-0.1-0.4l-0.1-0.1l0,0
		c0-0.1-0.1,0-0.3,0c0,0,0.1-0.1,0.1-0.1c0-0.2,0-0.2-0.3-0.1l0.1-0.1c-0.1,0,0.1-0.3-0.1-0.3c0,0,0,0,0.1,0
		c-0.3-0.1,0.3-0.5-0.3-0.3c-0.1,0-0.1,0-0.2-0.1c0,0.1-0.3,0.1-0.4,0.1c-0.1-0.1,0.1-0.2,0.2-0.1l0,0C8.1,20.1,7.9,20,8.1,20
		c-0.1-0.2,0.1-0.5,0.1-0.7l-0.3,0l0-0.1c0.1,0,0.2,0,0.2,0.1c0.1,0-0.1-0.1-0.2-0.1c0.1-0.1,0.3,0.1,0.3,0.1l0,0l0,0
		c-0.1-0.1-0.2-0.1-0.2-0.1c0.1,0,0.2,0,0.2,0c0,0,0,0,0,0l0-0.1l-0.2,0c-0.1-0.1,0-0.1-0.2-0.1c0.4,0,0.3-0.3,0.4-0.3
		c-0.1-0.1-0.1-0.2,0-0.2c0,0-0.2-0.1-0.2-0.2c0.4,0.3,0.2,0,0.5,0.2c-0.2-0.1,0.1-0.2-0.2-0.3c0.1,0,0.1,0.1,0.2,0.2
		c0-0.2,0.3-0.1,0.4-0.3c0-0.1-0.1-0.1-0.1-0.2c0.1,0.1,0.2,0.1,0.2,0.2c0,0-0.2-0.3,0-0.2c0,0-0.1-0.1-0.1-0.1
		c0.2,0,0.3-0.1,0.5-0.2c0.1-0.1,0.3-0.1,0.5,0.1c-0.1-0.1,0-0.1,0-0.1c0,0,0-0.1,0-0.2c0.1,0.1,0.1,0.1,0.2,0.2
		c0-0.2,0.1,0,0.1-0.2l0,0c0-0.1,0-0.3-0.1-0.5c0.1,0,0.1,0,0.2,0c0.8,0,1.6,0.4,2.1,0.9c0,0,0,0,0,0l-0.1,0.1c0,0,0.1,0,0.1,0
		c0,0,0,0.1,0.1,0.1c-0.1,0-0.4,0.4-0.6,0.5c0,0,0.1-0.1,0.2-0.1c0.1-0.1,0.1-0.2,0.2-0.3c0.1,0,0,0.1,0,0.2
		c0.1-0.1,0.2-0.1,0.4-0.2c0,0,0.1,0.1,0.1,0.1L12.7,18l0.1-0.1l0-0.1c0.1,0.1,0.1,0.2,0.2,0.4c0,0,0,0-0.1,0l0,0
		c-0.1,0.1-0.2,0-0.3,0.1c-0.1,0-0.3,0-0.3-0.1l0.2-0.1c0,0-0.1,0.1,0,0.1c0-0.1,0.2-0.2-0.1-0.1l-0.1,0.1c-0.1,0-0.3,0.1-0.3,0
		c-0.2,0.1,0,0-0.1,0.2c0.2-0.2,0.1,0.1,0.3-0.1c-0.2,0.2-0.1,0.1-0.3,0.3c0.1,0,0.1-0.1,0.1,0c0,0,0,0,0.1,0l0,0l0,0c0,0,0,0,0,0
		c0,0,0.1-0.1,0.1-0.1c0.2-0.1,0.2,0,0.3,0c0,0-0.1,0-0.1,0.1l0.1,0c-0.1,0.1-0.2,0.2-0.3,0.1l0,0.1c-0.1,0.1-0.1,0.1,0,0.1
		c0,0,0.2,0,0.1,0l0.1,0.1l0,0c0,0.1,0.3,0.2,0,0.3c0,0,0.1,0.1,0,0.1l-0.1,0c0.1,0-0.1,0.1,0,0.1c-0.4,0-0.1,0.2-0.2,0.2l0.2,0
		c0,0,0,0.1,0.1,0.2l0.2,0C12.6,20.2,12.4,20.2,12.4,20.3z M8.2,19L8.2,19C8.1,18.9,8.2,19,8.2,19z M12.6,17.6
		C12.6,17.7,12.6,17.7,12.6,17.6C12.6,17.7,12.6,17.7,12.6,17.6z M12.7,17.7C12.7,17.7,12.7,17.7,12.7,17.7
		C12.7,17.7,12.7,17.7,12.7,17.7L12.7,17.7z M12.4,18.8C12.3,18.9,12.3,18.9,12.4,18.8C12.4,18.8,12.4,18.8,12.4,18.8z M12.6,18.8
		c0.2-0.1,0.4-0.1,0.5-0.2c0.1,0.1-0.1,0.2-0.1,0.2l0.1-0.1c0.1,0,0.1,0.1,0.1,0.1c0,0,0,0,0,0c0,0.1,0.1,0.3,0.1,0.4
		c-0.2,0-0.3-0.1-0.4-0.1C12.7,19,13,19,12.9,19C12.9,18.8,12.4,18.9,12.6,18.8z M12.9,20.9c-0.2-0.1-0.3-0.3-0.4-0.3l0.1,0
		c0,0-0.1-0.1-0.1-0.1c0.1,0.1,0.3,0.2,0.4,0.3C13,20.8,13,20.8,12.9,20.9z M13.2,20.1L13,20.1L13.2,20.1c0,0,0,0.1,0,0.1
		c-0.2,0-0.4-0.1-0.4-0.1c0,0,0.3-0.1,0.4-0.1C13.2,20,13.2,20,13.2,20.1C13.2,20.1,13.2,20.1,13.2,20.1z M13.3,19.7
		c-0.1,0-0.1-0.1-0.1-0.1C13.2,19.6,13.2,19.6,13.3,19.7C13.3,19.6,13.3,19.7,13.3,19.7z M18,19.1c0,0.1,0,0.1,0,0.2l-0.1,0
		c-0.1,0.1,0,0.2,0.1,0.3c0,0-0.1,0-0.1,0c-0.2,0.2-0.2,0.1-0.1,0.5L17.7,20c0,0.1-0.1,0.1-0.2,0.1c-0.1,0-0.2,0-0.3,0.2
		c0,0,0-0.1,0-0.1c-0.1,0.1-0.2,0.1-0.4,0c-0.1,0-0.2-0.1-0.2,0.3l-0.2,0.2c0.3,0,0,0.3,0.1,0.4c-0.1,0-0.3-0.2-0.2-0.2l0,0
		c0.1-0.3-0.4-0.1-0.4-0.3c-0.1,0-0.1,0-0.2,0c-0.1,0-0.1,0-0.1,0c-0.1,0-0.2,0-0.2-0.1c-0.1,0-0.2-0.1-0.3-0.1l-0.2,0.3l-0.1,0
		c0-0.1,0.2-0.2,0.3-0.2c0.1-0.1-0.3,0.1-0.3,0.2c0.1-0.1,0.2-0.2,0.2-0.2c0.1,0,0.2-0.1,0.2-0.1c0,0,0,0,0,0l0,0
		c-0.1,0.1-0.3,0.2-0.2,0.1c0.1-0.1,0.2-0.1,0.2-0.2c0,0,0,0,0,0l0.1-0.1c-0.1,0-0.2,0.1-0.2,0.2c-0.1,0,0.1-0.1-0.2,0
		c0.4-0.3,0.3-0.5,0.4-0.7c-0.1-0.2-0.1-0.3-0.1-0.5c0,0.1-0.3,0.1-0.2-0.1c0.5,0,0.2-0.3,0.5-0.5c-0.2,0.2-0.2-0.5-0.4-0.2
		c0-0.2,0.2-0.1,0.2-0.2c-0.3-0.3-0.2-0.8-0.5-1.2c-0.1,0-0.1,0.1-0.2,0.1c0-0.1,0.1-0.2,0.1-0.4c-0.1-0.1-0.3,0.1-0.3-0.1
		c0,0.1-0.1,0.1-0.1,0.1c-0.2-0.4-0.5-0.7-0.9-0.9c-0.4-0.2-0.8-0.4-1.1-0.8c0.1,0.1,0,0.1-0.1,0.1c0.1,0,0,0.1,0,0.2
		c-0.1-0.1-0.2-0.2-0.3-0.3c-0.1,0.2-0.4,0-0.5,0.2l0.1,0c-0.1,0.1,0,0.3,0,0.5c0,0,0,0,0,0c-0.1,0-0.2,0-0.3,0
		c-0.5,0-0.9,0.1-1.4,0.3l-1,0.4v-2c0,0,0,0,0,0l0.1,0C8.6,14,8.6,14,8.5,14v-0.2c0.1,0.1,0.6,0,0.8-0.1c-0.1,0-0.1,0-0.2-0.1
		c-0.1,0-0.2,0.3-0.3,0.2c-0.1-0.2,0-0.1,0.1-0.2c-0.2,0.1-0.2-0.1-0.4-0.2v-0.1c0,0,0-0.1,0-0.1l0.2,0l-0.1-0.1l0,0.1
		c0-0.3,0.1-0.5,0.2-0.7c0,0,0,0,0.1,0c0,0,0-0.1,0-0.1c0.2,0,0.1,0.2,0.2,0.2c0,0.1,0.2,0.3,0.1,0.4l-0.2,0c0,0,0.1,0,0.1-0.1
		c-0.1,0.1-0.3,0.1-0.1,0.2C8.9,13,9,13,9,13c0.1,0.1,0.3,0.2,0.2,0.3c0.2-0.1,0,0,0.2-0.1c-0.3,0,0-0.2-0.3-0.2
		c0.3,0,0.1-0.1,0.4-0.1c-0.1,0-0.1,0-0.1-0.1c0,0,0,0-0.1,0l0,0l0,0c0,0,0,0,0,0c0,0-0.1,0-0.1,0c-0.1-0.1-0.1-0.2-0.1-0.3
		c0.1,0,0.1,0.1,0.1,0.1c0,0,0-0.1-0.1-0.1c0.1,0.1,0.3,0,0.3,0.2c0,0,0,0,0.1-0.1c0.1,0,0.2,0,0.2-0.1c0.1,0,0-0.2,0-0.1
		c0-0.1,0-0.1,0.1-0.2l0,0c0.1,0,0.2-0.4,0.4-0.1c0,0,0.1-0.1,0.3-0.1l0,0.1c0.1-0.1,0.3,0.1,0.3,0c0.1,0.4,0.5,0.1,0.6,0.2l0-0.2
		c0.1,0,0.2,0,0.4-0.1l0-0.2c0.2-0.1,0.3,0.2,0.5,0.2c0,0.1-0.1,0-0.1,0c0.1,0.4,0.6-0.1,0.7,0.2c0.1,0,0.1,0,0.1,0c0,0,0,0,0,0
		c0,0,0,0,0,0c0,0,0,0.1,0,0.1c0,0,0-0.1,0-0.1c0,0,0.1,0,0.2,0l0,0.2c0,0,0,0,0,0c0,0.1,0.1-0.1,0.1-0.2c0,0,0.1,0,0.1-0.1
		c-0.1,0.3,0.2,0,0.1,0.3c0.1-0.1,0.3,0,0.5-0.2c0,0,0,0.1,0,0c0.1,0.1,0.1,0.1,0.2,0.1l-0.1,0.2l0.3-0.2c0,0.2,0,0.2-0.2,0.3
		c0.3-0.1,0.2,0,0.5-0.1L15,13c0.1,0,0.3,0,0.2,0.1c0,0.3,0.6,0.5,0.7,1c0.2-0.3,0,0.3,0.2,0.1c-0.1,0.1-0.1,0.2-0.2,0.2
		c0.2,0.1,0.1,0.3,0.4,0.3c-0.1,0.1-0.1,0.1-0.2,0.1c0,0,0.1,0,0.1,0.1c0,0.1-0.1,0-0.1,0c0.1,0.1,0.4,0,0.6-0.2
		c0,0.2,0,0.2,0.2,0.2c-0.1,0.1-0.1,0.2-0.2,0.1c0,0.1,0.1,0.4,0.3,0.3c0,0,0,0.1,0.1,0.1c0.1,0.2,0.1,0.2,0.2,0.3l0-0.1
		c0.3-0.1,0.1,0.1,0.2,0.2l0,0c0,0.4,0.1,0.1,0.1,0.4l0.1-0.1c0.3-0.1-0.1,0.3,0.1,0.4l0.1-0.1c0.2,0.1-0.4,0.4-0.4,0.5
		c0,0-0.1,0-0.1,0c-0.1,0.3,0.2,0,0.3,0.1c-0.1,0.1-0.3,0-0.3,0.2c-0.1,0.1,0.5,0.2,0.3,0.5c0.1-0.1,0.2-0.1,0.2,0
		c0.1,0.1-0.3,0.4,0,0.5c0,0,0,0-0.1,0c0.1,0.1,0.2,0.3,0.3,0.4C17.6,18.6,18.5,19.2,18,19.1z M15,20.2L15,20.2
		C14.9,20.2,14.9,20.2,15,20.2z M9.3,11.8c0-0.1,0.1-0.2,0.1-0.2c0,0,0,0-0.1,0c0.2-0.2,0.5-0.3,0.7-0.3c0,0.2-0.1,0.4-0.2,0.5
		c-0.1,0.1-0.2-0.1-0.2-0.1c-0.3,0.1,0.1,0.5-0.2,0.5C9.3,12.2,9.2,12,9.1,12c0.1-0.2,0.3-0.1,0.3-0.2L9.3,11.8z M9.7,12.4
		C9.7,12.4,9.7,12.4,9.7,12.4C9.7,12.4,9.7,12.4,9.7,12.4z M10.9,11.2c0.1,0,0.1,0,0.2,0c0,0.1-0.1,0.1-0.1,0.1
		C10.9,11.3,10.9,11.3,10.9,11.2z M11.9,11.3c0.1,0,0.1,0,0.2,0c0,0.2-0.1,0.4-0.1,0.5c0,0-0.2-0.3-0.3-0.4c0,0,0-0.1,0-0.1
		C11.7,11.3,11.8,11.3,11.9,11.3l-0.1,0.3L11.9,11.3z M12.7,12c0.1-0.1,0.2-0.3,0.4-0.4c0.1,0,0.2,0.1,0.3,0.1
		C13.2,11.8,13,12,12.9,12l0-0.1L12.7,12z M14.7,12.7c0.1-0.1,0.1-0.2,0.2-0.3c0,0,0.1,0,0.1,0.1C14.9,12.5,14.8,12.6,14.7,12.7z
		 M17,14.5c0,0,0-0.1,0.1-0.1c0,0,0,0.1,0.1,0.1C17.1,14.5,17.1,14.5,17,14.5c0.1,0,0.1,0,0.2,0c0,0,0,0,0,0c0,0.1-0.1,0.1-0.1,0.2
		l-0.2-0.1C16.9,14.5,17,14.5,17,14.5C17.1,14.5,17,14.5,17,14.5z M24.6,23.4c0.1-0.1,0.2-0.3,0.3-0.4
		C24.9,23.1,24.8,23.3,24.6,23.4z M25,22.9C25,22.9,25,22.9,25,22.9C25,22.8,25,22.8,25,22.9L25,22.9z M24.8,19.8
		c0,0.2-0.1,0.4-0.3,0.2c-0.1,0.1-0.2,0.2-0.3,0.2l0-0.1c-0.2,0.1-0.2,0.2-0.3,0.4c-0.1,0,0-0.1,0-0.1c-0.3,0-0.4-0.1-0.9,0.2l0-0.2
		c-0.1,0.1-0.7-0.3-1.2-0.1c0,0,0-0.1,0.1-0.1c-0.1,0.1-0.3,0-0.4,0c-0.1,0-0.1,0-0.2,0c0,0-0.1,0-0.1-0.1c-0.1-0.1-0.1-0.1-0.4,0.2
		c-0.1,0.1-0.2,0.1-0.4,0.2c0.1,0,0.1,0.1,0,0.2C20.2,20.9,20,20.9,20,21c-0.1,0-0.2,0-0.1-0.1c0.1-0.1,0.1-0.2,0.1-0.1c0,0,0,0,0,0
		c0.3-0.2,0.2-0.5,0.4-0.7c0-0.3,0.1-0.5,0.2-1c0-0.5,0.1-1,0-1.4l-0.2,0.1l0-0.3c0-0.1,0.2-0.1,0.2,0.1c0.1-0.1-0.2-0.4-0.2-0.4
		c0-0.5,0.3,0.1,0.3,0c0-0.1,0-0.1-0.1-0.2l0,0c-0.1-0.1-0.3-0.1-0.3-0.4c0-0.2,0.1-0.1,0.1-0.2c0,0,0,0,0-0.1
		c0-0.1-0.1-0.3-0.1-0.4l-0.1,0.2c-0.2-0.1-0.1-0.4-0.3-0.1c0.1-0.2,0-0.6-0.1-0.9c-0.2-0.3-0.3-0.6-0.3-0.7
		c-0.3-0.1-0.4-0.4-0.5-0.6c0,0.1-0.2,0.2-0.3,0c0.4-0.2-0.1-0.5,0-0.9c0,0.3-0.5-0.6-0.6-0.1c-0.1-0.2,0.1-0.1,0.1-0.3
		c-0.2-0.1-0.4-0.4-0.6-0.6c-0.2-0.2-0.4-0.5-0.7-0.7c0,0,0,0.2-0.2,0.2l-0.1-0.5c-0.1-0.1-0.3,0.2-0.4-0.1c0,0.1,0,0.2-0.1,0.1
		c-0.5-0.5-1.1-0.7-1.7-0.9c-0.3-0.1-0.6-0.2-0.9-0.3c-0.3-0.1-0.6-0.3-0.9-0.4c0.2,0.1,0,0.1-0.1,0.1c0.1,0,0,0.1,0,0.2
		c-0.2-0.1-0.3-0.2-0.5-0.3c-0.1,0.2-0.6,0-0.7,0.2l0.2,0c-0.1,0.1,0,0.3,0.1,0.5c-0.2,0-0.3,0-0.5,0c-0.5,0-1,0-1.5,0.1l-0.8,0.1
		V6.4c0-0.4,0.1-0.7,0.3-1c0,0,0,0,0,0l0.1,0c0-0.1,0-0.2,0-0.1C8.9,5.2,9,5.1,9,5c0,0.2,0.4,0.4,0.6,0.5c0,0-0.1-0.1,0-0.2
		c-0.1,0-0.4,0.1-0.4-0.1C9.4,5,9.4,5.1,9.6,5.1c-0.2-0.1,0-0.3,0-0.5c0.1-0.1,0.2-0.1,0.4-0.2L10,4.6l0-0.2l-0.1,0
		c0.2,0,0.3-0.1,0.5-0.1c0.1,0,0.3,0,0.4,0c0.1,0,0.2,0,0.3,0c0,0,0,0,0,0.1l0.2,0c0.1,0.2-0.3,0.2-0.1,0.3
		c-0.2,0.1-0.4,0.2-0.7,0.2l-0.1-0.2c0,0.1,0.2,0.1,0.3,0.1c-0.1,0.1-0.4-0.3-0.5,0c0.1,0,0.1,0.1,0.2,0.1C10.2,5,10.1,5.2,10,5.2
		c0.1,0.2,0,0,0.2,0.2c-0.2-0.3,0.4-0.1,0.2-0.4c0.1,0.3,0.3,0.1,0.5,0.4c0-0.1-0.1-0.1,0.1-0.1c0,0,0,0,0-0.1l0,0l0,0c0,0,0,0,0,0
		c0,0-0.1-0.1-0.1-0.1C11,5,11.3,5,11.5,4.9c0.1,0-0.1,0.1,0,0.2L11.6,5c0,0.2,0.3,0.3,0,0.4l0.3,0c0.1,0.1,0.3,0.1,0.5,0.1
		c0.1,0.1,0.3-0.1,0.2,0l0.4,0l0,0c0.2,0,0.4,0,0.6,0c0.2,0,0.4,0.1,0.6,0.3c0.1,0,0.3,0,0.5,0.1l0,0.1c0.2,0,0.4,0.3,0.6,0.2
		c0,0.4,0.7,0.3,1,0.5l0.1-0.2c0.2,0.1,0.4,0.1,0.6,0.2L17,6.5c0.3,0,0.5,0.3,0.8,0.5c-0.1,0-0.1,0-0.2-0.1c0.2,0.5,0.9,0.2,1.1,0.7
		c0.1,0,0.2,0.1,0.2,0.1c0,0,0,0,0,0c0,0,0,0,0,0c0,0,0,0.1,0.1,0.1c0-0.1,0-0.1,0-0.1c0.1,0,0.2,0.1,0.3,0.1L19.1,8c0,0,0,0,0,0
		c0,0.1,0.1,0,0.1-0.1c0.1,0,0.1,0,0.2,0c-0.1,0.3,0.3,0.1,0.2,0.4c0.1-0.1,0.5,0.3,0.7,0.1c0,0,0,0.1-0.1,0
		c0.1,0.1,0.1,0.2,0.3,0.2l-0.1,0.2l0.4,0c0,0.2,0,0.3-0.2,0.3c0.4,0.1,0.3,0.2,0.7,0.2l-0.1,0.1c0.1,0.1,0.4,0.1,0.3,0.2
		c0,0.2,0.2,0.4,0.4,0.7c0.2,0.3,0.5,0.6,0.6,1c0.3-0.3,0,0.4,0.3,0.2c-0.1,0.1-0.1,0.2-0.2,0.1c0.3,0.2,0.1,0.5,0.5,0.6
		c-0.1,0.1-0.2,0-0.2,0.1c0,0,0.1,0.1,0.1,0.1c0,0.1-0.1,0-0.2,0c0.2,0.3,0.4,0.2,0.7,0.1c0,0.2,0,0.3,0.2,0.3
		c-0.1,0.1-0.1,0.2-0.2,0c0,0.1,0.2,0.7,0.4,0.7c0,0.1,0,0.2,0.1,0.2c0.1,0.3,0.1,0.3,0.2,0.6l0-0.1c0.3,0,0.1,0.2,0.2,0.4l0,0
		c-0.1,0.5,0.1,0.2,0.1,0.7l0.2-0.1c0.4,0-0.1,0.5,0.1,0.7l0.1-0.1c0.2,0.1-0.4,0.5-0.4,0.7c0,0-0.1,0-0.1-0.1
		c-0.1,0.4,0.2,0,0.3,0.3c-0.1,0.1-0.3,0-0.3,0.2c-0.1,0.1,0.5,0.5,0.3,0.8c0.1-0.1,0.2-0.1,0.3,0c0,0.2-0.3,0.6,0,0.8
		c0,0,0,0-0.1,0c0.1,0.2,0.1,0.4,0.2,0.6C24.8,19.4,24.8,19.6,24.8,19.8z M20.3,16.4L20.3,16.4C20.1,16.4,20.2,16.4,20.3,16.4z
		 M28.7,10.6c0,0,0,0.2,0,0.5c0,0.2-0.1,0.5-0.1,0.6c0,0,0,0.1-0.1,0.1c0-0.2-0.1-0.3-0.1-0.5l0.3-0.1l-0.3,0c0-0.2-0.1-0.3-0.1-0.5
		C28.4,10.6,28.6,10.6,28.7,10.6z M27.2,8.3c-0.1-0.2-0.2-0.5-0.4-0.7c0.3,0.1,0.6,0.2,0.8,0.5l0,0.2L28,8.6
		C27.8,8.6,27.5,8.4,27.2,8.3z M28.2,19.2L28.2,19.2C28.4,19,28.3,19.1,28.2,19.2z M28.7,17.1c-0.1,0.6-0.3,0.2-0.2,0.3
		c-0.4,1,0.2,1-0.4,1.8c-0.3,0.2-0.3-0.1-0.5-0.1c0.1-0.4,0.4-0.6,0.5-0.9l-0.2,0.3c0-0.2,0.1-0.4,0.2-0.6c0,0-0.1,0.1-0.1,0.2
		c0.3-0.7,0.5-1.4,0.6-2.1C28.6,16.2,28.7,16.6,28.7,17.1z M28.7,13.7c0-0.1,0-0.3,0-0.4c0.1,0.1,0.1,0.2,0.2,0.4
		C28.8,13.6,28.7,13.7,28.7,13.7z"/>
	<path class="st0" d="M9,12.8C9,12.8,9,12.8,9,12.8C9,12.8,9,12.8,9,12.8z"/>
	<path class="st0" d="M26.7,22.1C26.7,22.1,26.8,22.1,26.7,22.1l0.2-0.2C26.8,22,26.8,22.1,26.7,22.1z"/>
	<path class="st0" d="M26.1,22.1c-0.1-0.1-0.2,0.1-0.3,0.3c0,0,0,0,0,0C25.9,22.6,26.1,22.4,26.1,22.1z"/>
	<path class="st0" d="M25.8,22.5c0,0.1-0.1,0.1-0.1,0.2C25.7,22.8,25.7,22.6,25.8,22.5z"/>
	<path class="st0" d="M27.7,20.3c-0.1,0.1,0.1,0.1,0,0.2C27.8,20.6,27.9,19.7,27.7,20.3z"/>
	<polygon class="st0" points="25.8,21.9 25.7,22 25.8,22.1 	"/>
	<path class="st0" d="M26.7,20.6l-0.2,0.3c0,0,0,0.1,0,0.1C26.6,20.8,26.8,20.6,26.7,20.6z"/>
	<path class="st0" d="M26.5,21c-0.1,0.1-0.1,0.2-0.1,0.3C26.4,21.2,26.5,21.1,26.5,21z"/>
	<path class="st0" d="M28.3,16.8c0,0.1,0,0.3,0.1,0.2l0.1-0.4C28.4,16.6,28.3,16.7,28.3,16.8z"/>
	<polygon class="st0" points="13.8,29.6 13.7,29.8 13.8,29.7 	"/>
	<path class="st0" d="M13.9,30.4c0-0.1,0-0.2,0.1-0.2l-0.2,0L13.9,30.4z"/>
</g>
</svg>
