<?xml version="1.0" encoding="utf-8"?>
<!-- Generator: Adobe Illustrator 22.1.0, SVG Export Plug-In . SVG Version: 6.00 Build 0)  -->
<svg version="1.1" id="icn-contract" xmlns="http://www.w3.org/2000/svg" xmlns:xlink="http://www.w3.org/1999/xlink" x="0px"
	 y="0px" width="27.2px" height="34.1px" viewBox="0 0 27.2 34.1" style="enable-background:new 0 0 27.2 34.1;"
	 xml:space="preserve">
<style type="text/css">
	.st0{fill:#565656;}
</style>
<g>
	<path class="st0" d="M20.3,0H0v34.1h27.2V7.5L20.3,0z M25.8,32.7H1.4V1.4h18.3l6.1,6.7V32.7z"/>
	<polygon class="st0" points="18.1,9.1 23,9.1 18.1,3.5 	"/>
	<path class="st0" d="M15.3,7.2L15.3,7.2C15.3,7.2,15.3,7.2,15.3,7.2z"/>
	<path class="st0" d="M15.2,7.1c0-0.1-0.1,0-0.1,0.1C15.2,7.1,15.2,7.2,15.2,7.1z"/>
	<polygon class="st0" points="15.1,7.3 15.2,7.2 15.2,7.2 	"/>
	<polygon class="st0" points="15.2,7.3 15.2,7.3 15.1,7.3 	"/>
	<path class="st0" d="M15,7.3c0,0,0-0.2,0.1-0.1c0-0.1-0.1,0-0.1-0.1c-0.1,0,0,0.1,0,0.1l0,0C15.1,7.2,15,7.2,15,7.3z"/>
	<path class="st0" d="M12,7.8C12,7.8,11.9,7.8,12,7.8C11.9,7.8,11.9,7.8,12,7.8L12,7.8z"/>
	<path class="st0" d="M8.9,7.1C8.9,7.1,8.9,7.1,8.9,7.1C8.9,7.1,8.9,7.1,8.9,7.1L8.9,7.1L8.9,7.1z"/>
	<path class="st0" d="M14.4,7C14.3,7,14.3,6.8,14.4,7L14.4,7C14.3,7,14.3,7,14.4,7C14.3,7.1,14.3,7.1,14.4,7
		C14.3,7.1,14.3,7.1,14.4,7C14.3,7.1,14.3,7,14.4,7z"/>
	<path class="st0" d="M5.8,6.6C5.8,6.6,5.8,6.6,5.8,6.6C5.9,6.5,5.8,6.6,5.8,6.6C5.8,6.5,5.8,6.6,5.8,6.6L5.8,6.6
		C5.8,6.6,5.8,6.6,5.8,6.6z"/>
	<path class="st0" d="M8.7,6.9C8.7,6.9,8.7,6.9,8.7,6.9c0,0,0,0.1-0.1,0.2c0,0,0,0,0,0C8.7,7,8.7,7,8.7,6.9L8.7,6.9z"/>
	<path class="st0" d="M8.7,7.1C8.7,7.1,8.7,7.1,8.7,7.1C8.7,7.1,8.7,7.1,8.7,7.1C8.7,7.1,8.7,7.1,8.7,7.1C8.7,7.1,8.7,7.1,8.7,7.1z"
		/>
	<path class="st0" d="M9.1,7C9.1,7,9.1,7,9.1,7C9.1,7,9.1,7,9.1,7L9.1,7z"/>
	<path class="st0" d="M7.9,8C7.9,7.9,7.8,8,7.9,8L7.9,8C7.8,8,7.8,8,7.9,8z"/>
	<polygon class="st0" points="5.8,6.6 5.8,6.6 5.8,6.6 	"/>
	<path class="st0" d="M8.8,7.1L8.8,7.1L8.8,7.1C8.9,7.2,8.8,7.1,8.8,7.1z"/>
	<path class="st0" d="M4.3,7.1c0,0.1,0.1,0.2,0,0.3l0,0c0.1,0.2,0.2,0.2,0.3,0.3c0.1-0.1,0.1,0.1,0.2,0c0-0.2,0,0,0.1-0.1
		c0,0,0,0.1,0,0.1c0,0,0-0.1,0-0.1c0,0.1,0.1,0.2,0.1,0.1c0,0,0,0,0,0.1c0,0.1,0-0.1,0,0c0,0,0,0,0,0c0.1,0,0.1,0,0.2,0.1
		c0-0.2,0.1-0.1,0.1-0.1c0,0,0,0.1,0.1,0.1l0-0.1c0-0.1,0,0.1,0.1,0l0,0c0,0,0.1,0,0.2,0.1C6.1,7.5,6.2,8,6.5,7.9c0,0,0-0.1,0-0.1
		c0,0,0,0,0.1,0c0,0,0,0,0,0l0,0c0,0,0,0,0,0c0,0,0,0-0.1,0c0,0,0-0.2,0.1-0.1c0,0,0,0,0,0c0,0,0,0,0.1,0c0,0,0,0,0,0l0.1,0.1
		c0-0.1,0.1,0,0.1,0c0,0.1-0.1,0-0.1,0.1l0,0.1l0-0.1l0,0l0,0c0,0,0-0.1,0,0c0,0,0,0,0,0l0,0c0,0.1,0,0,0,0.1C7,8,7.1,7.9,7.1,8
		c0,0,0-0.2,0.1-0.1c0,0,0,0,0,0.1l0,0C7.3,8,7.3,8,7.4,8l0,0C7.4,8,7.5,8,7.5,8l0,0.1c0,0.1,0-0.2,0.1-0.1c0-0.1,0-0.1,0-0.2
		c0,0.1,0.1,0.1,0.1,0c0.1,0,0,0,0,0l0-0.1c0,0,0,0.1,0,0.2c0-0.1,0.1,0,0.1,0l0,0l0.1,0c0-0.1,0.1-0.1,0.1,0l0,0.1c0,0.1,0,0,0-0.1
		C8,7.9,8,8,8,8c0.1-0.1,0.2,0.2,0.2,0l0,0.1C8.3,8,8.4,8.2,8.5,8c0.1,0.2,0.1-0.2,0.2,0l0,0C9,8,9.4,8.1,9.7,8l0,0
		c0.5,0.1,1,0,1.5,0c0,0,0-0.2,0.1-0.2c0,0,0.1,0,0.1,0.1c0,0,0,0.1,0,0.1c0.1,0,0.1,0.1,0.2,0l0-0.1c0,0,0,0,0.1,0c0,0,0,0.1,0,0.1
		c0.1-0.2,0.1,0.1,0.2,0c0-0.2,0.1-0.3,0.2-0.4l0,0c-0.1,0,0,0.1-0.1,0.1c0.1,0,0.1,0,0.2,0c0,0,0-0.1,0-0.1c0,0,0,0.1,0.1,0.1
		l0,0.1c0,0.1,0,0,0.1,0c0,0.1,0.1,0.1,0,0.2c0-0.1,0.1,0,0.1-0.1c-0.1-0.1,0-0.1,0-0.1l-0.1,0c0.1,0,0,0,0,0.1c0-0.1,0.1-0.2,0-0.2
		c0.1-0.1,0.1,0,0.2-0.1c0,0,0-0.1,0-0.1c0.1,0,0,0,0,0.1c0,0,0,0.1,0.1,0c0.1,0,0,0.1,0,0.1c0,0.1-0.2-0.1-0.1,0.2
		c0,0-0.1,0.1-0.1,0.1c0,0,0.1,0.1,0.1,0.1l0-0.1c0,0,0-0.1,0.1-0.1c0,0,0,0.1,0,0.1c0,0,0,0,0,0c0,0,0.1-0.1,0.1-0.1
		c0,0-0.1-0.1-0.1-0.1c0-0.1,0,0,0.1,0c0,0,0,0,0,0l0,0c0.1,0,0,0.1,0,0.2c0,0.1,0,0,0.1,0c0,0,0,0,0,0c0,0,0,0,0,0c0,0,0,0,0,0
		c0,0,0.1,0,0.1-0.1c0,0,0,0,0,0c0,0,0.1-0.1,0.1,0c0,0,0,0,0,0c0,0,0.1,0.1,0.1,0.1l0.1,0l0,0.1C13,7.8,13,7.8,13,7.7
		c0,0.1,0.1,0,0.1,0c0,0,0,0,0,0l0,0c0,0,0,0,0.1,0c0,0,0,0,0,0l0,0c0,0,0,0,0,0c0,0,0,0,0,0l0,0c0,0.1,0.1-0.1,0.1,0c0,0,0,0,0,0
		c0,0,0.1,0.2,0.1,0.1c0,0,0,0,0,0l0,0c0,0,0,0,0,0c0,0,0-0.1,0,0l0.1,0c0,0,0,0,0,0l0,0c0,0,0,0,0,0c0.1,0.1,0.1-0.1,0.2,0.1
		c0-0.1,0-0.1,0-0.1c0-0.1,0.1-0.1,0.1-0.1c0,0.1,0.1,0.2,0.1,0.3c0.1,0,0-0.1,0-0.1l0,0c0,0,0-0.1-0.1-0.1c0-0.1,0.1-0.1,0.1-0.1
		l0,0.1c0.1,0,0-0.2,0.1-0.3c0,0,0,0.1,0,0.2l0,0v0.1c0,0,0-0.1,0.1-0.1c0,0.1,0.1,0.1,0,0.2c0,0,0-0.1,0,0c0-0.1,0,0,0-0.1
		c0-0.1,0.1-0.1,0.1-0.1c0,0.1,0,0.1,0,0.1c0,0,0-0.1,0,0c0-0.1,0,0,0.1,0c0,0-0.1-0.1,0-0.1c0,0,0,0,0.1,0l0,0c0-0.1,0.1,0.1,0.1,0
		c0,0,0,0,0,0.1c0,0,0.1-0.1,0.1-0.1l0,0.1c0-0.1,0,0,0-0.1c0,0.1,0,0.1,0,0.2c0.1,0.1,0-0.1,0.1,0l0,0.1c0,0,0.1,0,0.1,0
		c0,0,0,0,0,0c0-0.2,0.1-0.1,0.1-0.3l0,0c0,0,0.1-0.1,0.1-0.1c0,0.1,0,0.1,0,0.2c0,0,0-0.2,0.1-0.2c0,0,0-0.1,0-0.1c0,0-0.1,0-0.1,0
		l0,0c0,0,0,0.1,0,0.1c0,0,0-0.1,0-0.1c-0.1,0,0,0.2-0.1,0.2l0,0c0,0-0.1,0-0.1,0.1c0-0.1-0.1,0-0.1,0c0-0.2,0.1,0,0.1-0.1
		c0,0,0-0.1,0-0.2l-0.1,0.1c0,0,0-0.1-0.1-0.1l0,0c0,0,0,0.1-0.1,0.1c0,0,0-0.1,0-0.1c0,0,0,0.1,0,0.1c0,0,0-0.1,0-0.1
		c0,0.1-0.1,0-0.1,0c0,0.1-0.1,0.2-0.1,0.3l-0.1,0.1c0-0.1,0-0.2,0-0.3l0.1,0c0-0.2-0.1,0.1-0.2-0.1c0,0,0,0-0.1-0.1l0,0.1
		c0,0,0-0.1,0-0.1c0,0,0,0,0,0c0,0,0,0,0,0c0-0.1,0-0.1,0,0c0,0,0,0,0,0l0-0.1c0,0,0,0,0,0.1c0,0,0,0,0,0c0,0,0,0.1,0,0.1
		c-0.1-0.1-0.1,0-0.2-0.1c0,0,0-0.1,0-0.1c0,0-0.1,0.1-0.1,0.1c0,0,0,0,0,0c0,0,0-0.1,0-0.1c0,0,0,0,0,0C13.8,7,13.7,7,13.7,7
		c0,0,0,0,0,0c0,0.1,0,0.2-0.1,0.1c0-0.1,0-0.1,0-0.2c0-0.1,0,0.1-0.1,0.1l0-0.1c0-0.1,0.1,0,0-0.1l0,0c0-0.1,0.1,0,0.2-0.1l-0.1,0
		c-0.1,0.1-0.3,0-0.4,0.2c0,0,0,0,0,0c0,0,0,0,0,0.1l0,0l0,0.1c0-0.1-0.1-0.1-0.1-0.2c0,0.1,0,0.1,0,0.1c0,0.1,0,0.1,0,0.1
		c0-0.1,0-0.1,0-0.1c0,0,0,0.1,0,0.1c0,0-0.1,0-0.1-0.1c0,0,0,0,0,0c0,0,0-0.1,0-0.1l0,0c0-0.1,0-0.1,0-0.1c-0.1,0-0.1,0.2-0.2,0.2
		c0,0,0-0.2,0-0.1c0,0-0.1,0.1-0.1,0.2c0,0,0,0,0,0c-0.2-0.1-0.3-0.1-0.4-0.2l0,0.1l0-0.1c-0.1-0.1-0.3,0-0.4,0c0,0,0-0.1,0-0.1
		c-0.1,0-0.1,0.1-0.2,0.2c0,0,0-0.2,0-0.2c0,0,0,0.1,0,0.1l0,0c0-0.1,0,0-0.1,0c-0.1,0-0.2,0.1-0.2,0.3c-0.1,0,0-0.1,0-0.2
		c0.1,0.1,0,0,0-0.1c0,0-0.1,0.1-0.1,0c0,0-0.1,0-0.1,0.1c0,0,0,0,0,0.1c0,0-0.1,0-0.1-0.1c-0.2,0-0.4,0-0.6,0c0,0.1,0,0,0,0.1
		c0,0.1,0,0-0.1,0l0-0.1c-0.1,0-0.1,0.1-0.2,0.2c0-0.1,0-0.1,0-0.1c0,0-0.1-0.3-0.1-0.3l0,0.3c0,0,0,0,0,0c0-0.1-0.1-0.1-0.1-0.1
		c0-0.1,0-0.1,0.1-0.1c0-0.1-0.1-0.1,0-0.2c0,0,0,0.1,0,0.1l0,0l0,0c0,0,0,0.1-0.1,0.1l0,0.1c0-0.1,0,0-0.1,0l0-0.1c0,0,0,0-0.1-0.1
		c0-0.1,0,0,0-0.1l0,0c0,0.1,0,0.1,0,0.1c0,0.1-0.1,0.2-0.1,0.2c0-0.1,0-0.1,0-0.2C9.6,6.7,9.6,7,9.5,7C9.5,6.9,9.5,7,9.4,7
		c0-0.1,0-0.1-0.1-0.1l0-0.1c0,0,0,0,0-0.1c0,0.1-0.1,0.1-0.1,0.1l0,0.1C9.2,7,9.1,7,9.1,7C9,7.1,9,7.1,9,7.2C9,7.1,9,7.1,9,7
		C9,7,9,7,9,7c0.1-0.1,0.1-0.2,0.2-0.2c0-0.2,0,0-0.1,0c0,0,0,0,0,0c0,0,0,0,0,0c0,0,0.1-0.1,0.1-0.2c0,0,0,0.2-0.1,0.1
		c0,0.1-0.1-0.1-0.1-0.1C9,6.7,9,6.8,9,6.8l0-0.1c-0.1,0,0,0.2-0.1,0.2c0,0,0,0.1,0,0.1C8.9,7,8.8,7,8.8,7c0,0,0,0,0,0.1
		c0,0.1,0.1-0.1,0.1,0l0-0.1c0,0,0,0.1,0,0.2c0,0,0,0,0,0c0,0.2,0-0.1-0.1,0.1l0,0c0,0.1-0.1,0.1-0.1,0.1c0-0.1-0.1-0.1-0.1-0.2
		l0.1,0c0-0.1-0.1,0-0.1,0c0,0,0,0,0,0c0,0,0,0,0,0c0,0,0,0,0,0c0,0-0.1,0-0.1,0l0,0.1l0,0c0,0,0.1,0,0,0.1C8.6,7.3,8.6,7.2,8.6,7.1
		c0-0.1,0.1,0,0.1,0c0-0.1-0.1,0-0.1-0.1c0-0.1,0.1,0,0.1-0.1c0,0-0.1,0.1-0.1,0c0-0.1,0.1-0.1,0.1-0.1l0,0c0.1,0,0-0.2,0-0.2
		c0-0.1,0,0.1-0.1,0c0,0.1,0,0.2,0,0.2l0,0c0-0.1,0-0.1,0-0.2l0,0c0,0,0,0.1,0,0.1c0,0,0,0.1-0.1,0.2c0,0,0,0-0.1-0.1
		C8.2,7,8.2,7,8.1,7.1c0-0.1,0-0.1,0-0.2c0,0,0-0.1,0-0.2c0,0,0,0.1,0,0.2c0,0,0,0.1-0.1,0c0,0,0-0.1,0-0.2c0,0,0,0.1-0.1,0.1
		c0,0,0,0,0,0c0,0-0.1,0-0.1,0.1c0-0.2-0.1,0-0.1-0.1c-0.1,0,0,0.1,0,0.1c0,0.1-0.1,0-0.1,0c0,0,0,0,0,0l0-0.1
		C7.7,6.7,7.7,7,7.6,6.9c0-0.1,0-0.1,0-0.2c0,0-0.1,0,0,0.1c0,0-0.1,0-0.1,0c0,0-0.1,0.1-0.1,0.1c0,0-0.1-0.1-0.1-0.1
		c-0.1,0.1-0.2-0.1-0.3,0l0,0c-0.1,0,0,0.1,0,0.1c0-0.1,0-0.1-0.1-0.2c-0.1-0.1-0.2,0.1-0.3,0c0,0,0-0.1,0-0.1c-0.1,0-0.1,0-0.2,0
		l0,0c-0.1-0.1-0.2,0-0.3,0.1c0,0,0-0.1,0-0.1c-0.1,0-0.1,0-0.2,0.1c-0.1-0.1,0,0-0.1-0.1c0,0,0,0,0,0c0,0-0.1,0-0.1,0
		C5.8,6.6,5.8,6.8,5.7,6.8c0-0.2,0.1,0,0.1-0.2c0,0,0,0.1-0.1,0c0-0.1,0,0,0-0.1c0,0-0.1,0.2-0.1,0.2c0,0,0,0.1,0,0
		c0,0.1-0.1,0-0.1,0.1c0,0,0.1,0,0,0.1C5.5,6.8,5.5,7,5.4,7.1c-0.1-0.1,0-0.1,0-0.3c0,0,0-0.1,0-0.2c-0.1,0-0.1,0.1-0.1,0.1l0,0
		c-0.1,0-0.1,0.2-0.2,0.1l0,0c0,0,0,0-0.1,0.1c0-0.1,0-0.1,0-0.2C5,6.9,4.9,6.9,4.9,7c0,0,0-0.1,0-0.2c0,0,0.1,0.1,0.1,0
		c0,0-0.1,0-0.1-0.1c0,0.1-0.1,0.2-0.1,0.3c0-0.1-0.1-0.1,0-0.2C4.6,6.9,4.8,7.1,4.7,7.1C4.6,7.1,4.7,7,4.6,7l0,0
		c-0.1-0.2,0,0.2-0.1,0.2c0-0.1,0-0.1,0-0.2C4.5,7,4.5,7.2,4.4,7.1l0-0.1C4.4,7.1,4.3,7.1,4.3,7.1C4.3,7,4.3,7.1,4.3,7.1
		C4.2,7,4.2,7.1,4.2,7l0,0.1C4.2,7.1,4.3,7.2,4.3,7.1z M14.1,7C14.1,7,14.1,7,14.1,7C14.1,7,14.1,7,14.1,7L14.1,7z M13.6,7.6
		L13.6,7.6C13.6,7.6,13.6,7.5,13.6,7.6z M13.1,7.6C13.2,7.5,13.2,7.6,13.1,7.6C13.1,7.6,13.1,7.6,13.1,7.6
		C13.1,7.6,13.1,7.6,13.1,7.6C13,7.6,13,7.6,13,7.6C13,7.4,13.2,7.6,13.1,7.6z"/>
	<path class="st0" d="M14.9,7.6C15,7.5,15,7.5,15,7.4c0,0.1-0.1,0-0.1,0.1L14.9,7.6L14.9,7.6L14.9,7.6z"/>
	<path class="st0" d="M14.9,6.9L14.9,6.9L14.9,6.9C14.9,7,14.9,6.9,14.9,6.9z"/>
	<path class="st0" d="M14.3,6.8L14.3,6.8C14.4,6.8,14.3,6.7,14.3,6.8z"/>
	<path class="st0" d="M14.5,7.6C14.5,7.5,14.5,7.6,14.5,7.6L14.5,7.6C14.5,7.5,14.5,7.5,14.5,7.6z"/>
	<path class="st0" d="M14.2,6.7C14.2,6.8,14.1,6.7,14.2,6.7C14.1,6.8,14.2,6.8,14.2,6.7z"/>
	<path class="st0" d="M14.2,7.7C14.2,7.7,14.2,7.7,14.2,7.7C14.2,7.7,14.2,7.6,14.2,7.7z"/>
	<path class="st0" d="M14,7C14,7,14,7,14,7C14,7,14,7,14,7c0-0.1,0-0.1,0-0.2C13.9,6.9,13.9,7,14,7C13.9,6.9,13.9,7,14,7z"/>
	<path class="st0" d="M14.2,7.6L14.2,7.6C14.1,7.5,14.2,7.7,14.2,7.6c0,0,0,0.1,0,0.1C14.2,7.7,14.2,7.6,14.2,7.6z"/>
	<path class="st0" d="M13.9,6.7c0,0-0.1,0-0.1,0.1l0,0C13.8,6.8,13.9,6.8,13.9,6.7z"/>
	<path class="st0" d="M14,7.5l0,0.1C14,7.6,14,7.6,14,7.5C14,7.6,14,7.6,14,7.5C14,7.6,14,7.5,14,7.5z"/>
	<path class="st0" d="M13.9,7.6L13.9,7.6l0,0.2C13.9,7.8,13.9,7.7,13.9,7.6z"/>
	<path class="st0" d="M13.8,7.7c0-0.1,0-0.1,0.1-0.1l0,0L13.8,7.7z"/>
	<path class="st0" d="M13.1,6.9C13.1,6.9,13,6.8,13.1,6.9C13,6.9,13.1,6.9,13.1,6.9z"/>
	<path class="st0" d="M13.1,7.8c0,0,0.1,0,0.1-0.1C13.2,7.7,13.1,7.8,13.1,7.8z"/>
	<path class="st0" d="M11.9,8.1C12,8,12,8.1,11.9,8.1C12,8,12,8,11.9,8.1C12,8,12,8,11.9,8.1z"/>
	<path class="st0" d="M11.7,7.9C11.7,7.9,11.7,8,11.7,7.9C11.7,8,11.7,8,11.7,7.9z"/>
	<path class="st0" d="M9.9,6.7C9.9,6.7,9.9,6.6,9.9,6.7C9.9,6.6,9.9,6.6,9.9,6.7z"/>
	<polygon class="st0" points="9.9,6.7 9.9,6.6 9.9,6.7 	"/>
	<path class="st0" d="M9.7,6.5C9.7,6.5,9.7,6.5,9.7,6.5C9.7,6.5,9.7,6.6,9.7,6.5L9.7,6.5z"/>
	<path class="st0" d="M9.7,6.5L9.7,6.5l0,0.2C9.7,6.6,9.7,6.6,9.7,6.5z"/>
	<path class="st0" d="M9.4,6.9c0.1,0.1,0-0.2,0.1-0.2c0-0.1,0-0.1,0-0.1c0,0-0.1,0.1-0.1,0C9.4,6.7,9.5,6.8,9.4,6.9z"/>
	<path class="st0" d="M9.5,6.8C9.5,6.8,9.5,6.9,9.5,6.8C9.6,6.7,9.5,6.7,9.5,6.8z"/>
	<polygon class="st0" points="9.3,6.6 9.3,6.6 9.4,6.7 	"/>
	<path class="st0" d="M9.3,6.6L9.3,6.6C9.3,6.6,9.2,6.6,9.3,6.6z"/>
	<path class="st0" d="M9.1,6.6L9.1,6.6c0,0,0-0.1,0-0.1C9.1,6.5,9.1,6.7,9.1,6.6z"/>
	<path class="st0" d="M8.8,6.8C8.8,6.8,8.8,6.8,8.8,6.8L8.8,6.8L8.8,6.8z"/>
	<path class="st0" d="M8.9,7.2C8.8,7.2,8.8,7.2,8.9,7.2C8.8,7.3,8.8,7.2,8.9,7.2z"/>
	<path class="st0" d="M8.8,6.7C8.8,6.6,8.7,6.6,8.8,6.7C8.8,6.6,8.8,6.6,8.8,6.7z"/>
	<path class="st0" d="M8.6,6.8c0.1,0,0.1-0.2,0.1-0.1l0-0.2c0,0,0,0.1-0.1,0.1c0,0,0-0.1,0-0.1c0,0-0.1,0-0.1,0
		C8.6,6.7,8.6,6.8,8.6,6.8z"/>
	<path class="st0" d="M8.7,7.1C8.7,7.2,8.8,7,8.7,7.1L8.7,7.1C8.7,7,8.7,7,8.7,7.1z"/>
	<polygon class="st0" points="8.3,6.8 8.4,6.8 8.3,6.8 	"/>
	<polygon class="st0" points="8.3,6.7 8.3,6.7 8.3,6.8 	"/>
	<polygon class="st0" points="8.3,6.7 8.3,6.7 8.3,6.7 	"/>
	<path class="st0" d="M8.2,6.7C8.2,6.7,8.2,6.7,8.2,6.7L8.2,6.7C8.2,6.7,8.2,6.8,8.2,6.7z"/>
	<path class="st0" d="M7.7,8L7.7,8c0,0.1,0,0.1,0,0.1C7.7,8,7.7,8,7.7,8z"/>
	<path class="st0" d="M7.6,8c0.1,0,0.1-0.1,0.1-0.1C7.7,7.9,7.7,8,7.6,8l0-0.1L7.6,8z"/>
	<path class="st0" d="M6.8,7.8c0-0.1,0-0.1,0-0.1c0,0-0.1,0-0.1,0c0,0,0,0.1,0,0.1L6.8,7.8L6.8,7.8C6.7,7.9,6.7,7.8,6.8,7.8z"/>
	<path class="st0" d="M4.4,7C4.4,7,4.4,7.1,4.4,7C4.4,7.1,4.4,7,4.4,7z"/>
	<path class="st0" d="M15.3,12.1L15.3,12.1C15.3,12,15.3,12.1,15.3,12.1z"/>
	<path class="st0" d="M15.2,12c0-0.1-0.1,0-0.1,0.1C15.2,12,15.2,12.1,15.2,12z"/>
	<polygon class="st0" points="15.1,12.2 15.2,12.1 15.2,12.1 	"/>
	<polygon class="st0" points="15.2,12.2 15.2,12.1 15.1,12.2 	"/>
	<path class="st0" d="M15,12.2c0,0,0-0.2,0.1-0.1c0-0.1-0.1,0-0.1-0.1c-0.1,0,0,0.1,0,0.1l0,0C15.1,12.1,15,12.1,15,12.2z"/>
	<path class="st0" d="M12,12.7C12,12.7,11.9,12.7,12,12.7C11.9,12.7,11.9,12.7,12,12.7L12,12.7z"/>
	<path class="st0" d="M8.9,12C8.9,12,8.9,12,8.9,12C8.9,12,8.9,12,8.9,12L8.9,12L8.9,12z"/>
	<path class="st0" d="M14.4,11.9C14.3,11.8,14.3,11.7,14.4,11.9L14.4,11.9C14.3,11.8,14.3,11.9,14.4,11.9
		C14.3,11.9,14.3,11.9,14.4,11.9C14.3,12,14.3,12,14.4,11.9C14.3,12,14.3,11.9,14.4,11.9z"/>
	<path class="st0" d="M5.8,11.5C5.8,11.5,5.8,11.5,5.8,11.5C5.9,11.4,5.8,11.5,5.8,11.5C5.8,11.4,5.8,11.4,5.8,11.5L5.8,11.5
		C5.8,11.5,5.8,11.5,5.8,11.5z"/>
	<path class="st0" d="M8.7,11.8C8.7,11.7,8.7,11.7,8.7,11.8c0,0,0,0.1-0.1,0.2c0,0,0,0,0,0C8.7,11.9,8.7,11.8,8.7,11.8L8.7,11.8z"/>
	<path class="st0" d="M8.7,12C8.7,12,8.7,12,8.7,12C8.7,12,8.7,12,8.7,12C8.7,12,8.7,12,8.7,12C8.7,12,8.7,12,8.7,12z"/>
	<path class="st0" d="M9.1,11.9C9.1,11.9,9.1,11.9,9.1,11.9C9.1,11.9,9.1,11.9,9.1,11.9L9.1,11.9z"/>
	<path class="st0" d="M7.9,12.9C7.9,12.7,7.8,12.9,7.9,12.9L7.9,12.9C7.8,12.9,7.8,12.9,7.9,12.9z"/>
	<polygon class="st0" points="5.8,11.4 5.8,11.5 5.8,11.4 	"/>
	<path class="st0" d="M8.8,12L8.8,12L8.8,12C8.9,12.1,8.8,11.9,8.8,12z"/>
	<path class="st0" d="M4.3,12c0,0.1,0.1,0.2,0,0.3l0,0c0.1,0.2,0.2,0.2,0.3,0.3c0.1-0.1,0.1,0.1,0.2,0c0-0.2,0,0,0.1-0.1
		c0,0,0,0.1,0,0.1c0,0,0-0.1,0-0.1c0,0.1,0.1,0.2,0.1,0.1c0,0,0,0,0,0.1c0,0.1,0-0.1,0,0c0,0,0,0,0,0c0.1,0,0.1,0,0.2,0.1
		c0-0.2,0.1-0.1,0.1-0.1c0,0,0,0.1,0.1,0.1l0-0.1c0-0.1,0,0.1,0.1,0l0,0c0,0,0.1,0,0.2,0.1c0.3-0.3,0.5,0.2,0.8,0.1c0,0,0-0.1,0-0.1
		c0,0,0,0,0.1,0c0,0,0,0,0,0l0,0c0,0,0,0,0,0c0,0,0,0-0.1,0c0,0,0-0.2,0.1-0.1c0,0,0,0,0,0c0,0,0,0,0.1,0c0,0,0,0,0,0l0.1,0.1
		c0-0.1,0.1,0,0.1,0c0,0.1-0.1,0-0.1,0.1l0,0.1l0-0.1l0,0l0,0c0,0,0-0.1,0,0c0,0,0,0,0,0l0,0c0,0.1,0,0,0,0.1c0.1,0,0.1-0.1,0.2,0
		c0,0,0-0.2,0.1-0.1c0,0,0,0,0,0.1l0,0c0,0.1,0.1,0.1,0.2,0.1l0,0c0,0,0.1-0.1,0.1-0.1l0,0.1c0,0.1,0-0.2,0.1-0.1c0-0.1,0-0.1,0-0.2
		c0,0.1,0.1,0.1,0.1,0c0.1,0,0,0,0,0l0-0.1c0,0,0,0.1,0,0.2c0-0.1,0.1,0,0.1,0l0,0l0.1,0c0-0.1,0.1-0.1,0.1,0l0,0.1c0,0.1,0,0,0-0.1
		c0-0.1,0.1,0,0.1,0.1c0.1-0.1,0.2,0.2,0.2,0l0,0.1c0.1-0.1,0.2,0.1,0.3-0.1c0.1,0.2,0.1-0.2,0.2,0l0,0c0.3,0,0.7,0.2,1,0.1l0,0
		c0.5,0.1,1,0,1.5,0c0,0,0-0.2,0.1-0.2c0,0,0.1,0,0.1,0.1c0,0,0,0.1,0,0.1c0.1,0,0.1,0.1,0.2,0l0-0.1c0,0,0,0,0.1,0c0,0,0,0.1,0,0.1
		c0.1-0.2,0.1,0.1,0.2,0c0-0.2,0.1-0.3,0.2-0.4l0,0c-0.1,0,0,0.1-0.1,0.1c0.1,0,0.1,0,0.2,0c0,0,0-0.1,0-0.1c0,0,0,0.1,0.1,0.1
		l0,0.1c0,0.1,0,0,0.1,0c0,0.1,0.1,0.1,0,0.2c0-0.1,0.1,0,0.1-0.1c-0.1-0.1,0-0.1,0-0.1l-0.1,0c0.1,0,0,0,0,0.1c0-0.1,0.1-0.2,0-0.2
		c0.1-0.1,0.1,0,0.2-0.1c0,0,0-0.1,0-0.1c0.1,0,0,0,0,0.1c0,0,0,0.1,0.1,0c0.1,0,0,0.1,0,0.1c0,0.1-0.2-0.1-0.1,0.2
		c0,0-0.1,0.1-0.1,0.1c0,0,0.1,0.1,0.1,0.1l0-0.1c0,0,0-0.1,0.1-0.1c0,0,0,0.1,0,0.1c0,0,0,0,0,0c0,0,0.1-0.1,0.1-0.1
		c0,0-0.1-0.1-0.1-0.1c0-0.1,0,0,0.1,0c0,0,0,0,0,0l0,0c0.1,0,0,0.1,0,0.2c0,0.1,0,0,0.1,0c0,0,0,0,0,0c0,0,0,0,0,0c0,0,0,0,0,0
		c0,0,0.1,0,0.1-0.1c0,0,0,0,0,0c0,0,0.1-0.1,0.1,0c0,0,0,0,0,0c0,0,0.1,0.1,0.1,0.1l0.1,0l0,0.1c0.1,0,0.1-0.1,0.1-0.2
		c0,0.1,0.1,0,0.1,0c0,0,0,0,0,0l0,0c0,0,0,0,0.1,0c0,0,0,0,0,0l0,0c0,0,0,0,0,0c0,0,0,0,0,0l0,0c0,0.1,0.1-0.1,0.1,0c0,0,0,0,0,0
		c0,0,0.1,0.2,0.1,0.1c0,0,0,0,0,0l0,0c0,0,0,0,0,0c0,0,0-0.1,0,0l0.1,0c0,0,0,0,0,0l0,0c0,0,0,0,0,0c0.1,0.1,0.1-0.1,0.2,0.1
		c0-0.1,0-0.1,0-0.1c0-0.1,0.1-0.1,0.1-0.1c0,0.1,0.1,0.2,0.1,0.3c0.1,0,0-0.1,0-0.1l0,0c0,0,0-0.1-0.1-0.1c0-0.1,0.1-0.1,0.1-0.1
		l0,0.1c0.1,0,0-0.2,0.1-0.3c0,0,0,0.1,0,0.2l0,0v0.1c0,0,0-0.1,0.1-0.1c0,0.1,0.1,0.1,0,0.2c0,0,0-0.1,0,0c0-0.1,0,0,0-0.1
		c0-0.1,0.1-0.1,0.1-0.1c0,0.1,0,0.1,0,0.1c0,0,0-0.1,0,0c0-0.1,0,0,0.1,0c0,0-0.1-0.1,0-0.1c0,0,0,0,0.1,0l0,0c0-0.1,0.1,0.1,0.1,0
		c0,0,0,0,0,0.1c0,0,0.1-0.1,0.1-0.1l0,0.1c0-0.1,0,0,0-0.1c0,0.1,0,0.1,0,0.2c0.1,0.1,0-0.1,0.1,0l0,0.1c0,0,0.1,0,0.1,0
		c0,0,0,0,0,0c0-0.2,0.1-0.1,0.1-0.3l0,0c0,0,0.1-0.1,0.1-0.1c0,0.1,0,0.1,0,0.2c0,0,0-0.2,0.1-0.2c0,0,0-0.1,0-0.1c0,0-0.1,0-0.1,0
		l0,0c0,0,0,0.1,0,0.1c0,0,0-0.1,0-0.1c-0.1,0,0,0.2-0.1,0.2l0,0c0,0-0.1,0-0.1,0.1c0-0.1-0.1,0-0.1,0c0-0.2,0.1,0,0.1-0.1
		c0,0,0-0.1,0-0.2L14.7,12c0,0,0-0.1-0.1-0.1l0,0c0,0,0,0.1-0.1,0.1c0,0,0-0.1,0-0.1c0,0,0,0.1,0,0.1c0,0,0-0.1,0-0.1
		c0,0.1-0.1,0-0.1,0c0,0.1-0.1,0.2-0.1,0.3l-0.1,0.1c0-0.1,0-0.2,0-0.3l0.1,0c0-0.2-0.1,0.1-0.2-0.1c0,0,0,0-0.1-0.1l0,0.1
		c0,0,0-0.1,0-0.1c0,0,0,0,0,0c0,0,0,0,0,0c0-0.1,0-0.1,0,0c0,0,0,0,0,0l0-0.1c0,0,0,0,0,0.1c0,0,0,0,0,0c0,0,0,0.1,0,0.1
		c-0.1-0.1-0.1,0-0.2-0.1c0,0,0-0.1,0-0.1c0,0-0.1,0.1-0.1,0.1c0,0,0,0,0,0c0,0,0-0.1,0-0.1c0,0,0,0,0,0c0,0.1-0.1,0.1-0.1,0.1
		c0,0,0,0,0,0c0,0.1,0,0.2-0.1,0.1c0-0.1,0-0.1,0-0.2c0-0.1,0,0.1-0.1,0.1l0-0.1c0-0.1,0.1,0,0-0.1l0,0c0-0.1,0.1,0,0.2-0.1l-0.1,0
		c-0.1,0.1-0.3,0-0.4,0.2c0,0,0,0,0,0c0,0,0,0,0,0.1l0,0l0,0.1c0-0.1-0.1-0.1-0.1-0.2c0,0.1,0,0.1,0,0.1c0,0.1,0,0.1,0,0.1
		c0-0.1,0-0.1,0-0.1c0,0,0,0.1,0,0.1c0,0-0.1,0-0.1-0.1c0,0,0,0,0,0c0,0,0-0.1,0-0.1l0,0c0-0.1,0-0.1,0-0.1c-0.1,0-0.1,0.2-0.2,0.2
		c0,0,0-0.2,0-0.1c0,0-0.1,0.1-0.1,0.2c0,0,0,0,0,0c-0.2-0.1-0.3-0.1-0.4-0.2l0,0.1l0-0.1c-0.1-0.1-0.3,0-0.4,0c0,0,0-0.1,0-0.1
		c-0.1,0-0.1,0.1-0.2,0.2c0,0,0-0.2,0-0.2c0,0,0,0.1,0,0.1l0,0c0-0.1,0,0-0.1,0c-0.1,0-0.2,0.1-0.2,0.3c-0.1,0,0-0.1,0-0.2
		c0.1,0.1,0,0,0-0.1c0,0-0.1,0.1-0.1,0c0,0-0.1,0-0.1,0.1c0,0,0,0,0,0.1c0,0-0.1,0-0.1-0.1c-0.2,0-0.4,0-0.6,0c0,0.1,0,0,0,0.1
		c0,0.1,0,0-0.1,0l0-0.1c-0.1,0-0.1,0.1-0.2,0.2c0-0.1,0-0.1,0-0.1c0,0-0.1-0.3-0.1-0.3l0,0.3c0,0,0,0,0,0c0-0.1-0.1-0.1-0.1-0.1
		c0-0.1,0-0.1,0.1-0.1c0-0.1-0.1-0.1,0-0.2c0,0,0,0.1,0,0.1l0,0l0,0c0,0,0,0.1-0.1,0.1l0,0.1c0-0.1,0,0-0.1,0l0-0.1c0,0,0,0-0.1-0.1
		c0-0.1,0,0,0-0.1l0,0c0,0.1,0,0.1,0,0.1c0,0.1-0.1,0.2-0.1,0.2c0-0.1,0-0.1,0-0.2c-0.1,0-0.1,0.3-0.2,0.3c-0.1,0-0.1,0.1-0.1,0.1
		c0-0.1,0-0.1-0.1-0.1l0-0.1c0,0,0,0,0-0.1c0,0.1-0.1,0.1-0.1,0.1l0,0.1c0,0-0.1,0.1-0.1,0.1C9,11.9,9,12,9,12.1c0-0.1,0-0.2,0-0.2
		c0,0,0,0,0.1,0c0.1-0.1,0.1-0.2,0.2-0.2c0-0.2,0,0-0.1,0c0,0,0,0,0,0c0,0,0,0,0,0c0,0,0.1-0.1,0.1-0.2c0,0,0,0.2-0.1,0.1
		c0,0.1-0.1-0.1-0.1-0.1c0,0.1,0,0.2-0.1,0.2l0-0.1c-0.1,0,0,0.2-0.1,0.2c0,0,0,0.1,0,0.1c0,0.1-0.1,0.1-0.1,0c0,0,0,0,0,0.1
		c0,0.1,0.1-0.1,0.1,0l0-0.1c0,0,0,0.1,0,0.2c0,0,0,0,0,0c0,0.2,0-0.1-0.1,0.1l0,0c0,0.1-0.1,0.1-0.1,0.1c0-0.1-0.1-0.1-0.1-0.2
		l0.1,0c0-0.1-0.1,0-0.1,0c0,0,0,0,0,0c0,0,0,0,0,0c0,0,0,0,0,0c0,0-0.1,0-0.1,0l0,0.1l0,0c0,0,0.1,0,0,0.1
		c-0.1,0.1-0.1-0.1-0.1-0.2c0-0.1,0.1,0,0.1,0c0-0.1-0.1,0-0.1-0.1c0-0.1,0.1,0,0.1-0.1c0,0-0.1,0.1-0.1,0c0-0.1,0.1-0.1,0.1-0.1
		l0,0c0.1,0,0-0.2,0-0.2c0-0.1,0,0.1-0.1,0c0,0.1,0,0.2,0,0.2l0,0c0-0.1,0-0.1,0-0.2l0,0c0,0,0,0.1,0,0.1c0,0,0,0.1-0.1,0.2
		c0,0,0,0-0.1-0.1c-0.1,0.1-0.1,0.1-0.2,0.2c0-0.1,0-0.1,0-0.2c0,0,0-0.1,0-0.2c0,0,0,0.1,0,0.2c0,0,0,0.1-0.1,0c0,0,0-0.1,0-0.2
		c0,0,0,0.1-0.1,0.1c0,0,0,0,0,0c0,0-0.1,0-0.1,0.1c0-0.2-0.1,0-0.1-0.1c-0.1,0,0,0.1,0,0.1c0,0.1-0.1,0-0.1,0c0,0,0,0,0,0l0-0.1
		c-0.1-0.1-0.1,0.2-0.1,0.1c0-0.1,0-0.1,0-0.2c0,0-0.1,0,0,0.1c0,0-0.1,0-0.1,0c0,0-0.1,0.1-0.1,0.1c0,0-0.1-0.1-0.1-0.1
		c-0.1,0.1-0.2-0.1-0.3,0l0,0c-0.1,0,0,0.1,0,0.1c0-0.1,0-0.1-0.1-0.2c-0.1-0.1-0.2,0.1-0.3,0c0,0,0-0.1,0-0.1c-0.1,0-0.1,0-0.2,0
		l0,0c-0.1-0.1-0.2,0-0.3,0.1c0,0,0-0.1,0-0.1c-0.1,0-0.1,0-0.2,0.1c-0.1-0.1,0,0-0.1-0.1c0,0,0,0,0,0c0,0-0.1,0-0.1,0
		c-0.1,0.1-0.1,0.2-0.2,0.2c0-0.2,0.1,0,0.1-0.2c0,0,0,0.1-0.1,0c0-0.1,0,0,0-0.1c0,0-0.1,0.2-0.1,0.2c0,0,0,0.1,0,0
		c0,0.1-0.1,0-0.1,0.1c0,0,0.1,0,0,0.1c-0.1,0-0.1,0.1-0.1,0.2c-0.1-0.1,0-0.1,0-0.3c0,0,0-0.1,0-0.2c-0.1,0-0.1,0.1-0.1,0.1l0,0
		c-0.1,0-0.1,0.2-0.2,0.1l0,0c0,0,0,0-0.1,0.1c0-0.1,0-0.1,0-0.2c0,0.2-0.2,0.1-0.2,0.3c0,0,0-0.1,0-0.2c0,0,0.1,0.1,0.1,0
		c0,0-0.1,0-0.1-0.1c0,0.1-0.1,0.2-0.1,0.3c0-0.1-0.1-0.1,0-0.2C4.6,11.8,4.8,12,4.7,12c-0.1-0.1,0.1-0.1,0-0.2l0,0
		c-0.1-0.2,0,0.2-0.1,0.2c0-0.1,0-0.1,0-0.2c-0.1,0-0.1,0.2-0.1,0.2l0-0.1C4.4,12,4.3,11.9,4.3,12C4.3,11.9,4.3,11.9,4.3,12
		c-0.1-0.1,0,0-0.1-0.1l0,0.1C4.2,12,4.3,12.1,4.3,12z M14.1,11.9C14.1,11.9,14.1,11.9,14.1,11.9C14.1,11.9,14.1,11.9,14.1,11.9
		L14.1,11.9z M13.6,12.5L13.6,12.5C13.6,12.4,13.6,12.4,13.6,12.5z M13.1,12.4C13.2,12.4,13.2,12.4,13.1,12.4
		C13.1,12.4,13.1,12.5,13.1,12.4C13.1,12.5,13.1,12.5,13.1,12.4c-0.1,0.1-0.1,0.1-0.1,0C13,12.3,13.2,12.5,13.1,12.4z"/>
	<path class="st0" d="M14.9,12.5c0-0.1,0.1-0.1,0.1-0.2c0,0.1-0.1,0-0.1,0.1L14.9,12.5L14.9,12.5L14.9,12.5z"/>
	<path class="st0" d="M14.8,11.8L14.8,11.8C14.9,11.8,14.9,11.8,14.8,11.8L14.8,11.8z"/>
	<path class="st0" d="M14.3,11.7C14.4,11.6,14.3,11.6,14.3,11.7L14.3,11.7z"/>
	<path class="st0" d="M14.5,12.4C14.5,12.4,14.5,12.5,14.5,12.4L14.5,12.4C14.5,12.4,14.5,12.4,14.5,12.4z"/>
	<path class="st0" d="M14.1,11.7C14.1,11.6,14.2,11.7,14.1,11.7C14.2,11.7,14.1,11.6,14.1,11.7z"/>
	<path class="st0" d="M14.2,12.5C14.2,12.6,14.2,12.5,14.2,12.5C14.2,12.6,14.2,12.5,14.2,12.5z"/>
	<path class="st0" d="M14,11.8c0,0-0.1-0.1-0.1-0.2C13.9,11.7,13.9,11.8,14,11.8C13.9,11.8,13.9,11.8,14,11.8
		C14,11.9,14,11.9,14,11.8C14,11.9,14,11.9,14,11.8z"/>
	<path class="st0" d="M14.2,12.6c0,0,0-0.1,0-0.1l0-0.1C14.1,12.4,14.2,12.5,14.2,12.6C14.2,12.6,14.2,12.6,14.2,12.6z"/>
	<path class="st0" d="M13.9,11.6c0,0-0.1,0-0.1,0.1l0,0C13.8,11.7,13.9,11.7,13.9,11.6z"/>
	<path class="st0" d="M14,12.4l0,0.1C14,12.5,14,12.5,14,12.4C14,12.5,14,12.5,14,12.4C14,12.5,14,12.4,14,12.4z"/>
	<path class="st0" d="M13.9,12.7c0.1,0,0-0.1,0-0.2l0,0L13.9,12.7z"/>
	<path class="st0" d="M13.8,12.4L13.8,12.4l-0.1,0.1C13.8,12.5,13.8,12.5,13.8,12.4z"/>
	<path class="st0" d="M13.1,11.8C13.1,11.7,13,11.7,13.1,11.8C13,11.8,13.1,11.8,13.1,11.8z"/>
	<path class="st0" d="M13.2,12.6c0,0-0.1,0-0.1,0.1C13.1,12.6,13.2,12.7,13.2,12.6z"/>
	<path class="st0" d="M11.9,12.9C12,12.9,12,13,11.9,12.9C12,12.9,12,12.9,11.9,12.9C12,12.9,12,12.9,11.9,12.9z"/>
	<path class="st0" d="M11.7,12.9C11.7,12.8,11.7,12.9,11.7,12.9C11.7,12.8,11.7,12.8,11.7,12.9z"/>
	<path class="st0" d="M10,11.5C9.9,11.5,9.9,11.5,10,11.5C9.9,11.5,9.9,11.5,10,11.5z"/>
	<polygon class="st0" points="9.9,11.6 9.9,11.5 9.9,11.5 	"/>
	<path class="st0" d="M9.7,11.4C9.7,11.4,9.7,11.4,9.7,11.4C9.7,11.4,9.7,11.4,9.7,11.4L9.7,11.4z"/>
	<path class="st0" d="M9.7,11.6c0-0.1,0-0.1,0-0.2l0,0.1L9.7,11.6z"/>
	<path class="st0" d="M9.5,11.6C9.5,11.5,9.5,11.5,9.5,11.6C9.5,11.4,9.5,11.6,9.5,11.6c-0.1,0,0,0.1-0.1,0.2
		C9.5,11.8,9.4,11.5,9.5,11.6z"/>
	<path class="st0" d="M9.6,11.7C9.6,11.6,9.5,11.6,9.6,11.7C9.5,11.7,9.5,11.8,9.6,11.7z"/>
	<polygon class="st0" points="9.3,11.5 9.4,11.5 9.3,11.5 	"/>
	<path class="st0" d="M9.3,11.5L9.3,11.5C9.3,11.5,9.2,11.5,9.3,11.5z"/>
	<path class="st0" d="M9.1,11.5L9.1,11.5c0,0,0-0.1,0-0.1C9.1,11.4,9.1,11.6,9.1,11.5z"/>
	<path class="st0" d="M8.8,11.6L8.8,11.6L8.8,11.6C8.8,11.7,8.8,11.7,8.8,11.6z"/>
	<path class="st0" d="M8.9,12.1C8.8,12.1,8.8,12.1,8.9,12.1C8.8,12.2,8.8,12.1,8.9,12.1z"/>
	<path class="st0" d="M8.7,11.5C8.8,11.5,8.8,11.5,8.7,11.5C8.8,11.5,8.7,11.5,8.7,11.5z"/>
	<path class="st0" d="M8.7,11.6l0-0.2C8.7,11.4,8.7,11.6,8.7,11.6c0-0.1,0-0.1,0-0.1c0,0-0.1,0-0.1,0c0,0,0,0.2,0,0.2
		C8.6,11.7,8.7,11.5,8.7,11.6z"/>
	<path class="st0" d="M8.8,11.9L8.8,11.9C8.7,11.9,8.7,11.9,8.8,11.9C8.7,12.1,8.8,11.9,8.8,11.9z"/>
	<polygon class="st0" points="8.4,11.6 8.3,11.7 8.3,11.7 	"/>
	<polygon class="st0" points="8.3,11.6 8.3,11.6 8.3,11.6 	"/>
	<polygon class="st0" points="8.3,11.6 8.3,11.5 8.3,11.6 	"/>
	<path class="st0" d="M8.2,11.6C8.2,11.6,8.2,11.6,8.2,11.6C8.2,11.6,8.2,11.6,8.2,11.6L8.2,11.6z"/>
	<path class="st0" d="M7.7,12.8L7.7,12.8c0,0.1,0,0.1,0,0.1C7.7,12.9,7.7,12.9,7.7,12.8z"/>
	<path class="st0" d="M7.6,12.9c0.1,0,0.1-0.1,0.1-0.1C7.7,12.8,7.7,12.8,7.6,12.9l0-0.1L7.6,12.9z"/>
	<path class="st0" d="M6.8,12.7c0-0.1,0-0.1,0-0.1c0,0-0.1,0-0.1,0c0,0,0,0.1,0,0.1L6.8,12.7L6.8,12.7C6.7,12.8,6.7,12.7,6.8,12.7z"
		/>
	<path class="st0" d="M4.4,12C4.4,11.9,4.4,11.9,4.4,12C4.4,11.9,4.4,12,4.4,12z"/>
	<path class="st0" d="M22.3,17C22.3,16.9,22.3,17,22.3,17L22.3,17z"/>
	<path class="st0" d="M22,16.9c0.1-0.1,0.1,0,0.2-0.1C22.1,16.8,22,16.8,22,16.9z"/>
	<polygon class="st0" points="22,17 22.1,17 22.1,16.9 	"/>
	<polygon class="st0" points="22.1,17 22.1,17 22,17.1 	"/>
	<path class="st0" d="M21.8,16.8c-0.1,0,0,0.1,0,0.1L21.8,16.8c0.1,0.2,0,0.2,0,0.3c0.1,0,0-0.2,0.1-0.1
		C21.9,16.8,21.8,16.9,21.8,16.8z"/>
	<path class="st0" d="M16.8,17.6C16.8,17.6,16.8,17.6,16.8,17.6C16.8,17.6,16.8,17.6,16.8,17.6L16.8,17.6z"/>
	<path class="st0" d="M11.8,16.9C11.8,16.9,11.8,16.9,11.8,16.9C11.8,16.8,11.8,16.8,11.8,16.9L11.8,16.9L11.8,16.9z"/>
	<path class="st0" d="M20.7,16.8C20.7,16.7,20.7,16.6,20.7,16.8L20.7,16.8c-0.1,0-0.1,0-0.2,0c0,0,0,0,0,0
		C20.6,16.8,20.6,16.8,20.7,16.8C20.7,16.9,20.7,16.8,20.7,16.8z"/>
	<path class="st0" d="M6.8,16.4C6.8,16.3,6.8,16.4,6.8,16.4C6.9,16.3,6.7,16.4,6.8,16.4C6.8,16.3,6.8,16.3,6.8,16.4L6.8,16.4
		C6.8,16.4,6.8,16.4,6.8,16.4z"/>
	<path class="st0" d="M11.5,16.7L11.5,16.7C11.5,16.6,11.5,16.6,11.5,16.7c-0.1,0,0,0.1-0.1,0.2c0,0,0,0,0,0
		C11.5,16.8,11.5,16.7,11.5,16.7z"/>
	<path class="st0" d="M11.5,16.8C11.5,16.8,11.5,16.8,11.5,16.8C11.5,16.9,11.5,16.9,11.5,16.8C11.5,16.9,11.5,16.9,11.5,16.8
		C11.5,16.9,11.5,16.9,11.5,16.8z"/>
	<path class="st0" d="M12.1,16.8C12.1,16.8,12.1,16.8,12.1,16.8C12.1,16.8,12.1,16.8,12.1,16.8L12.1,16.8z"/>
	<path class="st0" d="M10.2,17.7C10.2,17.6,10.1,17.7,10.2,17.7L10.2,17.7C10.1,17.8,10.1,17.7,10.2,17.7z"/>
	<polygon class="st0" points="6.8,16.3 6.8,16.3 6.8,16.3 	"/>
	<path class="st0" d="M11.7,16.9l0.1,0l0,0C11.8,16.9,11.7,16.8,11.7,16.9z"/>
	<path class="st0" d="M21.7,16.8c0,0-0.1,0-0.1,0l0,0c0,0,0,0.1,0,0.1c-0.1,0,0-0.1,0-0.1c-0.1,0,0,0.2-0.1,0.2l0,0
		c0,0-0.1,0-0.1,0.1c0-0.1-0.1,0-0.1,0c0-0.2,0.2,0,0.2-0.1c0,0,0-0.1,0-0.2l-0.2,0.1c0,0-0.1-0.1-0.1-0.1l0,0c-0.1,0,0,0.1-0.1,0.1
		c0,0,0-0.1,0-0.1c0,0,0,0.1-0.1,0.1c0,0,0-0.1,0-0.1c-0.1,0.1-0.1,0-0.1,0c0,0.1-0.2,0.2-0.1,0.3l-0.1,0.1c0-0.1,0.1-0.2,0-0.3
		l0.1,0c0-0.2-0.2,0.1-0.3-0.1c0,0,0,0-0.1-0.1l0,0.1c0,0-0.1-0.1-0.1-0.1c0,0-0.1,0-0.1,0c0,0,0,0,0,0c0-0.1,0-0.1-0.1,0
		c0,0,0,0-0.1,0l0-0.1c0,0,0,0,0,0.1c0,0,0,0,0,0c0,0,0,0.1,0.1,0.1c-0.1-0.1-0.2,0-0.3-0.1c0,0,0-0.1,0-0.1c0,0-0.1,0.1-0.1,0.1
		c0,0,0,0,0,0c0,0,0-0.1,0-0.1c0,0,0,0,0,0c0,0.1-0.1,0.1-0.1,0.1c0,0,0,0,0.1,0c0,0.1-0.1,0.2-0.1,0.1c0.1-0.1-0.1-0.1,0-0.2
		c-0.1-0.1,0,0.1-0.1,0.1l-0.1-0.1c0-0.1,0.1,0,0.1-0.1l0,0c0-0.1,0.2,0,0.3-0.1l-0.2,0c-0.2,0.1-0.5,0-0.7,0.2c0,0,0,0,0,0
		c0,0,0,0,0,0.1l0,0l0,0.1c0-0.1-0.1-0.1-0.2-0.2c0,0.1,0,0.1,0,0.1c0,0.1,0,0.1-0.1,0.1c0-0.1,0-0.1,0-0.1c0,0,0,0.1,0,0.1
		c0,0-0.1,0-0.1-0.1c0,0,0,0,0,0c0,0-0.1-0.1,0-0.1l-0.1,0c0-0.1,0-0.1,0-0.1c-0.1,0-0.2,0.2-0.2,0.2c0,0,0-0.2,0-0.1
		c-0.1,0-0.2,0.1-0.2,0.2c0,0,0,0,0.1,0c-0.2-0.1-0.4-0.1-0.7-0.2l-0.1,0.1l-0.1-0.1c-0.2-0.1-0.4,0-0.7,0c-0.1,0,0-0.1-0.1-0.1
		c-0.2,0-0.2,0.1-0.3,0.2c0,0,0.1-0.2,0-0.2c0,0,0,0.1-0.1,0.1l0,0c0-0.1-0.1,0-0.2,0c-0.1,0-0.3,0.1-0.4,0.3c-0.1,0,0-0.1,0-0.2
		c0.1,0.1,0.1,0,0.1-0.1c0,0-0.1,0.1-0.1,0c-0.1,0-0.1,0-0.2,0.1c0,0,0.1,0,0,0.1c-0.1,0-0.2,0-0.2-0.1c-0.3,0-0.6,0-0.9,0
		c-0.1,0.1,0,0,0,0.1c-0.1,0.1-0.1,0-0.1,0l0-0.1c-0.1,0-0.2,0.1-0.3,0.2c0-0.1-0.1-0.1,0-0.1c0,0-0.1-0.3-0.1-0.3l0,0.3
		c0,0-0.1,0-0.1,0c0-0.1-0.1-0.1-0.1-0.1c0-0.1,0.1-0.1,0.1-0.1c0-0.1-0.1-0.1-0.1-0.2c-0.1,0,0,0.1,0,0.1l-0.1,0l0.1,0
		c-0.1,0-0.1,0.1-0.2,0.1l-0.1,0.1c0-0.1-0.1,0-0.1,0l0-0.1c-0.1,0-0.1,0-0.1-0.1c0-0.1,0,0,0.1-0.1l-0.1,0c0,0.1,0,0.1,0,0.1
		c-0.1,0.1-0.1,0.2-0.2,0.2c-0.1-0.1,0.1-0.1,0-0.2c-0.1,0-0.2,0.3-0.3,0.3c-0.1,0-0.1,0.1-0.2,0.1c0-0.1-0.1-0.1-0.1-0.1l0-0.1
		c0,0-0.1,0-0.1-0.1c0,0.1-0.1,0.1-0.2,0.1l0,0.1c-0.1,0-0.1,0.1-0.2,0.1c-0.1,0-0.1,0.1-0.1,0.2c0-0.1,0-0.2,0-0.2c0,0,0.1,0,0.1,0
		c0.1-0.1,0.2-0.2,0.3-0.2c0.1-0.2-0.1,0-0.1,0c0,0,0,0,0,0c0,0,0,0,0,0c0,0,0.1-0.1,0.1-0.2c-0.1,0-0.1,0.2-0.1,0.1
		c-0.1,0.1-0.1-0.1-0.2-0.1c0,0.1,0,0.2-0.2,0.2l0-0.1c-0.1,0-0.1,0.2-0.2,0.2c0,0,0,0.1,0,0.1c0,0.1-0.1,0.1-0.2,0c0,0,0,0,0,0.1
		c0.1,0.1,0.1-0.1,0.2,0l0-0.1c0.1,0,0.1,0.1,0,0.2c0,0,0,0,0,0c0,0.2-0.1-0.1-0.1,0.1l0,0c0,0.1-0.1,0.1-0.2,0.1
		c-0.1-0.1-0.1-0.1-0.1-0.2l0.1,0c0-0.1-0.1,0-0.2,0c0,0,0,0,0,0c0,0,0,0,0,0c0,0,0,0,0,0c0,0-0.1,0-0.1,0l0,0.1l0,0
		c0,0,0.1,0,0.1,0.1c-0.1,0.1-0.1-0.1-0.1-0.2c0-0.1,0.1,0,0.1,0c0-0.1-0.1,0-0.2-0.1c0-0.1,0.1,0,0.1-0.1c-0.1,0-0.1,0.1-0.2,0
		c0-0.1,0.1-0.1,0.1-0.1l-0.1,0c0.1,0,0-0.2,0.1-0.2c0-0.1-0.1,0.1-0.1,0c0,0.1,0.1,0.2,0,0.2l-0.1,0c0-0.1,0.1-0.1,0-0.2l-0.1,0
		c0,0,0,0.1,0,0.1c0,0-0.1,0.1-0.1,0.2c0,0-0.1,0-0.1-0.1c-0.1,0.1-0.2,0.1-0.3,0.2c0.1-0.1,0-0.1,0-0.2c0.1,0,0.1-0.1,0.1-0.2
		c0,0-0.1,0.1-0.1,0.2c-0.1,0-0.1,0.1-0.1,0c0,0,0-0.1,0-0.2c-0.1,0,0,0.1-0.1,0.1c0,0,0,0,0,0c0,0-0.1,0-0.1,0.1
		c0-0.2-0.1,0-0.1-0.1c-0.1,0,0,0.1,0,0.1c0,0.1-0.1,0-0.2,0c0,0,0.1,0,0.1,0l0-0.1c-0.1-0.1-0.1,0.2-0.2,0.1c0.1-0.1,0-0.1,0.1-0.2
		c0,0-0.1,0-0.1,0.1c-0.1,0-0.1,0-0.1,0c0,0-0.1,0.1-0.1,0.1c-0.1,0-0.1-0.1-0.2-0.1c-0.2,0.1-0.3-0.1-0.4,0l0,0
		c-0.1,0,0.1,0.1-0.1,0.1c0-0.1-0.1-0.1-0.1-0.2c-0.2-0.1-0.3,0.1-0.4,0c0,0,0-0.1,0-0.1c-0.1,0-0.2,0-0.3,0l0,0
		c-0.2-0.1-0.3,0-0.5,0.1c0,0,0-0.1,0-0.1c-0.1,0-0.2,0-0.3,0.1c-0.1-0.1-0.1,0-0.2-0.1c0,0,0,0,0,0c-0.1,0-0.1,0-0.2,0
		c-0.1,0.1-0.2,0.2-0.3,0.2c0-0.2,0.1,0,0.1-0.2c0,0-0.1,0.1-0.1,0c0-0.1,0,0,0-0.1c0,0-0.1,0.2-0.1,0.2c0,0,0,0.1,0,0
		c0,0.1-0.2,0-0.2,0.1c0,0,0.1,0,0.1,0.1c-0.1,0-0.1,0.1-0.2,0.2c-0.1-0.1,0.1-0.1,0.1-0.3c0,0-0.1-0.1,0-0.2
		c-0.1,0-0.2,0.1-0.2,0.1l0,0c-0.1,0-0.2,0.2-0.3,0.1l0,0c0,0-0.1,0-0.1,0.1c0-0.1-0.1-0.1,0-0.2c0,0.2-0.2,0.1-0.3,0.3
		c0,0,0-0.1,0-0.2c0.1,0,0.1,0.1,0.1,0c-0.1,0-0.1,0-0.1-0.1c-0.1,0.1-0.2,0.2-0.2,0.3c0-0.1-0.1-0.1-0.1-0.2
		c-0.2,0.1,0.1,0.3-0.1,0.3c-0.1-0.1,0.1-0.1,0-0.2l0,0c-0.1-0.2-0.1,0.2-0.2,0.2c0-0.1,0.1-0.1,0-0.2c-0.1,0-0.1,0.2-0.2,0.2l0-0.1
		c-0.1,0-0.2,0-0.2,0c0,0,0,0,0,0c-0.1,0,0,0.1-0.1,0l0,0.1c0,0,0.1,0.1,0.2,0c-0.1,0.1,0.1,0.2,0.1,0.3l0,0
		c0.1,0.2,0.3,0.2,0.5,0.3c0.1-0.1,0.2,0.1,0.3,0c0-0.2,0,0,0.1-0.1c-0.1,0,0,0.1,0,0.1c0,0,0-0.1,0.1-0.1c0,0.1,0.2,0.2,0.2,0.1
		c0.1,0,0,0,0,0.1c0,0.1,0.1-0.1,0.1,0c0,0,0,0,0,0c0.1,0,0.2,0,0.3,0.1c0-0.2,0.1-0.1,0.2-0.1c0,0,0.1,0.1,0.1,0.1l0.1-0.1
		c0.1-0.1,0.1,0.1,0.2,0l0,0c0.1,0,0.2,0,0.2,0.1c0.5-0.3,0.8,0.2,1.3,0.1c0,0,0-0.1,0-0.1c0.1,0,0.1,0,0.1,0c0,0,0,0,0,0l-0.1,0
		c0,0,0,0,0,0c0,0-0.1,0-0.1,0c0,0,0.1-0.2,0.1-0.1c0,0,0,0,0,0c0.1,0,0.1,0,0.1,0c0,0,0,0,0,0l0.1,0.1c0.1-0.1,0.2,0,0.2,0
		c0,0.1-0.1,0-0.1,0.1l0.1,0.1l0-0.1l0.1,0l0,0c0,0,0-0.1,0,0c0,0,0,0,0,0l0.1,0c0,0.1,0,0,0,0.1c0.2,0,0.2-0.1,0.4,0
		c0,0,0-0.2,0.1-0.1c0,0,0,0,0,0.1l0.1,0c0.1,0.1,0.2,0.1,0.3,0.1l0,0c0,0,0.1-0.1,0.2-0.1l0,0.1c0.1,0.1,0.1-0.2,0.1-0.1
		c0-0.1-0.1-0.1-0.1-0.2c0,0.1,0.1,0.1,0.1,0c0.1,0,0.1,0,0.1,0l0.1-0.1c0.1,0,0,0.1,0,0.2c0.1-0.1,0.1,0,0.2,0l0,0l0.1,0
		c0.1-0.1,0.1-0.1,0.2,0l0,0.1c0,0.1,0,0,0-0.1c0.1-0.1,0.1,0,0.1,0.1c0.1-0.1,0.2,0.2,0.4,0l0,0.1c0.1-0.1,0.3,0.1,0.4-0.1
		c0.2,0.2,0.1-0.2,0.3,0l0,0c0.5,0,1.1,0.2,1.6,0.1l0,0c0.8,0.1,1.6,0,2.4,0c0.1,0,0-0.2,0.1-0.2c0,0,0.1,0,0.1,0.1
		c-0.1,0,0,0.1,0,0.1c0.1,0,0.2,0.1,0.3,0l-0.1-0.1c0,0,0.1,0,0.1,0c0,0,0,0.1,0,0.1c0.2-0.2,0.1,0.1,0.3,0c0-0.2,0.2-0.3,0.3-0.4
		l0.1,0c-0.1,0,0,0.1-0.1,0.1c0.1,0,0.2,0,0.2,0c0,0,0-0.1,0-0.1c0,0,0.1,0.1,0.1,0.1l-0.1,0.1c0,0.1,0.1,0,0.1,0
		c0,0.1,0.1,0.1,0.1,0.2c0.1-0.1,0.1,0,0.2-0.1c-0.1-0.1,0-0.1,0-0.1l-0.1,0c0.1,0,0,0,0,0.1c-0.1-0.1,0.1-0.2,0-0.2
		c0.1-0.1,0.2,0,0.3-0.1c-0.1,0,0-0.1,0-0.1c0.1,0,0,0,0.1,0.1c0.1,0,0.1,0.1,0.1,0c0.1,0,0,0.1,0,0.1c0,0.1-0.2-0.1-0.2,0.2
		c0,0-0.1,0.1-0.2,0.1c0.1,0,0.1,0.1,0.2,0.1l0-0.1c0.1,0,0.1-0.1,0.1-0.1c0,0,0,0.1,0.1,0.1c0,0,0,0,0,0c0.1,0,0.1-0.1,0.2-0.1
		c-0.1,0-0.1-0.1-0.2-0.1c0-0.1,0.1,0,0.1,0c0,0,0,0,0,0l0,0c0.1,0,0,0.1,0.1,0.2c0.1,0.1,0.1,0,0.1,0c0,0,0,0,0,0c0,0,0,0,0,0
		c0,0,0,0,0,0c0.1,0,0.1,0,0.1-0.1c0,0,0,0,0.1,0c0,0,0.1-0.1,0.1,0c0,0,0,0,0,0c0.1,0,0.1,0.1,0.1,0.1l0.1,0l0,0.1
		c0.1,0,0.1-0.1,0.2-0.2c0.1,0.1,0.2,0,0.2,0c0,0,0,0,0,0l0,0c0.1,0,0.1,0,0.1,0c0,0,0,0,0,0l0,0c0,0,0,0,0,0c0,0,0,0,0,0l0,0
		c0.1,0.1,0.1-0.1,0.2,0c0,0,0,0,0,0c0,0,0.1,0.2,0.1,0.1c0,0,0,0,0,0l0,0c0,0,0,0,0,0c0,0,0-0.1,0,0l0.1,0c0,0,0,0,0.1,0l0,0
		c0,0,0,0,0,0c0.1,0.1,0.2-0.1,0.3,0.1c0-0.1,0-0.1,0-0.1c0-0.1,0.1-0.1,0.1-0.1c0.1,0.1,0.2,0.2,0.2,0.3c0.1,0,0-0.1,0-0.1l0,0
		c0,0-0.1-0.1-0.1-0.1c0-0.1,0.1-0.1,0.1-0.1l0,0.1c0.1,0,0.1-0.2,0.1-0.3c0.1,0,0,0.1,0,0.2l0.1,0v0.1c0.1,0,0.1-0.1,0.1-0.1
		c-0.1,0.1,0.1,0.1,0,0.2c0,0,0.1-0.1,0.1,0c0-0.1,0,0-0.1-0.1c0-0.1,0.1-0.1,0.1-0.1c0,0.1,0,0.1,0,0.1c0,0,0-0.1,0.1,0
		c0-0.1,0.1,0,0.1,0c0,0-0.1-0.1-0.1-0.1c0,0,0.1,0,0.1,0l0,0c0.1-0.1,0.1,0.1,0.2,0c0,0-0.1,0-0.1,0.1c0,0,0.1-0.1,0.2-0.1l0.1,0.1
		c0-0.1,0.1,0,0.1-0.1c0.1,0.1-0.1,0.1-0.1,0.2c0.1,0.1,0.1-0.1,0.2,0l0,0.1c0,0,0.1,0,0.1,0c0,0,0,0,0,0c0-0.2,0.1-0.1,0.1-0.3l0,0
		c0.1,0,0.1-0.1,0.2-0.1c0,0.1,0,0.1-0.1,0.2c0.1,0,0.1-0.2,0.1-0.2C21.7,16.9,21.7,16.9,21.7,16.8z M18.6,17.3
		C18.6,17.3,18.6,17.4,18.6,17.3C18.6,17.4,18.6,17.4,18.6,17.3c0-0.1,0.2,0.1,0.1,0c0.1,0,0.1,0,0.1,0
		C18.7,17.3,18.7,17.4,18.6,17.3z M19.4,17.3L19.4,17.3C19.4,17.3,19.4,17.3,19.4,17.3z M20.3,16.8C20.3,16.8,20.3,16.8,20.3,16.8
		L20.3,16.8C20.3,16.7,20.3,16.7,20.3,16.8z"/>
	<path class="st0" d="M21.6,17.3L21.6,17.3L21.6,17.3c0.1,0,0.1-0.1,0.1-0.1C21.7,17.2,21.6,17.2,21.6,17.3L21.6,17.3z"/>
	<path class="st0" d="M21.5,16.7L21.5,16.7L21.5,16.7C21.6,16.7,21.5,16.7,21.5,16.7z"/>
	<path class="st0" d="M20.6,16.5L20.6,16.5C20.7,16.5,20.6,16.4,20.6,16.5z"/>
	<path class="st0" d="M21,17.3C21,17.2,20.9,17.2,21,17.3C21,17.3,20.9,17.3,21,17.3L21,17.3z"/>
	<path class="st0" d="M20.4,16.5C20.4,16.6,20.3,16.4,20.4,16.5C20.3,16.5,20.4,16.6,20.4,16.5z"/>
	<path class="st0" d="M20.6,17.4c0,0-0.1-0.1-0.1,0C20.5,17.5,20.5,17.4,20.6,17.4z"/>
	<path class="st0" d="M20.2,16.7c0,0-0.1-0.1-0.1-0.2c0,0.1-0.1,0.2,0,0.2C20,16.7,20,16.7,20.2,16.7c-0.1,0-0.1,0.1-0.1,0.1
		C20.1,16.7,20.1,16.7,20.2,16.7z"/>
	<path class="st0" d="M20.4,17.4c0,0,0.1,0.1,0.1,0.1C20.5,17.4,20.4,17.4,20.4,17.4l0.1-0.1C20.4,17.3,20.4,17.4,20.4,17.4z"/>
	<path class="st0" d="M20,16.5c-0.1,0-0.2,0-0.2,0.1l0,0C19.9,16.5,19.9,16.6,20,16.5z"/>
	<path class="st0" d="M20.2,17.3l0,0.1C20.2,17.4,20.1,17.3,20.2,17.3C20.2,17.3,20.2,17.3,20.2,17.3C20.2,17.3,20.2,17.2,20.2,17.3
		z"/>
	<path class="st0" d="M20,17.4L20,17.4l0,0.2C20,17.5,20,17.5,20,17.4z"/>
	<path class="st0" d="M19.8,17.5c0.1-0.1,0.1-0.1,0.1-0.1l0,0L19.8,17.5z"/>
	<path class="st0" d="M18.6,16.6C18.6,16.6,18.5,16.5,18.6,16.6C18.6,16.6,18.6,16.7,18.6,16.6z"/>
	<path class="st0" d="M18.7,17.5c0.1,0,0.2,0,0.2-0.1C18.8,17.4,18.7,17.5,18.7,17.5z"/>
	<path class="st0" d="M16.9,17.7c0,0-0.1,0-0.1,0.1C16.8,17.8,16.8,17.8,16.9,17.7C16.9,17.8,16.9,17.8,16.9,17.7z"/>
	<path class="st0" d="M16.4,17.7C16.4,17.7,16.5,17.7,16.4,17.7C16.5,17.7,16.4,17.7,16.4,17.7z"/>
	<path class="st0" d="M13.5,16.4C13.6,16.4,13.5,16.4,13.5,16.4C13.5,16.3,13.5,16.3,13.5,16.4z"/>
	<polygon class="st0" points="13.5,16.4 13.5,16.4 13.4,16.3 	"/>
	<path class="st0" d="M13.2,16.3C13.2,16.3,13.2,16.3,13.2,16.3C13.2,16.3,13.2,16.3,13.2,16.3L13.2,16.3z"/>
	<path class="st0" d="M13.1,16.3l0.1,0.1C13.2,16.4,13.1,16.4,13.1,16.3L13.1,16.3z"/>
	<path class="st0" d="M12.8,16.4c-0.1,0.1,0,0.2-0.1,0.3C12.8,16.7,12.7,16.4,12.8,16.4c0,0,0.1,0,0.2,0
		C12.9,16.3,12.8,16.5,12.8,16.4z"/>
	<path class="st0" d="M12.9,16.6C12.9,16.5,12.9,16.5,12.9,16.6C12.9,16.5,12.9,16.6,12.9,16.6z"/>
	<polygon class="st0" points="12.6,16.4 12.6,16.4 12.6,16.4 	"/>
	<path class="st0" d="M12.5,16.3C12.5,16.3,12.4,16.3,12.5,16.3L12.5,16.3z"/>
	<path class="st0" d="M12.2,16.4L12.2,16.4c0,0-0.1-0.1,0-0.1C12.2,16.3,12.1,16.4,12.2,16.4z"/>
	<path class="st0" d="M11.7,16.5L11.7,16.5L11.7,16.5C11.7,16.6,11.7,16.5,11.7,16.5z"/>
	<path class="st0" d="M11.8,17c-0.1,0-0.1,0-0.1,0C11.7,17.1,11.8,17,11.8,17z"/>
	<path class="st0" d="M11.6,16.4C11.6,16.4,11.6,16.4,11.6,16.4C11.7,16.3,11.6,16.4,11.6,16.4z"/>
	<path class="st0" d="M11.5,16.5l0.1-0.2C11.5,16.3,11.5,16.5,11.5,16.5c-0.1-0.1,0-0.1,0-0.1c-0.1,0-0.1,0-0.1,0c0,0,0,0.2,0,0.2
		C11.4,16.6,11.5,16.4,11.5,16.5z"/>
	<path class="st0" d="M11.6,16.8L11.6,16.8C11.6,16.8,11.6,16.8,11.6,16.8C11.6,16.9,11.6,16.8,11.6,16.8z"/>
	<polygon class="st0" points="11,16.5 10.9,16.6 10.9,16.6 	"/>
	<polygon class="st0" points="10.9,16.4 10.9,16.5 10.9,16.5 	"/>
	<polygon class="st0" points="10.8,16.4 10.9,16.4 10.8,16.4 	"/>
	<path class="st0" d="M10.7,16.4C10.7,16.5,10.6,16.5,10.7,16.4L10.7,16.4C10.7,16.5,10.7,16.5,10.7,16.4z"/>
	<path class="st0" d="M9.9,17.7L9.9,17.7c0,0.1,0,0.1,0,0.1C10,17.8,10,17.7,9.9,17.7z"/>
	<path class="st0" d="M9.8,17.8c0.1,0,0.1-0.1,0.2-0.1C9.9,17.6,9.9,17.7,9.8,17.8l0.1-0.1L9.8,17.8z"/>
	<path class="st0" d="M8.4,17.6c0-0.1,0-0.1,0-0.1c-0.1,0-0.1,0-0.2,0c0,0,0,0.1,0,0.1L8.4,17.6l-0.1,0C8.3,17.7,8.3,17.5,8.4,17.6z
		"/>
	<path class="st0" d="M4.6,16.8C4.6,16.8,4.6,16.8,4.6,16.8C4.5,16.8,4.6,16.8,4.6,16.8z"/>
	<path class="st0" d="M22.3,21.9C22.3,21.8,22.3,21.8,22.3,21.9L22.3,21.9z"/>
	<path class="st0" d="M22,21.8c0.1-0.1,0.1,0,0.2-0.1C22.1,21.7,22,21.7,22,21.8z"/>
	<polygon class="st0" points="22,21.9 22.1,21.9 22.1,21.8 	"/>
	<polygon class="st0" points="22.1,21.9 22.1,21.9 22,22 	"/>
	<path class="st0" d="M21.8,21.6c-0.1,0,0,0.1,0,0.1L21.8,21.6c0.1,0.2,0,0.2,0,0.3c0.1,0,0-0.2,0.1-0.1
		C21.9,21.7,21.8,21.8,21.8,21.6z"/>
	<path class="st0" d="M16.8,22.5C16.8,22.5,16.8,22.4,16.8,22.5C16.8,22.5,16.8,22.5,16.8,22.5L16.8,22.5z"/>
	<path class="st0" d="M11.8,21.7C11.8,21.7,11.8,21.7,11.8,21.7C11.8,21.7,11.8,21.7,11.8,21.7L11.8,21.7L11.8,21.7z"/>
	<path class="st0" d="M20.7,21.6C20.7,21.6,20.7,21.4,20.7,21.6L20.7,21.6c-0.1,0-0.1,0-0.2,0c0,0,0,0,0,0
		C20.6,21.7,20.6,21.7,20.7,21.6C20.7,21.7,20.7,21.7,20.7,21.6z"/>
	<path class="st0" d="M6.8,21.2C6.8,21.2,6.8,21.3,6.8,21.2C6.9,21.2,6.7,21.3,6.8,21.2C6.8,21.2,6.8,21.2,6.8,21.2L6.8,21.2
		C6.8,21.3,6.8,21.3,6.8,21.2z"/>
	<path class="st0" d="M11.5,21.5L11.5,21.5C11.5,21.5,11.5,21.5,11.5,21.5c-0.1,0,0,0.1-0.1,0.2c0,0,0,0,0,0
		C11.5,21.7,11.5,21.6,11.5,21.5z"/>
	<path class="st0" d="M11.5,21.7C11.5,21.7,11.5,21.7,11.5,21.7C11.5,21.7,11.5,21.7,11.5,21.7C11.5,21.7,11.5,21.8,11.5,21.7
		C11.5,21.7,11.5,21.7,11.5,21.7z"/>
	<path class="st0" d="M12.1,21.6C12.1,21.6,12.1,21.6,12.1,21.6C12.1,21.6,12.1,21.6,12.1,21.6L12.1,21.6z"/>
	<path class="st0" d="M10.2,22.6C10.2,22.5,10.1,22.6,10.2,22.6L10.2,22.6C10.1,22.6,10.1,22.6,10.2,22.6z"/>
	<polygon class="st0" points="6.8,21.2 6.8,21.2 6.8,21.2 	"/>
	<path class="st0" d="M11.7,21.8l0.1,0l0,0C11.8,21.8,11.7,21.7,11.7,21.8z"/>
	<path class="st0" d="M21.7,21.7c0,0-0.1,0-0.1,0l0,0c0,0,0,0.1,0,0.1c-0.1,0,0-0.1,0-0.1c-0.1,0,0,0.2-0.1,0.2l0,0
		c0,0-0.1,0-0.1,0.1c0-0.1-0.1,0-0.1,0c0-0.2,0.2,0,0.2-0.1c0,0,0-0.1,0-0.2l-0.2,0.1c0,0-0.1-0.1-0.1-0.1l0,0c-0.1,0,0,0.1-0.1,0.1
		c0,0,0-0.1,0-0.1c0,0,0,0.1-0.1,0.1c0,0,0-0.1,0-0.1c-0.1,0.1-0.1,0-0.1,0c0,0.1-0.2,0.2-0.1,0.3l-0.1,0.1c0-0.1,0.1-0.2,0-0.3
		l0.1,0c0-0.2-0.2,0.1-0.3-0.1c0,0,0,0-0.1-0.1l0,0.1c0,0-0.1-0.1-0.1-0.1c0,0-0.1,0-0.1,0c0,0,0,0,0,0c0-0.1,0-0.1-0.1,0
		c0,0,0,0-0.1,0l0-0.1c0,0,0,0,0,0.1c0,0,0,0,0,0c0,0,0,0.1,0.1,0.1c-0.1-0.1-0.2,0-0.3-0.1c0,0,0-0.1,0-0.1c0,0-0.1,0.1-0.1,0.1
		c0,0,0,0,0,0c0,0,0-0.1,0-0.1c0,0,0,0,0,0c0,0.1-0.1,0.1-0.1,0.1c0,0,0,0,0.1,0c0,0.1-0.1,0.2-0.1,0.1c0.1-0.1-0.1-0.1,0-0.2
		c-0.1-0.1,0,0.1-0.1,0.1l-0.1-0.1c0-0.1,0.1,0,0.1-0.1l0,0c0-0.1,0.2,0,0.3-0.1l-0.2,0c-0.2,0.1-0.5,0-0.7,0.2c0,0,0,0,0,0
		c0,0,0,0,0,0.1l0,0l0,0.1c0-0.1-0.1-0.1-0.2-0.2c0,0.1,0,0.1,0,0.1c0,0.1,0,0.1-0.1,0.1c0-0.1,0-0.1,0-0.1c0,0,0,0.1,0,0.1
		c0,0-0.1,0-0.1-0.1c0,0,0,0,0,0c0,0-0.1-0.1,0-0.1l-0.1,0c0-0.1,0-0.1,0-0.1c-0.1,0-0.2,0.2-0.2,0.2c0,0,0-0.2,0-0.1
		c-0.1,0-0.2,0.1-0.2,0.2c0,0,0,0,0.1,0c-0.2-0.1-0.4-0.1-0.7-0.2l-0.1,0.1l-0.1-0.1c-0.2-0.1-0.4,0-0.7,0c-0.1,0,0-0.1-0.1-0.1
		c-0.2,0-0.2,0.1-0.3,0.2c0,0,0.1-0.2,0-0.2c0,0,0,0.1-0.1,0.1l0,0c0-0.1-0.1,0-0.2,0c-0.1,0-0.3,0.1-0.4,0.3c-0.1,0,0-0.1,0-0.2
		c0.1,0.1,0.1,0,0.1-0.1c0,0-0.1,0.1-0.1,0c-0.1,0-0.1,0-0.2,0.1c0,0,0.1,0,0,0.1c-0.1,0-0.2,0-0.2-0.1c-0.3,0-0.6,0-0.9,0
		c-0.1,0.1,0,0,0,0.1c-0.1,0.1-0.1,0-0.1,0l0-0.1c-0.1,0-0.2,0.1-0.3,0.2c0-0.1-0.1-0.1,0-0.1c0,0-0.1-0.3-0.1-0.3l0,0.3
		c0,0-0.1,0-0.1,0c0-0.1-0.1-0.1-0.1-0.1c0-0.1,0.1-0.1,0.1-0.1c0-0.1-0.1-0.1-0.1-0.2c-0.1,0,0,0.1,0,0.1l-0.1,0l0.1,0
		c-0.1,0-0.1,0.1-0.2,0.1l-0.1,0.1c0-0.1-0.1,0-0.1,0l0-0.1c-0.1,0-0.1,0-0.1-0.1c0-0.1,0,0,0.1-0.1l-0.1,0c0,0.1,0,0.1,0,0.1
		c-0.1,0.1-0.1,0.2-0.2,0.2c-0.1-0.1,0.1-0.1,0-0.2c-0.1,0-0.2,0.3-0.3,0.3c-0.1,0-0.1,0.1-0.2,0.1c0-0.1-0.1-0.1-0.1-0.1l0-0.1
		c0,0-0.1,0-0.1-0.1c0,0.1-0.1,0.1-0.2,0.1l0,0.1c-0.1,0-0.1,0.1-0.2,0.1c-0.1,0-0.1,0.1-0.1,0.2c0-0.1,0-0.2,0-0.2c0,0,0.1,0,0.1,0
		c0.1-0.1,0.2-0.2,0.3-0.2c0.1-0.2-0.1,0-0.1,0c0,0,0,0,0,0c0,0,0,0,0,0c0,0,0.1-0.1,0.1-0.2c-0.1,0-0.1,0.2-0.1,0.1
		c-0.1,0.1-0.1-0.1-0.2-0.1c0,0.1,0,0.2-0.2,0.2l0-0.1c-0.1,0-0.1,0.2-0.2,0.2c0,0,0,0.1,0,0.1c0,0.1-0.1,0.1-0.2,0c0,0,0,0,0,0.1
		c0.1,0.1,0.1-0.1,0.2,0l0-0.1c0.1,0,0.1,0.1,0,0.2c0,0,0,0,0,0c0,0.2-0.1-0.1-0.1,0.1l0,0c0,0.1-0.1,0.1-0.2,0.1
		c-0.1-0.1-0.1-0.1-0.1-0.2l0.1,0c0-0.1-0.1,0-0.2,0c0,0,0,0,0,0c0,0,0,0,0,0c0,0,0,0,0,0c0,0-0.1,0-0.1,0l0,0.1l0,0
		c0,0,0.1,0,0.1,0.1c-0.1,0.1-0.1-0.1-0.1-0.2c0-0.1,0.1,0,0.1,0c0-0.1-0.1,0-0.2-0.1c0-0.1,0.1,0,0.1-0.1c-0.1,0-0.1,0.1-0.2,0
		c0-0.1,0.1-0.1,0.1-0.1l-0.1,0c0.1,0,0-0.2,0.1-0.2c0-0.1-0.1,0.1-0.1,0c0,0.1,0.1,0.2,0,0.2l-0.1,0c0-0.1,0.1-0.1,0-0.2l-0.1,0
		c0,0,0,0.1,0,0.1c0,0-0.1,0.1-0.1,0.2c0,0-0.1,0-0.1-0.1c-0.1,0.1-0.2,0.1-0.3,0.2c0.1-0.1,0-0.1,0-0.2c0.1,0,0.1-0.1,0.1-0.2
		c0,0-0.1,0.1-0.1,0.2c-0.1,0-0.1,0.1-0.1,0c0,0,0-0.1,0-0.2c-0.1,0,0,0.1-0.1,0.1c0,0,0,0,0,0c0,0-0.1,0-0.1,0.1
		c0-0.2-0.1,0-0.1-0.1c-0.1,0,0,0.1,0,0.1c0,0.1-0.1,0-0.2,0c0,0,0.1,0,0.1,0l0-0.1c-0.1-0.1-0.1,0.2-0.2,0.1c0.1-0.1,0-0.1,0.1-0.2
		c0,0-0.1,0-0.1,0.1c-0.1,0-0.1,0-0.1,0c0,0-0.1,0.1-0.1,0.1c-0.1,0-0.1-0.1-0.2-0.1c-0.2,0.1-0.3-0.1-0.4,0l0,0
		c-0.1,0,0.1,0.1-0.1,0.1c0-0.1-0.1-0.1-0.1-0.2c-0.2-0.1-0.3,0.1-0.4,0c0,0,0-0.1,0-0.1c-0.1,0-0.2,0-0.3,0l0,0
		c-0.2-0.1-0.3,0-0.5,0.1c0,0,0-0.1,0-0.1c-0.1,0-0.2,0-0.3,0.1c-0.1-0.1-0.1,0-0.2-0.1c0,0,0,0,0,0c-0.1,0-0.1,0-0.2,0
		c-0.1,0.1-0.2,0.2-0.3,0.2c0-0.2,0.1,0,0.1-0.2c0,0-0.1,0.1-0.1,0c0-0.1,0,0,0-0.1c0,0-0.1,0.2-0.1,0.2c0,0,0,0.1,0,0
		c0,0.1-0.2,0-0.2,0.1c0,0,0.1,0,0.1,0.1c-0.1,0-0.1,0.1-0.2,0.2c-0.1-0.1,0.1-0.1,0.1-0.3c0,0-0.1-0.1,0-0.2
		c-0.1,0-0.2,0.1-0.2,0.1l0,0c-0.1,0-0.2,0.2-0.3,0.1l0,0c0,0-0.1,0-0.1,0.1c0-0.1-0.1-0.1,0-0.2c0,0.2-0.2,0.1-0.3,0.3
		c0,0,0-0.1,0-0.2c0.1,0,0.1,0.1,0.1,0c-0.1,0-0.1,0-0.1-0.1c-0.1,0.1-0.2,0.2-0.2,0.3c0-0.1-0.1-0.1-0.1-0.2
		c-0.2,0.1,0.1,0.3-0.1,0.3c-0.1-0.1,0.1-0.1,0-0.2l0,0c-0.1-0.2-0.1,0.2-0.2,0.2c0-0.1,0.1-0.1,0-0.2c-0.1,0-0.1,0.2-0.2,0.2l0-0.1
		c-0.1,0-0.2,0-0.2,0c0,0,0,0,0,0c-0.1,0,0,0.1-0.1,0l0,0.1c0,0,0.1,0.1,0.2,0c-0.1,0.1,0.1,0.2,0.1,0.3l0,0
		c0.1,0.2,0.3,0.2,0.5,0.3c0.1-0.1,0.2,0.1,0.3,0c0-0.2,0,0,0.1-0.1c-0.1,0,0,0.1,0,0.1c0,0,0-0.1,0.1-0.1c0,0.1,0.2,0.2,0.2,0.1
		c0.1,0,0,0,0,0.1c0,0.1,0.1-0.1,0.1,0c0,0,0,0,0,0c0.1,0,0.2,0,0.3,0.1c0-0.2,0.1-0.1,0.2-0.1c0,0,0.1,0.1,0.1,0.1l0.1-0.1
		c0.1-0.1,0.1,0.1,0.2,0l0,0c0.1,0,0.2,0,0.2,0.1c0.5-0.3,0.8,0.2,1.3,0.1c0,0,0-0.1,0-0.1c0.1,0,0.1,0,0.1,0c0,0,0,0,0,0l-0.1,0
		c0,0,0,0,0,0c0,0-0.1,0-0.1,0c0,0,0.1-0.2,0.1-0.1c0,0,0,0,0,0c0.1,0,0.1,0,0.1,0c0,0,0,0,0,0l0.1,0.1c0.1-0.1,0.2,0,0.2,0
		c0,0.1-0.1,0-0.1,0.1l0.1,0.1l0-0.1l0.1,0l0,0c0,0,0-0.1,0,0c0,0,0,0,0,0l0.1,0c0,0.1,0,0,0,0.1c0.2,0,0.2-0.1,0.4,0
		c0,0,0-0.2,0.1-0.1c0,0,0,0,0,0.1l0.1,0c0.1,0.1,0.2,0.1,0.3,0.1l0,0c0,0,0.1-0.1,0.2-0.1l0,0.1c0.1,0.1,0.1-0.2,0.1-0.1
		c0-0.1-0.1-0.1-0.1-0.2c0,0.1,0.1,0.1,0.1,0c0.1,0,0.1,0,0.1,0l0.1-0.1c0.1,0,0,0.1,0,0.2c0.1-0.1,0.1,0,0.2,0l0,0l0.1,0
		c0.1-0.1,0.1-0.1,0.2,0l0,0.1c0,0.1,0,0,0-0.1c0.1-0.1,0.1,0,0.1,0.1c0.1-0.1,0.2,0.2,0.4,0l0,0.1c0.1-0.1,0.3,0.1,0.4-0.1
		c0.2,0.2,0.1-0.2,0.3,0l0,0c0.5,0,1.1,0.2,1.6,0.1l0,0c0.8,0.1,1.6,0,2.4,0c0.1,0,0-0.2,0.1-0.2c0,0,0.1,0,0.1,0.1
		c-0.1,0,0,0.1,0,0.1c0.1,0,0.2,0.1,0.3,0l-0.1-0.1c0,0,0.1,0,0.1,0c0,0,0,0.1,0,0.1c0.2-0.2,0.1,0.1,0.3,0c0-0.2,0.2-0.3,0.3-0.4
		l0.1,0c-0.1,0,0,0.1-0.1,0.1c0.1,0,0.2,0,0.2,0c0,0,0-0.1,0-0.1c0,0,0.1,0.1,0.1,0.1l-0.1,0.1c0,0.1,0.1,0,0.1,0
		c0,0.1,0.1,0.1,0.1,0.2c0.1-0.1,0.1,0,0.2-0.1c-0.1-0.1,0-0.1,0-0.1l-0.1,0c0.1,0,0,0,0,0.1c-0.1-0.1,0.1-0.2,0-0.2
		c0.1-0.1,0.2,0,0.3-0.1c-0.1,0,0-0.1,0-0.1c0.1,0,0,0,0.1,0.1c0.1,0,0.1,0.1,0.1,0c0.1,0,0,0.1,0,0.1c0,0.1-0.2-0.1-0.2,0.2
		c0,0-0.1,0.1-0.2,0.1c0.1,0,0.1,0.1,0.2,0.1l0-0.1c0.1,0,0.1-0.1,0.1-0.1c0,0,0,0.1,0.1,0.1c0,0,0,0,0,0c0.1,0,0.1-0.1,0.2-0.1
		c-0.1,0-0.1-0.1-0.2-0.1c0-0.1,0.1,0,0.1,0c0,0,0,0,0,0l0,0c0.1,0,0,0.1,0.1,0.2c0.1,0.1,0.1,0,0.1,0c0,0,0,0,0,0c0,0,0,0,0,0
		c0,0,0,0,0,0c0.1,0,0.1,0,0.1-0.1c0,0,0,0,0.1,0c0,0,0.1-0.1,0.1,0c0,0,0,0,0,0c0.1,0,0.1,0.1,0.1,0.1l0.1,0l0,0.1
		c0.1,0,0.1-0.1,0.2-0.2c0.1,0.1,0.2,0,0.2,0c0,0,0,0,0,0l0,0c0.1,0,0.1,0,0.1,0c0,0,0,0,0,0l0,0c0,0,0,0,0,0c0,0,0,0,0,0l0,0
		c0.1,0.1,0.1-0.1,0.2,0c0,0,0,0,0,0c0,0,0.1,0.2,0.1,0.1c0,0,0,0,0,0l0,0c0,0,0,0,0,0c0,0,0-0.1,0,0l0.1,0c0,0,0,0,0.1,0l0,0
		c0,0,0,0,0,0c0.1,0.1,0.2-0.1,0.3,0.1c0-0.1,0-0.1,0-0.1c0-0.1,0.1-0.1,0.1-0.1c0.1,0.1,0.2,0.2,0.2,0.3c0.1,0,0-0.1,0-0.1l0,0
		c0,0-0.1-0.1-0.1-0.1c0-0.1,0.1-0.1,0.1-0.1l0,0.1c0.1,0,0.1-0.2,0.1-0.3c0.1,0,0,0.1,0,0.2l0.1,0v0.1c0.1,0,0.1-0.1,0.1-0.1
		c-0.1,0.1,0.1,0.1,0,0.2c0,0,0.1-0.1,0.1,0c0-0.1,0,0-0.1-0.1c0-0.1,0.1-0.1,0.1-0.1c0,0.1,0,0.1,0,0.1c0,0,0-0.1,0.1,0
		c0-0.1,0.1,0,0.1,0c0,0-0.1-0.1-0.1-0.1c0,0,0.1,0,0.1,0l0,0c0.1-0.1,0.1,0.1,0.2,0c0,0-0.1,0-0.1,0.1c0,0,0.1-0.1,0.2-0.1l0.1,0.1
		c0-0.1,0.1,0,0.1-0.1c0.1,0.1-0.1,0.1-0.1,0.2c0.1,0.1,0.1-0.1,0.2,0l0,0.1c0,0,0.1,0,0.1,0c0,0,0,0,0,0c0-0.2,0.1-0.1,0.1-0.3l0,0
		c0.1,0,0.1-0.1,0.2-0.1c0,0.1,0,0.1-0.1,0.2c0.1,0,0.1-0.2,0.1-0.2C21.7,21.8,21.7,21.7,21.7,21.7z M18.6,22.2
		C18.6,22.2,18.6,22.3,18.6,22.2C18.6,22.3,18.6,22.2,18.6,22.2c0-0.1,0.2,0.1,0.1,0c0.1,0,0.1,0,0.1,0
		C18.7,22.2,18.7,22.2,18.6,22.2z M19.4,22.2L19.4,22.2C19.4,22.2,19.4,22.2,19.4,22.2z M20.3,21.6C20.3,21.6,20.3,21.6,20.3,21.6
		L20.3,21.6C20.3,21.6,20.3,21.6,20.3,21.6z"/>
	<path class="st0" d="M21.6,22.1L21.6,22.1L21.6,22.1c0.1,0,0.1-0.1,0.1-0.1C21.7,22.1,21.6,22,21.6,22.1L21.6,22.1z"/>
	<path class="st0" d="M21.5,21.5L21.5,21.5L21.5,21.5C21.6,21.6,21.5,21.5,21.5,21.5z"/>
	<path class="st0" d="M20.6,21.4L20.6,21.4C20.7,21.4,20.6,21.3,20.6,21.4z"/>
	<path class="st0" d="M21,22.2C21,22.1,20.9,22.1,21,22.2C21,22.1,20.9,22.2,21,22.2L21,22.2z"/>
	<path class="st0" d="M20.3,21.4C20.3,21.4,20.4,21.5,20.3,21.4C20.4,21.5,20.3,21.3,20.3,21.4z"/>
	<path class="st0" d="M20.6,22.3c0,0-0.1-0.1-0.1,0C20.5,22.4,20.5,22.3,20.6,22.3z"/>
	<path class="st0" d="M20,21.4c0,0.1-0.1,0.2,0,0.2c0-0.1,0-0.1,0.1,0c0,0,0,0.1,0,0.1c0.1-0.1,0.1,0,0.1-0.1
		C20.1,21.5,20,21.5,20,21.4z"/>
	<path class="st0" d="M20.4,22.3c0,0,0.1,0.1,0.1,0.1C20.5,22.3,20.4,22.3,20.4,22.3l0.1-0.1C20.4,22.1,20.4,22.3,20.4,22.3z"/>
	<path class="st0" d="M19.8,21.5c0.1-0.1,0.1,0,0.2-0.1C19.9,21.4,19.8,21.4,19.8,21.5L19.8,21.5z"/>
	<path class="st0" d="M20.2,22.1l0,0.1C20.2,22.3,20.1,22.2,20.2,22.1C20.2,22.2,20.2,22.2,20.2,22.1C20.2,22.2,20.2,22.1,20.2,22.1
		z"/>
	<path class="st0" d="M20,22.3L20,22.3l0,0.2C20,22.4,20,22.4,20,22.3z"/>
	<path class="st0" d="M19.8,22.3c0.1-0.1,0.1-0.1,0.1-0.1l0,0L19.8,22.3z"/>
	<path class="st0" d="M18.6,21.5C18.6,21.5,18.5,21.4,18.6,21.5C18.6,21.5,18.6,21.6,18.6,21.5z"/>
	<path class="st0" d="M18.7,22.4c0.1,0,0.2,0,0.2-0.1C18.8,22.3,18.7,22.4,18.7,22.4z"/>
	<path class="st0" d="M16.9,22.6c0,0-0.1,0-0.1,0.1C16.8,22.7,16.8,22.7,16.9,22.6C16.9,22.7,16.9,22.6,16.9,22.6z"/>
	<path class="st0" d="M16.4,22.6C16.4,22.6,16.5,22.6,16.4,22.6C16.5,22.5,16.4,22.6,16.4,22.6z"/>
	<path class="st0" d="M13.5,21.3C13.6,21.3,13.5,21.2,13.5,21.3C13.5,21.2,13.5,21.2,13.5,21.3z"/>
	<polygon class="st0" points="13.5,21.3 13.4,21.2 13.5,21.3 	"/>
	<path class="st0" d="M13.2,21.2C13.2,21.2,13.2,21.2,13.2,21.2C13.2,21.2,13.2,21.2,13.2,21.2L13.2,21.2z"/>
	<path class="st0" d="M13.1,21.2l0.1,0.1C13.2,21.2,13.1,21.2,13.1,21.2L13.1,21.2z"/>
	<path class="st0" d="M12.6,21.5c0.2,0.1,0.1-0.2,0.2-0.2c-0.1-0.1,0-0.1,0.1-0.1c-0.1,0-0.1,0.1-0.2,0
		C12.6,21.3,12.8,21.4,12.6,21.5z"/>
	<path class="st0" d="M12.9,21.4C12.9,21.4,12.9,21.4,12.9,21.4C12.9,21.4,12.9,21.5,12.9,21.4z"/>
	<polygon class="st0" points="12.6,21.3 12.6,21.3 12.6,21.2 	"/>
	<path class="st0" d="M12.5,21.3L12.5,21.3C12.5,21.2,12.4,21.2,12.5,21.3z"/>
	<path class="st0" d="M12.2,21.3L12.2,21.3c0,0-0.1-0.1,0-0.1C12.2,21.1,12.1,21.3,12.2,21.3z"/>
	<path class="st0" d="M11.7,21.4L11.7,21.4L11.7,21.4C11.7,21.4,11.7,21.4,11.7,21.4z"/>
	<path class="st0" d="M11.8,21.9c-0.1,0-0.1,0-0.1,0C11.7,21.9,11.8,21.8,11.8,21.9z"/>
	<path class="st0" d="M11.6,21.3C11.6,21.2,11.6,21.3,11.6,21.3C11.7,21.2,11.6,21.2,11.6,21.3z"/>
	<path class="st0" d="M11.5,21.3C11.4,21.3,11.5,21.3,11.5,21.3c-0.1-0.1-0.1-0.1-0.2-0.1c0,0,0,0.2,0,0.2
		C11.4,21.4,11.5,21.2,11.5,21.3l0.1-0.1C11.5,21.2,11.5,21.3,11.5,21.3z"/>
	<path class="st0" d="M11.5,21.7C11.6,21.8,11.6,21.7,11.5,21.7L11.5,21.7C11.6,21.7,11.6,21.7,11.5,21.7z"/>
	<polygon class="st0" points="11,21.4 10.9,21.4 10.9,21.4 	"/>
	<polygon class="st0" points="10.9,21.4 10.9,21.4 10.9,21.3 	"/>
	<polygon class="st0" points="10.8,21.3 10.9,21.3 10.8,21.3 	"/>
	<path class="st0" d="M10.7,21.3C10.7,21.3,10.6,21.3,10.7,21.3L10.7,21.3C10.7,21.3,10.7,21.4,10.7,21.3z"/>
	<path class="st0" d="M9.9,22.6L9.9,22.6c0,0.1,0,0.1,0,0.1C10,22.6,10,22.6,9.9,22.6z"/>
	<path class="st0" d="M9.8,22.6c0.1,0,0.1-0.1,0.2-0.1C9.9,22.5,9.9,22.6,9.8,22.6l0.1-0.1L9.8,22.6z"/>
	<path class="st0" d="M8.4,22.4c0-0.1,0-0.1,0-0.1c-0.1,0-0.1,0-0.2,0c0,0,0,0.1,0,0.1L8.4,22.4l-0.1,0C8.3,22.5,8.3,22.4,8.4,22.4z
		"/>
	<path class="st0" d="M4.6,21.7C4.6,21.7,4.6,21.7,4.6,21.7C4.5,21.7,4.6,21.7,4.6,21.7z"/>
	<path class="st0" d="M22.3,26.7C22.3,26.7,22.3,26.7,22.3,26.7L22.3,26.7z"/>
	<path class="st0" d="M22,26.7c0.1-0.1,0.1,0,0.2-0.1C22.1,26.5,22,26.6,22,26.7z"/>
	<polygon class="st0" points="22,26.8 22.1,26.7 22.1,26.7 	"/>
	<polygon class="st0" points="22,26.8 22.1,26.8 22.1,26.8 	"/>
	<path class="st0" d="M21.8,26.5c-0.1,0,0,0.1,0,0.1L21.8,26.5c0.1,0.2,0,0.2,0,0.3c0.1,0,0-0.2,0.1-0.1
		C21.9,26.6,21.8,26.6,21.8,26.5z"/>
	<path class="st0" d="M16.8,27.3C16.8,27.3,16.8,27.3,16.8,27.3C16.8,27.3,16.8,27.3,16.8,27.3L16.8,27.3z"/>
	<path class="st0" d="M11.8,26.6C11.8,26.6,11.8,26.6,11.8,26.6C11.8,26.6,11.8,26.6,11.8,26.6L11.8,26.6L11.8,26.6z"/>
	<path class="st0" d="M20.7,26.5C20.7,26.5,20.7,26.3,20.7,26.5L20.7,26.5c-0.1,0-0.1,0-0.2,0c0,0,0,0,0,0
		C20.6,26.6,20.6,26.6,20.7,26.5C20.7,26.6,20.7,26.5,20.7,26.5z"/>
	<path class="st0" d="M6.8,26.1C6.8,26.1,6.8,26.1,6.8,26.1C6.9,26,6.7,26.1,6.8,26.1C6.8,26,6.8,26.1,6.8,26.1L6.8,26.1
		C6.8,26.1,6.8,26.1,6.8,26.1z"/>
	<path class="st0" d="M11.5,26.4L11.5,26.4C11.5,26.4,11.5,26.4,11.5,26.4c-0.1,0,0,0.1-0.1,0.2c0,0,0,0,0,0
		C11.5,26.5,11.5,26.5,11.5,26.4z"/>
	<path class="st0" d="M11.5,26.6C11.5,26.6,11.5,26.6,11.5,26.6C11.5,26.6,11.5,26.6,11.5,26.6C11.5,26.6,11.5,26.6,11.5,26.6
		C11.5,26.6,11.5,26.6,11.5,26.6z"/>
	<path class="st0" d="M12.1,26.5C12.1,26.5,12.1,26.5,12.1,26.5C12.1,26.5,12.1,26.5,12.1,26.5L12.1,26.5z"/>
	<path class="st0" d="M10.2,27.5C10.2,27.4,10.1,27.5,10.2,27.5L10.2,27.5C10.1,27.5,10.1,27.5,10.2,27.5z"/>
	<polygon class="st0" points="6.8,26.1 6.8,26.1 6.8,26.1 	"/>
	<path class="st0" d="M11.7,26.6l0.1,0l0,0C11.8,26.7,11.7,26.6,11.7,26.6z"/>
	<path class="st0" d="M21.7,26.6c0,0-0.1,0-0.1,0l0,0c0,0,0,0.1,0,0.1c-0.1,0,0-0.1,0-0.1c-0.1,0,0,0.2-0.1,0.2l0,0
		c0,0-0.1,0-0.1,0.1c0-0.1-0.1,0-0.1,0c0-0.2,0.2,0,0.2-0.1c0,0,0-0.1,0-0.2l-0.2,0.1c0,0-0.1-0.1-0.1-0.1l0,0c-0.1,0,0,0.1-0.1,0.1
		c0,0,0-0.1,0-0.1c0,0,0,0.1-0.1,0.1c0,0,0-0.1,0-0.1c-0.1,0.1-0.1,0-0.1,0c0,0.1-0.2,0.2-0.1,0.3l-0.1,0.1c0-0.1,0.1-0.2,0-0.3
		l0.1,0c0-0.2-0.2,0.1-0.3-0.1c0,0,0,0-0.1-0.1l0,0.1c0,0-0.1-0.1-0.1-0.1c0,0-0.1,0-0.1,0c0,0,0,0,0,0c0-0.1,0-0.1-0.1,0
		c0,0,0,0-0.1,0l0-0.1c0,0,0,0,0,0.1c0,0,0,0,0,0c0,0,0,0.1,0.1,0.1c-0.1-0.1-0.2,0-0.3-0.1c0,0,0-0.1,0-0.1c0,0-0.1,0.1-0.1,0.1
		c0,0,0,0,0,0c0,0,0-0.1,0-0.1c0,0,0,0,0,0c0,0.1-0.1,0.1-0.1,0.1c0,0,0,0,0.1,0c0,0.1-0.1,0.2-0.1,0.1c0.1-0.1-0.1-0.1,0-0.2
		c-0.1-0.1,0,0.1-0.1,0.1l-0.1-0.1c0-0.1,0.1,0,0.1-0.1l0,0c0-0.1,0.2,0,0.3-0.1l-0.2,0c-0.2,0.1-0.5,0-0.7,0.2c0,0,0,0,0,0
		c0,0,0,0,0,0.1l0,0l0,0.1c0-0.1-0.1-0.1-0.2-0.2c0,0.1,0,0.1,0,0.1c0,0.1,0,0.1-0.1,0.1c0-0.1,0-0.1,0-0.1c0,0,0,0.1,0,0.1
		c0,0-0.1,0-0.1-0.1c0,0,0,0,0,0c0,0-0.1-0.1,0-0.1l-0.1,0c0-0.1,0-0.1,0-0.1c-0.1,0-0.2,0.2-0.2,0.2c0,0,0-0.2,0-0.1
		c-0.1,0-0.2,0.1-0.2,0.2c0,0,0,0,0.1,0c-0.2-0.1-0.4-0.1-0.7-0.2l-0.1,0.1l-0.1-0.1c-0.2-0.1-0.4,0-0.7,0c-0.1,0,0-0.1-0.1-0.1
		c-0.2,0-0.2,0.1-0.3,0.2c0,0,0.1-0.2,0-0.2c0,0,0,0.1-0.1,0.1l0,0c0-0.1-0.1,0-0.2,0c-0.1,0-0.3,0.1-0.4,0.3c-0.1,0,0-0.1,0-0.2
		c0.1,0.1,0.1,0,0.1-0.1c0,0-0.1,0.1-0.1,0c-0.1,0-0.1,0-0.2,0.1c0,0,0.1,0,0,0.1c-0.1,0-0.2,0-0.2-0.1c-0.3,0-0.6,0-0.9,0
		c-0.1,0.1,0,0,0,0.1c-0.1,0.1-0.1,0-0.1,0l0-0.1c-0.1,0-0.2,0.1-0.3,0.2c0-0.1-0.1-0.1,0-0.1c0,0-0.1-0.3-0.1-0.3l0,0.3
		c0,0-0.1,0-0.1,0c0-0.1-0.1-0.1-0.1-0.1c0-0.1,0.1-0.1,0.1-0.1c0-0.1-0.1-0.1-0.1-0.2c-0.1,0,0,0.1,0,0.1l-0.1,0l0.1,0
		c-0.1,0-0.1,0.1-0.2,0.1l-0.1,0.1c0-0.1-0.1,0-0.1,0l0-0.1c-0.1,0-0.1,0-0.1-0.1c0-0.1,0,0,0.1-0.1l-0.1,0c0,0.1,0,0.1,0,0.1
		c-0.1,0.1-0.1,0.2-0.2,0.2c-0.1-0.1,0.1-0.1,0-0.2c-0.1,0-0.2,0.3-0.3,0.3c-0.1,0-0.1,0.1-0.2,0.1c0-0.1-0.1-0.1-0.1-0.1l0-0.1
		c0,0-0.1,0-0.1-0.1c0,0.1-0.1,0.1-0.2,0.1l0,0.1c-0.1,0-0.1,0.1-0.2,0.1c-0.1,0-0.1,0.1-0.1,0.2c0-0.1,0-0.2,0-0.2c0,0,0.1,0,0.1,0
		c0.1-0.1,0.2-0.2,0.3-0.2c0.1-0.2-0.1,0-0.1,0c0,0,0,0,0,0c0,0,0,0,0,0c0,0,0.1-0.1,0.1-0.2c-0.1,0-0.1,0.2-0.1,0.1
		c-0.1,0.1-0.1-0.1-0.2-0.1c0,0.1,0,0.2-0.2,0.2l0-0.1c-0.1,0-0.1,0.2-0.2,0.2c0,0,0,0.1,0,0.1c0,0.1-0.1,0.1-0.2,0c0,0,0,0,0,0.1
		c0.1,0.1,0.1-0.1,0.2,0l0-0.1c0.1,0,0.1,0.1,0,0.2c0,0,0,0,0,0c0,0.2-0.1-0.1-0.1,0.1l0,0c0,0.1-0.1,0.1-0.2,0.1
		c-0.1-0.1-0.1-0.1-0.1-0.2l0.1,0c0-0.1-0.1,0-0.2,0c0,0,0,0,0,0c0,0,0,0,0,0c0,0,0,0,0,0c0,0-0.1,0-0.1,0l0,0.1l0,0
		c0,0,0.1,0,0.1,0.1c-0.1,0.1-0.1-0.1-0.1-0.2c0-0.1,0.1,0,0.1,0c0-0.1-0.1,0-0.2-0.1c0-0.1,0.1,0,0.1-0.1c-0.1,0-0.1,0.1-0.2,0
		c0-0.1,0.1-0.1,0.1-0.1l-0.1,0c0.1,0,0-0.2,0.1-0.2c0-0.1-0.1,0.1-0.1,0c0,0.1,0.1,0.2,0,0.2l-0.1,0c0-0.1,0.1-0.1,0-0.2l-0.1,0
		c0,0,0,0.1,0,0.1c0,0-0.1,0.1-0.1,0.2c0,0-0.1,0-0.1-0.1c-0.1,0.1-0.2,0.1-0.3,0.2c0.1-0.1,0-0.1,0-0.2c0.1,0,0.1-0.1,0.1-0.2
		c0,0-0.1,0.1-0.1,0.2c-0.1,0-0.1,0.1-0.1,0c0,0,0-0.1,0-0.2c-0.1,0,0,0.1-0.1,0.1c0,0,0,0,0,0c0,0-0.1,0-0.1,0.1
		c0-0.2-0.1,0-0.1-0.1c-0.1,0,0,0.1,0,0.1c0,0.1-0.1,0-0.2,0c0,0,0.1,0,0.1,0l0-0.1c-0.1-0.1-0.1,0.2-0.2,0.1c0.1-0.1,0-0.1,0.1-0.2
		c0,0-0.1,0-0.1,0.1c-0.1,0-0.1,0-0.1,0c0,0-0.1,0.1-0.1,0.1c-0.1,0-0.1-0.1-0.2-0.1c-0.2,0.1-0.3-0.1-0.4,0l0,0
		c-0.1,0,0.1,0.1-0.1,0.1c0-0.1-0.1-0.1-0.1-0.2c-0.2-0.1-0.3,0.1-0.4,0c0,0,0-0.1,0-0.1c-0.1,0-0.2,0-0.3,0l0,0
		c-0.2-0.1-0.3,0-0.5,0.1c0,0,0-0.1,0-0.1c-0.1,0-0.2,0-0.3,0.1c-0.1-0.1-0.1,0-0.2-0.1c0,0,0,0,0,0c-0.1,0-0.1,0-0.2,0
		c-0.1,0.1-0.2,0.2-0.3,0.2c0-0.2,0.1,0,0.1-0.2c0,0-0.1,0.1-0.1,0c0-0.1,0,0,0-0.1c0,0-0.1,0.2-0.1,0.2c0,0,0,0.1,0,0
		c0,0.1-0.2,0-0.2,0.1c0,0,0.1,0,0.1,0.1c-0.1,0-0.1,0.1-0.2,0.2c-0.1-0.1,0.1-0.1,0.1-0.3c0,0-0.1-0.1,0-0.2
		c-0.1,0-0.2,0.1-0.2,0.1l0,0c-0.1,0-0.2,0.2-0.3,0.1l0,0c0,0-0.1,0-0.1,0.1c0-0.1-0.1-0.1,0-0.2c0,0.2-0.2,0.1-0.3,0.3
		c0,0,0-0.1,0-0.2c0.1,0,0.1,0.1,0.1,0c-0.1,0-0.1,0-0.1-0.1c-0.1,0.1-0.2,0.2-0.2,0.3c0-0.1-0.1-0.1-0.1-0.2
		c-0.2,0.1,0.1,0.3-0.1,0.3c-0.1-0.1,0.1-0.1,0-0.2l0,0c-0.1-0.2-0.1,0.2-0.2,0.2c0-0.1,0.1-0.1,0-0.2c-0.1,0-0.1,0.2-0.2,0.2l0-0.1
		c-0.1,0-0.2,0-0.2,0c0,0,0,0,0,0c-0.1,0,0,0.1-0.1,0l0,0.1c0,0,0.1,0.1,0.2,0c-0.1,0.1,0.1,0.2,0.1,0.3l0,0C4.6,27,4.8,27.1,5,27.1
		c0.1-0.1,0.2,0.1,0.3,0c0-0.2,0,0,0.1-0.1c-0.1,0,0,0.1,0,0.1c0,0,0-0.1,0.1-0.1c0,0.1,0.2,0.2,0.2,0.1c0.1,0,0,0,0,0.1
		c0,0.1,0.1-0.1,0.1,0c0,0,0,0,0,0c0.1,0,0.2,0,0.3,0.1c0-0.2,0.1-0.1,0.2-0.1c0,0,0.1,0.1,0.1,0.1l0.1-0.1c0.1-0.1,0.1,0.1,0.2,0
		l0,0c0.1,0,0.2,0,0.2,0.1C7.2,27,7.5,27.5,8,27.4c0,0,0-0.1,0-0.1c0.1,0,0.1,0,0.1,0c0,0,0,0,0,0l-0.1,0c0,0,0,0,0,0
		c0,0-0.1,0-0.1,0c0,0,0.1-0.2,0.1-0.1c0,0,0,0,0,0c0.1,0,0.1,0,0.1,0c0,0,0,0,0,0l0.1,0.1c0.1-0.1,0.2,0,0.2,0c0,0.1-0.1,0-0.1,0.1
		l0.1,0.1l0-0.1l0.1,0l0,0c0,0,0-0.1,0,0c0,0,0,0,0,0l0.1,0c0,0.1,0,0,0,0.1c0.2,0,0.2-0.1,0.4,0c0,0,0-0.2,0.1-0.1c0,0,0,0,0,0.1
		l0.1,0c0.1,0.1,0.2,0.1,0.3,0.1l0,0c0,0,0.1-0.1,0.2-0.1l0,0.1c0.1,0.1,0.1-0.2,0.1-0.1c0-0.1-0.1-0.1-0.1-0.2c0,0.1,0.1,0.1,0.1,0
		c0.1,0,0.1,0,0.1,0l0.1-0.1c0.1,0,0,0.1,0,0.2c0.1-0.1,0.1,0,0.2,0l0,0l0.1,0c0.1-0.1,0.1-0.1,0.2,0l0,0.1c0,0.1,0,0,0-0.1
		c0.1-0.1,0.1,0,0.1,0.1c0.1-0.1,0.2,0.2,0.4,0l0,0.1c0.1-0.1,0.3,0.1,0.4-0.1c0.2,0.2,0.1-0.2,0.3,0l0,0c0.5,0,1.1,0.2,1.6,0.1l0,0
		c0.8,0.1,1.6,0,2.4,0c0.1,0,0-0.2,0.1-0.2c0,0,0.1,0,0.1,0.1c-0.1,0,0,0.1,0,0.1c0.1,0,0.2,0.1,0.3,0l-0.1-0.1c0,0,0.1,0,0.1,0
		c0,0,0,0.1,0,0.1c0.2-0.2,0.1,0.1,0.3,0c0-0.2,0.2-0.3,0.3-0.4l0.1,0c-0.1,0,0,0.1-0.1,0.1c0.1,0,0.2,0,0.2,0c0,0,0-0.1,0-0.1
		c0,0,0.1,0.1,0.1,0.1l-0.1,0.1c0,0.1,0.1,0,0.1,0c0,0.1,0.1,0.1,0.1,0.2c0.1-0.1,0.1,0,0.2-0.1c-0.1-0.1,0-0.1,0-0.1l-0.1,0
		c0.1,0,0,0,0,0.1c-0.1-0.1,0.1-0.2,0-0.2c0.1-0.1,0.2,0,0.3-0.1c-0.1,0,0-0.1,0-0.1c0.1,0,0,0,0.1,0.1c0.1,0,0.1,0.1,0.1,0
		c0.1,0,0,0.1,0,0.1c0,0.1-0.2-0.1-0.2,0.2c0,0-0.1,0.1-0.2,0.1c0.1,0,0.1,0.1,0.2,0.1l0-0.1c0.1,0,0.1-0.1,0.1-0.1
		c0,0,0,0.1,0.1,0.1c0,0,0,0,0,0c0.1,0,0.1-0.1,0.2-0.1c-0.1,0-0.1-0.1-0.2-0.1c0-0.1,0.1,0,0.1,0c0,0,0,0,0,0l0,0
		c0.1,0,0,0.1,0.1,0.2c0.1,0.1,0.1,0,0.1,0c0,0,0,0,0,0c0,0,0,0,0,0c0,0,0,0,0,0c0.1,0,0.1,0,0.1-0.1c0,0,0,0,0.1,0
		c0,0,0.1-0.1,0.1,0c0,0,0,0,0,0c0.1,0,0.1,0.1,0.1,0.1l0.1,0l0,0.1c0.1,0,0.1-0.1,0.2-0.2c0.1,0.1,0.2,0,0.2,0c0,0,0,0,0,0l0,0
		c0.1,0,0.1,0,0.1,0c0,0,0,0,0,0l0,0c0,0,0,0,0,0c0,0,0,0,0,0l0,0c0.1,0.1,0.1-0.1,0.2,0c0,0,0,0,0,0c0,0,0.1,0.2,0.1,0.1
		c0,0,0,0,0,0l0,0c0,0,0,0,0,0c0,0,0-0.1,0,0l0.1,0c0,0,0,0,0.1,0l0,0c0,0,0,0,0,0c0.1,0.1,0.2-0.1,0.3,0.1c0-0.1,0-0.1,0-0.1
		c0-0.1,0.1-0.1,0.1-0.1c0.1,0.1,0.2,0.2,0.2,0.3c0.1,0,0-0.1,0-0.1l0,0c0,0-0.1-0.1-0.1-0.1c0-0.1,0.1-0.1,0.1-0.1l0,0.1
		c0.1,0,0.1-0.2,0.1-0.3c0.1,0,0,0.1,0,0.2l0.1,0V27c0.1,0,0.1-0.1,0.1-0.1c-0.1,0.1,0.1,0.1,0,0.2c0,0,0.1-0.1,0.1,0
		c0-0.1,0,0-0.1-0.1c0-0.1,0.1-0.1,0.1-0.1c0,0.1,0,0.1,0,0.1c0,0,0-0.1,0.1,0c0-0.1,0.1,0,0.1,0c0,0-0.1-0.1-0.1-0.1
		c0,0,0.1,0,0.1,0l0,0c0.1-0.1,0.1,0.1,0.2,0c0,0-0.1,0-0.1,0.1c0,0,0.1-0.1,0.2-0.1l0.1,0.1c0-0.1,0.1,0,0.1-0.1
		c0.1,0.1-0.1,0.1-0.1,0.2c0.1,0.1,0.1-0.1,0.2,0l0,0.1c0,0,0.1,0,0.1,0c0,0,0,0,0,0c0-0.2,0.1-0.1,0.1-0.3l0,0
		c0.1,0,0.1-0.1,0.2-0.1c0,0.1,0,0.1-0.1,0.2c0.1,0,0.1-0.2,0.1-0.2C21.7,26.7,21.7,26.6,21.7,26.6z M18.6,27.1
		C18.6,27.1,18.6,27.1,18.6,27.1C18.6,27.1,18.6,27.1,18.6,27.1c0-0.1,0.2,0.1,0.1,0c0.1,0,0.1,0,0.1,0
		C18.7,27.1,18.7,27.1,18.6,27.1z M19.4,27.1L19.4,27.1C19.4,27.1,19.4,27,19.4,27.1z M20.3,26.5C20.3,26.5,20.3,26.5,20.3,26.5
		L20.3,26.5C20.3,26.5,20.3,26.5,20.3,26.5z"/>
	<path class="st0" d="M21.6,27L21.6,27L21.6,27c0.1,0,0.1-0.1,0.1-0.1C21.7,26.9,21.6,26.9,21.6,27L21.6,27z"/>
	<path class="st0" d="M21.5,26.4L21.5,26.4L21.5,26.4C21.6,26.5,21.5,26.4,21.5,26.4z"/>
	<path class="st0" d="M20.6,26.2L20.6,26.2C20.7,26.2,20.6,26.2,20.6,26.2z"/>
	<path class="st0" d="M20.9,27.1C21,27,20.9,27.1,20.9,27.1L20.9,27.1C21,27,20.9,27,20.9,27.1z"/>
	<path class="st0" d="M20.3,26.3C20.3,26.3,20.4,26.3,20.3,26.3C20.4,26.3,20.3,26.2,20.3,26.3z"/>
	<path class="st0" d="M20.5,27.1c0,0.1,0.1,0,0.1,0C20.5,27.2,20.5,27.1,20.5,27.1z"/>
	<path class="st0" d="M20,26.3c0,0.1-0.1,0.2,0,0.2c0-0.1,0-0.1,0.1,0c0,0,0,0.1,0,0.1c0.1-0.1,0.1,0,0.1-0.1
		C20.1,26.4,20,26.4,20,26.3z"/>
	<path class="st0" d="M20.4,27.1L20.4,27.1C20.4,27,20.4,27.2,20.4,27.1c0,0,0,0.1,0.1,0.1C20.5,27.2,20.4,27.1,20.4,27.1z"/>
	<path class="st0" d="M19.8,26.4c0.1-0.1,0.1,0,0.2-0.1C19.9,26.2,19.8,26.3,19.8,26.4L19.8,26.4z"/>
	<path class="st0" d="M20.2,27l0,0.1C20.2,27.1,20.1,27.1,20.2,27C20.2,27.1,20.2,27.1,20.2,27C20.2,27.1,20.2,27,20.2,27z"/>
	<path class="st0" d="M19.9,27.2l0.1,0.1C20,27.3,20,27.2,19.9,27.2L19.9,27.2z"/>
	<path class="st0" d="M19.8,27.2c0.1-0.1,0.1-0.1,0.1-0.1l0,0L19.8,27.2z"/>
	<path class="st0" d="M18.6,26.4C18.6,26.3,18.5,26.3,18.6,26.4C18.6,26.4,18.6,26.4,18.6,26.4z"/>
	<path class="st0" d="M18.8,27.2c0,0-0.1,0-0.2,0.1C18.7,27.3,18.8,27.3,18.8,27.2z"/>
	<path class="st0" d="M16.8,27.5C16.9,27.5,16.9,27.5,16.8,27.5C16.9,27.5,16.9,27.5,16.8,27.5C16.8,27.5,16.8,27.6,16.8,27.5z"/>
	<path class="st0" d="M16.4,27.5C16.4,27.5,16.5,27.5,16.4,27.5C16.5,27.4,16.4,27.5,16.4,27.5z"/>
	<path class="st0" d="M13.5,26.2C13.6,26.2,13.5,26.1,13.5,26.2C13.5,26.1,13.5,26.1,13.5,26.2z"/>
	<polygon class="st0" points="13.5,26.1 13.4,26.1 13.5,26.2 	"/>
	<path class="st0" d="M13.2,26C13.2,26,13.2,26,13.2,26C13.2,26,13.2,26,13.2,26L13.2,26z"/>
	<path class="st0" d="M13.1,26.1l0.1,0.1C13.2,26.1,13.1,26.1,13.1,26.1L13.1,26.1z"/>
	<path class="st0" d="M12.6,26.4c0.2,0.1,0.1-0.2,0.2-0.2c-0.1-0.1,0-0.1,0.1-0.1c-0.1,0-0.1,0.1-0.2,0
		C12.6,26.2,12.8,26.3,12.6,26.4z"/>
	<path class="st0" d="M12.9,26.3C12.9,26.2,12.9,26.2,12.9,26.3C12.9,26.3,12.9,26.4,12.9,26.3z"/>
	<polygon class="st0" points="12.6,26.1 12.6,26.2 12.6,26.1 	"/>
	<path class="st0" d="M12.5,26.1L12.5,26.1C12.5,26.1,12.4,26.1,12.5,26.1z"/>
	<path class="st0" d="M12.2,26.1L12.2,26.1c0,0-0.1-0.1,0-0.1C12.2,26,12.1,26.2,12.2,26.1z"/>
	<path class="st0" d="M11.7,26.2L11.7,26.2L11.7,26.2C11.7,26.3,11.7,26.3,11.7,26.2z"/>
	<path class="st0" d="M11.8,26.7c-0.1,0-0.1,0-0.1,0C11.7,26.8,11.8,26.7,11.8,26.7z"/>
	<path class="st0" d="M11.6,26.2C11.6,26.1,11.6,26.1,11.6,26.2C11.7,26.1,11.6,26.1,11.6,26.2z"/>
	<path class="st0" d="M11.5,26.2C11.4,26.1,11.5,26.1,11.5,26.2c-0.1-0.1-0.1-0.1-0.2-0.1c0,0,0,0.2,0,0.2
		C11.4,26.3,11.5,26.1,11.5,26.2l0.1-0.1C11.5,26,11.5,26.2,11.5,26.2z"/>
	<path class="st0" d="M11.5,26.6C11.6,26.7,11.6,26.5,11.5,26.6L11.5,26.6C11.6,26.5,11.6,26.5,11.5,26.6z"/>
	<polygon class="st0" points="11,26.3 10.9,26.3 10.9,26.3 	"/>
	<polygon class="st0" points="10.9,26.3 10.9,26.2 10.9,26.2 	"/>
	<polygon class="st0" points="10.8,26.2 10.9,26.2 10.8,26.2 	"/>
	<path class="st0" d="M10.7,26.2C10.7,26.2,10.6,26.2,10.7,26.2L10.7,26.2C10.7,26.2,10.7,26.3,10.7,26.2z"/>
	<path class="st0" d="M9.9,27.5C9.9,27.5,9.9,27.5,9.9,27.5C10,27.5,10,27.5,9.9,27.5L9.9,27.5z"/>
	<path class="st0" d="M9.8,27.5c0.1,0,0.1-0.1,0.2-0.1C9.9,27.4,9.9,27.5,9.8,27.5l0.1-0.1L9.8,27.5z"/>
	<path class="st0" d="M8.4,27.2c-0.1,0-0.1,0-0.2,0c0,0,0,0.1,0,0.1l0.1,0l0,0c0.1,0.1,0-0.1,0.1,0C8.4,27.3,8.4,27.3,8.4,27.2z"/>
	<path class="st0" d="M4.6,26.6C4.6,26.6,4.6,26.5,4.6,26.6C4.5,26.5,4.6,26.6,4.6,26.6z"/>
</g>
</svg>
