<svg id="レイヤー_1" data-name="レイヤー 1" xmlns="http://www.w3.org/2000/svg" width="55.31" height="55.31" viewBox="0 0 55.31 55.31"><defs><style>.cls-1{fill:#00b900;}.cls-2{fill:#fff;}</style></defs><title>icn</title><g id="TYPE_A" data-name="TYPE A"><path class="cls-1" d="M45.31,0H10.08A10.06,10.06,0,0,0,0,10V45.23A10.06,10.06,0,0,0,10,55.31H45.23a10.06,10.06,0,0,0,10.08-10V10.08A10.06,10.06,0,0,0,45.31,0"/><path class="cls-2" d="M47.7,25.22c0-9-9-16.34-20.14-16.34S7.43,16.21,7.43,25.22c0,8.08,7.16,14.84,16.84,16.12.66.14,1.55.43,1.77,1a4.14,4.14,0,0,1,.07,1.82l-.29,1.72c-.09.51-.4,2,1.74,1.09s11.6-6.83,15.82-11.69h0c2.92-3.2,4.32-6.45,4.32-10.05"/><path class="cls-1" d="M23.47,20.87H22.06a.39.39,0,0,0-.39.39V30a.39.39,0,0,0,.39.39h1.41a.39.39,0,0,0,.39-.39V21.26a.39.39,0,0,0-.39-.39"/><path class="cls-1" d="M33.2,20.87H31.78a.39.39,0,0,0-.39.39v5.21l-4-5.43,0,0h0l0,0h0l0,0H25.63a.39.39,0,0,0-.39.39V30a.39.39,0,0,0,.39.39H27a.39.39,0,0,0,.39-.39V24.82l4,5.44a.39.39,0,0,0,.1.1H33.2a.39.39,0,0,0,.39-.39V21.26a.39.39,0,0,0-.39-.39"/><path class="cls-1" d="M20.07,28.23H16.23v-7a.39.39,0,0,0-.39-.39H14.43a.39.39,0,0,0-.39.39V30h0a.39.39,0,0,0,.11.27h0a.39.39,0,0,0,.27.11h5.64a.39.39,0,0,0,.39-.39V28.62a.39.39,0,0,0-.39-.39"/><path class="cls-1" d="M41,23.07a.39.39,0,0,0,.39-.39V21.26a.39.39,0,0,0-.39-.39H35.35a.39.39,0,0,0-.27.11h0a.39.39,0,0,0-.11.27h0V30h0a.39.39,0,0,0,.11.27h0a.39.39,0,0,0,.27.11H41a.39.39,0,0,0,.39-.39V28.62a.39.39,0,0,0-.39-.39H37.16V26.75H41a.39.39,0,0,0,.39-.39V24.94a.39.39,0,0,0-.39-.39H37.16V23.07Z"/></g></svg>