<svg xmlns="http://www.w3.org/2000/svg" viewBox="0 0 192 44.15"><defs><style>.cls-1{fill:#14a8a7;}</style></defs><title>アセット 1</title><g id="レイヤー_2" data-name="レイヤー 2"><g id="レイヤー_1-2" data-name="レイヤー 1"><path class="cls-1" d="M9.46,44.15a1.73,1.73,0,0,1-1.93-1.63V25c0-3,1.48-4.15,5.12-4.15H28.46c3.63,0,5.11,1.2,5.11,4.15V39.63c0,2.78-1.6,4.24-4.63,4.24A12.17,12.17,0,0,1,26,43.63a1.84,1.84,0,0,1-1.35-1.81A1.65,1.65,0,0,1,26.33,40a1.62,1.62,0,0,1,.56.07,10.64,10.64,0,0,0,1.88.17c.79,0,1-.12,1-1V36.19H14V32.92H29.76V30.19H14V26.91H29.76V25.48c0-.8-.09-1.25-1.88-1.25H13.18c-1.75,0-1.84.45-1.84,1.25v17A1.71,1.71,0,0,1,9.46,44.15Z"/><path class="cls-1" d="M39.09,18.82H1.71A1.68,1.68,0,0,1,0,17.1a1.66,1.66,0,0,1,1.71-1.69H18.34V13.14H7.91A1.68,1.68,0,0,1,6.2,11.41,1.66,1.66,0,0,1,7.91,9.73H18.34V7.56H4.67A1.68,1.68,0,0,1,3,5.83,1.68,1.68,0,0,1,4.67,4.1H18.34V1.82a1.91,1.91,0,0,1,3.81,0V4.1H37.23a1.64,1.64,0,0,1,1.7,1.73,1.65,1.65,0,0,1-1.7,1.73H22.15V9.73H33.51a1.64,1.64,0,0,1,1.7,1.68,1.64,1.64,0,0,1-1.7,1.73H22.15v2.27H39.09a1.64,1.64,0,0,1,1.7,1.69A1.66,1.66,0,0,1,39.09,18.82Z"/><path class="cls-1" d="M188.16,19.61H170.44v3.5h17.72V35.76c0,2.34-1,3.24-3.74,3.24h-14c-2.78,0-3.74-.9-3.74-3.24V23.11h0v-3.5h0V8.4c0-2.34,1-3.24,3.74-3.24h14c2.78,0,3.74.9,3.74,3.24Zm-2.83-18H169.46c-4.9,0-6.67,2.28-6.67,6.11V36.39c0,4.47,2.53,6.11,6.67,6.11h15.87c4.9,0,6.67-2.28,6.67-6.11V7.76c0-3.83-1.77-6.11-6.67-6.11"/><path class="cls-1" d="M74.6,44a1.81,1.81,0,0,1-2-1.73V31.23H54.32a1.83,1.83,0,0,1,0-3.64h6.13l.22,0h3.64v0h8.32V20.1h-6.4c-1.74,0-1.92.46-1.92,1.49v4.58H60.45V21c0-3,1.76-4.52,5.07-4.52h7.11V10.33H63.15a51.26,51.26,0,0,1-7,10,1.83,1.83,0,0,1-1.35.62A1.93,1.93,0,0,1,52.88,19a2.09,2.09,0,0,1,.62-1.4c3.54-3.81,7.15-10,9.41-16.27A1.79,1.79,0,0,1,64.68.12a2,2,0,0,1,2.06,2,2.53,2.53,0,0,1-.15.84c-.4,1-.94,2.36-1.56,3.71H90.46A1.7,1.7,0,0,1,92.12,8.5a1.69,1.69,0,0,1-1.66,1.83H76.57v6.13H87.09a1.65,1.65,0,0,1,1.58,1.82,1.65,1.65,0,0,1-1.58,1.82H76.57v7.49H92a1.83,1.83,0,0,1,0,3.64H76.57V42.31A1.79,1.79,0,0,1,74.6,44Z"/><path class="cls-1" d="M128.1,5.15c-13.15,0-21.87,9.32-21.87,19.67,0,6.92,4,10.6,8.18,10.6,2.8,0,5.27-1.17,8-5.44,2.92-4.59,5.11-11.37,5.85-19.52a17,17,0,0,0-4,.4c-.73,7.33-2.67,13.27-5.23,17.4-1.63,2.6-3.06,3.24-4.63,3.24-2.27,0-4.34-2.6-4.29-6.68.15-8.16,6.16-14.61,14.23-16a13.79,13.79,0,0,1,3.06-.35c.34,0,.66,0,1,.05v0c9,.15,13.79,5.75,13.79,13,0,6.92-3.55,11.33-10.29,13.44A2.18,2.18,0,0,0,130.17,37a2,2,0,0,0,2,2,2.71,2.71,0,0,0,.84-.15c7.78-2.41,13.15-8.83,13.15-17.42,0-9.27-6.8-16.29-18.08-16.29"/></g></g></svg>