<svg xmlns="http://www.w3.org/2000/svg" viewBox="0 0 161.8 161.8"><defs><style>.cls-1{fill:#fff;}</style></defs><title>アセット 4</title><g id="レイヤー_2" data-name="レイヤー 2"><g id="レイヤー_2-2" data-name="レイヤー 2"><path class="cls-1" d="M80.9,161.8a80.56,80.56,0,0,1-44.53-13.34A2.35,2.35,0,0,1,39,144.54a76.21,76.21,0,1,0-21.25-21,2.35,2.35,0,0,1-3.89,2.63A80.91,80.91,0,1,1,80.9,161.8Zm18.77-17a5.8,5.8,0,0,0,2-4.59V84.39c0-3.33.08-7.88-3.85-9.61-3.75-1.65-14.26,2.45-20.19,5a2.34,2.34,0,1,0,1.87,4.3c7.17-3.13,14.84-5.47,16.46-5,1,.47,1,2.57,1,5.26,0,.34,0,.68,0,1v55a1.71,1.71,0,0,1-.14.72,2.59,2.59,0,0,1-1-.17c-1.59-.52-7.26-6.92-9.81-12.83a2.35,2.35,0,0,0-4.31,1.86c2.56,5.93,8.91,14.21,12.68,15.43a7.6,7.6,0,0,0,2.35.41A4.75,4.75,0,0,0,99.67,144.83Zm-33-2.54c.25-12.55,1-53.8-.11-57.28A2.35,2.35,0,0,0,62,86.39c.69,3.07.31,35.84-.09,55.81a2.34,2.34,0,0,0,2.29,2.39h.05A2.35,2.35,0,0,0,66.64,142.29ZM62.06,86.43v0Zm15.86,33.48c.13,0,3.28-1.25,6.54-2.92,5.15-2.65,7.59-4.9,7.92-7.3a3.29,3.29,0,0,0-.8-2.71c-1.35-1.47-3.6-1.38-5.59-1.29-.47,0-.92,0-1.24,0a3.24,3.24,0,0,1-3.1-2.19,12.47,12.47,0,0,1-.19-4.73c.18-2.18.36-4.43-.72-6.3-1.18-2.06-4.11-3.2-8-1.09A2.35,2.35,0,1,0,75,95.53,4.81,4.81,0,0,1,76.75,95a10.58,10.58,0,0,1,0,3.42,16.06,16.06,0,0,0,.43,6.63,7.89,7.89,0,0,0,7.37,5.36c.5,0,1,0,1.61,0h.19a47.49,47.49,0,0,1-10.13,5.15,2.35,2.35,0,0,0,.83,4.54A2.48,2.48,0,0,0,77.92,119.91ZM35.63,89.51l88.45-35a2.35,2.35,0,1,0-1.73-4.36l-42,16.6V62.52C96.1,50.56,96.77,48.36,97,47.59a5.42,5.42,0,0,0-.15-3.88c0-.09-.1-.19-.16-.28-1.59-2.36-5-1.89-6.27-1.71-2,.28-5.71,1.71-10.06,3.65V37.83L97,31.76a2.35,2.35,0,0,0-1.6-4.41L80.36,32.84V16a2.35,2.35,0,0,0-4.69,0V34.55l-16.6,6A2.35,2.35,0,1,0,60.68,45l15-5.46v8C69.52,50.49,62.85,54,58,56.54a2.35,2.35,0,1,0,2.21,4.14c5.75-3.06,11-5.73,15.46-7.92v7.42c-1.34,1-2.76,2.07-4.28,3.19-11.46,8.45-21.78,15.36-25.11,16.8a2.51,2.51,0,0,0-.45.26L33.9,85.15a2.35,2.35,0,0,0,.86,4.53A2.25,2.25,0,0,0,35.63,89.51Zm40-21a.66.66,0,0,0,0,.14L67.9,71.7c2.36-1.68,4.73-3.41,7-5.08l.77-.58ZM91.06,46.37a9.78,9.78,0,0,1,1.37-.12c-.92,1.19-4.64,4.58-12.07,10.35V50.53C85.67,48.07,89.42,46.6,91.06,46.37Z"/></g></g></svg>