<svg xmlns="http://www.w3.org/2000/svg" viewBox="0 0 206.76 47.55"><defs><style>.cls-1{fill:#fff;}</style></defs><title>アセット 3</title><g id="レイヤー_2" data-name="レイヤー 2"><g id="レイヤー_2-2" data-name="レイヤー 2"><path class="cls-1" d="M10.18,47.55a1.86,1.86,0,0,1-2.07-1.76V26.93c0-3.17,1.59-4.47,5.51-4.47h17c3.92,0,5.51,1.3,5.51,4.47V42.68c0,3-1.72,4.57-5,4.57A12.59,12.59,0,0,1,28,47,2,2,0,0,1,26.56,45a1.79,1.79,0,0,1,1.8-1.91,1.82,1.82,0,0,1,.59.07,11.69,11.69,0,0,0,2,.18c.85,0,1.07-.12,1.07-1V39h-17V35.45h17V32.51h-17V29h17V27.43c0-.86-.09-1.34-2-1.34H14.19c-1.89,0-2,.48-2,1.34V45.79A1.84,1.84,0,0,1,10.18,47.55ZM42.09,20.27H1.84A1.81,1.81,0,0,1,0,18.41,1.78,1.78,0,0,1,1.84,16.6H19.75V14.15H8.51a1.8,1.8,0,0,1-1.83-1.86,1.78,1.78,0,0,1,1.83-1.81H19.75V8.14H5A1.81,1.81,0,0,1,3.2,6.28,1.81,1.81,0,0,1,5,4.41H19.75V2a2.05,2.05,0,0,1,4.1,0V4.41H40.09a1.78,1.78,0,0,1,1.84,1.87,1.78,1.78,0,0,1-1.84,1.86H23.85v2.34H36.08a1.76,1.76,0,0,1,1.84,1.81,1.77,1.77,0,0,1-1.84,1.86H23.85V16.6H42.09a1.76,1.76,0,0,1,1.84,1.81A1.79,1.79,0,0,1,42.09,20.27Zm160.53.84H183.54v3.78h19.08V38.51c0,2.51-1,3.49-4,3.49H183.47c-3,0-4-1-4-3.49V24.89h0V21.11h0V9c0-2.51,1-3.49,4-3.49H198.6c3,0,4,1,4,3.49Zm-3-19.33H182.49c-5.28,0-7.19,2.46-7.19,6.58V39.19c0,4.81,2.73,6.58,7.19,6.58h17.09c5.27,0,7.18-2.46,7.18-6.58V8.36c0-4.12-1.91-6.58-7.18-6.58M80.34,47.42a2,2,0,0,1-2.13-1.86V33.63H58.49a2,2,0,0,1,0-3.92H65.1l.24,0h3.91v0h9V21.65H71.32c-1.87,0-2.07.49-2.07,1.6v4.93H65.1V22.6c0-3.19,1.89-4.88,5.46-4.88h7.65v-6.6H68a55,55,0,0,1-7.58,10.72A2,2,0,0,1,59,22.5a2.07,2.07,0,0,1-2-2,2.25,2.25,0,0,1,.67-1.5c3.82-4.11,7.7-10.82,10.13-17.53A1.93,1.93,0,0,1,69.65.13a2.19,2.19,0,0,1,2.22,2.16,3,3,0,0,1-.16.91c-.43,1.11-1,2.54-1.68,4H97.41a1.83,1.83,0,0,1,1.79,2,1.81,1.81,0,0,1-1.79,2h-15v6.6H93.79a1.78,1.78,0,0,1,1.69,2,1.78,1.78,0,0,1-1.69,2H82.46v8.06H99.08a2,2,0,0,1,0,3.92H82.46V45.56A1.93,1.93,0,0,1,80.34,47.42ZM138,5.54c-14.17,0-23.56,10-23.56,21.19,0,7.45,4.3,11.42,8.81,11.42,3,0,5.68-1.27,8.59-5.87,3.15-4.94,5.52-12.24,6.31-21a17.82,17.82,0,0,0-4.28.43C133,19.58,131,26,128.19,30.43c-1.75,2.8-3.29,3.49-5,3.49-2.44,0-4.67-2.8-4.62-7.19C118.74,18,125.22,11,133.91,9.48a14.61,14.61,0,0,1,3.29-.38c.36,0,.72,0,1.07.05h0c9.65.16,14.85,6.18,14.85,14,0,7.45-3.82,12.2-11.09,14.48a2.34,2.34,0,0,0-1.85,2.27A2.1,2.1,0,0,0,142.35,42a3,3,0,0,0,.9-.15c8.39-2.59,14.17-9.52,14.17-18.76,0-10-7.32-17.55-19.47-17.55"/></g></g></svg>