<?xml version="1.0" encoding="utf-8"?>
<!-- Generator: Adobe Illustrator 22.1.0, SVG Export Plug-In . SVG Version: 6.00 Build 0)  -->
<svg version="1.1" id="logo" xmlns="http://www.w3.org/2000/svg" xmlns:xlink="http://www.w3.org/1999/xlink" x="0px" y="0px"
	 width="130.9px" height="46.7px" viewBox="0 0 130.9 46.7" style="enable-background:new 0 0 130.9 46.7;" xml:space="preserve">
<style type="text/css">
	.st0{fill:#FCDC6A;}
	.st1{fill:#424242;}
	.st2{fill:#1E88E5;}
	.st3{opacity:0.7;}
	.st4{fill:#FFFFFF;}
</style>
<g>
	<g>
		<path class="st0" d="M71,24.5c-0.4,0-0.5,0-0.5-0.1c-0.3,0.1-0.6,0.1-0.9,0.2L71,24.5z"/>
	</g>
	<g>
		<path class="st0" d="M88.2,33.2c-0.1,0-0.1,0-0.1,0c0.2,0,0.4,0,0.4,0.1C88.6,33.2,88.6,33.2,88.2,33.2z"/>
	</g>
	<g>
		<path class="st0" d="M109.4,28.2c0.4,0,0.8,0,1.1,0C110.5,28.1,110,28.2,109.4,28.2z"/>
	</g>
	<g>
		<path class="st0" d="M82.8,23.4c-1,0-2,0.1-3,0.1C80.2,23.7,81.3,23.7,82.8,23.4z"/>
	</g>
	<g>
		<path class="st0" d="M106.5,28.6c0.8-0.1,2-0.2,2.9-0.3C108.5,28.3,107.5,28.4,106.5,28.6z"/>
	</g>
	<g>
		<path class="st0" d="M47.8,40.6c0.6-0.1,1.2-0.1,1.9-0.2c0,0,0.1-0.1,0.1-0.1L47.8,40.6z"/>
	</g>
	<g>
		<path class="st0" d="M10.6,36.7c1.9-0.4,2.2-0.5,1.9-0.6C12.2,36.2,11.7,36.4,10.6,36.7z"/>
	</g>
	<g>
		<path class="st0" d="M57.7,29.7c-0.4,0.1-0.7,0.2-1,0.3C57.4,29.8,57.9,29.7,57.7,29.7z"/>
	</g>
	<g>
		<path class="st0" d="M30.3,31.5c-0.1-0.1-0.2-0.1-0.4-0.1C29.8,31.4,29.8,31.5,30.3,31.5z"/>
	</g>
	<g>
		<path class="st0" d="M120,18.7l-1.2-0.1C119.1,18.7,119.5,18.7,120,18.7z"/>
	</g>
	<g>
		<path class="st0" d="M69.9,31.2c-0.2,0-0.4,0-0.6,0C69.5,31.2,69.7,31.2,69.9,31.2z"/>
	</g>
	<g>
		<path class="st0" d="M68,31.2c0.5,0,0.9,0,1.3-0.1C68.7,31.2,68.2,31.2,68,31.2z"/>
	</g>
	<g>
		<path class="st0" d="M45.7,40.2c-1.4,0.5-5.1,1.3-5.2,1.6l7.3-1.2C45.2,40.9,43.8,40.7,45.7,40.2z"/>
	</g>
	<g>
		<path class="st0" d="M37.8,16.3c-2.4,0.3-3.6,0.5-4.2,0.6c1.4-0.2,2.9-0.4,4.3-0.6L37.8,16.3z"/>
	</g>
	<g>
		<path class="st0" d="M36.2,29.8c-0.1,0-0.1,0-0.2,0c0.1,0,0.2,0,0.3,0L36.2,29.8z"/>
	</g>
	<g>
		<path class="st0" d="M42.1,15.6c0.3-0.1,0.6-0.2,0.7-0.2C41.9,15.4,41.8,15.5,42.1,15.6z"/>
	</g>
	<g>
		<path class="st0" d="M58.9,27.3c-0.3,0.1-0.6,0.1-1,0.2C58.3,27.4,58.6,27.3,58.9,27.3z"/>
	</g>
	<g>
		<path class="st0" d="M32.5,29.4l3.7,0.4c0.5-0.1,1-0.2,1.6-0.3C38.5,29.1,34.3,29.3,32.5,29.4z"/>
	</g>
	<g>
		<path class="st0" d="M42.1,15.6c-0.9,0.3-2.4,0.5-4.1,0.8l2,0.1C44.8,15.9,42.6,15.7,42.1,15.6z"/>
	</g>
	<g>
		<path class="st0" d="M6.3,35.9c2.3-0.1-5.4,1.5-0.8,0.9l4.5-1.3c-0.7,0.4,1.9,0.3,2.5,0.5c1.8-0.8-6-0.1-0.7-1.6
			c1.2-0.5,5.3-1.1,7.4-1.3c-4.7,0.6,0-0.5,1.9-1c2.9-0.2,7.4-1,8.8-0.8c0.4-0.2,2.6-0.6,4.1-0.8l0.2,0.2c3.4-0.7-1.2,0-0.3-0.3
			c2.5-0.4,6.4-0.6,10.4-1.2c-4,0.6-7.3,1.4-10.2,2c7.4-0.8-1.2,1.2-2.7,1.9c5.9-1.1,8.1-1.8,12.8-2.8c5.9-0.5-0.3,1.5-1.7,1.7
			c5.3-1.1,10.8-2.5,13.7-3.1c-3.9,1.3-3.2,1.5-6.7,2.6c4.4-0.2,5.2-0.9,7.2-1.5c-1.2,0.2-3,0.6-3.5,0.5c5.1-0.7,4.1-1.7,6.7-2.6
			c3.8-0.3,11-1.2,10.6-0.4l-0.2-0.7c4.4-0.8,2.3,0,3.1,0.2c1.6-0.7-0.6-1.1,6.8-2.4c-1,1.3,6.7-0.9,6.6,0.2c3.5-0.6,5-1.4,8.6-1.8
			c4.1,0-5.3,2.2-7.5,2.4c-5,0.8,0.6-0.6-1.4-0.3l-4.8,1c2.7-0.2,8-0.7,7.4-0.1c4.9-1-4,0.1,1.3-1l3.3-0.2c5.3-1.1-1.2-0.6,5.7-1.8
			c-4.6,1.2,7.6-1.1,7.3-0.3c0.1-1,12.5-2,13.8-3l-3.7,0.3l0.9,0.3c-4,0.6-7.3,1.4-11.5,1.8c3.2-0.8-1.2-0.6,2.5-1.5
			c7.1-1.6,2,0.2,3,0.1l5.6-1.4l-3.9,0.2c4.4-0.8,10.4-1.8,16.5-2.6c0.4,0,0.7-0.1,0.8-0.1l-0.8-5.9c-7.6,0.3,1.6-0.7-4.7-0.5
			c-2.9,0.5-2.1,0.7-6.3,1c2.3,0,4-0.5,5.5-0.7c2.1,0.4-7.4,1.1-6.9,1.6c-1.7,0-1.4-0.3-0.1-0.7c-6.9,1-13.6,1.6-16.3,1.1l-2.9,1.1
			c-11.9,1,8.1-1.5-2-0.9c-4.1,0.4-8.2,0.8-10,1.3l3.6-0.4c-2.7,0.7-2.5,1-6.8,1.7c-3.1,0.3-1.5-0.4-5.2,0.4c-9.5,0.6-3-0.8-1.6-1.7
			c-6.9,0.3,3.3-1.8-1.3-1l1.3,0l-7.1,1.7c6.8,0.1,2.6-1,5.3-0.5l4-0.4c-1.2,0.5-10.5,1.2-11.3,1.8c-0.1-0.2,0.8-0.9,5-1.4l-2.6-0.6
			c-2.4,0.2-3.9,0.9-5.3,0.7c-3.7-0.2,5.2-1.5-3.7-0.8c-9.5,0.8-8.8,1.9-15.2,2.4c0.7,0.1,2.3-0.1,4.3-0.2c-2.1,0.5,1.6,0.4-1.8,1
			c-2.1-0.4-8.8,0.4-14,0.9c1.3-0.5-2-0.5-0.4-0.8c-2.6,0.4-5,0.7-6.1,1.1c10.6-0.7-10.1,1.6-1.9,1.3c-8.2,0.8-9.8,0.4-14.9,0.7
			c0.3-0.2,9.4-1.4,2.1-0.9C5.4,20.5,12.6,20,9.4,21l0.7,11c0.3-0.1,0.7-0.2,1.4-0.3l-1.4,0L9.4,21.3l3.9-0.2
			c0.3,0.3-1.5,0.6-3.8,0.8l0.6,9.2c2.7-0.1,5.9,0,6.6-0.1c3.3,0.1-4.5,0.4-1.3,0.8c4.9,0,7.3-0.5,10.4-0.3c-3,0.6-1.1,0.4-4.5,0.9
			c11.4-0.3-0.6,0.6,8.1,0.7c2.8-0.2,1-0.6,5.4-0.6c-2.6-0.5-2.3-0.7-9.5-0.5c2.5-0.9,9.5-0.1,14.5-0.7c-4,0.1-1.3-0.1-5.6,0.1
			c-0.6-0.7-2.2-0.7,1.7-1.5c-4.7,0.3-6.7,1.1-13.4,1.1c-1.9-0.7,8.2-0.8,8.3-1.7c3.3-0.6,11.4-0.4,15.1-0.2c6.5-0.8,14.5-1,19.4-2
			c4.7,0.1,16.4-1,25.3-1c1.4,0.4,10.9-0.1,5.5,0.6c0.8-0.2,8.1-0.5,6.2-0.8c-0.8,0.2-1.6,0.1-3.2,0.1l1.4-0.6
			c4.3,0.1,9-0.7,13.2-0.5c1.4,0.4-7.7,0.5-4.9,0.9c2.6-0.6,10.8-1.1,17.4-1.4l-0.1-2.7c-3.2,0.2-6.1,0.3-7.8,0.3
			c-3.4,0.1-3.9-0.6-5.3-0.5l-5.8,0.3c-0.7-0.2-0.8-0.4-1.9-0.6c-2.9,0-4.8,0.3-6.5,0.5c-7.5,0-3.6-0.8,0.3-1.4l4.3,0
			c3.1-0.4,7.5-0.5,4.9-1c-2.2,0.2-2.1,0.4-2.8,0.6l-2.5-0.2c-2.5,0.4-9.4,0.9-8.7,1.3c-5.1-0.1-11,0.6-15.5,0.5
			c3.1,0.1-0.8,0.5,0.1,0.8l5.4-0.1c-4.3,0.3-10.6,1-14.7,0.9c0.5-0.3,0.6-0.4-1.4-0.6c2.9,0.2-7.6,0.9-1.2,1.1
			c2.3-0.3,4.5-0.4,7.5-0.5c2,0.5-2.7,0.8-5.4,1.3c-3.3,0.3-9.9,0.8-14.4,1.3c-2.9,0-3.7-0.7-8.6,0c6.2,0.3-5.8,1.3-7.4,2
			c-4.7,0-7.6,0.9-11.4,0.6c1.9-0.3,9.1-0.6,10.9-1.2c0.2-0.4-1.6-1.1,5.5-1.6c-8.6,0.2-5,0.6-8.9,1l2.9-0.2
			c-1.3,0.2,1.2,0.4-1.4,0.6c-10,0.3-11.8,0-18.6-0.2c1.5,0.2-1.6,0.7-3.2,0.8c-6.5-0.1,0-0.9-4-1.4c-1.2,0.3-3,0.4-4.2,0.5L7,31.7
			c1.1-0.2,1.7-0.4,1-0.4c2.6-0.4,1.3,0,3.1-0.2c1.6-0.6,3.5-1.2,7-1.8c-0.3,0.2-0.7,0.6-4.1,1.1c3.8-0.5,5.3-0.1,3.7,0.6l-6.2,0.8
			c-2.7,0.9,5.8-0.8,5.6-0.3c-2.7,0.6-4.8,0.6-6.5,1.1c1.8,0.2,7.1-1.2,10.2-1.8c5-0.8,3.2,0,3.4,0.2c8.3-2.2-9.9,0.8-2.1-1.2
			c2.9-1,10.4-2.2,15.7-3.2c-4.6,0.2,0.4-0.9,5.8-2.1c-7.1,1.2-1.9-0.4-10.2,1.4L33,25.4c3.6-0.6,7.8-1.1,11.4-1.7
			c-0.7,0.3,0.1,0.2-1,0.5l10.6-2l-1,0.5c6.5-1,14.6-2,18.5-2.9c-3.1,0.6-5.9,0.6-2.7-0.1c1.9-0.5,5.3-1.4,8.3-1.8
			c1.7,0.3,12.9-1.6,5.9,0.1c9.1-1.8,5.7-1.4,14.4-3.2l-5.8,1.1c-0.8-0.3,3.9-1.9-1.7-1.2c6.6-1.4,2.2-1.5,11-3.1
			c3.6-0.3-0.9,1.1-5.9,2c2.5-0.4,4.8-0.5,7.4-1.3c2,0-4.6,1.4-4.3,1.5c4.6-0.7-0.1-0.2,4.1-1.1c7.4-1.8,4.9-0.1,12.1-1.6
			c-1.6,0.3-4.4,0.6-2.5,0.1c8.5-1.4,6.1-1.4,10.2-2.3l0.2,0.9c-0.5,0.2-1.2,0.3-2,0.6c-4.1,0.3-2.5-0.8-8.8,0.6l3.5-0.8
			c-2.5,0.3-5.3,0.8-7.8,1.4C94,15.5,83.4,19.1,70.1,22.9l4.8-1.3c1.7-0.2-3.9,1.3-3.8,1.5L68,23.5c-0.7,0.7,6.9-1.2,5.2-0.3
			c-0.4,0-1.4,0.3-2,0.4L74,23c-6.3,1.4-11.1,3.4-16,3.9c12.2-3.1,1.5-1.8,13.5-5c-6.3,1.7-1.2-0.2-1.9-0.3
			c-3.4,0.7-1.6,0.8-5.3,1.5c0-0.4,8-2.6,4.4-2c-0.3,0.6-3.6,1.3-5.2,2.1c-2.8,0.5,0-0.3-1.3-0.2c-1.5,0.4-2.4,0.8-3.8,1.1l1-0.6
			c-7.8,1.4-2.2,1.1-11.1,3.1c-0.1,0.5,2.5-0.3,6.2-1.3c2.1,0.5-11.1,3.8-10.1,4.6c-8.3,2.2,2.1-0.9-5,0.6c-4.1,0.3,5-2,6.7-2.8
			l-7.4,1.4c2.3-1.4,6.9-2.3,8-3.3c-5.5,1.3-4.8,1.3-10.2,3c9.1-1.6-3.8,1.5,1.5,1c-1.2,0.2-2,0.4-2.6,0.5l0.2,0.9
			c1.5-0.1,2.1,0,6.5-0.6c-3.9,0.6-0.1,0.7-5.2,1.3c8.3-1,6-1,14.4-2c2.5-0.9-8.5,0.2,1.5-1.4c2.2-0.3,1.8,0,0.5,0.2
			c7.2-0.6-1.6-0.6,2.9-1.4c3.1-0.4,4.3-0.3,3-0.1c4.6-0.9,2-1,5.1-1.5l-1.4,0.1c1.3-0.3-2.4-0.7,4.3-1.6c4.9-0.6,3.4-0.1,3.6,0.1
			c3.8-0.7,6.8-0.8,9.4-0.9c-0.3-0.1,0-0.2,1.2-0.4c6.5-1,3.8,0.1,6.2-0.1c9.3-0.8-1.3-0.9,9-2.2l-12,1.2c0.5-0.3,0.7-0.8-1.9-0.5
			c-0.2,0.5-4.4,1.3-8.4,1.7c-1.2-0.4,10.7-1.8,3.9-1.6c2.4-0.2,5.8-0.7,8.7-1c-2.9,0.9,9.6-1,4.5,0.2c13.1-1.7,15-1.5,27-3.3
			c-1,0.4-8.6,2.2-14.9,2.7l-0.5-0.2c-7.8,1.3,6.1-0.4,4.8,0.3c4.4-0.9,9.2-1.4,14.3-1.9l0.6,4.2c-6,0.9-12.4,1.8-18.7,3.1
			c2.1-0.1-0.2,0.5-0.6,0.8c4.7-0.9,3.8-0.9,7.4-1.2c-0.6,0.5-3.4,0.9-4.9,1.4c-1.2,0.6,3.5-0.6,5.2-0.7c-4.4,1-4,1-6.6,1.8
			c-2.5,0.1-2.2-0.1-4.2-0.1c-11.1,1.9-9.7,2.4-18.6,3.9c5-0.8-2.4,0,3-0.8l-3,0.5c7.6-2,20.8-4.4,19.3-5.1
			c-6.3,1.2-10.7,2.6-18.4,4l0.3-0.2c-5.5,1,0.1,0.2-1.2,0.6c-6.1,1.5-8.2,0.5-12.3,2l6.4-1c-4.7,1.3,1.4-0.2,0.4,0.7
			c-8.4,2-23.2,4.4-35.1,7c3.5-0.3,4.5-0.5,9.1-1.3c-1.9,1.3-3.7,1.5-1.4,1.8l5.5-1l0.2,0.8c-1.5,0.3-3,0.5-4.4,0.7
			c-0.7,0.6-8.4,1.4-8.7,1.9l4.7-0.9c2.4,0-3.2,1-6.4,1.7c3.2,0,10.2-1.9,16.9-3.1c-0.5-0.2,6-2-0.5-0.9c0-0.3,3.9-1.2,6.4-1.7
			c-1.3,0.4,5.2,0-0.8,1.3c5.7-1.4,2.6-0.5,9-1.8c-0.9,0.4,11.2-2.1,10.6-1.2c2-0.7-0.3-1,7.2-2.4c-1.9-0.2-10.2,1.3-4.7-0.3l-3.6,1
			c-5.2,0.7,1.3-0.8-5.5,0.3c2-0.3,6-1.3,6.9-1.2c-1.9-0.7,10-2.3,10.2-3.2c1.5,0,3.5-0.3,7.2-1.1c-0.5,0.4,1.7,0.3-1.2,1
			c-2.4,0.4-4.1,0.8-6.8,1c1.7,0.8,9.7-1.4,15.9-2.3c-0.9,0.1-1.1,0,0.5-0.4c3.8-0.5,12.2-1.9,9.9-0.9l6-1.1L121.3,15l-13.2,1.6
			c-0.1-0.2,2.7-0.4,3.9-0.6l-10.7,1.2c-2.5,0,3.6-0.8,4.7-1.2l-7.7,0.9l1-0.4c-1.9,0.4-10.8,1.6-13,1.3C77.7,19,78,20,66.5,20.9
			c0.4-0.6,6.5-1,9.1-1.6c-2.3,0.1-9.1,1.3-10.3,0.9c-8.2,1.3-7.2,2.1-11.1,3.1c-6.7,0.8-0.8-0.4-1.1-0.5c-2,0.2-5.1,1.5-7,1.1
			c-3.2,0.8-5,1.4-0.1,1c-3.6,0.4-8.6,1.3-9.5,1.6c1.6-0.6,0.1-0.5-1.5-0.4l1.6,9.1c1.3-0.3,2.8-0.6,3-0.3
			c5.3-1.2,17.1-3.9,21.9-5.9l-1.3,1.2l6.2-1.6c4.8-0.6-5.3,1.9-8.4,2.7c8.4-2,14-3.4,21.6-5.3c-2.2,0.4-1-0.1-2.1-0.1
			c2.5-1,6.2-1.6,8.8-2.4c0.7,0,0.4,0.3-1.7,0.9l5.2-1.4c-0.3,0.6,2.2,0-2.8,1.6l4.8-1.3c5.3-1.2-0.1,0.5-1.4,1l8.4-2
			c2.9-1-1.8,0,3.9-1.6c6.2-1.1,13.7-3,20.9-4.7L120.8,3c-1.9,0.3-3.8,0.6-5.7,0.9l5.8-0.5l2.5,12.1l-0.6,0.1
			c0.2-0.1,0.4-0.1,0.6-0.1l-2.5-12c-4.7,0.7-3.6,1.4-5.2,2c-5,0.8-11.7,1.9-15.9,2.4c4.7-1.2,2.6-1.5-1.9-1.1
			c-10.1,1.6-7.5,2.1-13,3.4c4.2-1.8-7.1,0.8-6.2,0.1c-12.8,2.2-25.6,4.8-38.9,7c0.3,0.1,4.1-0.4,1.8,0.2c-4.8,1-7.2,1-7.9,0.9
			c-6.3,1.2-9.8,2.1-11.9,2.7c2.7-0.6,3-0.5,2.5-0.1c-6.3,1.2-4.6,0.2-10.5,1.7c-1.7-0.3,6.6-1.4,5.9-1.8c-5.6,0.9-9,1.7-13,2.7
			c-1-0.2,3.7-0.7,0.6-0.5c-0.6,0.1-1.2,0.2-1.8,0.4l1.3,11.5c8.3-0.7,17.8-1.4,23.9-1.9l1.8,0.4c4.2-0.2,6.9-0.5,8.9-0.8
			c2.3,0.1,0.5,0.3-1.7,0.4c5.6-0.2,12.5-1,15.6-1.2c-0.5,0.3-3.2,0.2-4.1,0.5c7-0.2,15.9-1.6,20.5-1.2c-0.6,0.1-1.3,0.2-1.9,0.2
			c10.4-0.5,19.5-1.3,30.8-1.9c10.4,0,3.3-0.9,13.5-1.3c0.1,0.9,6.7,0.2,12.2-0.2l-0.4-9.3c-2.4,0.2-4.7,0.3-6,0.3l1.4,0.1
			c-5,0.7-12,0.4-15.5,0.2c-7.6,0.2-19,0.5-26.6,1.2l1.5-0.3c-6.3,0.5-10.2,0.2-16.5,0.8c0.2-0.1,2.5-0.3,0.1-0.3
			c-18,0.3-36.3,1-54.5,1.7l0.6,8.8c12.3-1.4,24.6-2.8,36.8-4.1c25.9-2.6,54.6-5.5,83.6-8.6l-1.1-8.8C94.5,14.6,58.9,20.1,28,25.2
			C28,25.2,2,34.4,6.3,35.9z"/>
	</g>
	<g>
		<path class="st0" d="M53,28.7c-0.3,0-0.5,0-0.8,0.1C52.5,28.8,52.8,28.8,53,28.7z"/>
	</g>
	<g>
		<path class="st0" d="M93,14c0.6-0.1,1.3-0.2,1.9-0.3C94.3,13.8,93.6,13.9,93,14z"/>
	</g>
	<g>
		<path class="st0" d="M34.9,26.2l-2.4,0.2C33.5,26.3,34.3,26.3,34.9,26.2z"/>
	</g>
	<g>
		<path class="st0" d="M41.4,29.4c0.9,0.3-3.8,1.1,0.3,1.3c14.4-0.4,6.1-1.6,20.9-1.9l-7.5-0.2c0.4,0.6-4.8,1.1-10.6,1.4l-1.8-0.4
			c1-0.2,2-0.3,3.1-0.4C43.6,29.1,44.1,29.5,41.4,29.4z"/>
	</g>
	<g>
		<path class="st0" d="M46.4,29.1c-0.1,0-0.2,0-0.4,0c-0.1,0-0.1,0-0.2,0C46,29.1,46.1,29.1,46.4,29.1z"/>
	</g>
</g>
<g>
	<path class="st1" d="M10,16.7l-1.5-1.3l0-0.5c0.7-0.3,1.5-0.5,2.5-0.5l2.7,0l0.2-0.3l2.7,0l0.2-0.2l2.1,0l1.5-1.4l0-1.6l-2.4-0.3
		l-0.7,0.2l-1.5-1.2l-0.1-0.7l1.1-0.4l0.1,0.1L20.2,9L21,8.1l0-2.6l-1.5-0.3l-3.4,0.6C15.4,5.3,15,4.7,15,4c1.9-0.6,4-1,6.2-1.3
		l0.4-0.4l0-2.1L23.2,0c0.7,0.6,1,1.4,1,2.3l0.3,0.4l2.2,0l1.5,0.8l0.1,0.9L28,5l-3.2-0.1l-1.2,1l-0.2,2.4l1.6,0.6l0.3-0.2l2.8,0
		l1.4,0.7l0.1,0.7C28.8,10.6,28,10.9,27,11l-0.2-0.2l-3.4-0.1L22.6,13c0.7,0.5,1.5,0.7,2.4,0.6l5.8-1.1l0.9,0.2l0.8-0.2l1.9,1
		l0.1,0.6c-0.7,0.8-1.7,1.1-3,1L28.3,15l-3.6,0.6l-2.7,0l-2.7,0.5l-2.3,0l-5.1,0.7L10,16.7z M17.3,34.1l-0.5-2.9l0.4-0.8l0.1-4.1
		l0.5-2.1l-0.2-0.6c0.2-2,0.6-3.9,1.3-5.6l0.4,0l1,0.5l3.5,0.1l0.2-0.2l4.2,0.1L29,19l0.1,1.3l-0.2,12l-0.5,1.3l-1.1,0.2
		c-1.2-0.3-1.7-1-1.5-2.1l0.4-0.7l0-2.3L24,28.3l-0.2,0.2l-3.1-0.1l-1,1.8l0.3,2.9l-0.7,1.1l-0.9,0L17.7,34L17.3,34.1z M26.2,26.4
		l0.3-1c-0.8-0.7-1.7-1.1-2.6-1.1l-2.5,0l-1.3,0.2l0,1.7l0.8,0.6l3.3,0.1L26.2,26.4z M26.3,22.5l0.2-1.5l-0.7-1.2l-2.3,0l-2.7,0.7
		l-0.5,1.4l0.8,0.8l2.3,0l1.6,0.2L26.3,22.5z"/>
	<path class="st1" d="M53.6,35.1l-0.8-0.2l-0.1-1.7l0.4-3.4L53,29.6l0-2.8l0.2-1.6c-0.8-0.6-1.7-0.8-2.7-0.7c-1.1,0.7-2.3,1.1-3.7,1
		c-0.7-0.4-1.6-0.6-2.6-0.5l-3.3,0.6l-1.3-1l-0.1-0.4c0.7-0.5,1.6-0.9,2.7-1.1l2.9,0.1l1.3-0.4L48,16l-1.7-1c0.2,0.9,0,1.5-0.5,1.9
		L45.2,17l-1.7-1.5L43.4,14l0.2-0.2l0.1-4.6L43.9,9L44,3.5L44.4,3l1.8,0l0.7,1.7l-0.5,2.5l2,0.6l7.2-1.2l2.3,0l1.6-0.2l1.3,0.4
		L61.2,8L61,8.2l-2.5,0L57,8.7l-0.5,2.1l-0.1,3.2l0.9,0.4l0.1,0.8l-1.2,1l0,2.7L56,20.9l0.5,1.5l2.1,0l1.9-0.3l2.1,0l1.8-0.2
		l0.9,0.5l0.1,1L65,23.9l-2.2,0l-2.5,0.4L58.3,24l-2.1,0.7l-0.5,1.2L55.6,31l0.2,0.6l-0.2,0.7l0.2,0.6l-0.6,1.9L53.6,35.1z
		 M48.5,13.9l1.5-0.2l0.6,0.4l2.5,0l0.8-0.2l0.3-0.8l0.1-3.6l-1.9-0.6l-5.6,1l-0.4,0.4L46.2,14l1.6,0.1L48.5,13.9z M53.2,22.5
		l0.3-0.3l0.1-3.5l0.2-2.2l-1.3-0.9l-2,0.7l-1.2,5.8l0.6,0.6l3,0.1L53.2,22.5z"/>
	<path class="st1" d="M73.8,32c-0.8,0-1.5-0.3-2.1-1L71.4,30l0-1.7c0.2-2.4,1-4.6,2.2-6.5c2.7-2.7,5.8-4.1,9.5-4.2
		c1.6,0.1,3,0.8,4.2,2.1c2.5,2.6,4,5.6,4.4,9l0,2.3l-0.6,0.7l-0.8,0c-0.7-0.2-1.1-0.7-1.2-1.4c0.4-0.6,0.6-1.3,0.5-2
		c-0.5-2.9-1.9-5.6-4.1-8l-1.2-0.6c-1.3,3.8-3.2,7.4-5.9,10.7c-0.8,0.9-1.8,1.4-2.8,1.6L73.8,32z M75.7,29.9
		c2.6-2.6,4.6-5.5,6.1-8.6l0.5-1.5l-0.8-0.3c-2.1,0.8-4.1,2-6,3.7c-1.2,2-1.9,4.3-2.1,6.8c0.3,0.4,0.7,0.6,1.2,0.5L75.7,29.9z"/>
	<path class="st1" d="M101.7,33.7l-1.5-1l-0.4-2.3c0.5-0.8,0.7-1.7,0.7-2.8l0.1-5.4L101,21l0.1-4.1l0.3-1.1l-0.2-0.3l0-2.2l0.9-0.5
		l1.4,0.5l0.8,1.1l3.2,0.1l0.4-0.2l0.6,0.4l5.8,0.1l0.6-0.2l1.6,0.5l0.2,1l-0.3,0.2l-0.1,6.5l0.2,0.2l0,2.8l-0.3,0.2l-0.1,3.7
		l-2,2.3l-3.5,0.5l-5.4-0.1l-1.4-0.3l-1.8,1.5L101.7,33.7z M113.4,30.2l0.8-2.3l0.1-3l-0.9-1.1l-4.2-0.1l-0.7,0.1l-1-0.2l-0.3,0.2
		l-3.7-0.1l-1,0.9l0,2.8l-0.2,2.2l1.3,1.2l3.5,0.1l1.3,0.2L109,31l1.2,0.2L113.4,30.2z M114,22.3l0.3-0.5l0.1-4.3l-1.1-1.4l-9.8-0.2
		l-0.4,2.1l-0.1,3.6l0.6,0.9l4.2,0.1l0.2-0.2l2.2,0l0.2,0.2l3.2,0.1L114,22.3z"/>
</g>
<g>
	<path class="st2" d="M85.8,6.4c-0.4,0.4-0.8,0.8-1.4,1.3c-0.3,0.3-0.6,0.5-0.8,0.7c-0.3,0.2-0.5,0.3-0.8,0.3
		c-0.3,0-0.5-0.1-0.6-0.4C82,8.1,82,7.9,82,7.7c0-0.6,0.2-1.4,0.7-2.3c0.4-0.8,1.1-1.6,1.8-2.4c0.8-0.8,1.3-1.1,1.6-1.1
		c0.1,0,0.1,0,0.2,0.1c0.1,0.1,0.1,0.1,0.1,0.2c0,0.1,0,0.2-0.1,0.3c-0.1,0.1-0.2,0.1-0.3,0.2c-0.3,0.2-0.6,0.5-1,0.8
		c-0.6,0.6-1.2,1.3-1.5,2c-0.4,0.8-0.6,1.4-0.6,1.7c0,0.1,0,0.1,0.1,0.2C83,7.7,83,7.8,83.1,7.8c0.2,0,0.5-0.2,0.9-0.5
		c0.5-0.4,1-0.8,1.3-1.2c1-1,1.7-1.9,2.2-2.5C88,2.9,88.4,2.4,88.7,2c0.3-0.3,0.5-0.5,0.6-0.5c0.1,0,0.2,0,0.2,0.1
		c0.1,0.1,0.1,0.2,0.1,0.3c0,0.2-0.1,0.4-0.3,0.6c-1.3,1.7-2.2,2.9-2.6,3.5c-0.6,1-1.2,2-1.7,3c-0.5,1.2-0.9,2-1,2.4
		c-0.1,0.4-0.2,0.6-0.3,0.7c-0.1,0.1-0.2,0.1-0.3,0.1c-0.2,0-0.3-0.1-0.3-0.3c0-0.2,0.2-0.7,0.5-1.5c0.4-0.9,0.8-1.7,1.3-2.6
		C85.3,7.2,85.6,6.7,85.8,6.4z"/>
	<path class="st2" d="M90.1,6.5c0.4,0,0.6,0.2,0.6,0.7c0,0.6-0.3,1.5-0.9,2.5c-0.7,1.1-1.3,1.6-1.9,1.6c-0.3,0-0.5-0.1-0.6-0.4
		c-0.1-0.1-0.1-0.3-0.1-0.5c0-0.6,0.2-1.3,0.6-2c0.4-0.7,0.9-1.2,1.4-1.6C89.6,6.6,89.9,6.5,90.1,6.5z M89.4,9.2
		c-0.1-0.1-0.2-0.2-0.2-0.2c0,0,0.1-0.1,0.2-0.3c0.4-0.5,0.7-0.9,0.7-1.2c0,0,0-0.1,0-0.1c0-0.1-0.1-0.1-0.2-0.1
		c-0.2,0-0.4,0.2-0.7,0.5c-0.4,0.4-0.7,0.8-0.9,1.2c-0.2,0.5-0.4,0.9-0.4,1.2c0,0.1,0,0.2,0.1,0.2c0.1,0.1,0.1,0.1,0.2,0.1
		c0.2,0,0.5-0.2,0.8-0.5c0.1-0.1,0.2-0.3,0.3-0.5C89.4,9.3,89.4,9.2,89.4,9.2z"/>
	<path class="st2" d="M93.3,10.1c-0.2,0.3-0.4,0.5-0.6,0.7c-0.3,0.3-0.6,0.5-0.8,0.5c-0.2,0-0.4-0.1-0.6-0.3
		c-0.1-0.2-0.1-0.3-0.1-0.5c0-0.6,0.3-1.3,0.8-2.2c0.2-0.4,0.5-0.7,0.7-0.9c0.2-0.2,0.3-0.2,0.5-0.2c0.1,0,0.1,0,0.2,0.1
		c0,0.1,0.1,0.1,0.1,0.2c0,0.1-0.1,0.2-0.3,0.5c-0.4,0.5-0.7,0.9-0.9,1.3c-0.2,0.5-0.4,0.8-0.4,1.1c0,0.1,0,0.1,0,0.2
		c0,0,0.1,0.1,0.1,0.1c0.2,0,0.6-0.4,1-1.1c0.2-0.4,0.4-0.8,0.6-1.2c0.1-0.2,0.2-0.5,0.3-0.6c0.1-0.2,0.3-0.3,0.4-0.3
		c0.1,0,0.1,0,0.2,0.1c0.1,0.1,0.1,0.1,0.1,0.2c0,0.2-0.2,0.6-0.5,1.2c-0.2,0.4-0.3,0.8-0.3,1.1c0,0.3,0.1,0.6,0.2,0.8
		c0,0.1,0.2,0.2,0.4,0.3c0.1,0.1,0.2,0.2,0.2,0.3c0,0.1,0,0.2-0.1,0.2c-0.1,0.1-0.2,0.1-0.3,0.1c-0.2,0-0.5-0.1-0.7-0.3
		c-0.2-0.2-0.3-0.4-0.3-0.8C93.3,10.4,93.3,10.3,93.3,10.1z"/>
	<path class="st2" d="M98.2,6.5c-0.3,0.5-0.6,1-0.9,1.6C97,9,96.8,9.6,96.8,10.1c0,0.1,0,0.2,0.1,0.3c0.1,0.1,0.1,0.1,0.2,0.1
		c0.2,0,0.5-0.2,0.9-0.7c0.2-0.3,0.4-0.6,0.6-0.8c0.1-0.2,0.2-0.2,0.3-0.2c0.1,0,0.1,0,0.2,0.1c0,0,0.1,0.1,0.1,0.1
		c0,0.2-0.2,0.6-0.7,1.2c-0.6,0.7-1.1,1.1-1.5,1.1c-0.2,0-0.5-0.1-0.6-0.3c-0.1-0.1-0.2-0.4-0.2-0.6c0-0.6,0.2-1.3,0.5-2.1
		c0.1-0.2,0.3-0.7,0.7-1.4c-0.1,0-0.2,0.1-0.3,0.1c-0.1,0-0.2,0-0.3-0.1c-0.1-0.1-0.2-0.2-0.2-0.3c0-0.1,0.1-0.2,0.2-0.3
		c0,0,0.2-0.1,0.5-0.1c0.1,0,0.3-0.1,0.5-0.1c0.2-0.3,0.4-0.7,0.8-1.2C98.8,4.4,99,4.2,99,4.2C99.2,4,99.3,4,99.3,4
		c0.1,0,0.1,0,0.2,0.1c0.1,0.1,0.1,0.1,0.1,0.2c0,0.1-0.1,0.4-0.4,0.7c-0.2,0.2-0.3,0.4-0.4,0.6c0.5-0.1,0.9-0.2,1.2-0.2
		c0.3,0,0.4,0.1,0.4,0.3c0,0.1,0,0.2-0.1,0.2c0,0-0.2,0.1-0.4,0.1c-0.1,0-0.4,0.1-1.1,0.3C98.6,6.4,98.4,6.4,98.2,6.5z"/>
	<path class="st2" d="M101.4,8.2c0.4-0.4,0.7-0.7,1.1-0.9c0.5-0.3,0.8-0.5,1-0.5c0.1,0,0.2,0,0.2,0.1c0.1,0.1,0.1,0.2,0.1,0.3
		c0,0.1-0.1,0.3-0.3,0.6c-0.4,0.5-0.7,1-0.9,1.5c-0.2,0.4-0.3,0.6-0.3,0.8c0,0.1,0.1,0.2,0.2,0.2c0.3,0,0.7-0.5,1.3-1.4
		c0.1-0.2,0.2-0.3,0.3-0.3c0.1,0,0.2,0.1,0.2,0.2c0,0.2-0.2,0.6-0.6,1.1c-0.3,0.5-0.7,0.8-1,1.1c-0.2,0.2-0.5,0.3-0.7,0.3
		c-0.2,0-0.4-0.1-0.5-0.3c-0.1-0.1-0.1-0.2-0.1-0.4c0-0.4,0.2-0.9,0.5-1.5c0.1-0.1,0.3-0.5,0.7-1.1c-1,0.5-1.8,1.6-2.5,3.2
		c-0.1,0.2-0.2,0.3-0.3,0.3c-0.1,0-0.2,0-0.2-0.1c-0.1-0.1-0.1-0.2-0.1-0.2c0-0.2,0.2-0.6,0.5-1.4c0.6-1.4,1.1-2.6,1.6-3.5
		c0.5-1,1.1-2,1.7-3c0.1-0.3,0.3-0.4,0.3-0.5c0.1-0.1,0.2-0.1,0.3-0.1c0.1,0,0.2,0,0.2,0.1c0,0.1,0.1,0.1,0.1,0.2
		c0,0.1-0.1,0.3-0.2,0.5c-0.5,0.8-1,1.7-1.6,2.7C101.9,7.1,101.5,7.8,101.4,8.2z"/>
	<path class="st2" d="M112.8,3.4c-0.1,0.1-0.3,0.2-0.4,0.2C112.2,3.9,112,4,111.9,4c-0.1,0-0.1,0-0.2-0.1c-0.1-0.1-0.1-0.1-0.1-0.2
		c0-0.2,0.2-0.4,0.7-0.8c0.7-0.5,1.5-0.8,2.4-0.8c0.7,0,1.2,0.2,1.6,0.7c0.4,0.4,0.5,0.9,0.5,1.4c0,0.9-0.3,2-1,3.3
		c-0.8,1.5-1.9,2.7-3.1,3.7c-1,0.7-1.8,1.1-2.5,1.1c-0.3,0-0.5-0.1-0.7-0.3c-0.1-0.1-0.2-0.3-0.2-0.5c0-0.2,0.2-0.8,0.5-1.7
		c0.5-1.3,1.1-2.7,1.8-4.1C111.7,5.5,112.1,4.7,112.8,3.4z M113.4,3.1c0.1,0.1,0.2,0.2,0.2,0.2c0,0.1-0.1,0.3-0.3,0.6
		c-0.9,1.6-1.7,3.2-2.3,4.7c-0.6,1.3-0.9,2.2-0.9,2.5c0,0.2,0.1,0.3,0.3,0.3c0.3,0,0.7-0.2,1.3-0.5c0.7-0.4,1.4-1.1,2.2-2.1
		c0.7-0.9,1.3-1.8,1.7-2.8c0.3-0.8,0.5-1.4,0.5-2c0-0.4-0.1-0.7-0.3-0.9c-0.2-0.2-0.5-0.3-0.9-0.3C114.5,2.8,114,2.9,113.4,3.1z"/>
	<path class="st2" d="M118.4,10c-0.2,0.3-0.3,0.5-0.5,0.7c-0.3,0.4-0.6,0.6-0.9,0.6c-0.3,0-0.5-0.1-0.6-0.4
		c-0.1-0.2-0.1-0.3-0.1-0.6c0-0.5,0.2-1.1,0.5-1.8c0.4-0.7,0.8-1.3,1.4-1.7c0.3-0.3,0.7-0.4,1-0.4c0.2,0,0.4,0.1,0.5,0.2
		c0.1,0.1,0.2,0.2,0.2,0.4c0,0.1,0,0.3-0.1,0.4c0.1,0.1,0.1,0.2,0.1,0.3c0,0.1-0.1,0.3-0.2,0.5c-0.1,0.2-0.3,0.6-0.4,0.9
		c-0.2,0.4-0.2,0.8-0.2,1c0,0.2,0.1,0.4,0.2,0.5c0,0,0.1,0.1,0.3,0.2c0.1,0.1,0.2,0.2,0.2,0.3c0,0.1,0,0.2-0.1,0.2
		c-0.1,0.1-0.2,0.1-0.3,0.1c-0.3,0-0.5-0.1-0.7-0.3c-0.2-0.2-0.2-0.4-0.2-0.7C118.4,10.4,118.4,10.2,118.4,10z M119.3,7.6
		c-0.1-0.1-0.1-0.2-0.2-0.2c-0.1-0.1-0.1-0.1-0.2-0.1c-0.4,0-0.8,0.3-1.2,1c-0.5,0.7-0.7,1.3-0.7,1.8c0,0.1,0,0.2,0.1,0.3
		c0,0.1,0.1,0.1,0.2,0.1c0.2,0,0.5-0.2,0.8-0.7c0.2-0.3,0.4-0.7,0.6-1.2c0.2-0.3,0.3-0.6,0.4-0.7C119.1,7.7,119.2,7.7,119.3,7.6z"/>
	<path class="st2" d="M123.2,9.1c-0.4,0.5-0.8,0.9-1,1.1c-0.5,0.5-0.9,0.7-1.3,0.7c-0.2,0-0.3-0.1-0.4-0.2c-0.1-0.1-0.1-0.2-0.1-0.4
		c0-0.5,0.3-1.2,0.9-2.1c0.6-0.9,1.1-1.3,1.4-1.3c0.1,0,0.1,0,0.2,0.1c0.1,0.1,0.1,0.1,0.1,0.2c0,0.1,0,0.2-0.1,0.3
		c-0.1,0.1-0.2,0.3-0.5,0.5c-0.3,0.3-0.5,0.6-0.8,0.9c-0.3,0.4-0.4,0.7-0.4,0.8c0,0.1,0,0.2,0.1,0.2c0.2,0,0.6-0.3,1.1-0.8
		c0.3-0.3,0.6-0.6,0.8-0.8c0,0,0.2-0.3,0.5-0.7c0.3-0.4,0.4-0.6,0.5-0.6c0.1-0.2,0.3-0.3,0.4-0.3c0.1,0,0.1,0,0.2,0.1
		c0.1,0.1,0.1,0.1,0.1,0.2c0,0.1-0.1,0.4-0.3,0.7c-0.2,0.4-0.4,0.8-0.6,1.1c-0.3,0.5-0.5,1-0.7,1.5c0.3-0.2,0.6-0.4,0.9-0.7
		c0.4-0.4,0.7-0.8,0.8-1c0.1-0.2,0.2-0.3,0.3-0.3c0.1,0,0.2,0.1,0.2,0.2c0,0.3-0.2,0.6-0.7,1.2c-0.5,0.6-1.2,1.1-1.9,1.6
		c-0.4,1-0.8,1.8-1.2,2.4c-0.7,1.2-1.4,1.8-2.1,1.8c-0.3,0-0.5-0.1-0.7-0.3c-0.1-0.2-0.2-0.4-0.2-0.7c0-0.8,0.5-1.5,1.6-2.3
		c0.3-0.2,0.8-0.5,1.4-0.9c0.2-0.1,0.4-0.3,0.6-0.3c0.1-0.2,0.2-0.5,0.4-0.9C122.8,9.8,123,9.5,123.2,9.1z M121.8,12
		c-0.5,0.3-1,0.6-1.6,1.1c-0.5,0.5-0.8,1-0.8,1.4c0,0.1,0,0.2,0.1,0.2c0.1,0.1,0.2,0.1,0.3,0.1c0.4,0,0.8-0.4,1.2-1.1
		c0.1-0.1,0.3-0.5,0.6-1.3C121.7,12.3,121.7,12.2,121.8,12z"/>
</g>
<g>
	<g class="st3">
		<g>
			<path class="st4" d="M54.3,11.5c0.1-0.1,0.2,0,0.3-0.2c0.2,0.1,0.2,0.3,0.2,0.4c-0.1,0.1-0.3,0.2-0.5,0.1
				C54.2,11.8,54.2,11.6,54.3,11.5z"/>
		</g>
		<g>
			<path class="st4" d="M54.6,10.2c0.2,0,0.1,0.1,0.1,0.2c-0.1,0.1-0.2,0.2-0.3,0.2C54.2,10.6,54.2,10.1,54.6,10.2z"/>
		</g>
		<g>
			<path class="st4" d="M8.9,39.5c0.1,0.1,0,0.3-0.2,0.2l-0.1-0.1C8.6,39.5,8.8,39.4,8.9,39.5z"/>
		</g>
		<g>
			<polygon class="st4" points="40.6,28 40.6,28 40.8,27.9 40.8,28 			"/>
		</g>
		<g>
			<path class="st4" d="M9.4,38.8C9.5,38.8,9.5,38.8,9.4,38.8c0,0.1-0.1,0.2-0.1,0.1C9.3,38.8,9.3,38.8,9.4,38.8z"/>
		</g>
		<g>
			<path class="st4" d="M42.6,27.9l0,0.1c-0.2,0.2-0.5,0.1-0.7-0.1C42.1,28,42.4,27.8,42.6,27.9z"/>
		</g>
		<g>
			<path class="st4" d="M11.8,39.4c0.1,0.1,0.2,0.3-0.1,0.4c-0.2,0-0.3,0-0.3-0.2C11.4,39.5,11.7,39.4,11.8,39.4z"/>
		</g>
		<g>
			<path class="st4" d="M0.1,30.8L0.1,30.8c0.3-0.2,0.9-0.5,1.3-0.3c0,0.2-0.2,0.2-0.4,0.3c-0.3,0.1-0.7,0-1,0.1
				C0,30.9,0.2,30.9,0.1,30.8z"/>
		</g>
		<g>
			<path class="st4" d="M72.2,17.3c0,0-0.1-0.1-0.1,0l0.2-0.2c-0.2-0.2,0.3-0.3,0.3-0.4c0.4-0.1,0.6-0.1,0.9,0.1
				c0.2,0.3,0.1,0.3,0.2,0.5c-0.3,0.1,0.1,0.5-0.4,0.5c-0.2,0.2-0.4,0-0.6,0.2c0.2-0.1-0.1-0.1-0.2-0.2l-0.2,0
				c0.1-0.2-0.1-0.3-0.2-0.3C72.2,17.5,72.1,17.4,72.2,17.3z"/>
		</g>
		<g>
			<path class="st4" d="M3.4,30.6c0.1,0,0.3,0,0.4,0c0,0.2-0.4,0.2-0.6,0.3l-0.3-0.1C2.9,30.7,3.1,30.6,3.4,30.6z"/>
		</g>
		<g>
			<path class="st4" d="M4.5,29.4c0.1,0,0.1,0,0.2,0l0,0.1c-0.3,0.2-0.6,0.1-0.9,0.2C3.9,29.6,4.3,29.4,4.5,29.4z"/>
		</g>
		<g>
			<path class="st4" d="M4.4,29.5c0,0-0.1,0.1-0.2,0L4.4,29.5z"/>
		</g>
		<g>
			<path class="st4" d="M4.6,28.9L4.6,28.9L4.6,28.9l-0.1,0C4.5,28.9,4.6,28.8,4.6,28.9z"/>
		</g>
		<g>
			<path class="st4" d="M12.5,25.4C12.5,25.4,12.5,25.4,12.5,25.4L12.5,25.4C12.4,25.4,12.4,25.4,12.5,25.4z"/>
		</g>
		<g>
			<path class="st4" d="M21.9,29.7c0.1,0,0.1,0.1,0.1,0.2C22,30,21.9,30,21.8,30C21.9,29.9,21.7,29.8,21.9,29.7z"/>
		</g>
		<g>
			<path class="st4" d="M23.5,24.8c0.1,0,0.2,0,0.2,0c-0.1,0.1,0,0.2-0.1,0.2C23.4,25.1,23.4,24.9,23.5,24.8z"/>
		</g>
		<g>
			<path class="st4" d="M23.2,22.3c0.2,0,0.4,0,0.4,0.2c0,0.2,0,0.3-0.3,0.4c-0.2,0.1-0.2-0.1-0.4-0.1
				C22.9,22.6,23.1,22.5,23.2,22.3z"/>
		</g>
		<g>
			<path class="st4" d="M23.6,24.2c0.1,0,0.1,0,0.1,0c0,0.1,0,0.1,0,0.2C23.6,24.5,23.5,24.3,23.6,24.2z"/>
		</g>
		<g>
			<path class="st4" d="M25.8,28.6c0.1,0,0.2,0,0.2,0c0,0.1,0.1,0.2-0.1,0.3C25.7,29,25.6,28.7,25.8,28.6z"/>
		</g>
		<g>
			<polygon class="st4" points="12.2,32.3 12,32.5 12,32.3 			"/>
		</g>
		<g>
			<path class="st4" d="M13.6,32.4c0.2,0,0.4,0,0.4,0.2c-0.1,0.4-0.7,0.3-1,0.3l-0.1,0c0.1-0.1-0.1-0.1,0-0.2
				c-0.3,0.2-0.2-0.2-0.5-0.1C12.9,32.5,13.2,32.4,13.6,32.4z"/>
		</g>
		<g>
			<path class="st4" d="M25.5,24.4c0.1-0.1,0.1,0.1,0.2,0.1c0,0.1-0.2,0.1-0.2,0.1C25.4,24.5,25.5,24.5,25.5,24.4z"/>
		</g>
		<g>
			<path class="st4" d="M27.4,27.7c0.1,0,0.1,0.1,0.1,0.2c0,0.1-0.1,0-0.2,0.1C27.1,27.9,27.2,27.7,27.4,27.7z"/>
		</g>
		<g>
			<path class="st4" d="M27.2,26c0.1,0,0.2,0.1,0.1,0.2c-0.1,0-0.2,0.1-0.2,0C27,26.1,27.2,26.1,27.2,26z"/>
		</g>
		<g>
			<path class="st4" d="M27.7,27.4c0.1,0.1,0.5-0.2,0.4,0.1c-0.2,0-0.3,0.2-0.5,0.1C27.6,27.5,27.6,27.4,27.7,27.4z"/>
		</g>
		<g>
			<path class="st4" d="M16.4,31.2c0.1,0,0.3-0.1,0.3-0.2c-0.1,0-0.2,0-0.2-0.1c0.6,0,1.3-0.3,1.8,0c0,0.1,0,0.2-0.1,0.3
				c-0.1,0-0.3,0.1-0.4,0.2c-0.3-0.1-0.6,0.3-0.9,0.1c0.1,0,0.1-0.1,0.1-0.1c-0.2,0-0.5-0.1-0.7-0.2L16.4,31.2z"/>
		</g>
		<g>
			<path class="st4" d="M18.2,33.1c0.2,0.4-0.5,0.3-0.7,0.4l-0.4-0.1C17.4,33.2,17.8,33,18.2,33.1z"/>
		</g>
		<g>
			<polygon class="st4" points="17.9,33.2 17.8,33.4 17.6,33.2 17.8,33.4 			"/>
		</g>
		<g>
			<path class="st4" d="M53.8,27.5l0.1,0.1c-0.4,0.5-1.2,0.4-1.8,0.3l-0.4-0.1C52.3,27.5,53.2,27.3,53.8,27.5z"/>
		</g>
		<g>
			<polygon class="st4" points="19.3,33.3 19.2,33.3 19.3,33.2 			"/>
		</g>
		<g>
			<path class="st4" d="M20.8,33.2c0.1,0,0.2,0.1,0.2,0.1c0,0.1-0.1,0.2-0.2,0.3c-0.3,0.1-0.6,0.1-0.8,0l0,0c0,0,0.1-0.1,0.1-0.1
				c0-0.1-0.2,0-0.2,0C20.1,33.3,20.5,33.1,20.8,33.2z"/>
		</g>
		<g>
			<path class="st4" d="M20.6,33.4l-0.1,0c-0.1,0.1,0,0-0.1,0C20.5,33.5,20.4,33.3,20.6,33.4z"/>
		</g>
		<g>
			<path class="st4" d="M21.7,33.6c0.2-0.2,0.6-0.3,0.9-0.3c0.1,0,0.3,0.1,0.2,0.3c-0.2,0.1-0.5,0.3-0.8,0.3c-0.1-0.1-0.3,0-0.5-0.1
				C21.5,33.7,21.9,33.7,21.7,33.6z"/>
		</g>
		<g>
			<polygon class="st4" points="22,33.5 22,33.5 22,33.6 			"/>
		</g>
		<g>
			<path class="st4" d="M26.6,40.2c0.1,0,0.1,0.1,0.1,0.1c-0.1,0.2-0.5,0.2-0.7,0.3c-0.1-0.1-0.2,0.1-0.3,0
				C25.9,40.4,26.2,40.1,26.6,40.2z"/>
		</g>
		<g>
			<path class="st4" d="M25,14.3c0.2,0.3-0.3,0.3-0.5,0.5c-0.6,0.2-0.9-0.2-1.4-0.1l-0.3-0.1C23.5,14.6,24.3,13.8,25,14.3z"/>
		</g>
		<g>
			<path class="st4" d="M33.1,33.7c0,0,0.1,0,0.2,0.1c0,0.1,0.1,0.2-0.1,0.3l-0.5,0.1c0,0,0,0,0-0.1l-0.2-0.1
				C32.5,33.8,32.9,33.8,33.1,33.7z"/>
		</g>
		<g>
			<polygon class="st4" points="29.3,34.7 29.1,34.8 29.2,34.7 			"/>
		</g>
		<g>
			<path class="st4" d="M37.2,33L37.2,33c0-0.1-0.1-0.1-0.1-0.1c0.1-0.2,0.4-0.3,0.6-0.4c0.2,0,0.4,0,0.5,0.2
				c0.1,0.2-0.1,0.2-0.2,0.4c-0.2,0.1-0.4-0.1-0.6,0.1l0,0L37.1,33C37.1,33,37.2,33,37.2,33z"/>
		</g>
		<g>
			<polygon class="st4" points="28.5,17.6 28.3,17.6 28.5,17.5 			"/>
		</g>
		<g>
			<path class="st4" d="M28.9,18.4c0.1-0.1-0.1,0.2-0.1,0.1l0.3,0.1l-0.4,0L28.9,18.4z"/>
		</g>
		<g>
			<path class="st4" d="M29,18.4c0-0.1,0.2-0.1,0.2-0.1c0.1,0.1,0.2,0.1,0.2,0.2c0,0.1-0.1,0-0.2,0.1c0-0.1,0.1-0.1,0.2-0.1
				C29.3,18.4,29.1,18.4,29,18.4c0,0,0.1,0,0.1,0.1L29,18.6L29,18.4L29,18.4z"/>
		</g>
		<g>
			<path class="st4" d="M29.5,17.1L29.5,17.1L29.5,17.1l-0.2,0.1C29.5,17.3,29.5,17.2,29.5,17.1z"/>
		</g>
		<g>
			<path class="st4" d="M34.8,27.5c0.4,0,0.9-0.5,1.4-0.3c0.2,0.2,0,0.4-0.2,0.4C35.6,27.8,35.2,27.6,34.8,27.5L34.8,27.5z"/>
		</g>
		<g>
			<path class="st4" d="M40.6,33.5c0.2,0,0.4-0.1,0.6,0c0.1,0.2-0.1,0.2-0.2,0.3c-0.2,0.1-0.3,0-0.5,0.1c0-0.1,0-0.1-0.1-0.1
				C40.5,33.6,40.4,33.6,40.6,33.5z"/>
		</g>
		<g>
			<path class="st4" d="M35.2,22.1c0.2,0,0.4,0,0.5,0.1c0.1,0.1,0,0.2-0.2,0.3c-0.2,0-0.4,0.1-0.6,0C34.8,22.2,35.1,22.2,35.2,22.1z
				"/>
		</g>
		<g>
			<path class="st4" d="M41.5,34.2c0.1-0.1-0.1-0.1-0.1-0.2c0,0,0.1,0,0.1,0l0.1,0c-0.1,0.1-0.3,0.2-0.4,0.1
				C41.3,34.2,41.4,34.3,41.5,34.2z"/>
		</g>
		<g>
			<path class="st4" d="M33.6,14c0.2-0.1,0.3,0,0.5,0c0,0.1,0.1,0.4-0.1,0.4C33.8,14.4,33.3,14.2,33.6,14z"/>
		</g>
		<g>
			<path class="st4" d="M35,17.5C35,17.4,35,17.4,35,17.5c-0.1-0.2,0.1-0.1,0.1-0.1c0.4-0.2,0.9-0.4,1.3-0.2c0.1,0.2,0,0.3-0.1,0.4
				l-0.7,0.1l0,0c-0.3,0-0.6-0.1-0.9-0.2C34.9,17.5,35,17.5,35,17.5z"/>
		</g>
		<g>
			<path class="st4" d="M37.3,23.8c0,0.1,0.1,0.1,0.1,0.1l0,0l0.1,0l0,0c0,0-0.1,0-0.1,0c0.1,0.1,0.2,0.1,0.3-0.1
				c-0.3,0-0.1-0.3-0.3-0.3c0.2-0.1,0.6-0.3,0.8,0c0,0.1-0.1,0.2-0.2,0.3c-0.2,0-0.3,0.1-0.5,0.2c0,0,0.1,0,0.1,0l0,0l-0.3,0
				C37.4,24,37.2,23.9,37.3,23.8l-0.2,0.1C37.2,23.8,37.3,23.9,37.3,23.8z"/>
		</g>
		<g>
			<path class="st4" d="M44.8,38.3c0.2,0.1,0,0.2,0,0.3c-0.2,0.2-0.5,0-0.7,0.2C44.3,38.6,44.5,38.3,44.8,38.3z"/>
		</g>
		<g>
			<path class="st4" d="M37.6,23.8C37.6,23.8,37.5,23.9,37.6,23.8L37.6,23.8L37.6,23.8z"/>
		</g>
		<g>
			<path class="st4" d="M37.7,23.6c0,0.1,0.1,0.1,0.2,0.1l0,0.1c0,0,0,0,0.1,0.1l-0.2-0.1C37.7,23.7,37.8,23.7,37.7,23.6l0,0.1
				C37.6,23.7,37.6,23.7,37.7,23.6z"/>
		</g>
		<g>
			<path class="st4" d="M67.3,29.5l-0.2-0.1c0-0.1,0.7,0.1,0.5-0.3c0.5,0.1,1.2-0.2,1.5,0.2c0.1,0,0.1,0,0.2-0.1L69,29.1
				c0.3-0.1,0.7-0.4,1-0.3c0.1,0,0.2,0.1,0.1,0.2c-0.4,0.6-1.4,0-1.5,0.8c-0.3,0.2-0.8,0.3-1.2,0.3l-0.4,0.2c0.3-0.1,0-0.3,0-0.4
				L66.9,30l0.1-0.2l-0.3-0.1C66.9,29.7,67.2,29.7,67.3,29.5z"/>
		</g>
		<g>
			<path class="st4" d="M44.1,33.7c0.2,0,0.4-0.1,0.6,0.1c0.1,0.3-0.2,0.2-0.3,0.4c-0.1,0.1-0.2-0.1-0.3,0l0,0
				C44.1,34.1,43.9,33.8,44.1,33.7z"/>
		</g>
		<g>
			<path class="st4" d="M37.9,18.3c0.2-0.1,0.4-0.2,0.6-0.2c0,0.1,0.2,0.1,0.1,0.2c-0.1,0.2-0.5,0.2-0.7,0.2
				C38,18.4,37.8,18.3,37.9,18.3z"/>
		</g>
		<g>
			<polygon class="st4" points="38.2,18.3 38,18.3 38,18.3 			"/>
		</g>
		<g>
			<path class="st4" d="M46.8,35c-0.2,0,0-0.1-0.1-0.2c0.1-0.1,0.4-0.2,0.5-0.1c0.1,0.2-0.1,0.2-0.2,0.3L46.8,35L46.8,35z"/>
		</g>
		<g>
			<polygon class="st4" points="46.8,34.9 47,34.9 46.9,35 47,34.9 46.8,34.9 46.8,34.8 			"/>
		</g>
		<g>
			<path class="st4" d="M50.2,33.6c0.1-0.1,0.3-0.3,0.5-0.3c0.1,0,0.3,0,0.4,0.2c0,0.4-0.4,0.4-0.7,0.5l0,0
				c-0.1-0.1-0.3-0.1-0.4-0.1C50.2,33.8,50.2,33.7,50.2,33.6z"/>
		</g>
		<g>
			<path class="st4" d="M51.9,38.9c0-0.1-0.1-0.1-0.1-0.1l-0.1,0c0.3-0.1,0.6-0.4,1-0.3c0.1,0.1-0.1,0.4-0.2,0.4
				c-0.3,0.1-0.5,0.1-0.8,0.1L51.9,38.9z"/>
		</g>
		<g>
			<path class="st4" d="M41.4,16.5c0.1-0.2,0.4-0.3,0.7-0.3c0.2,0,0.3,0.1,0.4,0.2c0.1,0.2-0.1,0.3-0.2,0.4c-0.2,0.1-0.3,0-0.4,0.2
				c0.1-0.4-0.5,0-0.3-0.3l-0.2,0C41.5,16.7,41.5,16.6,41.4,16.5z"/>
		</g>
		<g>
			<path class="st4" d="M43,21.4L43,21.4L43,21.4l0.1,0l0,0.1L43,21.4C42.9,21.4,43,21.4,43,21.4z"/>
		</g>
		<g>
			<path class="st4" d="M51.6,35.1l0-0.1c0.3,0.1,0.7-0.3,1,0c0.2,0.3-0.2,0.4-0.4,0.5c-0.1-0.1-0.2,0-0.3,0.1c0,0,0,0,0-0.1
				c-0.2,0-0.1-0.1-0.3-0.1l0,0l-0.2,0C51.6,35.2,51.3,35.1,51.6,35.1z"/>
		</g>
		<g>
			<path class="st4" d="M43.8,21.2c0,0.1-0.1,0.2-0.2,0.2l-0.4,0l0.1-0.1c0,0.2,0.2,0.1,0.2,0.1c0-0.1,0.1-0.1,0-0.2
				c-0.2-0.2-0.3,0-0.4,0.1l0,0l-0.2,0C43.2,21.1,43.5,20.9,43.8,21.2z"/>
		</g>
		<g>
			<path class="st4" d="M49.8,22.9C49.9,22.9,49.9,22.9,49.8,22.9L50,23L49.8,22.9C49.8,23,49.9,22.9,49.8,22.9z"/>
		</g>
		<g>
			<path class="st4" d="M54.8,30.9C54.8,30.9,54.8,30.9,54.8,30.9l-0.1,0.2c0.1,0,0-0.1-0.1-0.2C54.6,31,54.7,30.9,54.8,30.9z"/>
		</g>
		<g>
			<path class="st4" d="M54.2,21.1L54.2,21.1L54.2,21.1C54.2,21.2,54.1,21.2,54.2,21.1z"/>
		</g>
		<g>
			<path class="st4" d="M54.5,21.1C54.5,21,54.5,21.1,54.5,21.1L54.5,21.1l0.2,0l0,0l0,0c0.1,0,0-0.1,0-0.2
				C54.5,20.9,54.4,21,54.5,21.1l-0.1,0c0.1-0.2,0.4-0.2,0.6-0.2c0.1,0,0.1,0.1,0.1,0.2c-0.2,0.2-0.5,0.2-0.7,0.2L54.5,21.1z"/>
		</g>
		<g>
			<polygon class="st4" points="54.7,21.2 54.7,21.2 54.8,21.1 			"/>
		</g>
		<g>
			<path class="st4" d="M63.1,29.3c0.2,0,0.3,0.2,0.2,0.4c-0.1,0-0.2,0.2-0.3,0.2c0,0,0-0.3-0.2-0.1c0.2,0,0,0.2-0.2,0.2l0.1-0.1
				c-0.1-0.1-0.2,0-0.4,0l0.1-0.1l-0.2-0.1C62.5,29.6,62.7,29.4,63.1,29.3z"/>
		</g>
		<g>
			<path class="st4" d="M58.2,23.3c0.3-0.1,0.5-0.3,0.8-0.1c0.1,0.2-0.1,0.3-0.3,0.4l-0.4,0.1l0,0l-0.2-0.1l0,0l-0.1,0
				C58.2,23.5,58.3,23.4,58.2,23.3z"/>
		</g>
		<g>
			<path class="st4" d="M58.7,23.3c-0.1,0-0.2,0-0.2,0C58.5,23.3,58.5,23.2,58.7,23.3c0.1-0.1,0,0.1,0,0.2c-0.1,0.1-0.3,0.1-0.4,0.1
				C58.6,23.5,58.3,23.4,58.7,23.3z"/>
		</g>
		<g>
			<path class="st4" d="M58.7,23.4C58.7,23.4,58.6,23.5,58.7,23.4l0,0.1l-0.1,0l0,0L58.7,23.4l-0.2,0L58.7,23.4z"/>
		</g>
		<g>
			<path class="st4" d="M61.5,30.7c0.1,0,0,0.1,0.1,0.2c-0.1,0.2-0.3,0.2-0.5,0.2c0.1-0.1,0.2,0,0.2-0.2l-0.1-0.1
				c0,0.1-0.1,0.1-0.2,0.1C61.1,30.8,61.3,30.7,61.5,30.7z"/>
		</g>
		<g>
			<path class="st4" d="M59.6,21.8L59.6,21.8l-0.1,0.2c0,0,0.1,0,0-0.1l-0.1,0l-0.1,0.2c-0.1-0.1-0.1,0-0.2,0l0.1,0l0-0.1l0.1,0
				l0.1-0.2L59,22C59.2,21.9,59.4,21.8,59.6,21.8z"/>
		</g>
		<g>
			<path class="st4" d="M83.5,29.2c0-0.3-0.3,0-0.4-0.1c0.1-0.1,0.3,0,0.3-0.1c-0.1-0.1-0.3-0.1-0.4,0l0,0c0.2-0.2,0.6-0.1,0.7-0.5
				c-0.1,0-0.2-0.1-0.1-0.2c0.3-0.1,0.3-0.3,0.6-0.4l-0.1,0c0.2-0.1,0.5-0.1,0.8-0.2c-0.2-0.2,0.4-0.1,0.3-0.3
				c0.2,0.1,0.4,0.2,0.5,0c0.3,0.1,0.8,0.3,0.8,0.6c0.2,0.2,0,0.2,0,0.4l-0.1,0c0,0.1-0.1,0.2,0,0.2c-0.1,0.1-0.3,0.2-0.3,0.3
				c0,0.1-0.1,0.3-0.2,0.3c0,0,0,0.1,0,0.1c-0.1,0-0.2,0.1-0.2,0.1c-0.3,0.2-0.7,0.3-1,0.6l0.1-0.1l-0.1-0.1l-0.2,0.3
				c0-0.1,0.2-0.3,0.1-0.4c-0.1-0.1-0.2,0.1-0.4,0.1l0.1-0.1c-0.1-0.1-0.3,0.2-0.5,0.1c0.2-0.3,0-0.3-0.3-0.4l-0.4,0.1
				C83.3,29.5,83.5,29.3,83.5,29.2z"/>
		</g>
		<g>
			<path class="st4" d="M61.9,22.5c0,0,0,0.1,0,0.1c0.1,0.1,0.2,0,0.3,0l0-0.1C62.1,22.4,62.1,22.6,61.9,22.5
				c0.1-0.2,0.4-0.1,0.5-0.1c0.2,0.2-0.1,0.3-0.3,0.3c-0.2,0.1-0.3,0-0.4,0C61.8,22.6,61.8,22.5,61.9,22.5z"/>
		</g>
		<g>
			<path class="st4" d="M64.8,22.4c0.2,0,0.5,0.2,0.4,0.3c0.1,0.1,0,0.1,0,0.2c0.2,0,0.5,0.1,0.4,0.3c-0.6,0.4-1.3,0.1-1.7,0
				l0.1-0.1l-0.2,0C64.1,22.7,64.4,22.5,64.8,22.4z"/>
		</g>
		<g>
			<path class="st4" d="M95.5,17.1L95.5,17.1c0,0,0.1-0.2,0.2-0.3c-0.1,0-0.1-0.1-0.2,0l0,0c0-0.1,0.3-0.1,0.2-0.2l-0.1,0
				c0.4,0,0.4-0.4,0.8-0.4c0.2-0.3,0.6-0.1,0.9-0.2c0,0.1,0.2,0.1,0.3,0.2l0.1,0.6c-0.1,0.1-0.2,0.2-0.3,0.4c0.2,0,0.5,0.2,0.6,0.3
				c0.2,0.3-0.2,0.4-0.2,0.7c-0.2,0-0.4,0.1-0.5,0.2l-0.1,0.1c0.1-0.3-0.4-0.1-0.6-0.1l-0.1,0c0.1-0.1,0.2-0.1,0.2-0.2l-0.3,0.1
				c0.1,0,0.1,0,0.2-0.1l-0.1-0.1c0.1,0,0.1-0.1,0.1-0.1c0,0-0.1-0.1-0.1-0.1l0.1-0.1c-0.1-0.1-0.3-0.1-0.2-0.2l-0.4,0l0.1-0.1
				c-0.1,0-0.1-0.1-0.2,0l0,0l0.1-0.1l-0.3,0C95.4,17.3,95.7,17.2,95.5,17.1z"/>
		</g>
		<g>
			<path class="st4" d="M74,29l-0.1-0.1c0.2-0.2,0.3-0.6,0.8-0.7c0.3-0.1,0.5,0,0.8,0c0.2,0.3,0.1,0.6-0.1,0.9
				c-0.2,0-0.6,0.3-0.8,0.3l0,0.1l0.1-0.1l-0.6,0C74.1,29.2,74,29.1,74,29z"/>
		</g>
		<g>
			<rect x="66.1" y="25.4" transform="matrix(0.9738 -0.2275 0.2275 0.9738 -4.0467 15.7202)" class="st4" width="0.1" height="0"/>
		</g>
		<g>
			<path class="st4" d="M68.3,23.9C68.3,24,68.3,24,68.3,23.9c0,0-0.2-0.1-0.2,0C68.1,23.9,68.3,23.8,68.3,23.9z"/>
		</g>
		<g>
			<path class="st4" d="M69.8,23.7L69.8,23.7c-0.1,0,0.1-0.2,0-0.2c0.4-0.3,0.7,0.3,1.1-0.2c0.3,0.2,0.6,0,0.8,0.3
				c0.1,0.2-0.2,0.4-0.4,0.6L71,24.3c0-0.1-0.1-0.1-0.1,0l-0.2,0c0.1-0.2-0.3,0-0.4-0.1l0.1,0c-0.1-0.2-0.3,0-0.5-0.2l-0.1,0
				C69.6,23.9,69.8,23.8,69.8,23.7z"/>
		</g>
		<g>
			<path class="st4" d="M81,21.9c-0.1,0,0.2-0.1,0-0.2c0.2,0,0.1-0.2,0.2-0.3l0,0c0.3,0,0.1-0.4,0.7-0.3c0.2-0.3,0.4,0.1,0.6,0
				c0.3,0.2,0.4,0.3,0.3,0.7c-0.1,0.3-0.1,0.1-0.3,0.4l-0.1,0.1c-0.1-0.2-0.2,0.3-0.4,0.1c-0.1,0-0.2,0.2-0.4,0.2c0,0,0-0.1,0-0.1
				c-0.1-0.1-0.2,0-0.3,0l0-0.1l-0.2,0c0,0,0-0.1,0-0.1l-0.1,0C80.9,22,81.2,22,81,21.9z"/>
		</g>
		<g>
			<polygon class="st4" points="81.7,23.4 81.4,23.5 81.6,23.4 			"/>
		</g>
		<g>
			<path class="st4" d="M89.7,26.9l0-0.1c0.1,0,0.1-0.1,0.1-0.2c0.2,0,0.6-0.2,0.7,0l0,0.3c-0.1,0-0.2,0.1-0.3,0.2
				c0-0.1-0.2,0-0.2,0l0-0.1c-0.2,0-0.2,0-0.4-0.1C89.7,27.1,89.7,27,89.7,26.9z"/>
		</g>
		<g>
			<rect x="89.8" y="27.1" transform="matrix(0.9752 -0.2214 0.2214 0.9752 -3.7626 20.5759)" class="st4" width="0.2" height="0"/>
		</g>
		<g>
			<path class="st4" d="M92.6,34.7c0.2-0.1,0.5,0.1,0.4,0.3c-0.1,0.1-0.3,0.2-0.5,0.2C92.3,35.2,92.2,34.7,92.6,34.7z"/>
		</g>
		<g>
			<path class="st4" d="M94.3,22.2c0-0.1,0-0.1,0-0.2c0.1-0.1,0.4-0.2,0.5-0.1c0.1,0.1,0.1,0.2,0.1,0.4c-0.1,0.1-0.1,0.1-0.3,0.2
				C94.5,22.3,94.3,22.3,94.3,22.2L94.3,22.2z"/>
		</g>
		<g>
			<path class="st4" d="M95.3,21.4c0,0.1,0,0.1-0.1,0.2c-0.1,0-0.2,0-0.2-0.1L95.3,21.4z"/>
		</g>
		<g>
			<path class="st4" d="M92.4,28.2c0.1-0.1,0.2-0.2,0.4-0.2c0,0.1,0.2,0.1,0.1,0.2c-0.1,0.1-0.2,0.2-0.3,0.2
				C92.4,28.4,92.3,28.3,92.4,28.2L92.4,28.2z"/>
		</g>
		<g>
			<path class="st4" d="M92.6,28.3L92.6,28.3c0.1-0.1-0.1,0.2-0.1,0C92.5,28.2,92.6,28.2,92.6,28.3z"/>
		</g>
		<g>
			<path class="st4" d="M97.5,29.6l-0.2,0c0.2,0,0.2-0.1,0.3-0.2c0,0,0-0.1-0.1-0.1c0.1,0,0.2-0.1,0.3-0.1L97.7,29
				c0.5,0,1.1-0.5,1.5,0l0,0.6l0,0c-0.1,0.3-0.3,0.4-0.4,0.6l0,0.1l-0.2-0.1c-0.1,0.1-0.1,0-0.2,0l-0.3,0.2c0-0.1,0-0.1,0.1-0.1
				c-0.1-0.1-0.2,0-0.3,0.1c0-0.1-0.2-0.2-0.4-0.4c0,0.1-0.1,0-0.1,0.1c0.1,0,0.1-0.1,0.2-0.1l0,0l-0.3,0
				C97.2,29.7,97.6,29.8,97.5,29.6z"/>
		</g>
		<g>
			<path class="st4" d="M97.2,24.1c0.1-0.1,0.1-0.1,0-0.2l-0.1,0c-0.1,0,0.1-0.1,0.2,0c0.1-0.1,0-0.2,0.2-0.2
				c0.1-0.1-0.1-0.1-0.1-0.2c0.2-0.1,0.2,0.1,0.4,0c0.1-0.4,0.6,0,0.7-0.2c0,0,0.2-0.1,0.3,0.1c0.1,0,0.1-0.1,0.1-0.1
				c0.2,0,0.3,0.3,0.5,0.3c0.1,0,0.1,0.1,0.3,0.2c0,0,0,0.1,0.1,0.2c-0.2,0.2,0.3,0.2,0,0.3c0,0.1,0.2,0.1,0.2,0.1
				c-0.1,0-0.2,0-0.3,0.1c0.4,0.2-0.2,0.3,0,0.6c-0.1-0.1-0.2,0-0.2,0.1l0,0.1c-0.2-0.1-0.3,0.2-0.4,0.2c-0.1,0.1-0.5-0.2-0.6,0.2
				c-0.1,0.1-0.3-0.4-0.5-0.1L98,25.5c-0.1-0.1,0.2-0.2,0-0.3c-0.2,0-0.1,0.1-0.2,0.2c0,0,0.3-0.4-0.1-0.4l-0.3,0.1
				c0-0.1,0.1-0.2,0.1-0.3c-0.1-0.2-0.3,0.1-0.3,0c0.1-0.1,0.2-0.1,0.1-0.2L97,24.5C97.2,24.5,97,24.2,97.2,24.1z"/>
		</g>
		<g>
			<path class="st4" d="M106,26.6C106,26.5,105.9,26.5,106,26.6c-0.1-0.2,0.1-0.4,0-0.5c0.3-0.1,0.1-0.5,0.5-0.4
				c0.1-0.1,0-0.2,0.2-0.2c0,0,0-0.1,0-0.1c0.4,0,0.7-0.2,1-0.1c0.2,0,0.2,0.2,0.4,0.1l-0.1,0.1c0.1,0.1,0.5,0.1,0.3,0.4l0.1,0.2
				c-0.1,0.1-0.2,0.3-0.2,0.5c-0.1,0.1-0.4,0.1-0.3,0.3c-0.3,0-0.2,0.2-0.3,0.3l-0.1-0.1l-0.1,0.1c0-0.1,0-0.1-0.1-0.1
				c-0.2,0-0.3,0.2-0.4,0.3c0,0,0-0.1,0-0.1c-0.1-0.1-0.2,0.1-0.3,0.1l0-0.1l-0.2,0l0-0.1c-0.1-0.1-0.3,0.1-0.4,0.1
				c0-0.1,0.1-0.2,0-0.2l-0.2-0.1c0,0-0.1,0.1-0.1,0.1l0.1-0.2c-0.2-0.1-0.2,0.2-0.4,0.1C106.1,26.9,105.8,26.8,106,26.6z"/>
		</g>
		<g>
			<path class="st4" d="M101.2,17.5c0,0.1,0.1,0.1,0.1,0.2c-0.1,0.2-0.3,0.1-0.4,0.1C101.1,17.6,101,17.5,101.2,17.5z"/>
		</g>
		<g>
			<path class="st4" d="M101.9,11c0.1,0,0.1,0,0.2,0c0.1,0.1-0.1,0.2-0.2,0.3c-0.2,0,0-0.1-0.2-0.1C101.7,11.1,101.8,11,101.9,11z"
				/>
		</g>
		<g>
			<path class="st4" d="M107.2,23.5c0.1,0,0.2-0.1,0.3,0.1c0,0.1,0,0.2-0.1,0.2l-0.1,0c-0.1-0.1,0.2-0.2,0-0.2l-0.1,0.1
				C107.1,23.6,107.1,23.5,107.2,23.5z"/>
		</g>
		<g>
			<path class="st4" d="M106.6,18.1c0-0.1,0-0.2,0-0.3c0.2-0.2,0.4-0.2,0.7-0.3c0.3,0.1,0.5,0.1,0.5,0.4c0.2,0.1-0.2,0.2,0.1,0.2
				c-0.1,0.1-0.4,0.1-0.2,0.3c0-0.1-0.3,0-0.3,0.1l0,0.1c-0.1,0-0.1-0.1-0.2,0c0,0.2-0.2,0-0.3,0.1c0,0,0-0.1,0-0.1
				c0-0.1-0.1,0-0.2,0l0,0l0.1-0.1l-0.2-0.1l0.1-0.1l-0.1,0L106.6,18.1z"/>
		</g>
		<g>
			<path class="st4" d="M107.6,18.9c0-0.1,0.3-0.1,0.3-0.2c0.1,0,0.1-0.1,0.1-0.1l0-0.1c0.1,0.1,0.1,0,0.2,0c0.1,0,0-0.1,0-0.2
				c0.1,0,0.1,0,0.2,0.1l0.1-0.1c0,0,0.1,0,0.1,0.1c0.2-0.2,0.4,0.1,0.6,0.1c0.2,0,0.1,0.3,0.4,0.3c-0.3,0.3,0.2,0.4,0,0.8
				c0,0-0.1,0-0.1,0c-0.1,0.1,0,0.2,0,0.2c-0.1,0-0.1,0-0.2-0.1c0,0.3-0.4,0.2-0.6,0.3c0-0.1-0.2,0-0.3-0.1l-0.1,0.1l0-0.2
				c-0.1,0-0.2,0-0.2,0.1c-0.1-0.1-0.1-0.4-0.3-0.3c0.1-0.1,0-0.1,0-0.2C107.4,19.5,107.9,19,107.6,18.9z"/>
		</g>
		<g>
			<path class="st4" d="M112.2,20c0.1-0.1-0.1-0.2-0.2-0.2c0.1-0.1,0.1-0.1,0-0.2c-0.1-0.1-0.1,0-0.2,0c0-0.1,0.4,0,0.3-0.2
				l-0.1-0.1l0.2-0.1l-0.2-0.1c0.1,0,0.4-0.1,0.3-0.3l-0.1-0.2c0,0,0.1,0,0.1,0c0.2-0.1-0.1-0.3,0.2-0.3c-0.1-0.2,0-0.5,0-0.6
				c0.1,0,0.1-0.1,0.1-0.2c0.1,0,0.1,0,0.2,0c0-0.2,0.2,0,0.2-0.1c0.1,0,0.3,0.2,0.4,0c-0.1,0.2,0.2,0.2,0.3,0.3
				c0.3-0.1-0.1-0.3,0.1-0.4c0.2,0.1,0,0.4,0.4,0.4l0.1-0.1c0.1,0,0.1,0.3,0.3,0.1l0.2,0.2l0.1-0.1c0,0,0,0.1,0.1,0.1
				c0.1,0,0.1-0.1,0.1-0.1c0,0.1,0.1,0.2,0.2,0.3l0.1-0.1l0.1,0.3c0.3-0.1,0,0.2,0.3,0.2c-0.2,0.2,0.1,0.3,0.2,0.3
				c-0.1,0-0.2,0.1-0.2,0.1c0,0.2,0.2,0.1,0.3,0.1l-0.2,0.1c0,0.1,0,0.2,0.1,0.3l0.1,0c0,0.1-0.3,0.3,0,0.3c0,0-0.1,0-0.1,0.1
				c0,0.1,0.2,0.1,0.2,0.2c0,0-0.4-0.2-0.4,0.1l0.1,0.3l-0.2-0.2c-0.4,0.2,0,0.7-0.5,0.8c0-0.2-0.2-0.2-0.3-0.1
				c-0.2,0.1-0.1,0.3-0.4,0.3c0-0.3-0.5-0.3-0.6-0.1c-0.1,0.1,0,0.2-0.2,0.3c-0.1-0.1,0.1-0.3-0.1-0.4l-0.2,0.1
				c0.1-0.1,0-0.2-0.1-0.3l-0.1,0.1c0-0.1,0.1-0.2,0-0.2l-0.2,0.1c0-0.1,0.1-0.1,0-0.2c-0.1,0-0.2-0.1-0.3,0c-0.1,0,0.1-0.2-0.1-0.2
				l-0.2,0c0.1-0.1,0.2-0.2,0.1-0.3l-0.3,0.1c0-0.1,0.2-0.1,0.1-0.2l-0.3,0C112,20.2,112.2,20.2,112.2,20z"/>
		</g>
		<g>
			<path class="st4" d="M87.4,17.7c0.2,0,0.4-0.2,0.6,0.1c0,0.2,0,0.6-0.3,0.5l-0.1,0.1l-0.3-0.1c0.1-0.2-0.2-0.2-0.1-0.4
				C87.3,17.9,87.5,17.8,87.4,17.7z"/>
		</g>
		<g>
			<path class="st4" d="M88.6,17.9l0.2-0.1L88.6,17.9z"/>
		</g>
		<g>
			<polygon class="st4" points="89.3,17.5 89,17.7 89,17.7 88.9,17.7 88.9,17.7 			"/>
		</g>
		<g>
			<path class="st4" d="M89.6,17.1C89.6,17.1,89.6,17.1,89.6,17.1c0-0.1,0-0.1,0.1-0.1l-0.2,0c0.2-0.1,0.2-0.2,0.3-0.3l0,0
				c0.2-0.3,0.6-0.4,1-0.4c0.2,0.1,0.5,0.3,0.8,0.1c0.1,0.1-0.2,0.1,0,0.2c0.2,0.1,0.3,0.3,0.4,0.4c-0.2,0.2-0.1,0.3-0.2,0.5
				c-0.1,0.1-0.3,0.1-0.2,0.3l-0.1-0.1c-0.1,0.1,0,0.2,0,0.3l-0.2-0.1c-0.1,0.2-0.4,0.2-0.5,0.3c-0.2-0.2-0.4,0.2-0.6,0.3
				c-0.1-0.1,0.2-0.4-0.1-0.5c0,0,0,0.1-0.1,0.1c-0.2-0.1,0.2-0.3-0.1-0.4l-0.4,0.4C89.6,17.7,89.9,17.5,89.6,17.1z"/>
		</g>
		<g>
			<path class="st4" d="M89.4,17.5l0.2-0.1L89.4,17.5z"/>
		</g>
		<g>
			<polygon class="st4" points="91.5,18.5 91.5,18.5 91.4,18.4 			"/>
		</g>
	</g>
</g>
</svg>
