<svg xmlns="http://www.w3.org/2000/svg" viewBox="0 0 255.94 45.81"><defs><style>.cls-1{fill:#14a8a7;}</style></defs><title>アセット 1</title><g id="レイヤー_2" data-name="レイヤー 2"><g id="img_tit_myhistory"><path class="cls-1" d="M39.67,24.28,40,25.37l.12,1.44.88.63.71-.26-.36-1.72c0-.44-.07-.87-.11-1.31l-.11-.09c-.07-.78-.13-1.55-.2-2.33l-.11-.09c0-.13,0-.27.07-.41l-.24-2.75.1-.11-.15-.49,0-.82-.15-.59.08-.32c0-.47-.08-.95-.13-1.43a2.75,2.75,0,0,1,.21-1.24c-.09-.23-.18-.46-.26-.69l-.66-.35-.62.16c-1,2.4-1.87,4.83-2.63,7.27l-.2,0-1-3.17c0-.58-.1-1.15-.16-1.73l-.23-.29-1.48-1a1,1,0,0,0-1.11.41c0,.23.11.46.17.69s0,.21-.08.32l.42,4.46-.1.11c.08.78.15,1.56.22,2.34l-.09.11c.09.94.17,1.88.26,2.82l-.09.11.13.29L33.26,27l.11.09.77.44.5-.15c.11-.42.22-.85.32-1.27-.16-.53-.32-1.06-.47-1.59l-.21-2.21.12-.12c-.11-1.15-.22-2.3-.32-3.45,0-.1.05-.21.07-.31l.31,0a17.54,17.54,0,0,0,2.13,5l.61-.16a53.13,53.13,0,0,1,1.66-6l.21,0,.15.6-.06.51Z"/><path class="cls-1" d="M45.27,27.84l.67-.24q1.76-4.73,3.57-9.45l-.15-.76-.81-.3-.49.22a27.57,27.57,0,0,1-1.35,4.15l-.38-.07-1.85-3.23-.74-.4L43,18.1l3,4.76a39.93,39.93,0,0,1-1.25,4.07A.9.9,0,0,0,45.27,27.84Z"/><path class="cls-1" d="M65.26,24.23,64,24.31l-.54-.39L63,23.64l-.73.25.63,1.4a2.23,2.23,0,0,1,1.47.41l.2-.11.11.1A5.44,5.44,0,0,0,68,24.37a3.26,3.26,0,0,0,1-1.6l-.18-1.31a15.58,15.58,0,0,0-3.44-3.39c-.43-.73-.87-1.45-1.3-2.17l-.06-1,.39-.66L66.24,13l1.27-.07.75.36.63-.34c0-.2-.09-.4-.14-.6a3.27,3.27,0,0,0-1.42-.75l-1.9.11a4.8,4.8,0,0,0-1.85.95,3.18,3.18,0,0,0-1.12,2.1c.15.64.29,1.28.44,1.92a22.91,22.91,0,0,0,4.6,5,1.49,1.49,0,0,1-.23,1.23Z"/><path class="cls-1" d="M78.33,17.83l.81-.45-.24-.72-.85-.36-1.46.37-.74-.16c0-.57-.06-1.15-.08-1.72l.09-.11-.12-.3c0-.91-.09-1.83-.14-2.75.06-.27.12-.55.17-.82s-.09-.53-.14-.8l-.86-.47A.75.75,0,0,0,74,10l.12.3c.07,1.22.13,2.44.19,3.66l.11.1c0,.88.09,1.75.14,2.63l-.1.11-.5.33-1.68.09-.1.1-1,.06-.29.34,0,.41,1.09.85,1.55-.59.93-.05.31,5.89.46.89.31.08,1-.05c-.14-.64-.27-1.27-.41-1.91L76,22.1l-.1-.1.07-.61c0-.34,0-.67,0-1l-.11-.1.09-.31-.09-1.61.29-.42Z"/><path class="cls-1" d="M83.59,16.16a8.92,8.92,0,0,0-2,4.19c0,.82.07,1.63.11,2.45L82.46,24a3.19,3.19,0,0,0,1.7.66,3.91,3.91,0,0,0,2.15-1,5.2,5.2,0,0,0,1.85-3.33,9,9,0,0,0-1.84-4l-1.09-.56A3.28,3.28,0,0,0,83.59,16.16Zm3.06,3.14c0,.41,0,.82,0,1.24l-.09.3A4,4,0,0,1,84.92,23l-.91.45-.53-.18L83,22.11c0-.24,0-.47.07-.71,0-.41,0-.81,0-1.22a17.91,17.91,0,0,1,.87-2l1-1.08.74,0C86,17.83,86.31,18.56,86.65,19.3Z"/><path class="cls-1" d="M95.73,17.23l.32.09.12.5.87.71a1.38,1.38,0,0,0,.61-1.26c-.05-.21-.09-.41-.13-.62l-1.19-.9-1.16,0-1.36,1-.09.32-.93.74h-.21a4,4,0,0,0-.93-2.14,1.17,1.17,0,0,0-.92.24l.84,3.3c0,.44-.1.89-.16,1.34l.12.3c0,.44,0,.89,0,1.34l.1.09c0,.35,0,.69,0,1l.87.8a.64.64,0,0,0,.73-.33l0-1L93,21.66l0-1,.3-.85A8.63,8.63,0,0,1,95.73,17.23Z"/><path class="cls-1" d="M102.11,24.79l.67-.2q2-4.62,4.09-9.23c0-.26-.06-.51-.1-.77l-.79-.35-.5.2a27.05,27.05,0,0,1-1.59,4.07l-.37-.1c-.55-1.11-1.11-2.21-1.66-3.32l-.72-.45-.76.31q1.35,2.44,2.68,4.91-.65,2.05-1.47,4A.89.89,0,0,0,102.11,24.79Z"/><path class="cls-1" d="M111,20.57a3.41,3.41,0,0,0-.6,1.33l.33,1.21.62.29.93-.11a3.54,3.54,0,0,0,1-1.84V21l-.63-.49Z"/><path class="cls-1" d="M132.57,11.2a.88.88,0,0,0-.72-1.2,8.56,8.56,0,0,0-2.49,1.7c0,.1-.07.2-.1.3h-.21l-1.65,1.81h-.29c-.17-.38-.34-.75-.52-1.12a10.76,10.76,0,0,0-2.28-2.89l-.73.2a25.5,25.5,0,0,1,3.33,6.91V18.2l.1.1v2.52l.11.1v1.7l.7.91a1,1,0,0,0,.93-.5l-.21-1v-1.5l-.1-.1c0-.16.07-.32.1-.49s-.06-.47-.1-.7V17l.11-.11-.21-.68v-1A15.49,15.49,0,0,1,132.57,11.2Z"/><path class="cls-1" d="M136.88,23.73a3.82,3.82,0,0,0,2.19-.91,5.14,5.14,0,0,0,2-3.24,9,9,0,0,0-1.63-4.11l-1.05-.62a3.34,3.34,0,0,0-1.66.39,8.86,8.86,0,0,0-2.23,4.08c0,.82,0,1.63,0,2.45l.72,1.22A3.07,3.07,0,0,0,136.88,23.73ZM136,20.44c0-.4,0-.81,0-1.21a16.71,16.71,0,0,1,1-1.94l1-1h.75c.3.76.61,1.51.91,2.26,0,.41,0,.83,0,1.24l-.1.3a4,4,0,0,1-1.8,2l-.93.4-.52-.21-.42-1.14C135.88,20.91,135.92,20.68,136,20.44Z"/><path class="cls-1" d="M149.49,19.44c0-.75,0-1.5,0-2.25l-.63-.84a1.34,1.34,0,0,0-1,.18l.09.63,0,1.64a6.06,6.06,0,0,1-2.05,2.52h-.42c-.09-.34-.19-.68-.29-1l.12-.72c0-.38,0-.76,0-1.14l.21-.4c.15-.75-.05-1.24-.6-1.45l-.95.19L144,18l-.11.1c0,.83,0,1.65,0,2.48.1.41.2.82.29,1.24a2.78,2.78,0,0,0,1.24,1.25l.85-.08,1.91-1.83.31.1A6.69,6.69,0,0,0,150,24.7l.85-.4A14.42,14.42,0,0,1,149.49,19.44Z"/><path class="cls-1" d="M155.77,19.58a8.69,8.69,0,0,1,2.6-2.4l.31.11.09.51.82.75a1.35,1.35,0,0,0,.69-1.21l-.09-.64-1.13-1-1.16,0-1.42.89-.11.33-1,.68h-.2a4,4,0,0,0-.8-2.19,1.2,1.2,0,0,0-.94.18c.22,1.12.43,2.23.64,3.34l-.24,1.33c0,.11.07.21.1.31,0,.45,0,.89,0,1.34l.11.1,0,1,.82.86a.64.64,0,0,0,.75-.29l0-1c-.07-.38-.13-.76-.2-1.14l0-1C155.54,20.12,155.66,19.85,155.77,19.58Z"/><path class="cls-1" d="M175.29,13.36l1.93-1,1.27.06.71.45.66-.28c0-.2-.05-.4-.07-.61a3.24,3.24,0,0,0-1.34-.9l-1.9-.09a4.65,4.65,0,0,0-1.93.74,3.18,3.18,0,0,0-1.34,2c.07.66.15,1.31.22,2a23,23,0,0,0,4.05,5.42,1.52,1.52,0,0,1-.37,1.2L175,23.39l-1.26-.06-.5-.45-.4-.32-.75.17.48,1.46a2.18,2.18,0,0,1,1.41.57l.22-.09.09.11a5.47,5.47,0,0,0,3.39-1,3.15,3.15,0,0,0,1.21-1.48l0-1.32a15.57,15.57,0,0,0-3.06-3.74c-.35-.77-.7-1.54-1.06-2.3,0-.34,0-.68.05-1S175.14,13.56,175.29,13.36Z"/><path class="cls-1" d="M186.19,18.69l.34-.39,2.19.13.85-.35c0-.25-.1-.5-.16-.74l-.8-.46-1.5.22-.71-.25c0-.57.07-1.14.1-1.72l.11-.09-.09-.31c0-.92.11-1.83.16-2.75.08-.27.17-.53.26-.8l-.06-.81-.81-.56a.77.77,0,0,0-.86.36l.09.31c-.07,1.22-.14,2.44-.2,3.66l.09.11c-.05.88-.09,1.75-.14,2.63l-.11.09-.54.28-1.68-.09-.11.09-1-.05-.33.31,0,.4,1,1,1.6-.43.93.06-.33,5.88.36.94.3.12,1,.05c-.06-.64-.13-1.29-.2-1.93,0-.38.05-.76.07-1.14l-.1-.1c.05-.21.09-.41.14-.61l.06-1-.1-.1.12-.3Z"/><path class="cls-1" d="M196.83,17.73l-1-.68a3.34,3.34,0,0,0-1.69.3,8.87,8.87,0,0,0-2.45,3.94c-.05.82-.11,1.63-.16,2.45l.65,1.26a3.15,3.15,0,0,0,1.62.83,3.87,3.87,0,0,0,2.24-.78,5.24,5.24,0,0,0,2.2-3.12A9,9,0,0,0,196.83,17.73Zm-.08,4.3-.12.29a4,4,0,0,1-1.91,1.93l-1,.34-.5-.23-.36-1.16.15-.7c0-.41,0-.81.08-1.22a17.07,17.07,0,0,1,1.08-1.88l1.1-1,.74,0,.78,2.3Z"/><path class="cls-1" d="M203.39,22a8.59,8.59,0,0,1,2.71-2.27l.3.12.06.51.79.8A1.36,1.36,0,0,0,208,20c0-.21,0-.42-.05-.63l-1.09-1-1.16-.09-1.46.83c0,.1-.08.21-.13.31l-1,.64-.21,0a3.94,3.94,0,0,0-.69-2.22,1.17,1.17,0,0,0-.95.13c.17,1.13.33,2.25.49,3.37l-.3,1.32c0,.1.05.21.08.31l-.1,1.33.1.11-.08,1,.78.89A.63.63,0,0,0,203,26c0-.35,0-.69.07-1s-.09-.76-.14-1.14l.08-1Z"/><path class="cls-1" d="M217.36,18.28l-.75-.43-.52.14a26.29,26.29,0,0,1-2,3.87l-.36-.13-1.29-3.48-.67-.52L211,18c.72,1.72,1.43,3.45,2.13,5.17a37.49,37.49,0,0,1-1.89,3.81.9.9,0,0,0,.42,1l.69-.12q2.52-4.38,5.07-8.74C217.37,18.8,217.37,18.54,217.36,18.28Z"/><path class="cls-1" d="M223.09,25.8c0-.13,0-.27,0-.4l-.57-.56-1.65-.15a3.37,3.37,0,0,0-.74,1.25c.07.41.13.83.2,1.24l.59.36.93,0A3.48,3.48,0,0,0,223.09,25.8Z"/><path class="cls-1" d="M230.76,6.09l-.23.15H231C231.11,6.21,231.06,6.1,230.76,6.09Z"/><path class="cls-1" d="M229.3,5.85c.3,0,.51.11.46.16.11,0,.45.09.62,0A2.76,2.76,0,0,0,229,5.84c-.11,0,0-.07,0-.1-.35,0-.77.14-.56.32C228.83,5.93,228.91,6,229.3,5.85Z"/><path class="cls-1" d="M182.19,1.84c-.12,0-.23,0-.2,0S182.18,1.85,182.19,1.84Z"/><path class="cls-1" d="M200,3.05,199.53,3S199.77,3,200,3.05Z"/><path class="cls-1" d="M225,5.75l.27,0H225Z"/><path class="cls-1" d="M208,3.5h.14l.13-.06Z"/><path class="cls-1" d="M213.8,4.14a.56.56,0,0,1,.3-.07s0-.06,0-.11S213.85,4.08,213.8,4.14Z"/><path class="cls-1" d="M33,5.78s0,0,0,0S33,5.79,33,5.78Z"/><path class="cls-1" d="M25.93,5.76H26a.31.31,0,0,0,0-.08Z"/><path class="cls-1" d="M173.29,1.08h0C173.47,1.08,173.38,1.07,173.29,1.08Z"/><path class="cls-1" d="M121.51.21c.59.13-1,.17-.07.3C121.36.46,122.24.29,121.51.21Z"/><path class="cls-1" d="M160.43.74a.37.37,0,0,0-.13-.06A.4.4,0,0,0,160.43.74Z"/><path class="cls-1" d="M155.27.73a1.89,1.89,0,0,0-.36,0l.06,0A.72.72,0,0,1,155.27.73Z"/><path class="cls-1" d="M150,.61l.1,0h.17Z"/><path class="cls-1" d="M48.63,4.28c.09.09-.67.18.25.1A1.06,1.06,0,0,1,48.63,4.28Z"/><path class="cls-1" d="M225,5.67a.23.23,0,0,1-.16,0H225S225,5.69,225,5.67Z"/><path class="cls-1" d="M155,1.84l-.83-.05Z"/><path class="cls-1" d="M151.73,1.75a2.3,2.3,0,0,0-.47-.1s-.07,0-.09,0Z"/><path class="cls-1" d="M26.51,5.66,26,5.75c-.06.24-.41.51.81.55l.82-.22.28.09-.7.07a1.68,1.68,0,0,0,.93-.14.76.76,0,0,0,.37.09l.8-.3c.11.08-.35.21.2.21.38-.14-.39-.17.25-.3.41.07.3.17.76,0,.08.06,0,.11-.21.15a8.23,8.23,0,0,0,1.32-.28c.43.09,1.41-.16,1.39.06a4.61,4.61,0,0,1,1.11-.28c-.68.32,1.44-.12,1.28.18a19.11,19.11,0,0,1,2.79-.48.7.7,0,0,1-.23.06,5.83,5.83,0,0,1,1,0c.05-.2.85-.32,1.28-.47.65.13-.37.26-.15.42,0-.15,1.09-.25.86-.36.5.07.43,0,.69.16.07-.25.45-.08.85-.26.71.06.2.21,1,.07.37.05-.31.19-.31.19.79-.06.35-.21.51-.33.94-.13.45.1.78.17.58-.1,1-.3,1.46-.33,0,0,.12,0,0,.08.61-.2,1.85-.15,2.56-.39l.1,0c-.13-.08-.15-.17-.13-.24.35,0,.65-.17.79-.06a.68.68,0,0,0-.33.11L49.32,4c.35.15-.5.1-.49.23a15.84,15.84,0,0,1,2.11-.31c.13.16-1.29.15-.54.25h-.86c.67.21-.52,0,.1.26,1.13,0,1.26-.18,2.39-.22.24-.11-.1-.13.15-.24,1.59-.29,1.29.33,2.45,0a1.72,1.72,0,0,1,1.24-.3l-.27.21c1.1-.06.61-.32,1.76-.27-.2.09-.85.13-.69.14.75.1.52-.15,1.09-.19,0,.06.09.11.13.16,1.16-.1,2.44-.31,3.72-.42-.06.05-.28.12,0,.15a45.23,45.23,0,0,1,5.05-.19l.59-.18c.14,0,.26,0,.11.09.62,0,0-.09.32-.17s.46.06.25.12a20.08,20.08,0,0,1,4.2-.35l-.22,0c.89,0,1-.35,1.81-.26l-.15,0c1.92,0,4-.28,5.52-.13.26-.22,1.9,0,2-.29a18.56,18.56,0,0,0,2.34.2c.42,0,.61-.22,1.12-.27l0,.16.69-.19.37.17.48-.06c-.19,0-.41-.06-.38-.1a4.77,4.77,0,0,1,1.85.11L89.37,2c0,.07-.33.1-.56.15.94-.2.17.15,1,0-.11,0,.06-.1.08-.13a11,11,0,0,0,2.14,0l-.13.11c1.31,0,2.76-.14,4.24-.19-.53,0-.42-.22,0-.25l.18.16c.28-.11-.45-.05.12-.19s.37.17.06.24l.67-.08c0,.05-.12.08-.16.14.27-.11,1.16.13,1.55-.06l0,.05c1.47,0,2.14-.11,3.34-.15,0-.14.49-.12.84-.24.89,0,1.87.11,2.93.07.75-.08.22-.12.55-.21.06.12,1.12.09.57.19,1.28,0,1.63-.05,3.24-.19-.18,0-.37-.07-.27-.11.29,0,.66,0,.62.1l-.07,0c1.8-.22,4.18.31,5.62,0h-.08l1.49-.16c.69,0-.41.1.1.18,1.61-.23,2.55,0,3.87-.14,1,.37,3.65-.05,5,.19l-.08-.09c.36-.09.43.05.7.07,0-.07-.39-.08-.17-.13,3-.11,6.27.14,9.38.25,1.14,0,.66-.46,2.09-.23l-.41.16c2.3-.18,4.7.06,6.95-.07a.91.91,0,0,1-.36.08,4.14,4.14,0,0,0,1.77-.06c.35,0,.08.09.3.14.47.08,1.19-.13,1.45,0,0,0-.14,0-.23.05.32-.05,1.45,0,1.16-.1.84.08,1.61,0,2.28.07.45-.15,1.45.1,1.59-.11-.06.22,1.48.22,2,.13-.18.06.46.08.25.17.61,0,1.16,0,1.06-.14,1.12.31,2.26-.15,2.89.22,1.81-.07,3.49-.1,5.12-.09-.07.22-1.8,0-1.74.2a33,33,0,0,1,4-.1c.4.05-.22.09-.36.13,1.55,0,3,.13,4.36.06a.84.84,0,0,1-.3,0c.28,0,.63.06.61,0l-.27,0c-.42-.17,1.09-.27,1.14-.35-.47.28,1.35.13.61.47.18,0,.4,0,.36-.12.27,0,.35.08.08.14,1,0,.63-.13,1.51-.09,0,0-.18.06-.28.11a5.48,5.48,0,0,1,1.64-.07s0,.07-.18.06a35.6,35.6,0,0,1,3.58,0c-.43.2.47.1.53.29l.76,0-.3-.11c.66,0,1.25-.07,1.81,0l-.49,0,1.23,0-.69-.1c.67-.07-.06-.24.81-.15a9.31,9.31,0,0,1,1,.17h0a3.68,3.68,0,0,1,1.16,0c.12.06-.12.2,0,.24.33-.14,1.55,0,2-.1-.13,0-.15.13-.1.15l.27-.11c.31.06.35.08.3.16.91.07-.28-.26.8-.09-.09,0,0,0-.23,0,1.09.12,2.12,0,3.12.17.29.2-.88,0-.55.17,1.45.05,3,0,4.41.09l-.26,0c.21-.26,1,.19,1.75.12-.17,0-.23.13-.18.1,1,.11,2,.07,3.42.08l-.18.06c.56.1,1.48.14,2.09.21.19-.05.54,0,.33-.13,1.85.52,3.61.05,5.25.5-.2,0-.48,0-.32,0l1.43,0c-.11-.12-.18-.08-.47-.19a3,3,0,0,1,.94,0c-.65,0,0,.18.26.27,0,0,.06-.07,0-.11.73.26.15-.22,1.15,0l-.06,0a8.82,8.82,0,0,1,1.15,0c.16.15-.41,0-.44.14a7.07,7.07,0,0,1,1.66,0c-.25,0-.6,0-.85,0a3.58,3.58,0,0,0,1,.23h0l1,.15-.24-.06c.75-.29,1.47,0,2.46-.09-1,.13-.17.11-.25.25.24.07.61.15.5.18.47-.08.76.16,1.42,0,0,0,.49,0,.37.16.6,0-.13-.1-.07-.15.93-.09,2.13.38,3.47.28,1.15,0,1.38-.14,2.44-.12.35.11-.31.15-.31.15a6.35,6.35,0,0,0,1.55.14c-.11,0,0,.08.16.15.43,0,.3-.15.87,0a1.66,1.66,0,0,1-.45.15c.52,0,1,0,1.56,0,.14.1-.33.1-.52.13a6.68,6.68,0,0,0,1.75,0l-.38-.08c.22,0,.1.12-.06.13-.52.06-.73-.12-.76-.17h.38c-.36-.33-1.52-.1-2.28-.19l.34-.18-.8.1c-.16-.07-.26-.19.12-.19-.54-.15-.49,0-1-.13,0,0,0,0,0,0h-.54c.11,0-.07-.16.25-.1-.94-.2-1.55,0-1.9-.17h.08c-1.33,0-.14.14-1.15.23l-.64-.43-.14.14c-.14,0-.41-.05-.35-.11-.52.06.08.07-.23.15-.64-.2-1.82-.1-1.95-.35-.24.09.63.14-.08.16-.18-.28-.82,0-1.41-.2.19-.12.76,0,.17-.17-.39.2-1.17-.15-1.69-.14,0,.17-1.11,0-2,0,.05-.06-1.6-.23-2.39-.36l0,0c-.17.18-1,.08-1.59.07,0-.11.15-.15.47-.17l-.56,0a2.06,2.06,0,0,1-.68.06l.16-.13a18.45,18.45,0,0,1-2.47-.12c-.06.13.74.42-.29.43,0-.07-.06-.2.21-.2a2.07,2.07,0,0,1-.49,0l.42-.09c-.44-.08-.24.08-.59,0,0-.09-.25-.08-.19-.16a2.63,2.63,0,0,0,.43,0,3.79,3.79,0,0,1-1-.23c0,.06,0,.13-.3.12-.75,0-.25-.13-.68-.22-.19.06-.66,0-.68.1a.57.57,0,0,1-.33-.13c-.39,0-1.81-.11-1.38.08h0c-1.28.05-2.62-.27-3.88-.29v0c-.75,0-1.67-.07-2.21,0-.22,0-.52-.13-.42-.18a6.15,6.15,0,0,1-1.47-.08c.59,0-.19-.09.6,0a6,6,0,0,0-1.71-.09c.27-.11-.56-.19-.91-.17l.51.12c-.39,0-.74,0-1.1-.07l.21-.16c-1.52-.29-2.77.19-3.91-.22-.41.1.82.13.45.25a16.59,16.59,0,0,1-1.64-.36c-.95-.14-.91.2-1.91.08.13.07.24.23-.51.25s-.85-.3-.41-.32c.17,0,.25,0,.24.05.23,0,.53,0,.26-.1l-.1.05c-.34-.08-1.31-.12-1.08-.21-.53,0-.23.09.16.14-.9-.13-1.41-.07-2.33-.18.15,0,.28.12.13.11-1.35-.14-.6.08-1.52.07-.52-.12.19-.21-.74-.18-.56-.09-.11-.16.12-.2A9.8,9.8,0,0,1,175,1.15l.45,0a5.59,5.59,0,0,1-.71,0l.25.13c-.26,0-.48-.05-.48-.1-.27.07.2.21-.34.29-.34-.07-1.06,0-1.17-.14,1.09.1-.12-.17.81-.15a4,4,0,0,1-.66,0s0,0,.11,0c-1-.19-.49.16-1.57.11.14-.08-.25-.18-.43-.17.44,0,.21.16-.2.21a5,5,0,0,0-1.12,0l.41,0a2.88,2.88,0,0,1-1,.07c0-.07.45,0,.27-.07-.54.14-1.21-.21-2-.13-.35-.07,0-.17-.34-.22-.84.08-.9-.16-1.79-.09.25.12.29.1-.34.19l1.46,0-.94.14c.44,0,.93,0,1.2,0-.45.08-.41,0-.2.16-.59-.2-1.2.06-1.89-.09a2.89,2.89,0,0,1,0-.29c-1-.17-1.87.08-3.22,0l.43.06a6.37,6.37,0,0,1-1.28,0c0-.09-.23-.14-.41-.21,0,.08-1,0-1.13.16l-.6-.15c-1.09-.08-1.26.25-2.31.18.32-.09-.16-.18.55-.23-.35,0-.67,0-.67,0-.21-.07-1,.1-1.3,0a1.09,1.09,0,0,1-.6.12s0,0,0,0-.61.06-.27.17c-1.08-.33-3,0-4-.33-.77,0-1.69,0-2.39,0,0,0,0-.05.13,0-1-.11-.59.27-1.68.15-.56-.17.58-.08.23-.15-.15-.32-1.32,0-2-.18h.17c-.56-.12-1.37.1-2.29.06,0,0,.05,0,0,0a17.49,17.49,0,0,1-2.71.24c.28-.13.4-.07.23-.2-.39,0,.12.21-.67.24-.26-.07-.83-.14-.9-.28H139c-.38-.18-1,0-1.36,0l0-.07c-1.14,0-1.16.21-2.39.18l.13.06c-.68.19-.56-.11-1.24,0l-.2-.2c-.44.05-1.55.19-2.35.22a14.74,14.74,0,0,1,2-.3,9.64,9.64,0,0,0-1.72.1,2.73,2.73,0,0,1,.57,0,7.78,7.78,0,0,1-2.12.22c.15-.38-2.29-.1-2.92-.4-1.55.15-3.08,0-4.88,0,.64.3-.53,0-.42.32a2.47,2.47,0,0,1-.61,0h.08l-.09,0h0L120.17.34c-.3-.08.4-.07.36-.14-.92,0-.39-.12-1-.2.13.11-.32.16-.84.12l.74.14C118.14.43,118.31,0,117,.18l.41-.1a18,18,0,0,0-3.11.28c-.12,0-.27-.11,0-.14-1.59,0-3.54.31-4.78.19l.12-.08a2.48,2.48,0,0,1-.89.08s.12-.08,0-.08a4.94,4.94,0,0,1-1.18.11l.34-.09a26.47,26.47,0,0,0-3.68.33c0-.22-1.22-.26-1.83-.28l0,0c-1.81,0-3.07.26-4.74.39-1-.21-3.52,0-5.19-.07.26,0,0,.18-.33.21s-1.08.19-1,0h.14A4.44,4.44,0,0,0,89.56.8l-.09.26c-1.66-.32-4.3.31-5.21,0-.4.08-.89.1-1.28.18l0-.14c-1.1,0-1.65,0-3,.12l.27-.12c-.76,0-.94.45-1.65.5l-.22-.2a26.74,26.74,0,0,0-4,.2s.05-.09.27-.11c-.63,0-2.44,0-2.2.26,0-.19-1.37.06-2.09.18l.1-.14A4.28,4.28,0,0,1,69,2.15c-.2,0-.18-.1.09-.08-.68,0-.52.16-1.34.14l.3-.11a2.17,2.17,0,0,0-1,.2,3.06,3.06,0,0,1-1.42-.08,1.51,1.51,0,0,1-.87.2c-.06,0,.09-.08.16-.1-1.16,0-1.7.27-2.5.18a.17.17,0,0,0-.14-.08c.91,0,1.65-.09,1.58-.07s-.75-.11-.17-.32a10.8,10.8,0,0,1-2.32.39l-.1,0,.08,0a2.16,2.16,0,0,0-.46.05c-.23,0-.38,0-.6,0a4.19,4.19,0,0,0-1.22,0c0,.14-.45.15,0,.24,0,0,.07,0,.32,0l.16,0h0l.92-.07a2.22,2.22,0,0,1-1,.12l-.5.26c-.52-.16-1.5-.2-1.65-.31A16,16,0,0,0,54,3.16a.68.68,0,0,1-.5-.08A2.89,2.89,0,0,0,54,3a7.93,7.93,0,0,0-2,.36c-.82,0,.44-.2-.67-.09l.15-.07c-2.21-.13-3.52.74-6,.55a.87.87,0,0,1,.29,0c-2.77.06-5.67.62-8.41.6A3.32,3.32,0,0,0,36,4.64l-.18-.14L35,4.75c-1.13.23-2-.19-3.44.18l.19.09c-.52,0-1.64.21-1.56.09a.53.53,0,0,1-.37.09l0-.08-1.27.26c-1,0,.13-.33-1.32-.21-.53.09-1.51.38-1.3.42S26.49,5.58,26.51,5.66ZM62.64,3.1c-.08,0,.29,0,.52.07l-.67,0C62.43,3.16,62.49,3.11,62.64,3.1Zm-1,.17h0l-.38,0Zm-1.86-.8s0,0,0,0a.18.18,0,0,1,.09-.08c.24,0,.33,0,.36,0Z"/><path class="cls-1" d="M59.39,2.62l-.1,0,.15,0,.08-.05Z"/><path class="cls-1" d="M200.19,3.08l.07,0,0,0Z"/><path class="cls-1" d="M84.6,2.32v0l-.13,0Z"/><path class="cls-1" d="M208.73,4.2a.32.32,0,0,0,.11,0Z"/><path class="cls-1" d="M212.42,4.53l.51.09A3.7,3.7,0,0,0,212.42,4.53Z"/><path class="cls-1" d="M215.24,4.83a.14.14,0,0,0,.07-.06h0Z"/><path class="cls-1" d="M170.12,2.17H170C169.76,2.19,169.93,2.19,170.12,2.17Z"/><path class="cls-1" d="M183.57,2.48l-.43,0C183.38,2.55,183.56,2.56,183.57,2.48Z"/><path class="cls-1" d="M155.11,1.84h0Z"/><path class="cls-1" d="M227.65,6l0,0h-.15Z"/><path class="cls-1" d="M227.67,6h0Z"/><path class="cls-1" d="M227.83,6a.86.86,0,0,0,.32,0Z"/><path class="cls-1" d="M223.73,5.63c-.19.06-.83-.2-1.1-.14a6.64,6.64,0,0,0,1.06.18Z"/><path class="cls-1" d="M218.94,4.43c-1.19-.27.24.14-1,0l.95.13C218.72,4.5,218.51,4.41,218.94,4.43Z"/><path class="cls-1" d="M215,4c-.33,0-.41,0,0,.11S215,4,215,4Z"/><path class="cls-1" d="M193.54,2.53l.06-.13C193.2,2.4,193.59,2.45,193.54,2.53Z"/><path class="cls-1" d="M190,2.93h-.57l.38.1Z"/><path class="cls-1" d="M187.2,1.88h0Z"/><path class="cls-1" d="M151,.5l.11.16C151.35.64,151.41.47,151,.5Z"/><path class="cls-1" d="M135.39.44a1.58,1.58,0,0,0-.88-.06C134.86.39,135.21.46,135.39.44Z"/><path class="cls-1" d="M89,.83,88.4.9h.28Z"/><path class="cls-1" d="M227.58,36H228c.11,0,.06-.13-.23-.14Z"/><path class="cls-1" d="M225.57,35.82c.36-.13.43,0,.81-.21.29,0,.5.11.44.16.11,0,.45.08.61,0a2.71,2.71,0,0,0-1.34-.16c-.1,0,0-.08,0-.1C225.77,35.54,225.37,35.65,225.57,35.82Z"/><path class="cls-1" d="M180.63,31.7c-.12,0-.23,0-.2,0S180.62,31.71,180.63,31.7Z"/><path class="cls-1" d="M197.93,32.88l-.46-.09C197.43,32.84,197.7,32.85,197.93,32.88Z"/><path class="cls-1" d="M222.2,35.52a.94.94,0,0,0,.25,0h-.24S222.2,35.51,222.2,35.52Z"/><path class="cls-1" d="M205.65,33.31h.14a.31.31,0,0,0,.13-.06Z"/><path class="cls-1" d="M211.32,33.94a.5.5,0,0,1,.3-.08s0-.06-.05-.1S211.38,33.88,211.32,33.94Z"/><path class="cls-1" d="M35.78,35.56v0S35.73,35.56,35.78,35.56Z"/><path class="cls-1" d="M28.87,35.52l.09,0a.11.11,0,0,0,0-.08Z"/><path class="cls-1" d="M172,31h0C172.15,31,172.07,31,172,31Z"/><path class="cls-1" d="M121.7,30.11c.57.13-.93.17-.07.31C121.55,30.36,122.41,30.19,121.7,30.11Z"/><path class="cls-1" d="M159.49,30.63s0,0-.13-.06Z"/><path class="cls-1" d="M154.48,30.62a1.72,1.72,0,0,0-.34,0l.05,0A.67.67,0,0,1,154.48,30.62Z"/><path class="cls-1" d="M149.4,30.5s.06,0,.09,0h.16Z"/><path class="cls-1" d="M51.16,34.2a.67.67,0,0,1-.24-.11C51,34.18,50.26,34.28,51.16,34.2Z"/><path class="cls-1" d="M222.2,35.44s-.08.05-.16.05h.17S222.24,35.46,222.2,35.44Z"/><path class="cls-1" d="M154.24,31.73l-.8,0Z"/><path class="cls-1" d="M151,31.65a2.12,2.12,0,0,0-.45-.11.25.25,0,0,0-.09,0Z"/><path class="cls-1" d="M61.36,32.46l-.09,0,.14,0,.08,0Z"/><path class="cls-1" d="M198.11,32.91l.07,0h-.07Z"/><path class="cls-1" d="M85.85,32.2v0l-.13,0Z"/><path class="cls-1" d="M206.4,34a.32.32,0,0,0,.11,0Z"/><path class="cls-1" d="M210,34.33l.5.09C210.27,34.37,210.11,34.35,210,34.33Z"/><path class="cls-1" d="M212.73,34.63s.05,0,.06-.06h0Z"/><path class="cls-1" d="M168.91,32.05h-.11C168.55,32.07,168.72,32.07,168.91,32.05Z"/><path class="cls-1" d="M182,32.34l-.42,0C181.78,32.41,182,32.42,182,32.34Z"/><path class="cls-1" d="M154.33,31.73Z"/><path class="cls-1" d="M224.8,35.77h-.15l.13,0A0,0,0,0,1,224.8,35.77Z"/><path class="cls-1" d="M225.26,35.76H225A.81.81,0,0,0,225.26,35.76Z"/><path class="cls-1" d="M221,35.41c-.18.05-.81-.2-1.07-.14a6.5,6.5,0,0,0,1,.17Z"/><path class="cls-1" d="M216.32,34.22c-1.15-.27.23.14-1,0l.92.12C216.11,34.28,215.9,34.19,216.32,34.22Z"/><path class="cls-1" d="M212.47,33.91c.5,0,0-.08,0-.11C212.18,33.82,212.1,33.83,212.47,33.91Z"/><path class="cls-1" d="M191.71,32.25c-.39,0,0,0-.06.12Z"/><path class="cls-1" d="M188,32.89l.18-.11h-.55Z"/><path class="cls-1" d="M185.33,31.74h0Z"/><path class="cls-1" d="M150.3,30.4l.12.16C150.68,30.54,150.74,30.36,150.3,30.4Z"/><path class="cls-1" d="M135.18,30.34a1.51,1.51,0,0,0-.86-.06C134.66,30.29,135,30.36,135.18,30.34Z"/><path class="cls-1" d="M89.81,30.78l.3-.07-.57.07Z"/><path class="cls-1" d="M225.57,34.76l0,.19.18-.14C225.76,34.75,225.69,34.68,225.57,34.76Z"/><path class="cls-1" d="M224.64,35.4c.08-.21.15-.17.23-.42.13-.08.26-.06.26,0s.22-.06.25-.19a.72.72,0,0,0-.63.27c-.07,0,0-.07,0-.1C224.59,35.1,224.47,35.31,224.64,35.4Z"/><path class="cls-1" d="M223.09,41.79c.06,0,.11,0,.1,0S223.09,41.77,223.09,41.79Z"/><path class="cls-1" d="M214.17,40.9c.11,0-.09,0-.21-.07Z"/><path class="cls-1" d="M223.1,36.16l.1-.09-.1.06Z"/><path class="cls-1" d="M215,39.16l.09,0a.32.32,0,0,0,0-.09Z"/><path class="cls-1" d="M229.33,23h0s0-.05,0-.08Z"/><path class="cls-1" d="M227.4,42.54h0C227.31,42.54,227.35,42.54,227.4,42.54Z"/><path class="cls-1" d="M251,43.32c.07.2-.11,0-.24-.07s-.25-.18-.15.07C250.66,43.24,251.3,43.79,251,43.32Z"/><path class="cls-1" d="M236.37,43.2l0,0a.18.18,0,0,1-.14,0A.29.29,0,0,0,236.37,43.2Z"/><path class="cls-1" d="M238.74,43.45l0,0h-.08Z"/><path class="cls-1" d="M240.55,24.67c0,.11-.35.1.11.14A.29.29,0,0,1,240.55,24.67Z"/><path class="cls-1" d="M223,36.18l.08,0s0,0,0,0S223.05,36.15,223,36.18Z"/><path class="cls-1" d="M238,42.25a.67.67,0,0,0,.21.13l.06,0Z"/><path class="cls-1" d="M254.21,25.27a.79.79,0,0,1,.39-.06c-.5-.07-2.14-.41-2-.1,0,0-.06-.08-.18-.1a.8.8,0,0,0-.28,0c-.22,0-.48,0-.67.05l.08-.13a1.26,1.26,0,0,1-.77.18c-.1,0-.07-.12.05-.07-.32-.11-.27.1-.67,0l.16-.07a.64.64,0,0,0-.52.08c-.22,0-.64-.11-.68-.24a.46.46,0,0,1-.45.09c0-.05.05-.08.09-.09-.56-.16-.87.06-1.25-.12a.11.11,0,0,0,0-.09,6.47,6.47,0,0,1,.78.12c0-.13-.35-.2,0-.34a3,3,0,0,1-1.19.11l0-.05h0a.55.55,0,0,0-.22,0l-.3-.07c0-.11-.41-.11-.6-.13,0,.14-.23.09,0,.23,0,0,0,0,.16,0h.06l.46.05a.61.61,0,0,1-.51,0,2.59,2.59,0,0,1-.28.2c-.23-.23-.7-.39-.75-.52a4.4,4.4,0,0,0-1.71.13c-.16,0-.17-.1-.23-.15a.88.88,0,0,0,.26,0c-.33,0-1-.08-1,.09-.4-.12.24-.14-.31-.17l.08-.05c-1.06-.41-1.82.27-3-.24.08,0,.12.05.13.08-1.35-.31-2.84-.15-4.17-.55-.38-.1-.43,0-.67.08l-.07-.16-.42.13c-.58.07-.95-.47-1.7-.3l.09.11c-.26-.05-.83,0-.77-.14a.15.15,0,0,1-.2,0v-.07l-.65.07c-.48-.11.11-.31-.61-.4-.27,0-.78.16-.69.22s.28.07.28.15l-.25,0c-.07.23-.28.45.3.67l.43-.1.13.12-.35,0c.18.12.32,0,.47,0a.28.28,0,0,0,.16.14l.43-.18c.05.1-.2.16.07.24.21-.08-.16-.22.16-.25.19.12.13.2.37.13,0,.07,0,.1-.12.12.21-.05.55,0,.67-.09.2.15.71,0,.67.26a1.38,1.38,0,0,1,.58-.13c-.38.23.72.09.59.37.29-.21.95,0,1.43-.09,0,0-.09.05-.12,0a2.07,2.07,0,0,1,.48.19c.06-.19.46-.19.69-.29.3.22-.21.21-.13.4,0-.16.56-.1.47-.24.23.14.2.08.31.25.07-.24.23,0,.45-.14.34.15.06.23.46.2.17.1-.18.14-.18.14.39.05.2-.16.3-.25.47,0,.2.16.35.27a5.5,5.5,0,0,1,.76-.13s0,.05,0,.08c.32-.11.92.09,1.3-.05l0,.05a.35.35,0,0,1,0-.26c.18,0,.34-.08.4.05-.11,0-.13,0-.18.06l.19,0c.15.19-.26,0-.27.16a3.92,3.92,0,0,1,1.07,0c0,.17-.65,0-.3.17l-.42-.11c.29.31-.26,0,0,.27.55.12.64,0,1.19.1.14-.08,0-.14.11-.22.81-.08.58.49,1.19.33.16-.09.25-.3.65-.14l-.16.18c.54.08.34-.24.89-.05-.11.07-.43,0-.35.05.35.19.27-.08.55-.05l0,.18c.58,0,1.23,0,1.88,0,0,0-.16.08,0,.15a10.9,10.9,0,0,1,2.49.42l.32-.11c.06,0,.12.08,0,.1.29.09,0-.09.18-.13s.22.11.1.14a5.32,5.32,0,0,1,2.1.14l-.11,0c.11,0,.2,0,.2,0l.11-.08c.08-.06.21-.1.25,0l-.06,0a5.06,5.06,0,0,0,.6.09,1.56,1.56,0,0,1-.68.34c.11.05,0,.11-.08.15s-.34.24-.26.37a4.6,4.6,0,0,0-1.11.46c-.17.12-.12.33-.3.51l-.1-.12-.17.34-.26,0-.16.18c.07-.05.2-.07.21,0a1.25,1.25,0,0,1-.83.41c-.21.21-.41.43-.61.64,0-.07.08-.17.14-.27-.27.41-.17-.08-.42.32.06,0,0,.09,0,.12a2.15,2.15,0,0,0-.85.75l0-.13A7,7,0,0,0,246.5,32c.17-.23.31-.08.23.12h-.19c0,.18.16-.18.14.14s-.26.1-.23-.08a2.3,2.3,0,0,0-.1.35s0-.09-.09-.13c0,.17-.39.52-.28.78h0a7.12,7.12,0,0,0-.27,1.76c.14,0,.09.27.19.46a5.12,5.12,0,0,0,0,1.53c.14.37.14.09.26.24-.12.06,0,.6-.14.34a4.86,4.86,0,0,0,.68,1.55c0-.1,0-.21.06-.18s.09.34,0,.35l0,0c.57.75.91,2,1.55,2.4l0,0c.19.16.38.32.56.49s-.2-.1-.11.14a2.76,2.76,0,0,1,.69.74c.08.12.16.24.25.35a.33.33,0,0,0,.14.09c-.21.11-.15.09,0,.23,0,0-.12,0-.25-.11l.11.11c.05.09-.1-.07-.12-.09s.1.09.11.14a9.42,9.42,0,0,1-1.69-.24c-.77-.15-1.53-.32-2.28-.45-.56-.09-.37.42-1.05.13l.22-.14c-1.14.07-2.29-.27-3.4-.23.07,0,.07-.08.18-.07-.22-.14-.86-.1-.87,0-.17,0,0-.1-.13-.16s-.6.09-.71,0,.07,0,.11,0c-.15,0-.7-.09-.57.06-.41-.11-.79,0-1.12-.14-.23.13-.69-.16-.78,0,0-.22-.71-.26-1-.18.1-.06-.22-.09-.1-.18-.3,0-.58,0-.54.11-.52-.33-1.12.1-1.39-.28-.9,0-1.72,0-2.52,0,0-.22.88.07.87-.17a9.2,9.2,0,0,1-2,0c-.19,0,.12-.09.19-.12-.77,0-1.46-.17-2.14-.11,0,0,.08,0,.15-.05-.13,0-.3-.06-.3,0l.13,0c.2.17-.55.26-.58.34.25-.27-.66-.14-.27-.48-.08,0-.2,0-.18.12-.13,0-.17-.08,0-.14-.48,0-.32.13-.75.09,0-.05.09-.06.15-.12a1.41,1.41,0,0,1-.82.08s0-.07.1-.06a9.42,9.42,0,0,1-1.76,0c.22-.19-.22-.09-.24-.28l-.38,0,.14.1a4.38,4.38,0,0,1-.89,0l.25,0-.61,0,.34.11c-.34.06,0,.23-.41.14.09,0-.32,0-.48-.16h0a1,1,0,0,1-.57,0c0-.07.07-.2,0-.25-.18.14-.76,0-1,.12a.12.12,0,0,0,.06-.15l-.15.11c-.14,0-.16-.07-.13-.15-.44-.06.12.25-.4.1,0,0,0,0,.11,0-.53-.1-1,0-1.52-.12-.13-.2.43,0,.28-.18-.71,0-1.48.09-2.17,0l.13,0c-.12.25-.5-.18-.85-.08.08,0,.12-.14.09-.11a2,2,0,0,0-.35,0,1,1,0,0,0-.25,0l-.74.06.17-.06c-.07-.06-.39-.06-.48-.1a2.63,2.63,0,0,0-.56.1c.1-.07.12-.1.06-.12.28-.11.24-.16.35-.26a1.24,1.24,0,0,1,.73-.28c-.06,0,0,.08,0,.06l.29-.21c-.13-.06-.11,0-.31,0,0-.07.11-.19.27-.26-.22.18.13.14.23.16s0-.07,0-.1c.42,0-.05-.24.46-.33v.07a2.21,2.21,0,0,1,.47-.33c.13.08-.16.14-.12.25.25-.13.39-.48.68-.47-.09.09-.25.16-.34.25a.88.88,0,0,0,.53-.1h0l.46-.15-.13,0c.17-.47.62-.37.95-.78-.32.39,0,.14,0,.3.13,0,.32-.06.29,0,.15-.2.38-.07.59-.37,0,0,.22-.1.23,0,.24-.16-.1,0-.11-.11.34-.34,1-.28,1.53-.76.47-.33.49-.52.92-.82.2,0-.05.22-.05.22a1.52,1.52,0,0,0,.69-.32c0,.06,0,.07.14.08s.05-.22.33-.27a.75.75,0,0,1-.1.27c.19-.14.37-.31.56-.46h.07c0,.07-.12.17-.17.24l.35-.23h.26a2.65,2.65,0,0,0,.89-.08l-.36-.08c.21,0,.09.13-.06.13a1,1,0,0,1-.61-.07l.11-.09h.13l-.09,0a.18.18,0,0,0,.06-.1l-.19,0a17.62,17.62,0,0,0-2-.07l.32-.18-.77.1c-.16-.07-.26-.19.11-.19-.52-.15-.47,0-.92-.12-.05,0,0,0,0,0h-.53c.11,0-.07-.15.24-.09-.91-.21-1.51,0-1.84-.17h.08c-1.3,0-.14.14-1.13.24l-.61-.44-.14.14c-.14,0-.4,0-.34-.1-.51.06.07.07-.22.14-.63-.19-1.77-.09-1.89-.34-.24.09.6.14-.09.16-.17-.28-.79,0-1.37-.19.19-.12.74,0,.16-.17-.37.19-1.13-.15-1.63-.15,0,.18-1.08,0-1.91,0,.06-.05-1.55-.22-2.32-.35l0,0c-.16.17-1,.08-1.54.07,0-.11.14-.14.46-.17l-.55,0a1.72,1.72,0,0,1-.66.06l.15-.12a19.06,19.06,0,0,1-2.39-.12c-.07.13.71.42-.28.43,0-.07-.06-.2.2-.21a1.46,1.46,0,0,1-.47,0l.4-.09c-.42-.08-.23.08-.57,0,0-.1-.24-.09-.19-.17a2.52,2.52,0,0,0,.43,0,3.61,3.61,0,0,1-1-.23c0,.06,0,.13-.29.13-.73-.05-.24-.14-.66-.22-.18.05-.64,0-.66.1a.53.53,0,0,1-.33-.14c-.38,0-1.75-.1-1.34.09h0c-1.24.07-2.55-.25-3.77-.27v0c-.73,0-1.62-.07-2.15,0-.21,0-.5-.12-.41-.18a5.21,5.21,0,0,1-1.42-.07c.57-.06-.19-.09.58,0a5.11,5.11,0,0,0-1.67-.09c.28-.11-.53-.19-.88-.18l.5.12c-.38,0-.72,0-1.06-.06l.19-.16c-1.47-.29-2.69.19-3.8-.21-.39.09.8.12.45.24a16.14,16.14,0,0,1-1.59-.35c-.93-.14-.89.2-1.86.08.12.07.23.23-.5.25s-.83-.29-.39-.32c.16,0,.24,0,.23.05.22,0,.51,0,.25-.1l-.1,0c-.33-.08-1.27-.12-1-.2-.52,0-.23.08.15.13-.87-.13-1.37-.07-2.26-.17.14,0,.27.11.12.11-1.31-.14-.58.08-1.48.06-.5-.11.19-.2-.71-.17-.55-.09-.11-.16.11-.2a9.31,9.31,0,0,1-2-.19l.44,0a5.29,5.29,0,0,1-.69,0l.24.13c-.25,0-.46-.05-.46-.09-.26.06.19.2-.33.28-.34-.07-1,0-1.14-.14,1.06.1-.11-.16.79-.15a3.71,3.71,0,0,1-.64,0s0,0,.11,0c-1-.18-.48.16-1.54.11.14-.08-.23-.18-.41-.16.43,0,.2.15-.19.2a6.27,6.27,0,0,0-1.09,0l.4,0a2.74,2.74,0,0,1-.95.07c0-.07.43,0,.26-.07-.53.14-1.18-.21-1.91-.13-.34-.07,0-.17-.32-.22-.82.08-.88-.16-1.75-.09.25.13.29.1-.32.19l1.42,0-.92.14c.43,0,.91,0,1.16,0-.43.08-.39.05-.19.16-.57-.2-1.16.06-1.83-.08l0-.3c-1-.17-1.81.09-3.12,0l.42.07a6.08,6.08,0,0,1-1.25,0c.05-.1-.22-.14-.4-.21,0,.08-1,0-1.09.16l-.58-.15c-1.07-.08-1.23.25-2.25.18.31-.09-.15-.18.54-.23-.35,0-.65,0-.66,0-.2-.07-.95.1-1.26,0a1.12,1.12,0,0,1-.58.13s0-.05,0-.05-.6.05-.27.17c-1-.34-2.94-.05-3.85-.34-.75,0-1.64,0-2.32,0,0,0,0,0,.13,0-.93-.11-.58.28-1.64.15-.54-.17.57-.07.23-.14-.14-.33-1.28,0-2-.18h.18c-.55-.12-1.34.1-2.23.06,0,0,0,0,0,0a16.3,16.3,0,0,1-2.63.24c.27-.13.39-.07.23-.2-.38,0,.11.21-.66.24-.24-.07-.8-.14-.87-.28h.72c-.36-.18-.93,0-1.32,0l.05-.07c-1.11,0-1.13.21-2.32.19l.12.06c-.65.19-.54-.12-1.2,0l-.19-.2c-.43.05-1.51.19-2.28.22a18.09,18.09,0,0,1,1.9-.3,8.33,8.33,0,0,0-1.68.11,2.15,2.15,0,0,1,.56,0,7.31,7.31,0,0,1-2.06.22c.15-.38-2.22-.1-2.84-.39-1.5.14-3-.06-4.74,0,.63.3-.51,0-.4.32a2.4,2.4,0,0,1-.6,0h0l-1.24-.18c-.29-.08.39-.07.35-.14-.89,0-.37-.12-1-.2.12.11-.31.16-.82.12l.72.14c-1.25.17-1.08-.25-2.34-.08l.4-.1a17,17,0,0,0-3,.28c-.11,0-.26-.11,0-.14-1.55,0-3.44.31-4.64.18l.12-.07a2.6,2.6,0,0,1-.86.08s.11-.08,0-.08a5.42,5.42,0,0,1-1.15.11l.33-.09a25.11,25.11,0,0,0-3.58.33c0-.22-1.18-.27-1.78-.29l0,0c-1.75,0-3,.26-4.6.39-1-.21-3.42,0-5-.07.25,0,0,.17-.32.2s-1,.19-1,0h.13a4.13,4.13,0,0,0-1.68-.09l-.09.27c-1.62-.33-4.18.3-5.06,0-.39.09-.86.1-1.24.19V31c-1.07,0-1.6,0-2.92.11l.27-.12c-.75,0-.92.45-1.61.49l-.22-.2a26.55,26.55,0,0,0-3.89.21s.06-.1.27-.12c-.62,0-2.38,0-2.14.26,0-.19-1.34.05-2,.18l.1-.15A4.3,4.3,0,0,1,70.7,32c-.2,0-.18-.1.08-.08-.65,0-.5.16-1.29.13l.29-.11a2.12,2.12,0,0,0-1,.2,2.88,2.88,0,0,1-1.38-.08,1.54,1.54,0,0,1-.85.2c0-.05.09-.09.16-.11-1.13,0-1.66.27-2.44.18a.17.17,0,0,0-.13-.07c.89-.06,1.61-.09,1.54-.08s-.73-.1-.17-.32a9.6,9.6,0,0,1-2.25.39l-.1,0,.08,0a2.06,2.06,0,0,0-.45,0h-.58a4,4,0,0,0-1.19,0c0,.14-.43.15,0,.23-.06,0,.06,0,.3,0a.49.49,0,0,0,.15,0l0,0,.89-.07a2.09,2.09,0,0,1-1,.12l-.49.26c-.5-.17-1.45-.21-1.59-.32a15.88,15.88,0,0,0-3.25.54.64.64,0,0,1-.48-.08,4.71,4.71,0,0,0,.48-.09,8,8,0,0,0-2,.35c-.79,0,.42-.2-.65-.09L53.6,33c-2.14-.13-3.41.73-5.79.54.16,0,.25,0,.28,0-2.69.05-5.51.61-8.17.58a3.12,3.12,0,0,0-1.28.26l-.18-.13-.76.24c-1.1.23-2-.19-3.35.18l.19.08c-.5,0-1.59.21-1.52.09a.45.45,0,0,1-.35.08l0-.07-1.1.22a.61.61,0,0,0-.34,0l.07.06c-.38,0-.3-.1-.35-.16.12,0,.21-.08.2-.2-.23.07-.24,0-.49.07s-.2-.17-.15-.21-.19-.14-.3-.08a.68.68,0,0,0,.59.34v0a3.5,3.5,0,0,0-.64,0c-.52.09-1.46.38-1.26.41s.54,0,.56.08L29,35.5c-.06.24-.41.52.78.56l.8-.22.28.09-.69.07a1.61,1.61,0,0,0,.91-.14.54.54,0,0,0,.35.09l.76-.29h0c0,.08-.32.2.19.2.14,0,.12-.09.07-.12l.12,0-.24.11.42,0c0,.08,0,.21-.13.15.19.22.24,0,.39.26,0,0,0,0,0,0l.26.07c-.07,0,0,.15-.16.05.36.32.75.21.83.44h0c.62.24.13-.11.65,0l.12.49.13-.11s.17.11.12.15c.27,0,0-.08.17-.1.22.28.82.36.77.61.16-.05-.23-.23.11-.14,0,.28.38.15.59.39-.14.08-.36-.12-.15.13.26-.12.49.31.73.38,0,0,.1,0,.18,0a.19.19,0,0,1-.18,0,.3.3,0,0,0,0,.1c.06,0,.15-.07.2-.11s.46.23.74.33a8.08,8.08,0,0,0,1,.68l0,0c.14-.13.52.1.75.17-.09.08-.11.12-.27.09l.17.08a.4.4,0,0,1,.28,0l-.18.06c.14.06.64.14.72.28s.31,0,.46,0a1.48,1.48,0,0,1,.72.11,2.64,2.64,0,0,1-.63-.06c.05,0,.27.06.26.09l-.44-.08c0,.07.32,0,.43.11-.27,0-.1,0-.34,0-.05,0,0,0-.13-.06.08.06.05.1-.15.09a3,3,0,0,1,.55.09c.24.1-.28,0-.4,0h0c.18,0,.13,0,.12,0s0,0,.28.07a2.58,2.58,0,0,1-.46-.07c.11.06-.44.06.07.18h0c-.06.08-.41.09-.7.08a2.65,2.65,0,0,0-.76,0v-.05a5.7,5.7,0,0,0-1.07.23c-.1,0-.26-.07-.22-.13a1.52,1.52,0,0,1-.72.08c.28-.11-.1-.07.29-.09a1.37,1.37,0,0,0-.84.09c.12-.14-.29-.14-.46-.08l.26.06a2.49,2.49,0,0,1-.53,0l.07-.17c-.76-.14-1.31.46-1.91.18-.19.13.41,0,.25.2a4.14,4.14,0,0,1-.83-.19c-.48-.05-.42.28-.92.27.07.05.15.2-.22.29s-.44-.2-.23-.27.12,0,.12,0,.25-.07.11-.12l0,.06c-.17,0-.65,0-.54-.1-.26.08-.11.11.09.12-.45,0-.69.07-1.15.05.08,0,.15.09.08.1-.67,0-.28.14-.73.21-.27-.07.07-.23-.38-.11-.28,0-.07-.15,0-.21a2.14,2.14,0,0,1-1,0l.21-.07a1.52,1.52,0,0,1-.34.06l.13.11c-.13,0-.23,0-.24-.05s.12.19-.13.32c-.18,0-.51.11-.59,0,.55,0-.07-.15.38-.22a.79.79,0,0,1-.32,0s0,0,.05-.05c-.53-.08-.22.2-.75.25.06-.09-.14-.15-.23-.12.22,0,.12.13-.07.22-.35,0-.37.09-.54.1h.2c-.06.1-.23.1-.46.16,0-.07.21-.07.12-.1-.25.19-.61-.1-1,0-.18,0,0-.17-.19-.19-.4.15-.46-.08-.88.06.14.11.16.08-.14.22l.71-.15c-.15.07-.3.14-.44.22.21,0,.44-.12.57-.12-.2.12-.18.09-.07.18-.31-.15-.57.16-.93.08,0-.1,0-.2,0-.3-.52-.08-.89.25-1.56.24l.22,0c-.08.13-.41.06-.62.13,0-.1-.13-.12-.22-.17s-.49,0-.53.25l-.31-.1c-.54,0-.58.34-1.1.37.14-.13-.1-.17.24-.28-.17,0-.33,0-.33.08s-.46.18-.63.11S19,43,18.82,43c0,0,0,0,0,0s-.3.1-.12.19c-.56-.25-1.47.18-2,0-.37.08-.82.16-1.15.21,0,0,0,0,.06,0-.48,0-.26.31-.81.27-.29-.12.28-.12.1-.16-.11-.31-.64.12-1,0l.09,0c-.29-.07-.66.2-1.11.23a0,0,0,0,0,0-.05,4.08,4.08,0,0,1-1.29.42c.12-.14.19-.09.1-.21-.2,0,.08.2-.31.28-.13,0-.41-.08-.47-.21l.37,0c-.21-.16-.47.06-.67,0v-.08c-.55.09-.54.29-1.14.35l.07,0c-.3.23-.29-.08-.6.1L8.83,44a10,10,0,0,1-1.12.36,4.58,4.58,0,0,1,.92-.42,2.34,2.34,0,0,0-.83.22.58.58,0,0,1,.28-.07,2.11,2.11,0,0,1-1,.35c.08-.4-1.3.06-1.12-.26a.61.61,0,0,1-.47.06A1.41,1.41,0,0,0,5.73,44c-.54.21,0-.06-.4,0,0-.1.09-.14.12-.15h0l.21-.12a.8.8,0,0,0,.21-.12c.17-.07-.08.21,0,.19.25-.28.21-.05.45-.22-.13,0,0-.22.16-.4l-.33.2c.26-.59.54-.27.8-.87l0,.22c.15-.29.74-1,.75-1.35.06,0,.18,0,.1.1a5.92,5.92,0,0,0,.7-1.08,6.13,6.13,0,0,1,.58-1l0,.09c.05-.15,0-.3.13-.45,0,0,0,.08.08,0a1.9,1.9,0,0,1,.13-.62l0,.2c.37-.76.13-1.28.16-1.93.22,0,.33-.63.34-.95h0a5.11,5.11,0,0,0-.76-2.39A5.5,5.5,0,0,0,8,30.86c.06.13-.15.1-.27,0s-.5-.31-.34-.42l0,0c0-.24-.35-.5-.6-.71L6.66,30c-.4-.8-1.77-1.19-1.91-1.73-.19-.06-.39-.21-.58-.28l.1-.1a9.77,9.77,0,0,0-1.16-.91.4.4,0,0,1,.16,0,.2.2,0,0,0-.11-.06l0,0A.42.42,0,0,1,3,27a.49.49,0,0,1-.38,0l.25-.08c-.11-.08-.08-.13-.1-.17s.09,0,0-.09.14.08.13.09.29.1.17-.17c.06.08,0,.1.28,0A6.63,6.63,0,0,0,4,26.34l0,.14a1.37,1.37,0,0,1,.71-.36c.1,0,.1.1,0,.08.34,0,.24-.16.66-.14l-.14.11a.66.66,0,0,0,.49-.2c.21-.08.65,0,.72.07a.48.48,0,0,1,.42-.19s0,.08-.07.1c.58,0,.83-.26,1.24-.17a.11.11,0,0,0,.08.07,6.34,6.34,0,0,1-.79.07c0,.13.38.11.11.32a2.91,2.91,0,0,1,1.13-.38l.06,0,0,0a.51.51,0,0,0,.22-.05H9c.05.1.43,0,.61,0,0-.13.21-.14,0-.23,0,0,0,0-.15,0s-.06,0-.08,0v0l-.45.06a.61.61,0,0,1,.49-.11l.23-.25c.28.16.77.21.86.32a4.41,4.41,0,0,0,1.63-.5c.16-.05.2.05.26.09-.09,0-.2,0-.24.08.31-.1.94-.13,1-.32.42,0-.2.19.35.1l-.07.06c1.12.18,1.71-.66,3-.42-.08,0-.13,0-.15-.05,1.4,0,2.82-.46,4.21-.34.39,0,.42-.11.64-.23l.1.15.39-.22c.56-.19,1,.26,1.72-.05l-.1-.09c.26,0,.82-.15.79,0a.14.14,0,0,1,.18-.08v.08l.63-.2c.5,0-.05.32.67.26.27-.05.75-.3.64-.34s-.28,0-.3-.1l.24-.07c0-.24.19-.49-.43-.59l-.41.18-.14-.1.35,0c-.21-.09-.33,0-.46.1a.3.3,0,0,0-.19-.11l-.39.27c-.06-.09.16-.2-.12-.22s.21.18-.1.28c-.22-.08-.17-.18-.39-.06,0-.06,0-.1.09-.14-.2.1-.55.09-.64.22-.23-.1-.71.11-.71-.11a1.44,1.44,0,0,1-.54.24c.32-.3-.73.06-.66-.23-.24.26-.94.2-1.38.38,0,0,.07-.06.11,0a2,2,0,0,1-.52-.09c0,.2-.41.29-.61.43-.34-.15.16-.25,0-.42,0,.16-.53.22-.41.34-.26-.09-.21,0-.36-.18,0,.25-.22.07-.41.24-.36-.08-.11-.22-.49-.1-.19-.06.14-.18.14-.18-.39,0-.16.2-.24.31-.46.1-.23-.11-.4-.19-.29.08-.49.28-.71.29,0,0-.07,0,0-.07-.3.18-.92.11-1.26.33a.15.15,0,0,1-.06,0,.38.38,0,0,1,.09.24c-.18,0-.32.16-.4,0,.11,0,.11-.05.16-.1l-.18.08c-.18-.16.25-.09.23-.22a3.9,3.9,0,0,1-1,.27c-.07-.16.64-.13.26-.24l.43,0c-.35-.23.26,0-.07-.26-.57,0-.62.15-1.19.17-.11.11.06.13,0,.24-.78.26-.68-.35-1.24-.06-.14.13-.18.35-.61.28l.12-.2c-.54,0-.28.31-.86.24.09-.08.42-.11.33-.12-.38-.11-.25.14-.53.17l-.08-.16c-.58.09-1.2.29-1.84.4,0-.06.13-.12,0-.16A11.39,11.39,0,0,1,5.73,25l-.28.18c-.07,0-.14-.05-.07-.09-.31,0,0,.1-.14.17s-.24-.05-.13-.11a5.47,5.47,0,0,1-2.1.37l.12-.06a1.4,1.4,0,0,0-.39.07,1.42,1.42,0,0,0-.27.12.84.84,0,0,1-.63.13l.09,0c-.65.05-1.31.14-1.93.22a11.19,11.19,0,0,1,1.68,1.45,2,2,0,0,1,.74.47c.17.15.34.28.46.18a4.22,4.22,0,0,0,.73.94c.15.13.35,0,.57.17l-.09.12.38.08,0,.26.22.11c-.07-.06-.12-.17-.08-.2.34.17.65.63.61.7l.77.43s-.18,0-.3-.07c.47.16,0,.18.39.32,0-.06.08-.05.11-.07a3.3,3.3,0,0,0,.67.7l-.12,0A7,7,0,0,1,7.9,33.07c-.06-.23.12-.27.23-.1L8,33.11c.15.07,0-.21.19,0s-.1.23-.21.13a2.27,2.27,0,0,1,.18.25s-.08,0-.15,0c.14.08,0,.54.25.64l0,0a7,7,0,0,1,.33,1.44c.15,0,.13.21.25.37,0,.41-.18.84-.25,1.31s.1.12.14.28c-.13,0-.22.47-.26.21-.14.55-.18.7-.41,1.41.09,0,.15-.12.17-.05s-.2.24-.24.19v0c-.21.83-1.44,1.36-1.66,2.09l0,0L6,42c-.22.25,0-.22-.17-.07a3.3,3.3,0,0,1-.55.84c-.1.11-.19.21-.29.34a5.47,5.47,0,0,0-.44.63A9.35,9.35,0,0,0,2.7,45.81a8.48,8.48,0,0,1,1.72-.14l0-.09c.4-.14.33,0,.57,0,0-.07-.29,0,0-.12a19.54,19.54,0,0,1,2.83-.31c.77,0,1.55,0,2.32-.1.56,0,.26-.5,1-.37l-.18.19c1.1-.33,2.29-.26,3.37-.56-.06,0-.06.1-.16.11.24.09.85-.09.85-.19.17,0,0,.08.16.12s.57-.22.7-.11-.06,0-.1.06c.15-.08.71-.07.55-.19.42,0,.78-.15,1.12-.1.2-.18.71,0,.76-.23,0,.22.74.1,1,0-.08.08.23,0,.14.16.3,0,.57-.11.5-.22.58.21,1.08-.34,1.43,0,.87-.21,1.68-.38,2.47-.52,0,.23-.88.12-.82.35a8.71,8.71,0,0,1,1.92-.43c.19,0-.1.11-.17.15.75-.17,1.46-.13,2.12-.32,0,0-.07,0-.13.08.13,0,.31,0,.28-.1l-.12,0c-.23-.13.49-.36.51-.44-.2.31.67,0,.35.41.08,0,.19-.09.16-.16.13,0,.17,0,.05.14.47-.11.29-.2.72-.24,0,0-.08.08-.12.14a1.42,1.42,0,0,1,.78-.23s0,.07-.08.08a9.46,9.46,0,0,1,1.73-.34c-.18.24.24.05.3.23l.36-.09-.16-.07a5.32,5.32,0,0,1,.88-.16l-.23.1.6-.09-.35,0c.32-.13-.06-.23.38-.22a1.89,1.89,0,0,1,.5.06h0a1,1,0,0,1,.55-.13c.07.06,0,.21,0,.25.15-.17.76-.11.94-.3-.06.05-.06.14,0,.16l.12-.14c.15,0,.17,0,.16.13.45,0-.17-.22.37-.17,0,0,0,0-.1.06.54,0,1-.18,1.52-.16.17.17-.42.08-.24.22.7-.09,1.45-.35,2.14-.37h-.13c.07-.27.52.08.86-.07-.09,0-.1.16-.08.12a6,6,0,0,0,1-.11l1.08-.22a.2.2,0,0,1,0,.07c.49,0,1.08-.06,1.59-.07-.08-.06.17-.07-.28-.13l.59,0a1.25,1.25,0,0,0,.38,0A12.91,12.91,0,0,0,42,40.48a2.81,2.81,0,0,1-1.16-.62c.13.06.4.12.29.08l-1-.4c0,.12.06.11.14.24a1.34,1.34,0,0,1-.55-.13c.17,0,.21,0,.17-.06s-.14-.17-.18-.23-.05.06-.06.1c-.23-.35-.16.18-.54-.17l0,0a2.12,2.12,0,0,1-.54-.17c0-.16.2,0,.26-.06-.25-.12-.61,0-.78-.26.12,0,.28.1.4.12a.92.92,0,0,0-.39-.36h0l-.39-.28.09.09c-.48.15-.67-.27-1.2-.28.51,0,.12-.08.22-.2-.08-.09-.23-.22-.16-.23-.26,0-.29-.26-.66-.25,0-.05-.21-.11-.11-.2-.27-.1,0,.11,0,.15-.48-.06-.85-.67-1.54-.76s-.71-.08-1.21-.25c-.12-.15.21-.09.21-.09a1.55,1.55,0,0,0-.68-.36c.07,0,0-.07,0-.16s-.19,0-.29,0,0-.07.24-.13h0a0,0,0,0,0,0,.05.09.09,0,0,1,.1,0l-.07,0c.35.07.28.15.71,0,.07.06,0,.1-.2.15a6.8,6.8,0,0,0,1.27-.28c.42.1,1.38-.16,1.36.07a4.73,4.73,0,0,1,1.07-.29c-.66.33,1.41-.11,1.25.19A17,17,0,0,1,40.81,35a.52.52,0,0,1-.23.06,6.57,6.57,0,0,1,1,0c0-.2.83-.31,1.25-.47.63.14-.36.26-.15.43-.05-.16,1.06-.25.84-.37.48.08.41,0,.67.17.06-.25.44-.08.82-.26.69.06.19.21.94.08.36,0-.3.18-.3.18.77-.06.35-.21.5-.33.91-.12.43.11.75.17.57-.09,1-.3,1.42-.32,0,0,.12,0,0,.08.59-.2,1.79-.15,2.48-.39a.19.19,0,0,1,.09,0,.23.23,0,0,1-.12-.25c.34,0,.63-.16.76-.05a.51.51,0,0,0-.32.11l.36-.08c.34.15-.49.09-.48.22a14.93,14.93,0,0,1,2-.3c.13.16-1.25.15-.52.25H51.8c.66.22-.51,0,.1.26,1.1,0,1.22-.17,2.31-.21.24-.11-.09-.13.15-.24,1.54-.28,1.26.34,2.38,0a1.6,1.6,0,0,1,1.21-.3l-.26.21c1.06,0,.58-.32,1.7-.26-.19.08-.83.12-.66.13.73.1.5-.15,1.05-.18l.13.16c1.13-.1,2.36-.31,3.61-.42-.06.05-.27.12,0,.15a42.83,42.83,0,0,1,4.91-.18L69,33c.13,0,.25,0,.11.09.6,0,0-.09.31-.17s.45.06.24.12a19,19,0,0,1,4.08-.34l-.21.05c.86,0,1-.35,1.75-.25l-.15,0c1.87,0,3.93-.27,5.36-.12.26-.22,1.85,0,2-.29a15.84,15.84,0,0,0,2.28.2c.4,0,.59-.21,1.08-.26l0,.15.67-.19.36.17.46-.06c-.18,0-.39,0-.37-.1a4.63,4.63,0,0,1,1.8.12l1.71-.2c0,.07-.32.1-.54.15.91-.19.17.15,1,0-.11,0,.06-.1.08-.13a9.72,9.72,0,0,0,2.08,0L93,32c1.27,0,2.68-.14,4.11-.18-.51,0-.4-.22,0-.25l.17.16c.27-.11-.44,0,.11-.19s.37.17.06.23l.65-.07s-.11.08-.15.14c.27-.11,1.13.13,1.51-.06l0,.05c1.43,0,2.07-.11,3.24-.15,0-.14.47-.12.82-.24.86,0,1.81.11,2.84.08.72-.09.21-.13.53-.22.06.13,1.09.1.56.2,1.24,0,1.58-.06,3.14-.19-.17-.05-.36-.07-.26-.11.28,0,.65,0,.61.1l-.08,0c1.76-.23,4.07.31,5.46,0h-.08l1.45-.16c.67,0-.4.1.1.18,1.56-.23,2.47,0,3.76-.14,1,.37,3.55-.05,4.89.19l-.07-.09c.34-.08.42.05.67.07,0-.06-.37-.08-.16-.12,3-.11,6.09.13,9.11.24,1.11,0,.64-.46,2-.23l-.4.16c2.24-.18,4.57.06,6.75-.07-.13,0-.13.08-.34.08a3.85,3.85,0,0,0,1.71-.07c.34,0,.08.09.29.15.46.08,1.16-.13,1.41,0,0,0-.14,0-.22,0,.3-.05,1.41.05,1.12-.1.82.09,1.57,0,2.22.07.43-.14,1.4.11,1.54-.11-.06.23,1.44.22,2,.13-.18.06.45.08.24.17.59,0,1.14,0,1-.13,1.08.3,2.2-.16,2.8.2,1.76-.06,3.39-.09,5-.09-.06.22-1.75,0-1.69.2a33.32,33.32,0,0,1,3.86-.09c.39,0-.22.08-.35.12,1.5,0,2.9.13,4.23.06a.69.69,0,0,1-.28,0c.26,0,.61.06.58,0l-.25,0c-.42-.16,1-.27,1.1-.34-.46.27,1.32.13.59.47.18,0,.39,0,.36-.12.25,0,.33.07.07.14a13.28,13.28,0,0,1,1.47-.1s-.18.06-.27.12a4.79,4.79,0,0,1,1.59-.08s0,.07-.18.06a33.64,33.64,0,0,1,3.48,0c-.42.19.45.09.52.28l.73,0-.29-.1a17.05,17.05,0,0,1,1.76,0l-.48.06,1.2,0-.67-.1c.65-.06-.06-.24.79-.15a8.64,8.64,0,0,1,1,.17h0a3.7,3.7,0,0,1,1.12,0c.12.07-.11.2,0,.25.32-.14,1.5,0,1.9-.11-.13,0-.15.13-.1.16l.27-.12c.29.06.33.08.28.16.89.07-.27-.25.78-.09-.08,0,0,0-.22,0,1.06.12,2.06,0,3,.17.28.2-.86,0-.53.17,1.4.05,2.92,0,4.28.08l-.25,0c.2-.26,1,.19,1.7.11-.17,0-.23.14-.19.11.93.1,1.91.06,3.33.07l-.18.06c.55.1,1.45.14,2,.21.18-.06.52,0,.32-.14,1.8.52,3.5.05,5.1.5-.2,0-.47,0-.32,0l1.39.05c-.1-.13-.18-.09-.46-.2a3.16,3.16,0,0,1,.92,0c-.63,0,0,.19.25.27,0,0,.06-.07,0-.11.7.26.13-.22,1.11,0l-.06.05a8.37,8.37,0,0,1,1.12,0c.15.14-.4,0-.44.13a6.72,6.72,0,0,1,1.62,0c-.24,0-.58,0-.82,0a3.3,3.3,0,0,0,1,.23h0l.94.15-.24-.06c.73-.29,1.43.05,2.39-.1-.93.14-.16.12-.24.26.23.06.6.14.49.17.45-.08.73.16,1.37,0,0,0,.48,0,.37.16.58,0-.13-.1-.08-.15.91-.09,2.08.38,3.38.27,1.12,0,1.34-.14,2.37-.13.34.11-.3.15-.3.15a6,6,0,0,0,1.5.14c-.11,0,0,.08.15.15.43,0,.3-.15.85,0a1.57,1.57,0,0,1-.44.15l1.17,0a6.72,6.72,0,0,1-.66.47l0-.25-.27.32c-.1,0-.2-.1-.05-.2-.29,0-.18.16-.44.16,0,0,0,0,0,0l-.21.17c0-.06-.1-.11.06-.15-.48.09-.62.46-.85.4l0,0c-.56.34,0,.16-.35.54l-.46-.2v.16c-.07,0-.19.08-.2,0-.18.2.07,0,0,.19-.35,0-.78.45-.95.26-.05.15.32-.05,0,.17-.2-.19-.34.21-.66.23,0-.16.31-.22,0-.2-.06.29-.54.21-.75.36,0,0,0,.1-.09.14a.23.23,0,0,1,.09-.14.17.17,0,0,0-.07-.08c-.06,0,0,.16,0,.23-.15.11-.47.22-.71.39a7.41,7.41,0,0,0-1.14.36v0c0,.2-.33.32-.66.53-.07-.09,0-.15.14-.3l-.36.18c0,.08-.11.15-.3.27l-.07-.12a8.33,8.33,0,0,1-1.44.78c.15,0,.47-.06.69-.08s.37,0,.29.09-.52,0-.46,0,0,.06-.16.11a.43.43,0,0,1-.1-.09c-.37.13.13,0-.07.13s-.33.09-.54.1c0,0,.29-.09.26-.12a9.75,9.75,0,0,1-1.08.36c.2,0,.43-.06.31,0a2.71,2.71,0,0,1-.74.23c-.05,0-.08,0,0,0a4.87,4.87,0,0,0,1-.06c.13,0-.05.06-.1.1.46,0,1.32.09,1.36-.06h0a4.68,4.68,0,0,1,1.2.09l.56.09a2.79,2.79,0,0,0,.54,0v0a6.22,6.22,0,0,0,1.09,0c.11,0,.24.11.19.17a1.42,1.42,0,0,1,.72,0c-.29.06.09.09-.29,0a1.37,1.37,0,0,0,.83.06c-.14.11.26.18.44.16l-.25-.11a3,3,0,0,1,.54,0l-.11.16c.72.27,1.37-.22,1.91.17.2-.1-.4-.12-.21-.24a5,5,0,0,1,.78.34c.46.13.46-.2.94-.09-.05-.07-.1-.23.27-.25s.4.28.18.31-.12,0-.11,0-.26,0-.13.1l0-.06c.16.08.63.12.51.2.27,0,.12-.08-.07-.13.43.12.69.06,1.13.17-.06,0-.12-.12-.05-.11.65.14.3-.09.75-.07.25.12-.11.21.35.18.27.09,0,.16-.07.2a2.2,2.2,0,0,1,1,.19l-.22,0a1.36,1.36,0,0,1,.35,0l-.12-.13c.13,0,.24,0,.23.1.14-.07-.08-.21.19-.29.16.08.52,0,.57.15-.53-.11,0,.16-.41.14a1,1,0,0,1,.32,0s0,0-.06,0c.5.19.25-.16.78-.1-.08.08.11.18.19.17-.21,0-.08-.16.12-.21.33.11.37,0,.55,0l-.2,0c.08-.08.25,0,.49,0,0,.07-.22,0-.14.06.28-.13.58.22.95.15.17.08,0,.17.15.23.42-.08.43.16.87.11-.11-.13-.14-.1.18-.18h-.72l.47-.13a5.14,5.14,0,0,1-.58,0c.23-.07.2,0,.11-.15.27.21.59,0,.92.11,0,.1,0,.2,0,.29.5.19.92,0,1.58.09l-.21-.07c.1-.11.41,0,.63,0,0,.09.1.14.18.22,0-.08.49.05.57-.14l.28.16c.53.11.64-.21,1.15-.12-.17.09.06.18-.3.22.18,0,.33.06.34,0s.49-.08.63,0,.11-.14.31-.11c0,0,0,0,0,0s.31,0,.15-.16c.5.36,1.48.14,1.91.45.38,0,.83,0,1.17.06,0,0,0,.05-.07,0,.46.15.32-.24.84-.08.26.19-.29,0-.13.13,0,.33.65,0,1,.26h-.09c.26.14.68,0,1.12,0,0,0,0,0,0,0a4.8,4.8,0,0,1,1.35-.11c-.15.11-.2,0-.14.18s0-.21.36-.2c.12.08.39.18.41.32l-.36,0c.16.2.47.05.65.11l0,.07c.56,0,.59-.15,1.19-.07l-.06-.06c.35-.16.26.14.61,0,0,.07.05.14.07.21a10.57,10.57,0,0,1,1.17-.09,4.34,4.34,0,0,1-1,.19,2.18,2.18,0,0,0,.85,0,.53.53,0,0,1-.28,0,2.08,2.08,0,0,1,1.06-.1c-.08.38.93.21,1.73.61a14.21,14.21,0,0,1,2.37.29c-.26-.37-.56-.79-.93-1.26-.16.29-.28-.34-.66-.32a1.49,1.49,0,0,1-.24-.31h0l-.18-.37a3.53,3.53,0,0,1-.17-.37c0-.16.16.09.24.08-.3-.41,0-.24-.15-.53,0,.11-.22,0-.35-.26,0,.13.07.25.11.37-.52-.39-.13-.58-.65-1l.2.1c-.25-.22-.74-1-1.14-1,0-.06,0-.17.12-.08-.24-.32-.5-.58-.76-.88a2,2,0,0,1-.48-.91l.09,0c-.07-.11-.24-.15-.22-.34,0,0,.09,0,.07,0a1.07,1.07,0,0,1-.25-.47l.13.12c-.11-.69-.46-1-.57-1.6.24,0,.26-.57.34-.83h0a12.61,12.61,0,0,1,.17-2.14c.36-.36.76-1.42,1.38-1.89-.1.06-.13-.13-.05-.24s.23-.47.36-.31l0,.05c.23,0,.46-.24.68-.42l-.13-.23c.86-.19,1.58-1.41,2.15-1.4.11-.17.31-.32.42-.49l.08.12.57-.39.28-.22.41-.33c0,.07-.11.17-.12.22a1.1,1.1,0,0,0,.43-.58.69.69,0,0,1,.24-.46l.44-.06c.46-.36,1.05-.74,1.62-1.14A10.07,10.07,0,0,0,254.21,25.27Zm-8-1h0s0,0,.06-.06.16,0,.17.06Zm.78,1h0Zm.44,0c0-.05,0-.09.09-.08s.13.07.24.13ZM61.72,32.3l0,0a.35.35,0,0,1,.09-.07c.24,0,.32,0,.35,0ZM9.29,25.82v0a.2.2,0,0,1,0,.08c-.12,0-.16,0-.18,0ZM8.47,25l-.19,0h0Zm-.62.09c0,.05,0,.1-.07.11s-.15-.05-.27-.07ZM31.32,35.14a.13.13,0,0,1,.12,0l.07,0-.1,0Zm31.83-2,.37,0h0Zm1.23-.1c-.06,0,0-.1.15-.11-.08,0,.27.05.5.07Zm159.84,2.31-.07,0S224.22,35.33,224.22,35.36Zm0,.08,0,0-.07.05a.26.26,0,0,1-.12-.08Zm-.24,0c.07.05,0,.07-.14.09l0,0,.1-.07Z"/><path class="cls-1" d="M246,24.41H246l.06,0,.05,0Z"/><path class="cls-1" d="M213.88,40.8a0,0,0,0,1,0,0v0Z"/><path class="cls-1" d="M250.65,27.82l0,0,0-.06Z"/><path class="cls-1" d="M218.75,38.18s0,0,0-.06h0Z"/><path class="cls-1" d="M229,41.47h.05C229.22,41.45,229.14,41.46,229,41.47Z"/><path class="cls-1" d="M222.45,41.15l.22,0C222.55,41.09,222.46,41.07,222.45,41.15Z"/><path class="cls-1" d="M236.38,42.07Z"/><path class="cls-1" d="M224.48,35.45l-.13.09C224.4,35.52,224.46,35.5,224.48,35.45Z"/><path class="cls-1" d="M222.54,36.47v0c0,.1-.43.06-.51.2A2,2,0,0,0,222.54,36.47Z"/><path class="cls-1" d="M220.08,36.9c-.09,0-.22,0,0-.14-.6.11.17.06-.4.31Z"/><path class="cls-1" d="M218.26,37.52c-.13.12-.16.14,0,.11S218.26,37.56,218.26,37.52Z"/><path class="cls-1" d="M217.52,41.36c.19,0,0,0,0-.12Z"/><path class="cls-1" d="M219.62,40.76l-.19-.1-.1.11Z"/><path class="cls-1" d="M220.63,41.79l.32,0h-.32Z"/><path class="cls-1" d="M238.28,43.52l0-.16C238.1,43.37,238.06,43.54,238.28,43.52Z"/><path class="cls-1" d="M246.29,44.33a3,3,0,0,0-.42-.1A.41.41,0,0,0,246.29,44.33Z"/><path class="cls-1" d="M250,30l-.11.08-.09.14Z"/><path class="cls-1" d="M30,34.43l.17-.1L30,34.26C29.91,34.28,29.89,34.38,30,34.43Z"/><path class="cls-1" d="M32.32,41.53c.06,0,.09,0,.09-.05S32.3,41.51,32.32,41.53Z"/><path class="cls-1" d="M40.38,40.83a.6.6,0,0,0,.27,0Z"/><path class="cls-1" d="M39.67,40.06l0,0-.07,0Z"/><path class="cls-1" d="M26.12,23.48h-.05v.08Z"/><path class="cls-1" d="M28,41.58h0C28.1,41.56,28.06,41.57,28,41.58Z"/><path class="cls-1" d="M5.81,43.88c-.11,0-.14,0-.16,0s0-.1-.19,0C5.52,43.85,5.62,44,5.81,43.88Z"/><path class="cls-1" d="M19.07,42.79l0,0a.17.17,0,0,1,.15,0A.33.33,0,0,0,19.07,42.79Z"/><path class="cls-1" d="M16.68,43.07l.05,0h-.05Z"/><path class="cls-1" d="M14.62,24.07a.36.36,0,0,1,.13.11C14.7,24.08,15.08,24,14.62,24.07Z"/><path class="cls-1" d="M17.65,44.08a.73.73,0,0,0-.24-.07s0,0,0,0Z"/><path class="cls-1" d="M9.46,25.67h0l-.08,0,0,.05Z"/><path class="cls-1" d="M40.76,40.86l.07,0h-.07Z"/><path class="cls-1" d="M4.07,29.32l0,0H4Z"/><path class="cls-1" d="M36.9,37.82s0,0-.06,0h0Z"/><path class="cls-1" d="M26.62,43h-.06C26.44,43,26.53,43,26.62,43Z"/><path class="cls-1" d="M33.16,42l-.21.09C33.07,42.07,33.16,42.06,33.16,42Z"/><path class="cls-1" d="M19.3,43.9Z"/><path class="cls-1" d="M31.55,35l-.06,0v0Z"/><path class="cls-1" d="M31.24,34.89l.16,0A.19.19,0,0,0,31.24,34.89Z"/><path class="cls-1" d="M33.67,36.13c-.12-.07-.25-.25-.43-.31l0,0C33.32,35.82,33.51,36.15,33.67,36.13Z"/><path class="cls-1" d="M35,37.63c.45.42,0-.16.49.14l-.4-.25C35.1,37.61,35.17,37.72,35,37.63Z"/><path class="cls-1" d="M36.72,38.51c-.24-.09,0,.07-.06.1C36.82,38.63,36.87,38.64,36.72,38.51Z"/><path class="cls-1" d="M38,41v-.13C37.79,40.91,38,40.92,38,41Z"/><path class="cls-1" d="M36.22,41.9l.08-.12-.28.06Z"/><path class="cls-1" d="M34.84,41l-.32.08.23-.05Z"/><path class="cls-1" d="M17.2,43.05c.13,0,.14-.23-.07-.15Z"/><path class="cls-1" d="M9.11,43.93a3,3,0,0,0,.43,0A.41.41,0,0,0,9.11,43.93Z"/><path class="cls-1" d="M6.64,29.62l-.26-.14.1.09Z"/></g></g></svg>