<svg viewBox="0 0 192 44.15" xmlns="http://www.w3.org/2000/svg"><g fill="#00b3b1"><path d="m9.46 44.15a1.73 1.73 0 0 1 -1.93-1.63v-17.52c0-3 1.48-4.15 5.12-4.15h15.81c3.63 0 5.11 1.2 5.11 4.15v14.63c0 2.78-1.6 4.24-4.63 4.24a12.17 12.17 0 0 1 -2.94-.24 1.84 1.84 0 0 1 -1.35-1.81 1.65 1.65 0 0 1 1.68-1.82 1.62 1.62 0 0 1 .56.07 10.64 10.64 0 0 0 1.88.17c.79 0 1-.12 1-1v-3.05h-15.77v-3.27h15.76v-2.73h-15.76v-3.28h15.76v-1.43c0-.8-.09-1.25-1.88-1.25h-14.7c-1.75 0-1.84.45-1.84 1.25v17a1.71 1.71 0 0 1 -1.88 1.67z"/><path d="m39.09 18.82h-37.38a1.68 1.68 0 0 1 -1.71-1.72 1.66 1.66 0 0 1 1.71-1.69h16.63v-2.27h-10.43a1.68 1.68 0 0 1 -1.71-1.73 1.66 1.66 0 0 1 1.71-1.68h10.43v-2.17h-13.67a1.68 1.68 0 0 1 -1.67-1.73 1.68 1.68 0 0 1 1.67-1.73h13.67v-2.28a1.91 1.91 0 0 1 3.81 0v2.28h15.08a1.64 1.64 0 0 1 1.7 1.73 1.65 1.65 0 0 1 -1.7 1.73h-15.08v2.17h11.36a1.64 1.64 0 0 1 1.7 1.68 1.64 1.64 0 0 1 -1.7 1.73h-11.36v2.27h16.94a1.64 1.64 0 0 1 1.7 1.69 1.66 1.66 0 0 1 -1.7 1.72z"/><path d="m188.16 19.61h-17.72v3.5h17.72v12.65c0 2.34-1 3.24-3.74 3.24h-14c-2.78 0-3.74-.9-3.74-3.24v-12.65-3.5-11.21c0-2.34 1-3.24 3.74-3.24h14c2.78 0 3.74.9 3.74 3.24zm-2.83-18h-15.87c-4.9 0-6.67 2.28-6.67 6.11v28.67c0 4.47 2.53 6.11 6.67 6.11h15.87c4.9 0 6.67-2.28 6.67-6.11v-28.63c0-3.83-1.77-6.11-6.67-6.11"/><path d="m74.6 44a1.81 1.81 0 0 1 -2-1.73v-11.04h-18.28a1.83 1.83 0 0 1 0-3.64h6.13.22 3.64 8.32v-7.49h-6.4c-1.74 0-1.92.46-1.92 1.49v4.58h-3.86v-5.17c0-3 1.76-4.52 5.07-4.52h7.11v-6.15h-9.48a51.26 51.26 0 0 1 -7 10 1.83 1.83 0 0 1 -1.35.62 1.93 1.93 0 0 1 -1.92-1.95 2.09 2.09 0 0 1 .62-1.4c3.54-3.81 7.15-10 9.41-16.27a1.79 1.79 0 0 1 1.77-1.21 2 2 0 0 1 2.06 2 2.53 2.53 0 0 1 -.15.84c-.4 1-.94 2.36-1.56 3.71h25.43a1.7 1.7 0 0 1 1.66 1.83 1.69 1.69 0 0 1 -1.66 1.83h-13.89v6.13h10.52a1.65 1.65 0 0 1 1.58 1.82 1.65 1.65 0 0 1 -1.58 1.82h-10.52v7.49h15.43a1.83 1.83 0 0 1 0 3.64h-15.43v11.08a1.79 1.79 0 0 1 -1.97 1.69z"/><path d="m128.1 5.15c-13.15 0-21.87 9.32-21.87 19.67 0 6.92 4 10.6 8.18 10.6 2.8 0 5.27-1.17 8-5.44 2.92-4.59 5.11-11.37 5.85-19.52a17 17 0 0 0 -4 .4c-.73 7.33-2.67 13.27-5.23 17.4-1.63 2.6-3.06 3.24-4.63 3.24-2.27 0-4.34-2.6-4.29-6.68.15-8.16 6.16-14.61 14.23-16a13.79 13.79 0 0 1 3.06-.35c.34 0 .66 0 1 .05 9 .15 13.79 5.75 13.79 13 0 6.92-3.55 11.33-10.29 13.44a2.18 2.18 0 0 0 -1.73 2.04 2 2 0 0 0 2 2 2.71 2.71 0 0 0 .84-.15c7.78-2.41 13.15-8.83 13.15-17.42 0-9.27-6.8-16.29-18.08-16.29"/></g></svg>