<?xml version="1.0" encoding="utf-8"?>
<!-- Generator: Adobe Illustrator 22.1.0, SVG Export Plug-In . SVG Version: 6.00 Build 0)  -->
<svg version="1.1" id="icn_x5F_movie" xmlns="http://www.w3.org/2000/svg" xmlns:xlink="http://www.w3.org/1999/xlink" x="0px"
	 y="0px" width="112px" height="112px" viewBox="0 0 112 112" style="enable-background:new 0 0 112 112;" xml:space="preserve">
<style type="text/css">
	.st0{fill:#EF5350;}
	.st1{fill:#FFFFFF;}
</style>
<g>
	<g>
		<circle class="st0" cx="56" cy="56" r="56"/>
	</g>
	<g>
		<path class="st1" d="M55.9,109.8c-10.9,0-21.5-3.3-30.6-9.7C13.5,91.9,5.6,79.6,3.1,65.4C0.6,51.3,3.7,37,11.9,25.3
			C20.1,13.5,32.4,5.6,46.6,3.1c29.2-5.2,57.1,14.3,62.3,43.5l0,0c5.2,29.2-14.3,57.1-43.5,62.3C62.3,109.5,59.1,109.8,55.9,109.8z
			 M56,2.8c-3.1,0-6.2,0.3-9.4,0.8c-14,2.5-26.2,10.3-34.3,22C4.2,37.2,1.1,51.3,3.6,65.3c2.5,14,10.3,26.2,22,34.3
			c11.7,8.1,25.8,11.2,39.8,8.8c28.9-5.2,48.2-32.9,43.1-61.8l0,0C103.8,20.9,81.3,2.8,56,2.8z"/>
	</g>
	<g>
		<path class="st1" d="M66.6,36.6l-9.7,1.7c0.8-1.1,1.5-2.3,2-3.5c2.1,1.6,4.8,2.3,7.6,1.8c5.3-0.9,9-5.9,8.3-11.2
			c-0.8-5.7-6.1-9.6-11.7-8.6c-2.8,0.5-5.2,2.1-6.6,4.4c-3.3-3.8-8.6-5.7-13.9-4.3c-6.4,1.7-10.7,7.9-10.1,14.5
			c0.4,4.4,2.9,8.1,6.3,10.3l-1.2,0.2c-1.2,0.2-2,1.3-1.8,2.5l1.1,6.3l-11.1-4.5c-0.6-0.3-1.3,0.3-1.2,1l4,22.7
			c0.1,0.7,0.9,1,1.5,0.5l8.9-8l1.1,6.3c0.2,1.2,1.3,2,2.5,1.8l37.1-6.6c1.2-0.2,2-1.3,1.8-2.5l-4.3-24.4c-0.2-1.2-1.3-2-2.5-1.8
			L66.6,36.6z M63.8,21c3.1-0.6,6.1,1.5,6.7,4.7c0.6,3.1-1.5,6.1-4.7,6.7c-3.1,0.6-6.1-1.5-6.7-4.7S60.7,21.6,63.8,21z M44.6,21.9
			c4.5-0.8,8.8,2.2,9.6,6.7c0.8,4.5-2.2,8.8-6.7,9.6C43,39,38.7,36,37.9,31.5C37.1,27,40.1,22.7,44.6,21.9z M72.1,59.9l-24.5,4.4
			c-1.1,0.2-2.1-0.5-2.3-1.6l-2.5-14.1c-0.2-1.1,0.5-2.1,1.6-2.3l24.5-4.4c1.1-0.2,2.1,0.5,2.3,1.6l2.5,14.1
			C73.9,58.7,73.2,59.7,72.1,59.9z"/>
	</g>
	<g>
		<path class="st1" d="M64.3,52.5l-8.1,7.3c-0.2,0.2-0.5,0.1-0.6-0.2l-2-11.4c0-0.3,0.2-0.5,0.5-0.4l10.1,4.1
			C64.5,52,64.5,52.4,64.3,52.5z"/>
	</g>
	<g>
		<path class="st1" d="M31.1,96.2l-0.7-0.4l-0.1-0.3l1.6-0.8L32,94c-0.7,0-1.3,0-1.7-0.2l-0.1-0.3l1.4-0.8l0.1-0.7L30.3,92l-0.9,0.3
			l-0.8-0.4l-0.2-0.5l0-0.1l-0.3-1.6L27.5,88c0.5-0.2,1-0.5,1.5-0.9l0.1,0.1l1.3-0.2c0.3-0.4,0.4-0.8,0.2-1.3l-0.8-0.1l-3.4,1.3
			l-0.8-0.5l0-0.2l0-0.1l3-1.1l1.2-0.2l0.6-0.3l-0.2-1l-1.5-0.1L28.6,83c0.8-1.4,1.9-2.4,3.2-3l0.7,0.3l0,0.2l-1.4,1.1l-0.1,0.5
			l0.3,1.6c0.5,0.2,1,0.2,1.5,0.1l0.1-0.1l1.5-0.3l0.3-0.2l0.7,0.2l0.1,0.4l-0.2,0.2l-3,0.5l-0.8,0.4l0.2,1.1l0.4,0.2l2-0.4l0.8,0.2
			l0.5,0.9l0.3,1.6l0.4,0.9c-0.8,0.9-2,1.4-3.4,1.7l-0.1,0.7l1.6,0.2l0.4-0.2l0.5,0.4l-0.1,0.3l-1.2,0.2l-0.5,0L33,93.6l0.1,0.4
			l0.2,0.5l2-0.3l0.1-0.1l1.3-0.2l0.3,0.3c-0.4,0.5-1.1,0.9-2.2,1l-0.6,0C33.2,95.4,32.1,95.8,31.1,96.2z M31.1,88.6l0-0.7l-0.4-0.4
			l-1.7,0.3l0,0.9l0.6,0.4l1.4-0.2L31.1,88.6z M31.3,90.8l0.2-1c-0.6-0.3-1.2-0.3-1.9-0.1l-0.1,1.1c0.6,0.3,1.2,0.4,1.8,0.2
			L31.3,90.8z M34.2,87.9l0.1-0.8l-2.1,0.1l0,1c0.5,0.2,0.9,0.2,1.4,0.1L34.2,87.9z M34.5,89.9l0.2-0.7c-0.6-0.3-1.2-0.4-1.8-0.2
			l-0.6,0.7l0.1,0.7c0.4,0.2,0.9,0.3,1.5,0.1L34.5,89.9z M42.5,93.5l-0.6-0.2l-0.5-0.8l0.2-2l-0.3-1.5l-1.2-0.2l-0.5,0.2
			c-0.1,1.4-0.5,2.8-0.9,4l-0.9,0.4l-0.3-0.4l0.7-3.2L36.9,89l0-0.1l1.5-0.6l0.3-2.5l0.3-0.1l0.7,0.2l0,0l0.2,1L39.9,88l0.3,0.2
			l1.8-0.3l0.6,0.4l0,0.1l-0.1,0.1l0.2,1.2l0.1,0.2l-0.2,0.2l0.3,1.5l-0.2,1.7L42.5,93.5z"/>
		<path class="st1" d="M46.8,92.7L46,92.4l-0.3-0.6l-0.2-3.9c-0.3-1-0.6-2-1-2.8c0.2-0.2,0.4-0.3,0.7-0.3l0.8,0.5l0.7,2l0.3,1.5
			l0,0.9l0.3,1.6l0.8,0l5.9-2l1.4-0.2l0.1-0.1l3.1-0.5l0.3,0l1.1-0.4l-0.2-4.2l-0.2-0.3l0.1-0.9l0.5-0.2l0.8,0.4l0.1,0.2l0.1,4.3
			l0.2,1.1l0.3,0.5l-0.8,0.5L59.9,89L57,89.6l-0.5,0l-1,0.4L54,90.2L46.8,92.7z M50,88.9l-0.8-0.3l-0.3-1.3l0.1-0.1l-0.3-1.9l0-1.6
			l-0.2-1.1l0.1-0.7l0.8-0.2l0.9,0l1-0.6l0.2-0.2l-0.2-1.2l-1-0.1l-2.9,1.2l-0.9-0.5L46.4,80c1.4-0.6,2.8-1.1,4.3-1.7l1.5-0.3
			l0.1-0.1l1.2-0.2l1.9-0.6l0.8,0.4l0,0.2c-0.2,0.4-0.6,0.6-1.1,0.6l-2.1,0.4l-0.6,0.4l0,1.5l0.4,0.2l2.2-0.4l0.3-0.2l1.1,0.2l0,0
			l0.5,3l0,0.8l0.2,0.3l0,0.4l0.3,0.8l-0.2,0.7l-1.6,0.7l-1.2,0.2L51,88.7L50,88.9z M51.9,84.1l0-0.9l-0.4-0.8l-0.7,0L50,83l0,1.5
			l0.7,0.2L51.9,84.1z M52.8,86.8l0.2-0.2l-0.7-1.2l-1.1,0.1l-0.9,0.5l-0.1,0.2l0.2,1.3l0.8,0.1L52.8,86.8z M55.3,83.3l0.2-0.3
			l-0.2-1.2l-0.5-0.3L53,81.7c-0.2,0.5-0.3,1.1-0.1,1.7l0.2,0.4l1.1-0.1L55.3,83.3z M55.7,86c0.2-0.5,0.3-1,0.1-1.5l-0.3-0.2
			l-1.4,0.2l-0.7,0.5l-0.1,0.5l0.5,1l0.2,0.1l1.3-0.2L55.7,86z"/>
		<path class="st1" d="M69.3,89.8l-0.9-0.6l-0.2-1.4l0.1-0.1l-0.3-1.6l-1,0l-0.6,0.2l-0.8-0.4l0,0c0.7-0.3,1.4-0.6,2.3-1l-0.1-1.6
			l-0.7-0.1c-0.9,0.5-1.6,1-2.2,1.6l-0.8-0.3l-0.2-0.3c0.6-0.6,1.4-1.1,2.3-1.5l0.1-0.6l-1.1-2.1l-0.6,0.1l-1,0.5L62.8,80l0-0.2
			c1-0.7,2.2-1.3,3.4-1.9l0.2-0.3L66,76.3l-1.1,0.1l-0.3,0.2l-0.8-0.2L63.6,76c0.6-0.3,1.3-0.6,2.2-0.9l-0.2-1l-0.1-0.2
			c0.1-0.1,0.4-0.2,0.7-0.2l0.5,0.2l0.5,0.6l1-0.1l0.7-0.2l0.7,0.4l0,0.1c-0.2,0.3-0.5,0.4-1,0.5l-1,0.1l-0.5,0.5l0.1,1.5l1.1,0
			l1-0.4c0.7-0.1,1.2,0,1.6,0.1l0.1,0.4L70,77.7c-0.5,1-0.7,2.1-0.7,3.3l1.1,0l0.3-0.1l1,0.1l0.1,0.3l-1.3,0.5l-1.2,0.2l-0.9,0.4
			l0.1,0.6l0.5,0.5l0.5-0.1c0.4-0.6,0.9-0.9,1.5-0.9l0.6,0.2l0,0c-0.9,0.7-1.8,1.5-2.7,2.5l0.1,1.7l0.4,2.2l0.2,0.5L69.3,89.8z
			 M68.1,81.6c0.1-1,0.2-2.1,0.3-3.2l-1.1,0L66.4,79l-0.1,0.6l1,2.2l0.6,0.1L68.1,81.6z M71.6,77.3l0.2-0.6l3.2-1.6l1.2-0.2l0.2-0.1
			l0.6,0.2l0.2,0.3c-0.2,1.5-0.4,3-0.8,4.5L76,79.9l-0.6-0.7c0.2-1,0.3-2,0.3-3.2l-0.7,0l-1.8,1.4c-0.2,0.5-0.2,1-0.1,1.5l0.5,2.5
			l-0.1,0.5l1,0.2l2.5-1.5l1.3-0.2l0.5,0.7c-0.4,1.1-0.8,2.4-1,3.8l2.8,0.9l0.2,0.3l-0.6,0.3L77,85.5l-0.2,0.9L76,86.8l-0.4-0.1
			l-0.2-0.4l0.6-0.8l-0.1-0.7l-1.8-0.4l-0.2,0.9l0.2,0.4L74,86.4l-0.5,0.2l-0.4-0.3L73,86.1l-0.2-1.2l0.1-0.1l-0.2-1.1l0.1-0.2
			l-0.3-1.4l0-1l-0.1-0.5l-0.4-2.3l-0.3-0.6L71.6,77.3z M76.5,84c0.4-0.7,0.5-1.5,0.4-2.3l-0.6,0.1l-2.1,1.6l0.5,0.3l1.6,0.5
			L76.5,84z"/>
		<path class="st1" d="M82.7,80.5L82,80c1.6-0.9,3.5-1.7,5.5-2.4l0.1-1l-0.2-1.1l0.1-0.1l-0.3-1.6l-1,0.1l-2,0.8L84,74.9l0.4,2.1
			L84,77.3l-0.7-0.2l-0.2-0.3L82.7,75l0.1-0.2l-0.4-2.3l-0.2-0.8c0.2-0.2,0.4-0.3,0.7-0.3l0.7,0.1l0.3,1.7l0.7,0.2l2.4-0.9l0.2-0.3
			l-0.3-1.6l-0.2-0.3l0.1-0.1l0.9-0.2l0.5,0.3l0.1,0.7l0,0.8l0.8,0.2l0.9-0.5l1-0.2l0.6,0.2l0,0.2c-0.8,0.6-1.8,1-3,1.3l-0.1,0.8
			l0.3,1.8l0.1,1.2l0.8,0l3.6-1.2l0.8,0.2l0.1,0.3c-0.2,0.3-0.5,0.5-0.8,0.6L92,77c-2.9,0.9-5.6,2-8.2,3.3L82.7,80.5z M88.6,86.4
			c-0.4,0.1-0.7,0-0.9-0.2L87.4,85l0.1-0.1l-0.7-4.2l0.6-0.2l1.6-0.1l2.5-1l0.9,0.1l0.3,0.6l0.2,1.2c0.4,0.8,0.6,1.5,0.8,2.2
			C92.1,84.5,90.3,85.5,88.6,86.4z M92.3,83.6l0-0.8l-0.9-2.1l-0.7,0L88.5,82l-0.2,0.2l0.4,2.2c0.4,0.2,0.9,0.3,1.3,0.1L92.3,83.6z"
			/>
	</g>
</g>
</svg>
