<?xml version="1.0" encoding="utf-8"?>
<!-- Generator: Adobe Illustrator 22.1.0, SVG Export Plug-In . SVG Version: 6.00 Build 0)  -->
<svg version="1.1" id="img_x5F_use_x5F_timeline_x5F_pop"
	 xmlns="http://www.w3.org/2000/svg" xmlns:xlink="http://www.w3.org/1999/xlink" x="0px" y="0px" width="93.4px" height="72.7px"
	 viewBox="0 0 93.4 72.7" style="enable-background:new 0 0 93.4 72.7;" xml:space="preserve">
<style type="text/css">
	.st0{fill:#FF7BAC;}
	.st1{fill:#FFFFFF;}
</style>
<g>
	<g>
		<path class="st0" d="M35.7,72.7c-5.1,0-9.6-2.8-10.6-7.2c0-0.2-0.1-0.3-0.1-0.5c-0.9,0.4-1.8,0.7-2.8,0.9
			c-7.8,1.9-15.4-1.8-17-8.3C4.4,54,5.6,50.2,8.5,47.2c-4.2-1.2-7.3-4.1-8.2-7.8c-1.3-5.6,2.7-11.6,9.2-13.9
			c-0.4-0.8-0.7-1.6-0.9-2.4c-0.8-3.4,0-6.9,2.4-10c2.3-3,5.8-5.2,9.9-6.2c4-1,8.1-0.6,11.5,1c1.5-2.6,4.2-4.5,7.4-5.3
			c3.9-0.9,7.8,0,10.3,2.4c2.2-2.1,5-3.6,8.2-4.4c8.4-2,16.6,2,18.2,8.9c0.4,1.5,0.4,3.1,0.1,4.7c1.7,0,3.3,0.3,4.8,0.9
			c2.6,0.9,4.7,2.5,6.1,4.5c0.3,0.2,0.5,0.4,0.8,0.7c1.7,1.5,2.8,3.5,3.3,5.6c0.5,2.1,0.4,4.4-0.4,6.5c-0.4,1-0.8,1.9-1.4,2.8
			c-1.7,2.6-4.3,4.6-7.4,5.9c1.3,1.2,2.1,2.7,2.5,4.4c1.4,5.8-3.2,11.8-10.2,13.5c-2.2,0.5-4.5,0.6-6.7,0.1c0,1-0.1,1.9-0.4,2.9
			c0.6,1.9,2.5,6.2,6.3,7.6l1.6,0.6l-1.6,0.6c-0.3,0.1-7.8,2.7-13.2-2c-0.6,0.2-1.1,0.4-1.7,0.5c-4.3,1-8.8-0.1-11.3-2.9
			c-1.6,2.9-4.7,5.1-8.4,6C37.9,72.6,36.8,72.7,35.7,72.7z M26.1,63.1l0.1,0.9c0,0.5,0.1,0.8,0.2,1.2c1.1,4.6,6.7,7.3,12.4,5.9
			c3.7-0.9,6.6-3.2,7.9-6.2l0.4-1l0.6,0.9c2.1,2.9,6.4,4.2,10.7,3.2c0.7-0.2,1.3-0.4,1.9-0.6l0.4-0.2l0.3,0.3
			c3.5,3.2,8.3,2.9,10.7,2.4c-3.4-2.1-5-6.1-5.6-7.8l-0.1-0.2l0.1-0.2c0.4-1.1,0.5-2.3,0.4-3.4l-0.1-1l0.9,0.3
			c2.2,0.6,4.6,0.6,6.9,0.1c6.3-1.5,10.5-6.9,9.3-12c-0.4-1.7-1.4-3.2-2.9-4.4l-0.9-0.7l1-0.4c3.3-1.2,6-3.2,7.8-5.8
			c0.5-0.8,1-1.7,1.3-2.5c0.7-1.9,0.8-3.9,0.4-5.8c-0.4-1.9-1.5-3.6-3-5v0c-0.2-0.2-0.5-0.4-0.8-0.7l-0.1-0.1
			c-1.3-1.8-3.2-3.2-5.5-4.1c-1.6-0.6-3.4-0.8-5.2-0.8l-0.8,0l0.2-0.8c0.4-1.6,0.5-3.3,0.1-4.8c-1.5-6.2-9-9.8-16.7-8
			c-3.2,0.8-6,2.3-8.1,4.5l-0.5,0.5l-0.4-0.5c-2.1-2.4-5.8-3.3-9.5-2.5c-3.1,0.7-5.7,2.7-6.9,5.2l-0.3,0.6l-0.6-0.3
			C29.1,7.5,25,7.1,21.1,8c-3.8,0.9-7,2.9-9.1,5.7c-2.1,2.8-2.9,5.9-2.2,8.9c0.2,1,0.6,1.9,1.1,2.7l0.4,0.7l-0.8,0.2
			C4.2,28.3,0.2,33.8,1.5,39c0.9,3.6,4.1,6.3,8.4,7.2l1.2,0.2l-0.9,0.8c-3.1,2.8-4.5,6.6-3.7,10c1.4,5.8,8.3,9.1,15.5,7.3
			c1.1-0.3,2.3-0.7,3.3-1.2L26.1,63.1z"/>
	</g>
	<g>
		<g>
			<g>
				<g>
					<path class="st1" d="M66.5,62.9l-1.8-0.7c-0.9-0.6-1.5-1.5-1.8-2.6l0-0.3c-0.1-1.3,0.3-2.5,1.1-3.6l0.1-0.1
						c0.3-0.4,0.7-0.6,1.2-0.8l0-0.2c-0.2-1.5-0.2-2.9,0.1-4.3l0.2-0.9l2.1-0.8l1.8,0.8l0.4,1.7l-0.1,0.4c-0.2,0.8-0.2,1.7-0.1,2.7
						l0.3,1.1l-0.1,0.4l0.3,1.4l-0.1,0.1l0.1,0.6l0.4,0.7l0.4,1.5l-0.8,1.7L69,61.8l-0.7,0.7L66.5,62.9z"/>
				</g>
				<g>
					<path class="st1" d="M73.6,61.2c-0.5,0-1.3-0.2-2-0.7c-0.8-0.7-1.3-1.5-1.5-2.5l-0.3-1.4c-0.2-1.3,0-2.4,0.6-3.4l0.2-0.2
						c0.5-0.5,1.2-0.9,1.9-1l0.3,0l0.3,0.1c1,0.3,2,0.8,2.9,1.6l0.4,0.3l0.2,0.7l0.9,0.8c0.5,0.5,0.8,1.1,0.8,1.8l0,0.6L78,58.1
						c-0.9,1.3-2.1,2.3-3.6,2.9l-0.2,0.1l-0.2,0C73.9,61.2,73.8,61.2,73.6,61.2z"/>
				</g>
				<g>
					<path class="st1" d="M81.3,59.3l-0.1,0c-1,0-1.9-0.3-2.7-1l-0.2-0.2l-0.9-1l0.3-2.1l0.4-0.2c0,0-0.1-0.1-0.1-0.1l-0.3-0.3
						l-0.5-1.6l0.1-0.5c0.2-1,0.8-1.7,1.6-2.2l0.2-0.1l1.4-0.6l0.2,0c0.9-0.1,1.8,0.1,2.6,0.6l0.4,0.3l0.9,2.3l-1.3,0.7
						c0.7,0.5,1.1,1.1,1.4,1.9l0.2,0.6l-0.7,1.7c-0.6,0.9-1.6,1.5-2.7,1.7L81.3,59.3z"/>
				</g>
				<g>
					<path class="st1" d="M90.6,58.1l-1.1-0.8c-0.2-0.2-0.5-0.3-0.7-0.5l0,0l-1.6,0.6l-0.5-0.1c-0.8-0.2-1.4-0.6-1.9-1.2l-0.2-0.3
						l-0.5-1.2l-0.6-2.3l0.1-0.1l-0.4-1.5l2.3-1.1l0.5,0.1c0.1,0,0.3,0,0.4,0.1l0,0c0.3-0.4,0.9-0.8,1.8-0.9l0.7,0l1.5,1.2l0.5,1.9
						c0.3,0.9,0.8,1.7,1.4,2.4l1.1,1.3L90.6,58.1z"/>
				</g>
			</g>
			<g>
				<g>
					<path class="st0" d="M66.6,61.1l-1-0.4c-0.6-0.4-0.9-0.9-1.1-1.6c-0.1-0.9,0.2-1.7,0.8-2.5c0.2-0.2,0.5-0.4,0.9-0.5l1,0l0-0.2
						l-0.2-0.7l0.1-0.1l-0.2-0.9c-0.2-1.3-0.1-2.6,0.1-3.8l0.5-0.2l0.4,0.2l0.1,0.6c-0.3,1.1-0.3,2.2-0.1,3.4l0.2,0.9l-0.1,0.4
						l0.2,1l-0.1,0.1l0.3,1.4l0.4,0.7l0.2,0.7L69,60l-0.2,0L68.4,60l-0.9,1L66.6,61.1z M67.7,59.5l0.3-0.4l-0.2-0.7l-0.1-0.1
						l-0.3-1.2l-0.8-0.2l-0.7,0.8c-0.2,0.6-0.3,1.2-0.2,1.8l0.5,0.6l0.5,0.1L67.7,59.5z"/>
				</g>
				<g>
					<path class="st0" d="M73.8,59.5c-0.4,0-0.7-0.1-1.1-0.4c-0.5-0.4-0.8-0.9-0.9-1.6l-0.3-1.4c-0.1-0.8,0-1.5,0.4-2.2
						c0.2-0.2,0.5-0.4,0.9-0.4c0.8,0.2,1.5,0.7,2.2,1.2l0.1,0.5c-0.6,0.9-1.3,1.5-2.2,2l-0.1,0.1l0.2,0.7l0.4,0.5l0.4,0
						c0.9-0.6,1.7-1.3,2.6-2c0.2,0.2,0.3,0.3,0.3,0.6C75.9,58.3,74.9,59,73.8,59.5z M73.3,55.9l0.7-0.7l0-0.2l-1-0.5
						c-0.2,0.3-0.4,0.6-0.4,0.9l0,0.9l0.4,0L73.3,55.9z"/>
				</g>
				<g>
					<path class="st0" d="M81.2,57.6c-0.6,0-1.1-0.2-1.7-0.6l-0.4-0.4l0.1-0.4l0.5-0.2c0.3,0.4,0.7,0.7,1.2,0.8l0.4-0.1
						c0.4-0.2,0.6-0.6,0.8-1l0-0.2c-1.1-0.5-2.1-1.2-2.9-2l-0.2-0.7c0.1-0.5,0.4-0.9,0.8-1.1l1.2-0.5c0.5-0.1,1,0,1.4,0.3l0.2,0.5
						L82,52.2l-0.2-0.2L81,52l-1,0.7l0,0.5l0.8,0.8l1.5,0.7c0.4,0.3,0.7,0.6,0.8,1.1l-0.3,0.8C82.4,57.1,81.9,57.5,81.2,57.6z"/>
				</g>
				<g>
					<path class="st0" d="M90.5,56c-0.8-0.5-1.3-1.2-1.6-2l-0.2,0l-0.9,1.5l-0.5,0.2c-0.4-0.1-0.8-0.3-1-0.6l-0.4-0.8l-0.4-1.7
						l0.1-0.1l-0.2-0.8l0.6-0.3c0.4,0,0.6,0.3,0.6,0.9l-0.1,0.3l0.2,0.8l0,0.5l0.4,0.6l0.3-0.1c0.5-0.6,0.8-1.3,0.9-2l-0.3-1.1
						l-0.2-0.4c0.1-0.2,0.4-0.3,0.6-0.3l0.6,0.5l0.4,1.5c0.4,1.1,1,2.1,1.7,3L90.5,56z"/>
				</g>
			</g>
		</g>
		<g>
			<g>
				<path class="st0" d="M21.7,26.4c-0.5,0-1-0.2-1.4-0.5c-0.3-0.2-0.4-0.4-0.5-0.8c0.7-1,1.5-1.9,2.5-2.5c0.1-0.5,0.1-1,0.1-1.6
					L22,19.8l-0.4-0.5l-0.5,0l-0.3,0.1l-0.6-0.6l0.3-0.3l0.8-0.2l1.2,0.6l0.4,0.8l0.3,1.4l0.1,1l0.1,0l0.9-0.2l0-0.1l0.8-0.2l0.2,0
					c0.1-0.8,0.1-1.7,0-2.6l-0.2-0.9c0.1-0.3,0.3-0.4,0.5-0.4l0.4,0.1l0.3,0.5l0.1,3.1l1.4,0.1l0.3,0.6l-0.6,0.3l-0.9-0.2l-0.2,0.1
					c-0.1,0.9-0.1,1.7-0.1,2.6l-0.4,0.2l-0.5-0.2l-0.1-0.5l0-2.1l-0.7,0.1l-1.4,0.7c-0.1,1-0.5,1.9-0.9,2.8L21.7,26.4z M21.6,25.5
					L22,24l-0.2,0l-0.9,1.1l0.1,0.3C21.1,25.7,21.3,25.7,21.6,25.5L21.6,25.5z"/>
			</g>
			<g>
				<path class="st0" d="M31.7,22.1l-0.5-0.3L30.9,21L31,18l-0.2,0l-1,0.7l-0.7-0.4l-0.1-0.3l2.2-1.4l0.1-1.5l0.4-0.2l0.5,0.2
					l0.1,0.3l0,0.7l0.2,0l1.1-0.5l0.7,0.5l-0.1,0.3l-0.6,0.2l-0.1,0.1l-1,0.2l-0.4,0.3c-0.3,1.1-0.4,2.2-0.3,3.4l0.2,0.7l0.1,0
					l0.2,0.5C32.2,21.9,32,22,31.7,22.1z M35.2,24.3c-0.6-0.2-1.2-0.5-1.6-1l-0.2-0.6c0.6-0.7,1.4-1.1,2.2-1.4l-0.1-1.7l-0.2-0.7
					l-0.1-0.7l-0.2-0.5l0.4-0.2l0.5,0.2l0.1,0l0.2,0.7l0,0.2l0.2,0.4l0.2,2.3c0.8,0.1,1.5,0.3,2.3,0.7l0.2,0.4
					c-0.1,0.2-0.3,0.4-0.5,0.4c-0.5-0.3-1.1-0.5-1.7-0.6c-0.1,0.6-0.2,1.1-0.4,1.7l-0.4,0.3L35.2,24.3z M35.5,23.3
					c0.2-0.3,0.3-0.7,0.2-1l-0.4-0.1l-0.8,0.6l0,0.3c0.2,0.2,0.5,0.3,0.8,0.3L35.5,23.3z M38.8,16.6c-1-0.3-2-0.6-3-1.1L35.6,15
					l0.4-0.2c1.1,0.5,2.2,0.8,3.4,0.9l0.1,0.3C39.4,16.4,39.1,16.5,38.8,16.6z"/>
			</g>
			<g>
				<path class="st0" d="M47.9,18.4l-0.5-0.4l0.3-0.4l-0.1-0.3c-0.5-0.6-0.9-1.3-1.4-1.9l-0.4,0c-1.3,0.7-2.6,1.4-4,2.1L41.2,17
					l0-0.2l0.2-0.4l0.7-0.2l3.4-1.6l-0.1-0.3c-0.5-0.3-0.9-0.8-1.2-1.4l0.6-0.3l0.3,0.2l0.4,0.1c0.3,0.5,0.6,0.9,0.9,1.3l0.6-0.1
					c0.8-0.6,1.7-1,2.6-1.3l0.5,0.7l-0.3,0.4l-0.4,0l-2.1,1.1l0.1,0.3c0.7,0.8,1.3,1.6,1.7,2.5C48.6,18,48.3,18.3,47.9,18.4z
					 M46.6,21.5c-1.2-0.7-2.2-1.5-3.1-2.5l-0.1-0.3c0.1-0.3,0.3-0.4,0.7-0.4c0.9,1,1.9,1.9,3,2.8C47,21.3,46.8,21.5,46.6,21.5z"/>
			</g>
			<g>
				<path class="st0" d="M54.3,19.7l-0.5-0.2l-0.2-0.4c0.6-2.9,1-5.8,1.3-8.6l0.6-0.2l0.4,0.4c-0.4,1.9-0.7,3.7-1,5.6l0.2,0l1.1-1.6
					l0.6-0.2c0.4,0,0.7,0.1,1.1,0.4c0.5,0.9,1.1,1.6,1.8,2.4l0.3,0c0.7-0.6,1.2-1.4,1.4-2.3l0.4-0.2c0.3,0.1,0.4,0.3,0.4,0.7
					l-0.6,1.3c-0.4,0.6-0.9,1.1-1.6,1.3l-0.8-0.2c-0.8-0.7-1.5-1.6-1.9-2.5l-0.4,0c-1,1.1-1.7,2.4-2.1,3.7l-0.2,0.7L54.3,19.7z"/>
			</g>
		</g>
		<g>
			<g>
				<path class="st0" d="M23.8,43.5c-1.4,0-2.8-0.4-4.1-1.1L19,41.2l1.7-0.7l4.3,1.5l0.2,0.7C24.8,43.2,24.4,43.4,23.8,43.5z
					 M25.1,51.1c-2,0.2-3.8-0.2-5.5-1.1l-0.6-0.8l0.2-0.3l2-0.5l4.1,0.6l0.9,1.4C26,50.9,25.7,51.1,25.1,51.1z M24.8,58.3
					c-0.9-0.3-1.5-0.9-1.6-1.7c1.7-0.8,3.2-2.2,4.5-4l0.3-0.9l1.2-0.3l0.5,1.3c-0.4,2-1.4,3.6-3,4.9L24.8,58.3z M45.2,54.7l-0.3-0.1
					l-9.1,2.2c-0.8-0.3-1.3-0.8-1.6-1.7c0.3-0.5,1-0.8,1.9-0.8l1.9-0.3l0.5-0.7l-0.5-2.1l0.2-0.8l-0.8-3.2l-1.5,0.4L35,47.9
					l-1.7-0.5l-0.5-0.9c1.1-0.6,2.5-1.2,4.2-1.8l0.2-1.4l-1.1-4.4c-0.9-0.4-1.7-0.4-2.4-0.1L31,40.1l-1.7-0.8L29,38.4
					c1.4-0.8,3.1-1.6,5-2.3l0.2-0.4l-0.6-2.6l-0.3-0.2l-1.1-4.4l0.9-0.8l1.7,0.2l0.4,0.3l1.6,6.6l0.7,0.5l4.3-1l0.7-0.4
					c1-0.2,2-0.1,2.9,0.3l0.3,0.7c-0.6,0.7-1.4,1.1-2.5,1.4l-2.4,0.6l-1.5,0.1l-0.7,1.2l0.6,2.5l-0.1,0.3l0.7,2.8l0.8,0.5l3.1-0.7
					l1.4,0.5l0.3,0.8L45,45.3l-3.3,0.8l-0.9,0c-0.4,1.2-0.5,2.4-0.2,3.6l0.3,0.5l-0.2,0.2l0.6,2.4l0.7,0.3l4.8-1.2l1.3,0.7l0.1,0.6
					C47.6,54.1,46.6,54.5,45.2,54.7z"/>
			</g>
			<g>
				<path class="st0" d="M55.8,52.2l-1.7-1L54,50.8l0.1-0.3l-0.7-3.1l0.1-0.3l-0.9-3.6l0.1-0.2l-0.6-2.6l0.2-0.3l-0.6-2.6l0-2.2
					l-0.6-2.4c-0.2-0.9-0.2-1.5,0.1-1.9l4.2-0.3l3.9-1.6l7.2-1.7l0.5-0.3l0.9,0.1c0.4,0.5,0.7,1.1,0.7,1.9l-0.1,0.3l0.5,2.1L69,32.1
					l0.6,2.3l-0.2,0.3l0.9,3.6L70,38.6l0.6,2.5l-0.1,0.4l0.6,2.5c0.2,0.9,0.2,1.5-0.2,2l-1.8,0.7l-2.6,0.6l-0.2,0.3l-5.1,1.2
					L61.1,49l-2.6,0.6l-1.8,0.9l-0.4,1.4L55.8,52.2z M66.7,33.1l-0.1-2.5L66,29.8l-0.9-0.1L62,30.4l-0.1,0.3L60,31.2L58.2,32
					l-2.5,0.6l-2.2,1.3l0.4,2.5c1.2,0.3,2.3,0.3,3.2,0.1l2.2-1l3.6-0.9l2.6-1.1l0.8,0L66.7,33.1z M67.8,38.6l-0.4-2.4l-0.5-0.9
					l-4.8,1.2L62,36.7l-2.4,0.6l-0.2,0.2L57,38.1l-2.4,0.1L54.1,39l0.7,2.8l0.8,0.4l3.1-0.7l0.2-0.2l8.7-2.1L67.8,38.6z M68.1,44.6
					c0.5-0.9,0.6-2,0.1-3.2c-1-0.3-1.9-0.3-2.7-0.1l-5,1.2l-0.2,0.3L58,43.2l-1.2,0.5l-1.5,0l0.3,3.5l0.8,1l2.4-0.3l0.2-0.3l3.4-0.8
					l0.2-0.3l2.7-0.6L68.1,44.6z"/>
			</g>
		</g>
	</g>
</g>
</svg>
