<?xml version="1.0" encoding="utf-8"?>
<!-- Generator: Adobe Illustrator 22.1.0, SVG Export Plug-In . SVG Version: 6.00 Build 0)  -->
<svg version="1.1" id="レイヤー_1" xmlns="http://www.w3.org/2000/svg" xmlns:xlink="http://www.w3.org/1999/xlink" x="0px"
	 y="0px" width="311.2px" height="131.7px" viewBox="0 0 311.2 131.7" style="enable-background:new 0 0 311.2 131.7;"
	 xml:space="preserve">
<style type="text/css">
	.st0{fill:#FCDC6A;}
	.st1{fill:#616161;}
	.st2{fill:#0091EA;}
</style>
<g>
	<path class="st0" d="M0.9,91.3c0.6,0.2,1.8,0.3,2.8,0.3C2.9,91.4,2,91.3,0.9,91.3z"/>
	<path class="st0" d="M3.7,91.6C3.7,91.6,3.7,91.6,3.7,91.6C3.7,91.6,3.7,91.6,3.7,91.6C3.7,91.6,3.7,91.6,3.7,91.6z"/>
	<path class="st0" d="M208.4,80.8c-0.3,0-0.6,0-0.9,0C207.8,80.8,208.1,80.8,208.4,80.8z"/>
	<path class="st0" d="M54.8,92.3l0.2-0.4c2.5,0,0.7,0.5,3,0.4c0.9-0.6,3.8,0.1,4.6-0.2c0,0,1.1,0.1,1,0.2c0.3-0.3,1.2-0.1,1.9-0.1
		c0.3-0.1-0.2-0.1-0.4-0.2l1.6-0.1c0.6,0.1,0.8,0.3,0.1,0.3c4.3,0.1,24.8,0.4,29.4,0.3c-0.6-0.2-2-0.1-2.6-0.4
		c1.2-0.2,1.8,0.1,2.3-0.1c0.5,0.5,2.7,0.1,3.6,0.7l0.3-0.3l0.6,0.2c5.4-0.3,1.2-0.2,6-0.1c2.7,0,4.1-0.5,5.6-0.3
		c-0.2,0-0.8-0.2-0.1-0.3c0.1,0.3,1.9-0.2,2.2,0.1c0.7,0,3,0,2.2-0.4c0.4,0.2,2.4,0.3,1.2,0.4c0.7,0,1.3,0.1,1.8,0l-0.9-0.1
		c2.3-0.1,3.5,0.2,5-0.1l-0.8-0.1c1.4,0,2.5-0.1,3.1,0.3l-1.4,0.1c2.3,0,3.7,0,5.5-0.2l-0.7,0c2.4-0.4,15.1-0.7,17.3-1.1l-1-0.3
		l1.9-0.2c-0.2,0-0.9,0.9-1.1,0.8c4.1,0,25.5-0.2,29.3-0.1c1.5,0.2,0.3,0.4,0.3,0.5c1.9-0.1,0.8-0.3,2.4-0.3
		c0.4,0.1-0.1,0.2-0.3,0.3c0.7,0,1.3,0.1,1.4-0.1c-0.9-0.1-0.5-0.5-0.9-0.7l2,0l-0.1,0.2c0.5,0,1.2-0.6,3.2-0.5
		c3.4,0.1,7,0,10.4,0.1c-0.1,0.1-0.8,0.2-1.5,0.3c0.5,0,1.1,0,1.6,0.1c-0.8-0.2,1.4-0.2,0.8-0.3c2.5-0.5,5.7,0,7.9-0.4
		c0.2-0.5,4.7-8.4,4.7-9c0.7,0,1.4,0,1.6,0.1c-0.2-0.1-1.5-0.2-2.2-0.1l-0.1,0.3c-1.6,0.1-0.4-0.2-2-0.2c-0.1-0.3,1.4-0.3,2.7-0.3
		c-1.2,0-2.3-0.2-2.8,0.1c-1.1-0.1,0.1-0.3-1.2-0.4c-0.9,0.1-2.2,0.3-3.3,0.2l0,0c-2.6-0.3-4,0.4-6.4,0.1l0.3-0.1
		c-0.8-0.1-2.5,0.1-4-0.1c0.4,0.1,0.8,0.2-0.1,0.3c-1.8-0.2-3,0-4.2-0.2l-1.2,0.2c-6.1,0-30.3,0.3-36.5,0.3l0.2,0
		c-9.4,0.1-28.6,0.1-38.3,0.4c-1.5-0.2-3.6-0.2-5.1-0.3c0.9,0.1,0.6,0.3-0.1,0.3c-4.8,0-0.3,0.2-5.1,0.3c-5.5,0.2-26.8,0-31.7-0.2
		c-2.6,0.4-5.9,0.1-8.5,0.3l0.3-0.1c-2.8,0.1-18.5-0.2-21.8-0.1l0.4,0.1c-2.8,0.2-2.4-0.2-4.7-0.3c0.3,0.4-2.1,0.6-3,0.7l0-0.1
		c-1.4,0.1-4.5,0.4-6.8,0.5l0.1-0.2c-1.9,0.2-5.5,0.1-6.9,0.2c-3.1-0.1-8-0.5-12.2-0.2L2,81.8l-0.4,0.1c0,0-4.4,7.6,1.2,9.3
		l-0.1,0.2l1.1,0c1.3,0.1,1.9-0.1,1.8,0.1l-1.8,0c1.3,0.1,0.4,0.2-0.1,0.3c0.6,0,1.1,0,1.5,0.1c0.3-0.1-0.2-0.1-0.4-0.1
		c0.7-0.1,1.7-0.3,2.6-0.2c1.4,0,0.1,0.4,1.7,0.4c8.3,0.2,16.4,0.4,24.9,0.4c0.2,0.1,0,0.1-0.3,0.1c2.5-0.1,4.8-0.1,7.1-0.2
		c0.6,0.1,0.8,0.2,1,0.3C41.5,92.3,54.6,92.3,54.8,92.3z"/>
</g>
<g>
	<path class="st1" d="M57.9,131.7l-0.8-0.5l-0.3-1.7v-4.8c-1.2-0.1-2.1-0.5-2.8-1.1l-0.1-0.2c0.8-0.3,1.7-0.6,2.7-0.9l0.4-0.8V119
		h-1.9l-1.2-0.9v-0.2l1-0.4h1.9c0.4-0.5,0.5-1.2,0.4-1.8l-0.2-0.2v-1.7l1.1-0.2l0.7,0.4l0.1,0.1v1.6l0.2,1.5h0.8l0.2-0.2h1.9
		l0.6,0.7c-0.9,0.7-2,1.1-3.4,1.3l-0.2,0.3v2.7l0.9,0.4l1.8-0.7h1.6l0.5,1c-1.4,0.6-2.9,1-4.7,1.2l-0.3,0.3v3.1l0.2,0.2v1.7l0.1,0.2
		v2L57.9,131.7z M74,120.3c-1-0.6-1.8-1.4-2.3-2.4l-0.4-1.8v-2.7l-1.5-0.4l-3.2,1.1v1.2l0.5,2.3c-0.3,0.4-0.8,0.5-1.3,0.4L65,117
		l-0.8-6.1l1-0.3l0.8,0.4l0.4,1.1h1.3l2.6-0.6h2.3l0.5,0.4l0.2,1.5v2.3c0,1.8,0.6,3.2,1.7,4.4C74.9,120.3,74.5,120.4,74,120.3z
		 M75.6,131.5c-1.9-0.7-3.9-1.7-5.8-2.9l-1.9,2h-1.6l-0.5-0.4v-0.2l0.6-0.3l0.2-0.5c0.9-0.4,1.5-1.1,1.9-2.1l-2.9-3.3l-0.2-0.8
		c1.1-0.6,2.3-0.9,3.7-1h1.8l0.5-0.2l2.9,0.5l0.1,0.7l-3.2,4.5c1.9,1.3,3.8,2.5,5.7,3.5l0.1,0.2C76.6,131.5,76.1,131.6,75.6,131.5z
		 M70.2,125.8v-0.5l1.1-1.9l-1.8-0.2l-1.5,0.4v0.7l1.2,1.4H70.2z"/>
	<path class="st1" d="M84.5,131.2l-0.6-0.9c0.4-1.7,0.7-3.6,0.8-5.6H84l-3.7,4.7h-1.2l-0.4-0.3v-0.5l4.7-5.8V122h-1.1l-1.9,0.3
		l-1.1-1.1l0.7-0.4l0.4,0.1l1.2-0.3h1.5l1.5-0.5l0.2-1.4l-0.4-1l-0.6-0.2c-0.7,0.6-1.5,0.9-2.3,0.9c-0.3-0.1-0.4-0.2-0.3-0.6
		c2.4-1.9,5.1-3.4,7.9-4.5l0.9,0.5l0.1,0.7l-3.8,1.8l-0.2,0.6l0.4,3.1h1.1c1.4-0.5,2.8-0.9,4-1.1l1.1,0.8v-1.1l-0.1-0.1v-2l-0.1-0.4
		l1.2-0.7h2.9l3.5,0.9l0.1,0.1v2c0.5,0.3,0.7,0.6,0.6,1.1l-1.2,0.4h-2.1l-1.3,0.4h-2.3l-1.4-0.4c-1.8,0.9-3.8,1.5-6,1.8v0.9l0.7,1
		l3,0.9l0.4-0.4v-1.5l0.1-0.1h1.5l1.3,0.2l0.2-0.2h2.9l1.3-0.3h1.5l0.2-0.2h1.6l0.2-0.2h1.8l0.8,0.8c0.5,1.2,0.7,2.4,0.7,3.7
		l-0.2,0.1v2l-0.7,1.9l-1,0.2l-0.7-0.9c0.4-0.7,0.6-1.5,0.7-2.4v-2.4l-0.6-1.4l-0.3-0.2h-2.1l-0.2,0.2h-2.4l-0.2,0.2h-1.5l-0.1,0.2
		h-1.9l-1.2,0.5l-0.3,1.3v2.4l-0.2,0.6l0.2,0.2v2l-0.2,0.4l-1.3,0.2c-0.5-0.4-0.7-1-0.6-1.7l0.1-0.2v-1.5l0.1-0.1v-2.3
		c-1.3-0.1-2.5-0.4-3.7-1c-0.4,0.6-0.5,1.2-0.5,1.8v2.1l-0.2,0.2v2l-0.5,0.7H84.5z M92.9,114.2l-1.1-0.7l-0.1-0.7l0.1-0.2h2.3
		l0.7-0.3l0.2-0.9l-0.4-1.9l0.5-0.2l1.3,0.7l0.6,2.1l1.6,0.2l2.6-0.3l0.7,0.5l0.1,0.4c-0.5,0.4-1.1,0.7-1.7,0.8h-3.9L92.9,114.2z
		 M95.7,129l-1.5-0.7l-0.1-1.3l0.1-0.1v-2l1.3-0.4h2.1c0.9,0.1,1.7,0.5,2.3,1.2l0.4,1.8l-1.1,1.4l-0.8,0.1H95.7z M98.2,118.3
		l0.2-1.5l-1-0.2h-2.6l-0.4,1.1l0.4,0.9l1.2,0.2L98.2,118.3z M98.2,127.6l0.4-1.1l-0.4-0.7l-1.8-0.3c-0.4,0.5-0.5,1.1-0.4,1.8
		c0.6,0.6,1.3,0.8,2.1,0.5L98.2,127.6z"/>
	<path class="st1" d="M119.4,131c-1.2-0.2-2.3-0.7-3.3-1.4c-1.7-1.6-2.5-3.5-2.4-5.8v-2.2l-0.2-0.1v-3.8l0.2-0.1v-3.6
		c0.3-0.4,0.8-0.5,1.3-0.4l0.6,0.5v0.9l-0.1,0.1v3l-0.1,0.1v2.9l0.1,0.1v2.1l0.1,0.1v1.5c0.2,1.5,0.8,2.8,1.9,3.8
		c0.7,0.4,1.5,0.7,2.4,0.8l2.1-0.9l0.1-0.4l1.3-0.3l0.5,0.4v0.5C122.7,130.2,121.2,130.9,119.4,131z"/>
	<path class="st1" d="M148.7,131.1c-0.9,0-1.6-0.4-2.2-1.1c-1.3-1.4-2.1-3.1-2.2-5v-2.4c0.6-2.5,1.7-4.8,3.1-7.1h-0.9
		c-2.8,1.2-5.6,2.1-8.4,2.8c-0.6-0.2-1-0.5-1.1-1.1v-0.4c4.3-1.2,8.7-2.4,13-3.6l1.1,0.6l0.1,0.7l-2.4,2.5c-1.4,2.2-2.4,4.7-3,7.4
		c0.3,1.7,0.9,3.3,1.9,4.7l1.8,0.5l0.2,0.7l-0.5,0.6H148.7z"/>
	<path class="st1" d="M165.7,129.4c-1-0.3-1.8-0.8-2.5-1.6c-0.4-0.4-0.6-1-0.6-1.7c1.8-1.7,3.7-2.8,5.9-3.5c0.4-1,0.6-1.9,0.8-2.9
		v-2.5l-0.5-1.2l-0.9-0.3l-0.7,0.1l-0.9-1.3l0.8-0.4h1.6l2,1.6l0.4,1.7v2.8l-0.3,1.8l0.1,0.1h1.7l0.1-0.1h1.6l0.4,0.1
		c0.6-1.5,1-3.1,1.2-4.8v-1.8c0.3-0.4,0.7-0.6,1.2-0.5l0.7,0.4l0.4,1.2l-1.3,5.9l2.5,0.8l0.3,1.3l-1.2,0.3l-1.7-0.8l-0.4,0.1
		c-0.5,1.6-1,3.2-1.3,4.8l-0.8,0.3l-0.9-0.7v-1.1l1-3.9l-1.3-0.1l-3,0.7c-0.7,1.8-1.7,3.4-3,4.8L165.7,129.4z M165.9,127.6l1.4-2.6
		h-0.4l-2.2,1.6v0.6c0.3,0.4,0.6,0.6,1.1,0.5L165.9,127.6z"/>
	<path class="st1" d="M192,130.7c-0.9-0.4-1.5-1-2-1.9v-1l1.1-1.1l2-0.7h1.7l0.6-0.3l0.4-1.7l-0.1-0.4l0.1-0.1V121l-0.3-0.7
		l-0.9-0.5l-0.1-0.4l0.8-0.5v-0.8c-0.5-1.8-1.2-3.6-2.1-5.3c0.3-0.4,0.7-0.5,1.2-0.4l0.8,0.8c0.8,1.6,1.4,3.2,1.9,4.9l0.6,0.1
		c2-0.6,4-1.2,6-1.9l1.2,0.5l0.1,0.8c-2.5,0.6-5.1,1.3-7.6,2.1l-0.1,0.9l0.3,1.2v2l-0.1,0.1v1.8c2.4,0.5,4.7,1.5,6.8,2.8l0.3,1.2
		c-0.4,0.3-0.9,0.3-1.4,0.3l-0.4-0.6c-1.7-1-3.5-1.7-5.5-2c-0.5,1.2-1.3,2.3-2.4,3.2l-0.5,0.1H192z M193.8,129.1
		c0.6-0.4,1-1,1.1-1.7l-0.6-0.1c-0.9,0.2-1.7,0.6-2.4,1.2l-0.1,0.5c0.3,0.4,0.8,0.6,1.3,0.5L193.8,129.1z"/>
	<path class="st1" d="M225.2,131.4l-0.8-0.9c2.1-2.7,3.5-5.7,4.1-9l-0.4-0.7l-0.7-0.4H225c-2.5,0.3-5,1.1-7.3,2.2l-0.6-0.5l-0.1-0.9
		c2.1-1.3,4.4-2.1,7-2.4h3.3c1,0.1,1.8,0.5,2.5,1.2c0.4,0.7,0.7,1.5,0.7,2.5c-0.6,3.2-2.1,6.1-4.4,8.7L225.2,131.4z M225.8,115.4
		l-0.7-0.7l-0.6-1.1l-3.6-3l0.3-0.5l1-0.1l4.9,4.1v0.6l-0.3,0.7H225.8z"/>
	<path class="st1" d="M246.6,124.2l-1.1-1l-0.1-0.4v-3.6l0.1-0.6l-0.1-0.5l0.4-2.4v-1.9l0.9-0.4l0.9,0.5l0.3,1l-0.4,1.3v1.4
		l-0.3,1.4v2L247,121v1.6l0.1,0.6l-0.2,0.7L246.6,124.2z M246.2,130.4l-0.9-0.7v-0.9l0.4-1l1.4-0.4c0.3,0.5,0.5,1.1,0.5,1.8
		l-0.6,1.1L246.2,130.4z"/>
	<path class="st1" d="M254.5,124.2l-1.1-1l-0.1-0.4v-3.6l0.1-0.6l-0.1-0.5l0.4-2.4v-1.9l0.9-0.4l0.9,0.5l0.3,1l-0.4,1.3v1.4
		l-0.3,1.4v2l-0.1,0.1v1.6l0.1,0.6l-0.2,0.7L254.5,124.2z M254.1,130.4l-0.9-0.7v-0.9l0.4-1l1.4-0.4c0.3,0.5,0.5,1.1,0.5,1.8
		l-0.6,1.1L254.1,130.4z"/>
</g>
<g>
	<path class="st1" d="M115.4,42.7l-1.1-0.8l-0.1-0.1v-2.1l0.2-1.2l-0.1-0.5l0.7-5.7l-0.7-0.2l-4.1,1.1l-0.2,1l0.1,0.3l-0.1,0.6
		l0.3,1.7l-0.1,0.3l0.2,0.5l-0.6,0.6h-0.4l-0.7-0.2c-0.2-0.4-0.3-0.9-0.3-1.4v-2.6l-0.5-0.2c-0.7,0.5-1.4,0.7-2.2,0.7l-0.6-0.6
		l-0.1-0.6c1.1-0.4,2.2-0.7,3.4-1.1l0.1-0.1v-1.1l-0.3-2.2l0.7-0.3l1,0.6l0.2,0.6l-0.1,0.1v1.4l0.2,0.5l0.3,0.1
		c1.5-0.5,3-0.9,4.5-1.1l0.2-0.3v-1.4l-0.1-1.1l0.9-0.2l0.8,0.5l0.1,0.1v1.1l-0.1,0.7l0.6,0.3l1.1-0.4h1.2l0.5,0.4v0.6
		c-1,0.4-2.1,0.8-3.3,1l-0.3,1.1v1.4l-0.2,1v1.1l-0.2,1v1.2l-0.1,0.1v1.1l-0.1,0.1v1.4l0.2,0.6C116,42.3,115.8,42.6,115.4,42.7z"/>
	<path class="st1" d="M136.2,42.6l-0.9-0.6v-0.3l0.1-0.1v-1.3l-0.2-1.2l0.1-0.1v-1.2l-0.3-2.1v-1.2l-0.5-0.5c-2,1.8-3.9,3.6-5.6,5.5
		h-0.6l-0.8-1c3.9-3.5,7.8-7,11.9-10.5l0.8-0.1l0.6,0.6V29l-4.4,3.5v0.9l0.2,0.7v1.2l0.2,0.8v1.1l0.1,0.1v2.2l0.1,0.1v1.2l0.5,1.1
		C137.1,42.3,136.7,42.5,136.2,42.6z"/>
	<path class="st1" d="M154.6,42.6l-1.3-0.6l-0.1-0.3l0.2-1.5l-0.2-1.1v-4.1l-0.1-0.4l0.1-0.1v-1.2l0.1-0.1v-5.3l-0.1-0.6
		c0.3-0.4,0.6-0.5,1.1-0.3l0.8,0.6v1l-0.1,0.1v3.3l-0.1,0.1v2c0.6,0.2,1.3,0.3,2.1,0.3l0.3-0.1l1,0.2h1.2l1.1,0.2h1.5l0.6,0.5v0.3
		l-0.5,0.5h-2.4l-0.1-0.1h-1.3l-0.1-0.1h-1.7l-0.1-0.1h-1.4l-0.2,0.2v2.4l0.1,0.1v2l0.2,0.6v1.2L154.6,42.6z"/>
	<path class="st1" d="M172.3,43l-1-0.6l-0.1-0.6v-5.6l0.1-0.1v-4.3l-0.1-1.1c0.3-0.5,0.8-0.7,1.3-0.8l1,0.1l0.2-0.1h1.5l2.8-0.7
		l0.8-1.8l0.6-0.1l0.6,0.4l0.1,0.6l-0.2,0.7l0.9,0.3l0.2-0.2h2.5l0.6-0.1l1.4,0.5l0,0v2.1l0.3,1.4V35l0.1,0.2v3.1l0.1,1.2l-0.1,0.1
		v1.8l-0.5,1.3h-0.6l-0.8-0.6l-0.1-0.7l0.6-1v-4.6l-0.1-0.1v-2.6l-0.1-0.1v-1.9l-0.3-0.9l-1.1-0.4l-0.2,0.2h-1.6l-0.1,0.1h-1.2
		l-0.8,0.5l-0.7,2.2c1.1,1.1,2.2,1.9,3.4,2.3l0.2,0.8l-0.2,0.1c-1.3-0.2-2.5-0.9-3.7-2l-1.7,3.9l-0.4,0.1l-0.8-0.5l-0.2-0.8
		c0.9-1.8,1.6-3.7,2.3-5.8h-1.3l-0.2,0.1h-1.8l-0.8,0.3l-0.3,0.2v5.2l-0.1,0.2V41l0.3,1.5l-0.2,0.5L172.3,43z"/>
	<path class="st1" d="M195,41.6c-0.6,0-1.1-0.2-1.5-0.7l-0.2-0.8V39c0.1-1.7,0.7-3.3,1.5-4.7c1.9-2,4.1-3,6.7-3.2
		c1.2,0.1,2.2,0.5,3.1,1.4c1.8,1.8,2.9,4,3.3,6.4v1.6l-0.4,0.5h-0.6c-0.5-0.1-0.8-0.5-0.9-1c0.3-0.4,0.4-0.9,0.3-1.4
		c-0.4-2.1-1.4-4-3.1-5.7l-0.9-0.4c-0.9,2.8-2.2,5.3-4.1,7.7c-0.6,0.6-1.2,1-2,1.2H195z M196.3,40.1c1.8-1.9,3.2-4,4.2-6.2l0.3-1.1
		l-0.6-0.2c-1.5,0.6-2.9,1.5-4.3,2.7c-0.9,1.4-1.3,3.1-1.4,4.9c0.2,0.3,0.5,0.4,0.9,0.3L196.3,40.1z"/>
</g>
<g>
	<g>
		<path class="st1" d="M225.8,87c-1.6-0.1-3-0.7-4.2-1.7c-0.5-0.4-0.8-1-0.7-1.7c1.2-1.9,2.6-3.8,4.2-5.5h0.3v-0.7
			c-1-0.3-1.8-0.9-2.5-1.9c-0.5-0.7-0.8-1.5-0.9-2.4l-1.3-0.1l-0.1,0.1h-2.2l-0.7-1.1c0.3-0.3,0.7-0.5,1.2-0.4l1.3,0.1l1.6-0.4
			l0.3-0.5V69l-0.3-1.4l1.1-0.1l0.6,0.5l0.1,0.8l-0.1,0.4l0.1,0.2v1.3l0.8,0.1l2.4-0.9l0.1-0.4l0.7-0.3h1.6l0.6,0.5v0.7
			c-1.8,0.8-3.8,1.5-5.8,2.1l-0.1,0.2v1.3l1.3,1.8l1.4,0.8c1.3-1.4,2.9-2.2,4.6-2.4l0.8,0.5v0.4l-3.6,2l-0.1,0.4l2.1,2l0.4,1.4
			l-0.4,0.9l-0.8,0.3l-0.9-0.8v-0.8l0.1-0.7l-1.1-1.3H227c-1.9,1.8-3.3,3.7-4.2,5.8c1,0.8,2.1,1.2,3.4,1.2h1.3
			c2.2-0.5,4.3-1.3,6.3-2.4l0.6,0.3l0.3,0.9c-2.1,1.3-4.5,2.2-7,2.7H225.8z"/>
		<path class="st1" d="M245.6,81.1c-1.4-0.1-2.7-0.6-3.7-1.3l-0.1-0.9l0.9-0.3c1.5,0.3,2.9,0.8,4.2,1.6l0.1,0.5
			C246.8,81.1,246.3,81.2,245.6,81.1z M243.4,87.3l-1.2-1V86c1.6-1,3.3-1.6,5.2-2l0.2,0.5l-0.4,0.8
			C245.9,86.2,244.7,86.8,243.4,87.3z M246.5,75.8l-3.6-3.4l-0.2-0.8c0.3-0.3,0.7-0.4,1.2-0.3c1.2,0.9,2.3,1.9,3.2,3.2l0.2,0.7
			l-0.3,0.7H246.5z M253.7,88.4c-0.8,0-1.5-0.4-1.9-1.1l-0.1-0.7l0.8-0.6V84l-0.1-0.7l0.1-0.2v-1.8l-0.1-0.7l0.3-0.4h1.9l0.6-1v-4
			l-1.4-0.3l-1.9,0.5h-1.7l-1.1-1v-0.5l0.5-1.2l-0.2-0.6c1.6-2.2,3.5-4,5.7-5.4l1.4-0.2l0.6,0.5v0.6l-1.9,1v0.8l1.6,0.7l0.1,0.1v2.5
			l1.4,0.4l4.5-0.7l0.6,0.3l0.4,1l-2.2,0.7h-3.5l-1,0.4l-0.2,1.7l0.2,0.6l-0.2,0.1v2.5c1.9,0.2,3.6,0.7,5.1,1.6
			c0.5,1.8,1.2,3.5,1.9,5.2l-0.6,1.9l-0.3,0.1c-0.9-0.7-1.9-0.9-3.1-0.8l-1.3,0.3h-2.2L253.7,88.4z M254.7,73l0.4-1.2l-0.2-0.5
			l0.2-0.5c0-0.8-0.3-1.4-1-1.6l-3.7,3.2v0.7l0.3,0.3h3.1L254.7,73z M261.1,85.6l0.2-0.8l-1.1-2.8l-2-0.4h-2.1l-1.7,0.7l-0.4,2.2
			l0.6,1.5l0.2,0.3h3l0.2-0.2h1.6L261.1,85.6z"/>
		<path class="st1" d="M285.3,87.7l-0.7-0.5v-0.4l0.8-2.9v-2l-0.9-0.5l-1.3,0.5h-2.6l-0.7,0.3v3l-0.9,0.6l-1-0.5l-0.3-0.9l0.6-1.8
			c-0.6-0.5-1.3-0.7-2.1-0.5l-0.4,0.1l-2.2-1.1l-0.5,4.4l0.1,0.8c-0.3,0.4-0.8,0.6-1.5,0.4l-0.7-0.4V86c0.4-1.6,0.8-3.3,1-5.1v-2.5
			l0.3-1.8l-0.2-1.4l0.2-0.5l-0.2-0.2v-1.6l-0.3-1.2l1.3-0.4l1.2,0.8h2l8.9-1.1l1.1,1l0.4,1.9v1.7l0.3,1.1l-0.1,0.2v2l0.1,0.1v3.4
			l-0.1,0.2v2.2l-0.2,0.2v1.8l-0.7,1.1H285.3z M277.7,80.9l0.6-0.8v-2.1l-0.4-0.5h-2.6l-1.4-0.2l-0.2,0.9l0.1,0.4l-0.1,0.1v2.3
			l1.2,0.2l0.1-0.2h2l0.3,0.2L277.7,80.9z M278.1,76.1l0.5-1.5l-0.4-1.4l-1.6-0.2l-0.2,0.2h-2.1l-0.5,0.5v2.1c1,0.5,2.1,0.7,3.2,0.7
			L278.1,76.1z M285.1,80.1l0.3-0.3v-2.8l-1.2-0.4c-0.7,0.4-1.3,0.7-2,0.8l-1.6-0.2c-0.6,0.9-0.8,1.9-0.8,3l0.4,0.5h3L285.1,80.1z
			 M284.9,75.2l0.3-0.3l-0.9-2.4l-0.9-0.2l-0.2,0.2h-1.7l-1,0.2l-0.4,3.2l1.6,0.4C282.9,76.1,283.9,75.7,284.9,75.2z"/>
		<path class="st1" d="M306.6,87.4c-1.2-0.2-2.3-0.7-3.3-1.4c-1.7-1.6-2.5-3.5-2.4-5.8v-2.2l-0.2-0.1v-3.8l0.2-0.1v-3.6
			c0.3-0.4,0.8-0.5,1.3-0.4l0.6,0.5v0.9l-0.1,0.1v3l-0.1,0.1v2.9l0.1,0.1v2.1l0.1,0.1v1.5c0.2,1.5,0.8,2.8,1.9,3.8
			c0.7,0.4,1.5,0.7,2.4,0.8l2.1-0.9l0.1-0.4l1.3-0.3l0.5,0.4v0.5C310,86.6,308.4,87.3,306.6,87.4z"/>
	</g>
	<g>
		<g>
			<path class="st2" d="M13,86.9v-1.1l0-0.1c1.4-2.5,2.4-5.1,3-7.8c-3.2-1.8-5.9-4.4-8-7.7l0-0.1v-0.1c0-0.8,0.1-1.4,0.2-1.7l0-0.1
				L9.5,68l1.8,1.4l0,0.1c0.7,1.6,1.7,2.9,3,4.1l2.5,2.1v0.8h0v-0.3c1.3-3.4,2.6-6.8,3.9-10.2L19,65.8L18.9,66h-2.2l-0.2,0.2h-3.1
				l-0.2,0.2h-2.3l-1.1-0.2l-0.4,0.1l-1.2,2.1l-0.3,0.6c-1.5,2.3-2.8,4.7-3.8,7.2l-0.1,0.1l-1.9,0.2l-0.1-0.1C1.3,75.9,1,75,1.1,74
				l0-0.1l7.2-12.2l1.3-0.4l1.7,0.9l0.2,0.9l-0.2,0.5l0.2,0.2h2.5l0.2-0.2H22l2.2,0.8l0.4,1.7l-9.3,22.2l-1,0.2L13,86.9z"/>
		</g>
		<g>
			<path class="st2" d="M51.1,86.9v-0.8l0.2-0.2v-2.1l-0.4-2.1l0.2-0.2v-1.9l-0.6-3.5l0-1.9l-0.6-0.5c-3.3,2.9-6.4,6-9.3,9.1
				l-0.1,0.1h-1.3l-1.5-1.9l0.2-0.2c6.5-5.9,13.2-11.8,20-17.8l0.1,0l1.5-0.2l1.3,1.1v1.2l-7.4,5.9v1.3l0.3,1l0,2.1l0.4,1.2l0,1.8
				l0.2,0.2v3.7l0.2,0.2v2.2l0.8,1.9L55,86.6c-0.5,0.8-1.3,1.2-2.2,1.4l-0.1,0L51.1,86.9z"/>
		</g>
		<g>
			<path class="st2" d="M97.6,86.7c-0.1,0-0.3,0-0.4,0l-0.1,0l-1.4-1V85l0.2-0.5L94.2,80h-0.5c-3.9,2.5-8.2,4.1-13,4.7l-0.1,0
				l-0.2-0.2h-1.8l-1.8-1.2l-0.4-1.4l0-0.1c1.7-5.7,3.7-11.4,5.8-17l0.1-0.1l1.8-0.2l1.1,1.7l0,0.1c-2,5-3.9,10.2-5.4,15.3
				c0.5,0.3,1,0.4,1.6,0.4c0.2,0,0.3,0,0.5,0c4-1.2,8-2.7,11.8-4.7l0.2-1.1l-1.5-5.7l0.1-0.1c0.3-0.4,0.8-0.7,1.3-0.7
				c0.1,0,0.3,0,0.4,0l1.3,0.8l0,0.1c1,5.1,2.2,10.2,3.6,15.1l0,0.1l-0.1,0.1C98.6,86.5,98.2,86.7,97.6,86.7z"/>
		</g>
		<g>
			<path class="st2" d="M126.8,87.3v-1.4l0-0.1c2.1-4.3,3.8-8.8,5-13.4l-0.2-0.1l-0.1,0.1h-1.9c-5,1.1-10,2.7-14.7,4.7l-0.1,0
				l-1.3-0.6l-0.7-1.8l0.2-0.1c5.7-2.4,11.9-4.2,18.3-5.1l3.2,0l1.4,1.2v0.7c-2.1,5.7-4.3,11.2-6.7,16.7l-0.1,0.1l-1.2,0.2
				L126.8,87.3z M115.1,66.5l-0.2-1.9l0.2-0.1c2.7-1,5.5-1.7,8.2-2.2l1.9,0l1.9-0.4l1.9,0l1.3-0.2l1.4,0.8l0.2,1.8l-1.5,0.4l-2.1,0
				l-0.5-0.1l-0.1,0.1h-2.1c-3.2,0.6-6.4,1.4-9.6,2.3l-0.1,0L115.1,66.5z"/>
		</g>
		<g>
			<path class="st2" d="M162.1,86.9v-0.8l0.2-0.2v-2.1l-0.4-2.1l0.2-0.2v-1.9l-0.6-3.5l0-1.9l-0.6-0.5c-3.3,2.9-6.4,6-9.3,9.1
				l-0.1,0.1h-1.3l-1.5-1.9l0.2-0.2c6.5-5.9,13.2-11.9,20-17.8l0.1,0l1.5-0.2l1.3,1.1v1.2l-7.4,5.9v1.3l0.3,1l0,2.1l0.4,1.2l0,1.8
				l0.2,0.2v3.7l0.2,0.2v2.2l0.8,1.9l-0.1,0.1c-0.5,0.8-1.3,1.2-2.2,1.4l-0.1,0L162.1,86.9z"/>
		</g>
		<g>
			<path class="st2" d="M194.1,87.2l-1.7-2l0.2-0.2c3.6-2.4,7.3-5,10.8-7.5l0.1,0h0.3l0.1-0.4l0.1,0c2-1.6,4.2-2.8,6.5-3.7l0.3-0.1
				l0.3,1.3l-0.1,0.1c-4.4,4.3-9.1,8.2-14,11.8l-0.1,0h-0.3l-0.1,0.4l-0.3,0.3H194.1z M193.8,74.9c-2.2-2.8-4.2-5.7-5.9-8.7
				l-0.1-0.2l0.1-0.1c0.5-0.5,1.1-0.7,1.7-0.7c0.2,0,0.5,0,0.8,0.1l0.1,0l0,0.1c2,2.5,4.1,5.2,6.2,7.9l0.6,1.2v2.1l-1.4,0.5
				L193.8,74.9z"/>
		</g>
	</g>
</g>
<g>
	<path class="st2" d="M80,20.5l-0.6-0.6l0-0.4c-0.5-1.5-1.5-2.6-2.8-3.4l-0.9-0.6l-0.1-0.2l0.1-0.3c1-0.6,1.9-1.3,2.9-2l0.7-3.4
		l0.7-0.3c1.1,0.6,2,1.4,2.8,2.3l0.1,0l1.3-0.4l0-0.1l1.7-0.5l0.3-0.3l0.7,0.2l0.2,0.4c-0.6,1.2-1.1,2.4-1.4,3.7l0.1,0.3l0.4,0.7
		l0.3,1l-0.1,0.8l0,0.1l-0.7,0.2c-1.1-0.6-2.2-0.8-3.4-0.4l-0.5,0.5l-0.1,0.4C81.2,19.2,80.6,19.9,80,20.5z M78.5,16l-0.1-0.3
		l-0.1,0l-0.1,0.3L78.5,16z M78.9,15.3l0.1-0.7l-0.6,0.1l0,0.6L78.9,15.3L78.9,15.3z M79.7,15.5l0.2-0.3L79.8,15l-0.3,0l-0.1,0.5
		l-0.1,0l0,0.1L79.7,15.5L79.7,15.5z M79.9,14.7l0-0.2l0-0.2l-0.3-0.1l0.1,0.5L79.9,14.7z M80.2,15.2L80.2,15L80,15.1l0.1,0.2
		L80.2,15.2z M80.8,16.6l-0.1-0.3l-0.3,0.1l-0.1,0.3l0.3,0L80.8,16.6z M80.7,13.3L80.6,13l-0.2,0l0.1,0.4L80.7,13.3z M81.1,16.2
		l0-0.4l-0.3,0.1l0-0.1l-0.1,0l-0.1,0.5L81.1,16.2L81.1,16.2z M81,11.3l0-0.1l-0.2,0l0,0.2L81,11.3z M81.7,15l-0.1-0.3l0.1-1
		l0.2-0.1l0-0.6l-0.1,0l-0.1-0.3l-0.1,0l0,0.5l-0.1,0l-0.2-0.5l-0.3,0l0-0.2l-0.1,0l0.2,1.9l0.4,0.2l0.1,0.3L81.7,15z M81.3,15.6
		l0-0.2l-0.2,0l0,0.4L81.3,15.6L81.3,15.6z M81.7,16.4l0.5-0.7l0-0.5l-0.1,0l-0.2,0.1l-0.4,0l-0.1,1.1L81.7,16.4L81.7,16.4z
		 M82.2,16.3l0-0.1l-0.3,0l0,0.2L82.2,16.3z M82.4,15l-0.1-0.3l-0.4,0.1l-0.1,0.3L82.4,15z M83.8,15.6l0-0.4l-0.2-0.3l0.1,0l0.3,0
		l-0.1-0.4l0.3-0.2l0-0.1l-0.2-0.4l-0.7,0L83.1,15l0.2,0.3l0.2-0.1l0,0.1l0,0.2l0.2,0L83.8,15.6z M84.1,16.5L84.1,16.5l-0.5-0.2
		l0.1,0.2L84.1,16.5L84.1,16.5z M84.4,13.5l0-0.9l-0.5,0.1l-0.3,0.6l0.1,0.2L84.4,13.5L84.4,13.5z"/>
	<path class="st2" d="M101,14.9c-0.5-0.3-0.9-0.8-1-1.4l-0.2-0.7l-0.1-0.1l-0.3-1.6l0-0.2l-0.1-0.3l-0.1-0.6L99,10l-1.1,0.2L96,11.2
		L96,11.3l0.6,2.7l0.3,0.5l0.2,0.7c-0.1,0.3-0.2,0.4-0.5,0.4l-0.6-0.3l-0.2-0.6l0-0.5L95.6,14l-0.3-1.3l0.1-0.1L95,11l0.1-0.1
		l-0.2-0.7l0.1-0.1l-0.3-1.5l0.1-0.1l-0.2-0.8l-0.1-0.1l-0.2-1l0.5-0.1L95,6.6l0.3,0.5l0.2,1l0.1,0.2l0,0.6l0.2,0.9l0.3,0.1l1-0.4
		l1.1-0.2l0.7-0.1L99,8.8l-0.3-1.4l0.1-0.1l-0.2-1l0.1-0.1l-0.2-1L98.7,5l0.5,0.2l0.2,0.3l0.1,1.4l0.1,0.2l-0.1,0.1l0.2,1.1
		l-0.1,0.1l0.2,0.9l0,0.8l0.7,3.1c0.3,0.4,0.5,0.9,0.7,1.5L101,14.9z"/>
	<path class="st2" d="M104.5,14.2c-0.4,0-0.8-0.1-1.2-0.3l-0.7-0.8l-0.3-1.7c0-1.1,0.3-2.2,0.9-3.2c0.3-0.3,0.6-0.4,1.1-0.5l0.8,0.3
		c0.8,0.8,1.3,1.6,1.7,2.7c0,0.9-0.3,1.8-0.9,2.6C105.5,13.7,105.1,14.1,104.5,14.2z M104.9,13c0.5-0.5,0.8-1,0.9-1.7l0-0.2
		l-0.2-0.9l-0.9-1.5l-0.5,0.1l-0.6,0.9c-0.1,0.5-0.3,1-0.4,1.5l0.2,0.9l0,0.5l0.5,0.7l0.4,0.1L104.9,13z"/>
	<path class="st2" d="M112.5,12.7l-0.5-0.1l-1.1-2.5l-0.1,0c-0.2,0.9-0.4,1.9-0.5,2.8l-0.4,0.1l-0.3,0c-0.4-0.4-0.7-0.9-0.8-1.6
		l-0.3-1.7L107.8,8l0.5-0.3l0.5,0.2l0.2,0.4l0.2,1.2l0.1,0.1l0.2,1.1l0.1,0c0.4-1,0.5-2.1,0.5-3.2l0.5-0.2l0.5,0.3l0.2,1.3
		c0.2,0.7,0.4,1.2,0.8,1.6l0-1.5l-0.1-0.9l0.1-0.5l0.5-0.2l0.4,0.2l0.1,0.4c0,0.6,0,1.2-0.2,1.8l0.2,0.9c0,0.6-0.1,1.3-0.2,2
		L112.5,12.7z"/>
	<path class="st2" d="M124,11.3l-0.2,0l-0.4-0.6l-0.5-4.2l-0.6,0.1l-1,0.5l-0.8-0.6l0-0.3l0.2-0.3l0.7-0.1l0.1-0.1l1.1-0.1l0.3-0.3
		l0.1-0.1l-0.2-1.9l-0.1-0.1l-0.3-2.6l-0.1-0.2c0.1-0.3,0.3-0.4,0.5-0.4l0.6,0.3l0.1,0.6l-0.1,0.6l0.2,2l0.1,0.2l-0.1,0.1l0.1,1.2
		l0.5,0.1l1-0.3l0.6,0.2l0.2,0.5l-0.5,0.4L124.1,6l-0.2,0.3l0.1,1.2l0,0.2l0.1,0.1l0.1,0.7l0,0.4l0.1,0.1l0.1,0.8l0.4,1.4L124,11.3z
		"/>
	<path class="st2" d="M129.8,10.5c-0.4,0-0.8-0.2-1.2-0.4L128,9.3l-0.2-1.8c0.1-1.1,0.5-2.1,1.2-3.1c0.3-0.2,0.7-0.4,1.1-0.4
		l0.8,0.4c0.7,0.8,1.2,1.8,1.4,2.8c-0.1,0.9-0.4,1.8-1.1,2.5C130.8,10.1,130.4,10.4,129.8,10.5z M130.2,9.3c0.5-0.4,0.9-0.9,1.1-1.6
		l0-0.2l-0.1-0.9L130.5,5l-0.5,0l-0.6,0.8c-0.2,0.5-0.4,0.9-0.5,1.5l0.1,0.9l0,0.5l0.4,0.8l0.4,0.1L130.2,9.3z"/>
	<path class="st2" d="M145,10c-0.7-0.7-1.1-1.5-1.3-2.4l-0.2-0.1L142.3,9l-0.6,0.1c-0.4-0.2-0.7-0.5-0.9-0.9l-0.3-0.9l-0.1-1.8
		l0.1-0.1l0-0.9l0.6-0.2c0.4,0.1,0.5,0.5,0.5,1l-0.1,0.3l0,0.8l0,0.5l0.2,0.7l0.3,0c0.6-0.5,1-1.2,1.3-1.9l-0.1-1.2l-0.1-0.5
		c0.2-0.2,0.4-0.2,0.7-0.2l0.5,0.6l0.1,1.6c0.2,1.2,0.6,2.4,1.2,3.4L145,10z"/>
	<path class="st2" d="M149,9.3c-0.6-0.1-1.1-0.5-1.5-1l-0.3-0.5l0.1-0.4l0.5-0.1c0.2,0.5,0.6,0.8,1,1.1l0.4,0c0.4-0.2,0.8-0.4,1-0.8
		l0-0.2c-1-0.8-1.8-1.7-2.5-2.7l-0.1-0.8c0.2-0.5,0.6-0.8,1.1-1l1.3-0.3c0.5,0,1,0.2,1.3,0.6l0.1,0.5L151,3.8l-0.1-0.3l-0.8-0.1
		L149,4l-0.1,0.5l0.6,1l1.3,1.1c0.3,0.4,0.5,0.8,0.6,1.3l-0.5,0.8C150.3,9.1,149.7,9.3,149,9.3z"/>
	<path class="st2" d="M154.9,9.3c-0.4,0-0.7-0.3-1-0.6c-0.4-0.5-0.6-1.1-0.6-1.8l0-1.5c0-0.8,0.3-1.5,0.9-2.1c0.3-0.2,0.6-0.3,1-0.2
		c0.8,0.4,1.4,1,1.9,1.8l0,0.5c-0.8,0.7-1.7,1.3-2.7,1.5l-0.1,0.1l0,0.7l0.3,0.7l0.4,0.1c1-0.4,2-0.9,3-1.4c0.1,0.2,0.2,0.4,0.1,0.7
		C157.3,8.5,156.1,9.1,154.9,9.3z M155.2,5.4l0.8-0.6l0-0.2l-0.9-0.8c-0.3,0.2-0.5,0.5-0.6,0.9l-0.2,1l0.4,0.1L155.2,5.4z"/>
	<path class="st2" d="M169,9.5l-0.4-0.2l-0.2-0.8l0.1-0.2L168.3,8l0.1-0.4l-0.1-0.1l0.1-3.5l-0.1-0.1l0-1.1l-0.2-1.5l-0.4-0.1
		l-1.6,0.4L165.8,1l0-0.2c0.7-0.2,1.4-0.4,2.1-0.4l1.9,0.1l0.3-0.1l0.1,0.1l1,0l0.5-0.1l0.6,0.4l0.1,0.4c-0.3,0.2-0.6,0.3-1.1,0.2
		l-0.1-0.1l-0.7,0l-0.1-0.1l-1,0l-0.1,0.7l0.2,1.3l0,0.9l-0.1,0.5l0.1,0.1l-0.1,1.9l0.1,0.2l-0.1,0.4l0.1,0.1l-0.1,1.3l0.1,0.6
		L169,9.5z"/>
	<path class="st2" d="M174.7,9.8l-0.4-0.5l0.2-3.1l0.1-0.1l0.1-1.8L175,4l0.4,0l0.3,0.2l0.1,0.5l-0.2,0.4l-0.1,0.9l-0.1,0.2l0.1,0.3
		l-0.1,0.1L175.4,8l-0.1,0.7l0.1,0.1l-0.1,0.8C175.2,9.8,175,9.8,174.7,9.8z M175.7,2.3c-0.3-0.1-0.6-0.3-0.7-0.6l-0.2-0.9l0.5-0.2
		l0.5,0.4l0.1,0.6l0.2,0.1l0.1,0.2C176.1,2.2,176,2.3,175.7,2.3z"/>
	<path class="st2" d="M178.8,10.1c-0.3-0.1-0.4-0.3-0.5-0.6l0-0.5l0.1-0.5l-0.1-0.1l0.1-1.2l-0.1-1l0.1-0.2l-0.1-0.5l0.2-0.3l0.5,0
		l0.3,0.3l-0.1,1l0.2,0.1c0.2-0.6,0.6-1.1,1.1-1.5c0.3-0.2,0.6-0.2,0.9-0.1l0.7,0.8l0.2,0c0.2-0.3,0.5-0.4,0.7-0.3l0.5,0.4
		c0.2,1.3,0.5,2.7,0.9,3.9l-0.4,0.2l-0.5-0.4C183.3,8.8,183.1,8,183,7l-0.1,0c-0.5,0.8-0.8,1.7-1.2,2.6l-0.5,0
		c-0.3-0.3-0.4-0.6-0.3-1.1l0.6-2.3L181.3,6l-0.2,0c-0.9,1.2-1.5,2.5-1.8,4L178.8,10.1z"/>
	<path class="st2" d="M186.7,10.9c-0.4-0.1-0.7-0.3-0.9-0.8c-0.3-0.6-0.4-1.2-0.3-1.9l0.2-1.5c0.1-0.8,0.5-1.5,1.1-2
		c0.3-0.2,0.6-0.2,1-0.1c0.7,0.5,1.3,1.2,1.7,2l-0.1,0.5c-0.9,0.6-1.8,1-2.8,1.2l-0.1,0.1l-0.1,0.7l0.2,0.7L187,10
		c1.1-0.3,2.1-0.7,3.2-1c0.1,0.2,0.1,0.4,0.1,0.7C189.2,10.4,188,10.8,186.7,10.9z M187.5,7.1l0.9-0.5l0-0.2l-0.8-0.9
		c-0.3,0.2-0.6,0.5-0.7,0.8l-0.3,0.9l0.3,0.1L187.5,7.1z"/>
	<path class="st2" d="M193.7,11.6l-0.4-0.4l0-1.2l0.1-0.9L193.4,9l0.3-1.9l0.1-0.1l0.2-1.2l0.1-0.1l0.1-0.9l0.1-0.1l0.5-3.4l0.6-0.1
		l0.4,0.3l0.1,0.1l-0.2,1.5l-0.1,0.1l-0.2,1.1l0,0.2l-0.1,0.1l-0.1,0.9L195,5.7l-0.1,0.9l-0.1,0.1l-0.2,1.2l-0.1,0.1l-0.1,0.7l0,0.2
		l-0.1,0.4l0,2.2l-0.1,0.1L193.7,11.6z"/>
	<path class="st2" d="M200.1,12.6l-0.3-0.6l0.5-3.1l0.1-0.1l0.3-1.7l0.3-0.3l0.4,0.1l0.3,0.3l0.1,0.5l-0.2,0.4L201.3,9l-0.1,0.2
		l0,0.3l-0.1,0.1L201,11l-0.2,0.7l0.1,0.1l-0.1,0.8C200.5,12.7,200.3,12.7,200.1,12.6z M201.8,5.3c-0.3-0.1-0.5-0.3-0.7-0.6L201,3.7
		l0.5-0.1L202,4l0,0.6l0.2,0.1l0,0.2C202.2,5.2,202,5.3,201.8,5.3z"/>
	<path class="st2" d="M204.6,13.2l-0.4-0.4l0.2-1.2l0.1-0.2l-0.1-0.1l0.3-1.7l0.1-2c0.3-0.2,0.6-0.2,0.9-0.1c0.1,0.3,0.1,0.7,0.1,1
		l-0.2,0.8l0,0.3l0.3,0.1l0.4-0.4c0.4-0.3,0.9-0.4,1.5-0.4l0.6,0.4c0.2,1.2,0.4,2.4,0.6,3.5l0.3,0.4l-0.1,0.3l-0.8-0.1l-0.7-1.1
		c0-0.8,0-1.6-0.1-2.4l-0.3-0.1c-0.7,0.3-1.3,0.8-1.7,1.4l-0.4,1l-0.2,1C205.1,13.3,204.9,13.4,204.6,13.2z"/>
	<path class="st2" d="M211.9,14.9c-0.4-0.1-0.6-0.4-0.8-0.8c-0.2-0.6-0.3-1.2-0.2-1.9l0.3-1.5c0.2-0.8,0.7-1.4,1.3-1.9
		c0.3-0.1,0.7-0.1,1,0c0.6,0.6,1.1,1.3,1.5,2.2l-0.1,0.5c-0.9,0.5-1.9,0.9-2.9,0.9l-0.1,0.1l-0.2,0.7l0.1,0.7l0.4,0.2
		c1.1-0.2,2.2-0.5,3.3-0.7c0.1,0.2,0.1,0.4,0,0.7C214.4,14.7,213.2,15,211.9,14.9z M213.1,11.2l0.9-0.4l0-0.2l-0.7-1
		c-0.3,0.2-0.6,0.4-0.8,0.7l-0.4,0.9l0.3,0.1L213.1,11.2z"/>
	<path class="st2" d="M225.7,18.2l-0.2-0.8l0.2-0.3c0.3-1.5,0.2-3-0.5-4.4l-0.5-1l0.1-0.2l0.3-0.2c1.2,0,2.3,0,3.5-0.1l2.4-2.4
		l0.7,0.1c0.6,1.1,0.9,2.3,1.1,3.4l0,0.1l1.3,0.4l0.1-0.1l1.7,0.5l0.4-0.1l0.5,0.5l-0.1,0.5c-1.1,0.7-2.2,1.4-3.2,2.3l-0.1,0.3
		l0,0.9l-0.3,1l-0.5,0.6l-0.1,0.1l-0.7-0.2c-0.6-1.1-1.5-1.8-2.6-2.2l-0.7,0.1l-0.3,0.3C227.4,17.8,226.6,18.1,225.7,18.2z
		 M226.9,13.6l0.1-0.3l-0.1,0l-0.2,0.2L226.9,13.6z M227.6,13.3l0.5-0.5l-0.5-0.2l-0.4,0.5L227.6,13.3L227.6,13.3z M228.2,13.9
		l0.3-0.1l0.1-0.2l-0.3-0.1l-0.3,0.4l-0.1,0l0,0.1L228.2,13.9L228.2,13.9z M228.5,15.5l0.1-0.3l-0.3-0.1l-0.2,0.3l0.3,0.2
		L228.5,15.5z M228.9,15.2l0.2-0.3l-0.3-0.1l0-0.1l-0.2,0l-0.4,0.4L228.9,15.2L228.9,15.2z M228.7,13.3l0-0.2l0.1-0.2l-0.2-0.2
		l-0.2,0.5L228.7,13.3z M228.8,14l0.1-0.2l-0.2-0.1l-0.1,0.2L228.8,14z M229.3,15.7l0.8-0.3l0.2-0.4l-0.2,0l-0.2,0l-0.3-0.2
		l-0.6,0.9L229.3,15.7L229.3,15.7z M229.4,14.8l0.1-0.2l-0.2-0.1l-0.3,0.3L229.4,14.8L229.4,14.8z M229.8,15.9l0-0.1l-0.2-0.2l0,0.2
		L229.8,15.9z M230.1,14.6l0.1-0.3l0.6-0.8l0.2,0l0.3-0.5l-0.1,0l0.1-0.3l-0.1,0l-0.3,0.4l-0.1,0l0.1-0.5l-0.3-0.1l0-0.2l-0.1,0
		l-0.9,1.7l0.2,0.4l-0.1,0.3L230.1,14.6z M230.2,12.6l0.1-0.3l-0.2-0.1l-0.1,0.4L230.2,12.6z M230.8,14.9l0.1-0.3l-0.4-0.1l-0.2,0.3
		L230.8,14.9z M231.3,17.1L231.3,17.1l-0.3-0.4l-0.1,0.2l0.3,0.2L231.3,17.1z M231.5,11.1l0-0.1l-0.2-0.1l-0.1,0.2L231.5,11.1z
		 M231.6,16.2l0.2-0.3l0-0.3l0.1,0l0.3,0.1l0.1-0.4l0.3,0l0-0.1l0.1-0.5l-0.6-0.3l-0.8,0.9l0,0.4l0.2,0.1l0,0.1l-0.1,0.2l0.1,0.1
		L231.6,16.2z M233.2,14.8l0.4-0.7l-0.5-0.1l-0.5,0.3l-0.1,0.2L233.2,14.8L233.2,14.8z"/>
</g>
</svg>
