<?xml version="1.0" encoding="utf-8"?>
<!-- Generator: Adobe Illustrator 22.1.0, SVG Export Plug-In . SVG Version: 6.00 Build 0)  -->
<svg version="1.1" id="tit03" xmlns="http://www.w3.org/2000/svg" xmlns:xlink="http://www.w3.org/1999/xlink" x="0px" y="0px"
	 width="292.8px" height="33.9px" viewBox="0 0 292.8 33.9" style="enable-background:new 0 0 292.8 33.9;" xml:space="preserve">
<style type="text/css">
	.st0{fill:#616161;}
</style>
<g>
	<path class="st0" d="M11.5,33.1l-1.1-0.9v-0.7L14,19.6c-3-1-5.9-2.3-8.6-4l-0.3-0.9L6.4,14l8.3,3.6l2.4-7.1L15.3,10l-0.2,0.2h-2
		L12.9,10h-2.3l-0.2-0.2H7.8C5.9,12.6,4,15.4,2,18.2H1.3L0,16.4c2.4-3.5,4.7-7.1,6.9-10.9l1.3-0.2l1.1,0.9l0.4,1.4l0.2,0.2h2.7
		L12.7,8H16l1.1,0.2l0.2-1.1c-1-2.1-1.7-4.2-2.2-6.3L16,0.4l1.8,0.9c1,2.9,1.9,5.9,2.7,8.9c-1.3,2.9-2.4,5.9-3.1,9.1l1.1,1.1v0.6
		l-1.1,0.5l-0.7-0.1c-1.3,3.9-2.7,7.7-4.2,11.6L11.5,33.1z M25.3,12.5c-1.1-1.1-1.7-2.4-1.7-4V4.8l-0.5-4L24,0l1.6,0.7l0.2,0.2v1.8
		l0.4,1.6v4.2L26,8.7v3.5L25.3,12.5z"/>
	<path class="st0" d="M55.1,31.8l-1.7-2.1c1.8-5,3.1-10.3,3.9-15.8h-1.5l-0.2,0.2h-1.9L44.9,16H43v0.9c0.7,1.6,1.2,3.3,1.5,5.1
		l-1.7,0.8c-1.4-3.3-2.7-6.6-4-10c0.5-0.6,1.2-0.8,2.1-0.6l0.9,0.7l0.4,0.9l0.9,0.2l6.2-1.3l0.2-0.6l-0.4-0.6V9.6l-0.4-2.1V4.7
		l-0.2-0.6l0.4-0.4H51l0.7,0.7v5.1l0.7,2.4l1.5,0.2l3.2-0.6h2.6c0.7,0.5,1.1,1.1,0.9,1.9c-1.4,6-2.9,12-4.7,17.9L55.1,31.8z"/>
	<path class="st0" d="M86.2,21l-2.1-2.1c-2.3-2.9-4.3-5.8-6-8.8c0.6-0.6,1.4-0.8,2.3-0.6c2.1,2.6,4.3,5.3,6.4,8.1l0.6,1.1v1.9
		L86.2,21z M84.4,31.5l-1.5-1.7c3.8-2.5,7.5-5.1,11.1-7.7h0.4l0.2-0.6c2-1.6,4.2-2.9,6.6-3.7l0.2,0.9C96.8,23.1,92,27.2,87,30.8
		h-0.4l-0.2,0.6l-0.2,0.2H84.4z"/>
	<path class="st0" d="M118,30.8c-0.7-0.6-1.2-1.3-1.5-2v-1.9l-0.2-0.2v-2.2l-0.2-0.2V13.7l-0.2-0.2v-2.3c0.5-0.4,1.1-0.5,1.7-0.4
		l1.3,1.2h1.2c2.7-0.8,5.6-1.3,8.4-1.7h7.5l1.3,0.9V13l-0.2,0.2v9.5l0.2,0.7l-0.2,0.2v1.9l1.1,1.9c-0.6,0.9-1,1.8-1.1,2.8l-1.9,0.2
		l-0.9-1.3l0.2-0.6l-1.5-0.4l-0.2,0.2h-4.1l-0.2,0.2h-2.1l-6.5,1.3l-0.4,0.7L118,30.8z M134.5,25.7l0.2-1.1l-0.2-0.2v-3l-0.2-1.5
		l0.2-0.6l-0.2-0.2v-6.3c-0.6-0.4-1.3-0.5-2.1-0.4l-0.2,0.2h-1.9c-4,0.4-7.8,1.2-11.4,2.6l-0.2,0.2v1.9l0.2,0.2v2.8L119,21l-0.2,0.2
		v3.2l0.4,2.4h2.8l2.8-0.6h2.4l0.2-0.2h2.6l1.9-0.2l1.7,0.2L134.5,25.7z"/>
	<path class="st0" d="M155.5,22l-1.2-1.5l0.1-0.9c6.4-0.9,12.8-1.9,19.2-2.9l1.1,1.1l0.1,1.2l-0.6,0.7l-2.1-0.2
		C166.4,20.3,160.9,21.2,155.5,22z"/>
	<path class="st0" d="M195.3,33.1l-1.5-1.3l-0.7-3.6V25l-0.2-1l0.2-0.6l-0.2-0.6l0.4-1.9v-3.9l0.2-0.2v-4.5l0.2-0.2v-2.1l0.2-0.7
		l-0.2-0.2V6.6L193.2,4c0.5-0.4,1.1-0.5,1.9-0.4l1.1,0.9l0.2,0.8v4.1l0.2,0.6l-0.4,1.7V14l-0.2,0.9l0.2,0.6c3.8,1,7.6,1.8,11.7,2.4
		h2.1l1.3,1l-0.6,0.9l-2,0.4l-0.2-0.2h-2.1l-10.2-1.9l-0.4,1.2v4.1l-0.2,0.2v4.7l1.1,3.9l-0.4,0.8L195.3,33.1z M207.7,14l-1.5-1
		c-0.6-3-1.2-6.1-1.5-9.2c0.5-0.4,1.2-0.5,1.9-0.4l1.1,0.9l0.2,1.3v2l0.8,5.7L207.7,14z M213.6,15.6l-1.5-1.3
		c-0.4-3.6-0.9-7.2-1.5-10.7c0.4-0.5,0.9-0.7,1.5-0.6l1.1,0.7c0.5,1.8,0.8,3.6,1,5.5v2.4l0.2,0.2v3.4L213.6,15.6z"/>
	<path class="st0" d="M247.3,32.4l-0.8-0.9c1.3-2,2.1-4.4,2.4-7.1l-1.4-1.3l-1.2-0.2h-4.5l-0.9,0.2l-2.2-0.7l-3.7,8.4h-0.7l-1.4-0.6
		l-0.2-1.5c2.6-4.6,4.6-9.7,6-15.2h-2.4l-3.7,0.8h-2.2l-1.9-1.1l-0.4-1h6l0.3-0.2h2.3l2-0.9l0.6-1.6l-1.6-6.7l0.9-0.3l1.8,0.6
		l1.9,7.3l0.4,0.4h4l1.6-0.4h3.1l0.7,1.2l-0.6,0.7l-2.3,0.4l-1.5-0.2l-0.3,0.2h-3.4l-2,0.5c-0.5,2.5-1.2,5-2.2,7.4
		c0.8,0.6,1.8,0.9,2.8,0.6l2.2-0.2c2.5,0,4.7,0.8,6.6,2.3l0.5,0.6v3.2l-2.4,5.2L247.3,32.4z"/>
	<path class="st0" d="M265.7,30.9l-1.2-1.4c3-0.9,6.1-2.1,9.3-3.6l0.2,0.1v1.3C271.4,29.2,268.7,30.4,265.7,30.9z M271.4,20
		l-0.3-0.3h-3.5c-1.1-0.1-2.1-0.6-2.9-1.4l-0.2-0.5l1.4-0.4l3.7,0.9h2.3l1.1,0.7v0.6C272.7,20.2,272.2,20.3,271.4,20z M271.9,13.4
		c-2.4-1.2-4.3-2.6-5.7-4.2l1-0.4c2.1,0.7,4.2,1.8,6.1,3.2v0.3l-0.3,0.7L271.9,13.4z M291.1,33.9l-1.4-1.7l0.2-1.8
		c-0.6-0.9-1.4-1.2-2.4-1.1l-8,1.4c-0.7-0.5-1.2-1.2-1.3-1.9c1.5-3.2,3-6.7,4.3-10.5l-1.7-0.3l-2.9,0.3l-1.3-1.5l1.2-0.5l1.8,0.2
		l3-1l0.8-6.5l-1.4-0.8c-1.5,0.7-2.9,1-4.4,1l-1-1.6c2.1-0.5,4.4-1.1,7-1.9l0.3-2l-0.2-0.6l0-0.1h1.7l0.6,0.3l0.6,2.4l2,0.3l2.6-0.4
		l1.7,0.8v0.1c-0.9,0.8-2.1,1.2-3.5,1.2l-1.8-0.3l-1.3,0.7l-0.7,5.9c0.9,0.6,1.8,0.9,2.7,0.8l1-0.6h2l0.4,1.1l-0.6,0.8
		c-0.9,0-1.7,0.2-2.6,0.6l-0.7-0.3l-1.6,0.6l-4.3,10.7l1.5,0.4l0.3-0.3h2.2l3.7-1l0.3-2l-0.3-0.2v-2.5l-0.2-0.6
		c0.5-0.3,1.1-0.4,1.9-0.3l0.8,0.7l0.3,1.7v5l0.3,0.2v4.3C292.2,33.7,291.7,33.9,291.1,33.9z"/>
</g>
</svg>
