<?xml version="1.0" encoding="utf-8"?>
<!-- Generator: Adobe Illustrator 22.1.0, SVG Export Plug-In . SVG Version: 6.00 Build 0)  -->
<svg version="1.1" id="dive-tit02" xmlns="http://www.w3.org/2000/svg" xmlns:xlink="http://www.w3.org/1999/xlink" x="0px" y="0px"
	 width="503.3px" height="88.4px" viewBox="0 0 503.3 88.4" style="enable-background:new 0 0 503.3 88.4;" xml:space="preserve">
<style type="text/css">
	.st0{fill:#616161;}
</style>
<g>
	<path class="st0" d="M170.8,31.3l2.3-0.5l0.9,0.2h6.4l1.8,0.8l1.9-0.7l-0.4-1.1v-2.4l1.4-9.2l-0.2-0.5l-1.6-1.1l-1.2,0.2l-0.5,2
		l0.3,0.7l-1.2,9l-2.5,0.5l-0.7-0.2h-6.7l-0.2,0.2h-3l-13.3,2l-1.6-0.3v-3.6l0.4-1.8v-3.3l-0.6-4.4l-1.4-1.2c-0.6-0.1-1.2,0-1.6,0.3
		c0.6,1.9,0.9,4,1.1,6.3l-1.1,8.4l0.5,1.4l1.6,1l16.2-2.7H170.8z"/>
	<path class="st0" d="M163.4,7.4l2.1,0.5v2.7l-0.4,0.3l-2.4,0.9l-1.9-0.4l-1.8,0.2l-0.4,1.4v2.3l-0.7,3.4v4.2l-0.2,0.2l0.2,2.8
		l1.6,1h2.2l7.9-1.6h2.5l3.6-0.9l0.6-1.3l-0.4-1.8l0.2-0.9l-0.2-0.6l0.2-1.6v-6.5l-0.1-0.1l-2.2-0.9l-0.8,0.2h-4.7l-0.7-0.6l0.5-3.1
		l1.3-0.6h4.7c1.1,0.2,2-0.2,2.6-0.9V5.3l-1.6-1.2L171,4.6h-2.5l-0.2,0.2H165c-3.3,0.6-6.6,1.3-9.7,2v0.8l1.6,1.4L163.4,7.4z
		 M172.7,23l-0.8,0.5H169l-0.3-0.4l-0.8-2.2l0.3-0.9l1.5-0.7h3l0.6,0.6C173.6,21,173.3,22.1,172.7,23z M168.6,12.9h3.9l0.9,0.9v2.7
		l-0.6,0.6l-2.5,0.5l-2.3-0.2l-0.3-0.9C167.6,15.1,167.9,13.9,168.6,12.9z M166.3,23.7l-3.8,0.9l-1.7-0.5v-2.9l0.4-0.4l2.2-0.7
		l2.3,0.3l1.1,2.9L166.3,23.7z M165.4,17.5l-2.8,0.8l-1.5-0.6l0.5-3.1l2-1l1.4,0.3l0.5,1.8L165.4,17.5z"/>
	<path class="st0" d="M194.3,19v3.3c-0.1,2.6-0.6,4.9-1.4,7l0.2,0.9l1.5,1.2h0.6l1.1-1.1v-3.1l0.3-0.2v-4.5l0.2-0.2v-2.6l0.2-0.2
		v-2.1l-0.4-1.7c0.9-2.5,2.1-4.7,3.4-6.6l-0.3-0.7l-2-0.6l-0.4,0.2c-3,5.3-6.7,10.5-10.9,15.3l0.6,1.5h1.3l4.5-5.8H194.3z"/>
	<path class="st0" d="M210.8,20.5h1.9c-2.2,3.4-4.5,6.2-6.8,8.6l0.1,0.8l1.7,1.1l2.1-2.7l4.2-5.1l1.9,0.4l-1.5,2.8l-2,1.4l-0.8,0.6
		l-1.3,0.5l-1.7,2l0.2,0.8l1.4,0.2l3.4-2.6h1.5l-0.8,2.3l-2,2.2l0.2,1.1l1.3,0.5l1.5-0.8c1-1.5,1.8-3.2,2.3-5.2l4.6,2.5
		c0.9,0.2,1.6,0.1,2.1-0.2l-0.3-1l-4.5-2.5l-0.3-0.9v-1l5.3-3.7l-0.1-0.5l-0.9-0.5c-1.6,0-3.1,0.8-4.3,2.3h-1.9V23
		c-1.1-1.4-2.7-2.6-4.8-3.7l1.5-3c1.9,0,3.3,0.4,4.4,1.1h0.7l1-2.7v-2.6l0.4-1.9l-0.2-1.1l-1.1-0.5h-2.9l-2.5-0.6l1.9-4.2l-0.2-1
		c-2.3-0.7-4.6-1.5-6.9-2.5h-1l-4,5.1c-0.3,0.8-0.1,1.4,0.6,1.9h1.5c0.9-1.4,2.2-2.8,3.9-4.2l2.8,0.6l-1.7,4.5
		c-2.8,0.5-5.2,1.2-7.3,2l0.6,3.7l-0.7,2.8v0.9l1.4,1.4h0.7l0.8-1.1l2.4-1h1.1v1.3l-7.5,7.7v0.2l1.8,0.9
		C206.5,25.5,208.7,23.3,210.8,20.5z M213.2,10.9l2.8-0.8l1.9,0.9l-0.3,2.3v0.9c-1.8,0.2-3.4-0.1-4.8-0.9L213.2,10.9z M208.8,15.3
		l-1.9-0.3l-0.9-1.9v-1.4l2.6-0.8l2,0.8c0.2,1.3-0.1,2.3-0.8,3L208.8,15.3z"/>
	<path class="st0" d="M244.5,14.7c-4.3,0.2-7.9,1.9-11,5.1c-1.4,2.2-2.2,4.8-2.5,7.6v2l0.3,1.2c0.7,0.7,1.5,1.1,2.5,1.1h2.1
		c1.2-0.3,2.2-0.9,3.2-2c3.1-3.9,5.3-8.1,6.7-12.6l1.4,0.7c2.6,2.7,4.3,5.8,5,9.2c0.1,0.8-0.1,1.6-0.5,2.3c0.1,0.8,0.6,1.3,1.4,1.6
		h0.9l0.7-0.9v-2.7c-0.6-4-2.4-7.5-5.3-10.5C248,15.5,246.4,14.8,244.5,14.7z M242.9,19.1c-1.7,3.7-3.9,7-6.9,10.1l-1.3,0.7
		c-0.6,0.1-1-0.1-1.4-0.5c0.1-3,0.9-5.6,2.3-8c2.1-2,4.5-3.5,6.9-4.4l0.9,0.3L242.9,19.1z"/>
	<path class="st0" d="M272.9,29.1l0.5,2l-0.3,3.1l1.1,0.8l1.1-0.2l0.8-1.6l-0.9-5.5V25l0.7-0.7c2.1,1.3,4.2,2.2,6.4,2.8l1.1-0.2
		l0.3-0.6c-2.8-1.2-5.7-2.8-8.5-4.9v-3.9l0.4-0.4l3.3-0.9h2.2l1.2-0.7l-2-1.4l-3.4,0.7l-1.4-0.2L275,12V9.8l-0.2-0.2V6l1-0.6
		l-0.1-0.8l-0.9-0.6l-1.6,0.3c-2.7,2.1-5,4.6-7,7.4v0.4l1.2,0.6h1.1l2.6-3.1l1.5,0.9V15l-0.4,0.4c-3.4,0.5-6.3,1.4-8.9,2.7l1.4,1.6
		c2-0.6,4-1.3,6-2.3l2.1,0.3c-2.3,3.8-4.7,7.2-7.4,10.4l1.7,1.5l1.1-0.4c0.7-1.5,1.9-3,3.4-4.4l1.3,0.9V29.1z"/>
	<polygon class="st0" points="296.8,24.9 296.4,22.9 296.4,20.5 296.2,20.2 296.2,16.3 295.7,14.5 295.9,13.5 295.7,12.9 
		295.7,10.6 295.3,9.9 293.9,9.3 292.5,9.7 292.9,11.9 292.9,14.1 293.1,14.3 293.1,17.5 293.3,17.8 293.3,21 293.8,23.5 
		293.8,25.7 294.1,26 294.1,29 293.6,30.3 293.6,31 295.6,32.8 296.7,32.7 297.2,32 296.8,29.2 	"/>
	<polygon class="st0" points="287.2,21.8 286.6,18.4 286.6,16.1 285.5,12.4 284.2,12 282.7,12.6 283.1,13.5 283.3,15.5 284,18.3 
		284,20.5 284.7,23.7 285.4,26.6 286.7,27.8 287.8,27.6 288.2,26.7 287,22.6 	"/>
	<path class="st0" d="M330.7,18.8l0.2-0.3l-0.5-1.6v-2.4l-0.6-2.8l-1.6-1.4L315,12h-2.9l-1.8-1.1l-2,0.6l0.4,1.7v2.3l0.3,0.3
		l-0.3,0.8l0.2,2l-0.5,2.7V25c-0.3,2.6-0.7,5-1.4,7.4v0.5l1.1,0.5c1,0.3,1.7,0.1,2.2-0.6l-0.2-1.1l0.7-6.5l3.3,1.6l0.5-0.2
		c1.1-0.3,2.1,0,3,0.8l-0.8,2.6l0.5,1.3l1.4,0.7l1.4-0.8v-4.5l1.1-0.5h3.8l2-0.7l1.3,0.7v2.9l-1.1,4.3v0.6l1,0.7h1.1l1.1-1.5v-2.7
		l0.3-0.3v-3.2l0.2-0.2v-5l-0.2-0.2V18.8z M317.8,23.7l-0.8,1.2l-0.6,0.4L316,25h-2.9l-0.2,0.2l-1.8-0.3v-3.4l0.2-0.1l-0.2-0.6
		l0.3-1.2l2,0.3h3.7l0.6,0.7V23.7z M317.5,17.9l-1.5,0.5c-1.6,0-3.2-0.4-4.7-1.1v-3.1l0.8-0.7h3.1l0.3-0.2l2.3,0.3l0.6,2L317.5,17.9
		z M321.1,12.8l1.5-0.3h2.5l0.3-0.3l1.4,0.3l1.4,3.6l-0.5,0.5c-1.5,0.9-3.1,1.4-4.7,1.5l-2.4-0.6L321.1,12.8z M328.3,23.3l-0.5,0.4
		l-2.6,0.9h-4.4l-0.6-0.7c0-1.6,0.4-3,1.2-4.4l2.3,0.3c1-0.2,2-0.5,2.9-1.1l1.7,0.6V23.3z"/>
	<path class="st0" d="M351.1,33.6c0.1-0.8,0.4-1.6,0.9-2.2l-0.5-1.2l-1.3,0.2h-0.7l-0.6-2.3v-2l-0.2-0.2l0.2-0.7v-4.1l0.2-0.2v-1.8
		l0.7-2.3v-1.4l-1.3-1.1c-0.6-0.1-1.1,0-1.6,0.3V17l-0.3,1.2v2.7l-0.2,0.2v6.6c0.2,2.4,1.2,4.4,3,6.1L351.1,33.6z"/>
	<path class="st0" d="M364.4,17.8c0.8-0.1,1.5-0.4,2.1-0.9l-0.3-1.4l-1.1-0.6c-3.4,0.6-6.7,1.5-9.8,2.7v0.9l1,1
		c2-0.6,4.1-1.2,6.3-1.8H364.4z"/>
	<path class="st0" d="M364.7,24.3l-0.5,0.2c-0.6,0.1-1.4,0.1-2.3,0l-2.9-0.4c-0.7-0.1-1.3,0-1.8,0.4l0.3,1.4
		c0.8,0.6,1.8,0.9,2.9,0.9l1.3-0.2l0.7,0.2h3.6l1.3-0.5l-0.2-1.3L364.7,24.3z"/>
	<path class="st0" d="M393,14.8h-2.7l-2.9,0.9c-3.6,1.8-6.9,4.1-10,7v0.9l1.3,0.9h0.7l1.1-1.3c3.3-3.1,7.1-5.3,11.3-6.6l2.3,0.7
		c1.2,1.1,2,2.3,2.5,3.7v2.9c-0.5,1.9-1.3,3.7-2.3,5.4h-0.3c-0.3,0.7-0.9,1.3-1.6,1.6v0.5l1.4,1.1l1.3-0.2c1.8-2.3,3.2-4.8,4.1-7.5
		v-3.4c-0.3-1.7-1.2-3.2-2.5-4.5C395.5,15.9,394.3,15.2,393,14.8z"/>
	<path class="st0" d="M416.6,19.8v-1.8l-1.1-1.3l-2,0.3c0.8,4.6,2.1,9.1,3.8,13.5l1.3,0.9l1.6-0.2l0.6-0.9v-1.1l-0.9-0.7
		C418.3,25.8,417.2,22.9,416.6,19.8z"/>
	<path class="st0" d="M436.1,21.6l-0.2-0.2v-1.8l-0.6-2.4v-2l-0.9-1.1c-0.9-0.3-1.5-0.1-2,0.5l0.9,5.5v1.8l0.2,0.2v5.1l0.5,0.7
		l0.7,0.3l0.9-0.2l0.5-0.9l-0.2-1.4V21.6z"/>
	<path class="st0" d="M467.6,10.9l-0.2-0.9l-1.5-0.9c-5.9,1.6-11.7,3.2-17.6,4.9v0.6c0.2,0.8,0.7,1.3,1.5,1.5
		c3.8-1,7.6-2.2,11.4-3.8h1.2c-2,3.1-3.4,6.2-4.3,9.6v3.3c0.2,2.6,1.2,4.9,3,6.7c0.8,1,1.8,1.4,3,1.4h0.8l0.7-0.8l-0.3-0.9l-2.4-0.7
		c-1.4-1.9-2.2-4.1-2.6-6.4c0.7-3.7,2.1-7,4.1-10.1L467.6,10.9z"/>
	<path class="st0" d="M497.9,17c-1.4-1.4-3.1-2.2-5-2.3c-4.3,0.2-7.9,1.9-11,5.1c-1.4,2.2-2.2,4.8-2.5,7.6v2l0.3,1.2
		c0.7,0.7,1.5,1.1,2.5,1.1h2.1c1.2-0.3,2.2-0.9,3.2-2c3.1-3.9,5.3-8.1,6.7-12.6l1.4,0.7c2.6,2.7,4.3,5.8,5,9.2
		c0.1,0.8-0.1,1.6-0.5,2.3c0.1,0.8,0.6,1.3,1.4,1.6h0.9l0.7-0.9v-2.7C502.7,23.4,500.9,19.9,497.9,17z M491.4,19.1
		c-1.7,3.7-4,7-6.9,10.1l-1.3,0.7c-0.6,0.1-1-0.1-1.4-0.5c0.1-3,0.9-5.6,2.3-8c2.1-2,4.5-3.5,6.9-4.4l0.9,0.3L491.4,19.1z"/>
	<path class="st0" d="M6.1,1.8L5.9,1L5,0.3L4,0.5c-0.8,0.9-1.4,1.9-1.8,3L1.7,3.6L0,6.7L0.7,9l1.5,0.8h1.6l0.5-0.2l1.7-1.5v-1
		c-0.6-1-1.3-1.7-2.3-2.1V4.6C4.2,3.5,5,2.6,6.1,1.8z"/>
	<path class="st0" d="M10.2,5.9c0.4-1.2,1.2-2.3,2.1-3.3l-0.2-1l-1-0.6L10,1.1C8.6,3.2,7.5,5.4,6.6,7.6v1l2,1.8h2.2l0.8-0.7l1.2-1.5
		L12,6.6L10.2,5.9z"/>
	<path class="st0" d="M32.8,1.8L30.3,2c-1.3,0-2.5-0.5-3.5-1.5h-1l-1,1.2v2.5L24.4,5l0.2,2l-0.5,3.2v5.2l-0.3,0.3v7.9l0.5,2.7v3
		l0.2,0.3v3.2l0.3,0.7l1.7,0.8l2.5-0.8c4.6-7,7.9-14.6,9.9-22.7V6.5L37.5,4C36.2,2.7,34.6,2,32.8,1.8z M35.7,9.2
		c-1.7,6.6-4.1,12.8-7.2,18.7l-0.3,0.3l-1-2.5v-5l-0.3-0.3l0.3-1.2v-5l0.2-0.2v-5l0.5-2c1.3-1.3,2.8-2.1,4.4-2.5l2.2,0.5l1,1.5V9.2z
		"/>
	<path class="st0" d="M61.4,29.4l-1.7,0.8l-0.8-0.3l-0.8-1.5V17.9l0.3-0.3v-3.7l0.3-0.3l-0.3-1.3l0.3-0.8V7.1l0.8-1.2l3.2-0.8V3.9
		l-2-1.8l-2,0.3l-2-0.3l-1.3,0.3l-2.2-0.8l-1.7,0.5l0.8,2.2c1,0.7,2.1,1.3,3.2,1.8v2.8l-0.3,0.2v6.3L55,15.6v4l-0.3,0.3v6.3l0.5,2.8
		l-0.2,2h-2.8l-0.3,0.3v1.7l2,1.7c3.5,0,6.7-0.9,9.5-2.8l-0.3-1.7L61.4,29.4z"/>
	<path class="st0" d="M89.2,0.4l-1,0.3c-2.3,7.6-4.4,15.3-6,23.2h-0.8l-0.3-1.8v-4.3l-0.3-0.3v-3.3L80.6,14v-2.8
		c-0.3-3.8-1.3-7.5-2.8-10.8c-1-0.2-2,0-2.8,0.5c1,3.9,1.8,7.9,2.3,12.2v2.5l0.5,2.6v4c0.5,3.5,1.3,7,2.2,10.4l1.8,1.5l1.5-0.3
		c2.2-10.1,5-20,8.3-29.6l-0.3-2.8L89.2,0.4z"/>
	<path class="st0" d="M115.5,11.9l-7.7,2.2h-1v-3.2l0.3-0.3V5.2l0.3-0.3l3-1.2h3.4c1.2-0.3,2.2-0.7,3.2-1V1.2L115.5,0h-2.7
		c-4.6,0.8-9,2-13.3,3.7v1l2,1.7l0.7-0.3l1.5,0.5v5.9l-0.3,0.3v3l-0.5,2.7v3.9l-0.3,0.3v7.7l-0.8,0.7v1.5l1.7,1.5
		c5.4,0,10.1-1.7,14.1-5.2v-0.8l-1.3-1c-3,1.2-5.9,2.2-8.8,3.2l-1.3-0.3l-0.2-0.8v-2.7l-0.3-0.3l0.3-1.7v-5.2l0.5-1.2
		c2.7-1.2,5.4-2.1,8.2-2.7l1.7,0.3l1.3-0.3l1.7-1.5v-1l-1.5-1.2H115.5z"/>
	<path class="st0" d="M140.7,2.8l-2.1-1.3l-1.5,0.3l-2,2.4v0.7c0.4,0.9,1.1,1.5,2,2l2-0.3V6.4l0.5,0.2l-0.6,2.3l-1.1,0.7v1.1l1,0.7
		c0.6,0.1,1.2-0.1,1.6-0.5c0.9-1.2,1.4-2.6,1.6-4.1l-0.2-0.5l0.2-0.5C142,4.5,141.6,3.5,140.7,2.8z"/>
	<path class="st0" d="M129.7,1.3l-1.7,0.6c-0.7,0.4-1,1-1.1,1.8l-0.8,0.5l0.5,1.8l1.5,1.1l2.1-0.8h0.8c-0.2,1.1-0.8,2-1.7,2.8v0.5
		l1.1,1.1l1.1-0.2c1.1-1.7,1.9-3.6,2.3-5.6c0.1-0.7-0.1-1.2-0.6-1.6C132.2,2.5,131,1.8,129.7,1.3z"/>
	<path class="st0" d="M181.8,68.2l-0.7-1.3l-1.1-0.7l-1.6,0.5v1.1c1.5,1.4,2.9,3,4.1,4.6l1.6,0.7c0.6,0.1,0.9-0.1,1-0.6
		c-0.3-1.3-1-2.4-2-3.4L181.8,68.2z"/>
	<path class="st0" d="M177.3,74h-2.7c-1.5,0.4-3,0.9-4.3,1.6h-0.7v-2l0.2-0.2v-2.3l-0.2-0.2v-2.7l0.2-0.2l0.7-0.3h2.7l1.4-0.7
		l-0.2-1.6l-0.7-0.3c-1.1,0-2.1,0.2-3,0.7h-1.3l-0.4-1.1l0.2-0.5c-0.1-0.8-0.6-1.4-1.4-1.6l-1.6,0.6l0.5,2.3l-0.2,1.1
		c-2.3,0.5-4.4,1.1-6.5,2V69l1.3,1.3c1.8-0.3,3.5-0.7,5-1.4l0.5,0.2l0.3,0.7v2.7l-0.2,0.2l0.2,1.1l-0.3,3.4
		c-2.3,1.4-4.2,3.3-5.7,5.6l0.6,1.3l3,1.3c1.1,0,2-0.3,2.9-0.9c0.9-1.8,1.6-3.7,2-5.7l5.6-2.3l0.5,0.2l0.5-0.2
		c1.2,0,2.3,0.4,3.2,1.2l0.7,1.6l-1.8,4.6H178l-0.9,0.9v0.6l1.1,1l1.8-0.2c1.3-1.9,2.2-4,2.7-6.3c0-1.6-0.5-2.9-1.4-3.9
		C180,74.8,178.7,74.2,177.3,74z M165.5,82.7l-0.2,0.2l-0.7-0.2l0.2-1.1l0.9-0.7h0.6L165.5,82.7z"/>
	<path class="st0" d="M228.5,85.5l-4.9-3.4l2.3-3.5l2-1.2l0.6-0.8l-0.2-0.8v-2.8l-0.3-0.3l0.3-1.1v-6.3l-0.1-0.1l-1.6-1.1h-3.9
		l-0.2-0.3h-3.3l-1.2-0.8l4.9-5.2l-0.2-0.6l-2.2-1.3h-2.7l-0.2-0.2L217,56h-3.7l-0.3,0.3c0,0.8,0.4,1.4,1.2,2l2.1-0.3l1.2,0.4
		c-2,2.3-3.7,4.7-5.2,7.1l-0.5,0.2l-0.3,0.5c1.1,2,1.8,4.2,2.2,6.6l-0.5,2.7l0.5,1.5l2.2,1.8h3.9l0.3-0.3l1.2,0.4
		c-1.4,2.8-3.2,5.3-5.4,7.2v0.9l1.2,1.1h0.9l3.9-4.3h1.4v0.8l1.4,1.2l2.6,1.6c0.8,0.1,1.4,0,1.9-0.5v-0.4l-0.7-0.3V85.5z
		 M215.3,65.6h5.9l0.2,0.2h2.9l0.4,0.5l0.8,1.7l-0.4,0.3l-0.3,0.4l-3.3-0.5h-4.9l-1.7-0.9L215.3,65.6z M215.6,71.4l0.8-1.4l1.6,0.2
		h2.3l0.3-0.2l4.9,1.1l-0.5,1.1l-1.1,0.5l-1.3-0.2h-2.8l-0.2-0.2h-2.9L215.6,71.4z M218.2,76.9l-1.7-0.3l0.7-2.5h3.8
		c1,0,2.1,0.3,3.2,0.8v0.9L218.2,76.9z"/>
	<path class="st0" d="M199.4,77.8l-4.2,5.3v0.6l1.2,1h1.2c1.6-1.6,2.9-3.4,3.8-5.4l-1-1.6H199.4z"/>
	<path class="st0" d="M206.8,78.2l0.5-4.3l2.9-0.8l0.4-0.9l-0.2-0.8l0.6-5.9l0.2-0.5l-0.4-1.2l-1.2-0.8h-2.4l-0.5-0.4l-0.5-1.6
		l0.3-1.3c1.8-0.2,3.3-0.5,4.5-1.1v-0.4l-1.3-1h-5.1l-1.9,0.5h-2.9c-2.8,0.3-5.5,0.9-8,2l0.1,0.3l2.5,1.8
		c-1.3,7.5-2.5,14.9-3.6,22.2l0.3,2.2l1.5,0.8l1.2-0.2l0.1-0.2l-0.2-1.4l0.2-1.9v-3.7c1.4-6.1,2.7-12.4,3.9-18.9l3.4-1.3l1.3,0.3
		l0.9,1.2v2l-3.7,1.2c-0.5,1-0.8,2.1-1.2,3.1v3l-0.2,0.3v2.8l1.7,1.7l3-0.5h1.1v4.2l-0.7,4.1l0.2,2.2l1.5,1.2l1.5-0.4v-1.9l-0.2-0.3
		l0.3-3.1h1.1l2.8,2.6l1.6-0.4v-0.6l-2.1-2.3C209.1,79.2,208.1,78.6,206.8,78.2z M201.9,65.9l3.9-1.2l2.9,0.8l-0.9,2.1l-1.4,0.6
		L205,68h-2.8l-0.7-0.8L201.9,65.9z M202.8,72.5l-1.7-0.5v-1.4l1.1-0.9h4.2l1,0.4l0.3,1l-0.4,0.4L202.8,72.5z"/>
	<path class="st0" d="M239,73v-1.8l-1.1-1.3l-2,0.3c0.8,4.6,2.1,9.1,3.8,13.5l1.3,0.9l1.6-0.2l0.6-0.9v-1.1l-0.9-0.7
		C240.7,79.1,239.6,76.2,239,73z"/>
	<path class="st0" d="M258.5,74.8l-0.2-0.2v-1.8l-0.6-2.4v-2l-0.9-1.1c-0.9-0.3-1.5-0.1-2,0.5l0.9,5.5v1.8l0.2,0.2v5.1l0.5,0.7
		l0.7,0.3l0.9-0.2l0.5-0.9l-0.2-1.4V74.8z"/>
	<path class="st0" d="M283.1,71.3l1.1-1l-0.2-1.1c-3.2-1.7-6.6-2.8-10.3-3.4c-0.8-0.2-1.5-0.1-2.1,0.5l0.2,0.7
		c3.8,0.9,7.3,2.3,10.6,4.2H283.1z"/>
	<path class="st0" d="M279.9,82.6h-3.5l-1.8-0.6h-1.8l-0.3,0.4l0.2,1c1,1,2.1,1.4,3.6,1.4h2.7c3.1-0.3,5.8-1.3,8.1-3l-0.5-1
		C284.4,81.5,282.2,82.1,279.9,82.6z"/>
	<polygon class="st0" points="292.9,61.5 292.5,59.4 291.1,58.7 289.9,59 290,60.1 290,61.9 290.2,62.1 290.2,63.8 290.6,65.6 
		290.6,72.2 292,73.4 292.5,73.2 293,70.4 293,63.5 292.7,62.1 	"/>
	<path class="st0" d="M286.3,61.7l-0.6-1.2l-1.2-0.7l-1.4,0.3c0.4,3.9,1.2,7.5,2.5,11l1.4,0.5l0.9-0.7c-0.7-2-1.2-4-1.6-6V61.7z"/>
	<path class="st0" d="M321,79.2l-0.5,0.7c-1.7,1.3-3.5,2.3-5.5,3h-1.4c-0.8-0.2-1.4-0.8-1.8-1.6v-0.9c1.4-2.4,3.1-4.6,5.2-6.6
		l0.2-0.5h0.3l2.7-2.3l-0.2-1.1l-1.2-0.7c-2.3,1.5-4.3,3.4-6.2,5.5l-0.6-0.2l-4.8-9.8l-1.3-1c-0.6-0.1-1.1,0-1.6,0.3
		c2,4.3,4.2,8.5,6.6,12.7l-1.6,2.7v2.1c0.7,1.5,1.8,2.7,3.4,3.6h3c2.4-0.8,4.7-1.9,7-3.2l0.2-0.5l0.7-0.3l-1-1.8H321z"/>
	<path class="st0" d="M338.8,58h-1c-2.1,4.4-3.4,9.2-3.9,14.4v3.9l1.2,0.9l1.5-0.6v-2.5c0.7-4.8,2-9.4,3.9-13.8l-0.4-1.5L338.8,58z"
		/>
	<polygon class="st0" points="335.3,82.9 334.5,84.3 334.5,87 335.7,88.4 337.1,88.2 338.2,86 338,85.4 338.2,84.6 338.2,83.7 
		337.2,82.7 	"/>
	<polygon class="st0" points="349.2,82.9 348.5,84.3 348.5,87 349.6,88.4 351,88.2 352.2,86 351.9,85.4 352.2,84.6 352.2,83.7 
		351.2,82.7 	"/>
	<path class="st0" d="M352.7,58h-1c-2.1,4.4-3.4,9.2-3.9,14.4v3.9l1.2,0.9l1.5-0.6v-2.5c0.7-4.8,2-9.4,3.9-13.8l-0.4-1.5L352.7,58z"
		/>
</g>
</svg>
