<?xml version="1.0" encoding="utf-8"?>
<!-- Generator: Adobe Illustrator 22.1.0, SVG Export Plug-In . SVG Version: 6.00 Build 0)  -->
<svg version="1.1" id="btn_x5F_sub" xmlns="http://www.w3.org/2000/svg" xmlns:xlink="http://www.w3.org/1999/xlink" x="0px"
	 y="0px" width="143px" height="19.7px" viewBox="0 0 143 19.7" style="enable-background:new 0 0 143 19.7;" xml:space="preserve">
<style type="text/css">
	.st0{fill:#FF7BAC;}
</style>
<g>
	<path class="st0" d="M33.8,11.1h-2.1L31.6,11h-1.6L30,10.9L29.1,11h-1.6c-0.4,0.1-0.8,0.2-1.2,0.3l0.3,0.6l0.5,0.3l1.5-0.3h3.3
		L32,12h1.2l0.2,0.2v0.5l-3.6,3.7v0.3l0.7,0.4h0.2c1.5-1.1,2.8-2.4,3.9-3.8l0.7-1l-0.1-0.6L33.8,11.1z"/>
	<path class="st0" d="M35.4,7.2l-0.1-0.3l-0.9-0.6V6l-2.3-2.2l-0.7-1l-0.8-0.4c-2.9,2.1-5.4,4.7-7.5,7.7l-0.4,0.8l0.7,0.8l0.5-0.2
		l0.2-0.4C25.9,8.7,28,6.3,30.4,4h0.5l2.1,2l2.5,2.2l0.1,0.3L36,8.8l0.2,0.6L37,9.8l0.4-0.2V9.1l-1.7-1.8L35.4,7.2z"/>
	<path class="st0" d="M32.1,9.5l-0.1-0.6c-0.9-0.5-1.9-0.9-3-1.1L28.6,8l0.1,0.3c0.8,0.6,1.7,1,2.8,1.2L32.1,9.5z"/>
	<path class="st0" d="M51.9,5.5l-0.4,0.1l-0.6-0.2l-0.9,0.3c-0.3,0.1-0.5,0-0.8-0.2V4.5l-0.6-0.6c-0.3-0.1-0.6,0.1-0.8,0.4l0.3,1.2
		l-0.1,0.3L47.3,6h-1c-1.6,0.3-3.2,0.7-4.7,1.3l-0.1,0.2l0.1,0.5l0.6,0.5c1.7-0.8,3.5-1.4,5.5-1.6L48.4,7v2l-1.1-0.3
		c-0.6,0-1,0.2-1.4,0.6c-0.5,0.6-0.9,1.3-1.2,2l0.1,0.3v1l0.3,0.7c0.6,0.6,1.2,0.9,1.9,1c0.6,0.1,1.1-0.1,1.5-0.6h0.2l0.1,0.6
		l-0.1,0.3v0.9L48.4,16v0.3l0.8,0.7h0.1l0.2-0.3l0.3-0.5V13l-0.5-2v-0.8l0.1-0.1V8.3l0.1-0.1l-0.1-0.3V6.9l0.1-0.1L50,6.6l0.3,0.1
		l0.4-0.1h1.1l0.1,0.1h0.3l0.4-0.4l-0.1-0.4L51.9,5.5z M48.1,11.5c-0.1,0.5-0.3,1-0.6,1.3V13l-0.4,0.2L46.3,13l-0.6-0.6l0.2-1.3
		c0.3-0.5,0.7-0.9,1.2-1.3h0.4l0.7,0.9V11.5z"/>
	<polygon class="st0" points="70.4,7.1 69.9,4.1 69.4,3.6 68.7,3.7 68.7,4.8 69.3,7.4 69.3,8.7 69.9,9.2 70.5,9 70.5,8.1 70.4,8 	
		"/>
	<path class="st0" d="M67.1,6.1V5.3l-0.6-0.6c-0.3-0.1-0.6,0-0.9,0.2l0.9,4.3l0.7,0.7c0.3,0.1,0.5,0,0.7-0.2l-0.1-0.3l0.1-0.3
		C67.6,8.1,67.3,7.2,67.1,6.1z"/>
	<path class="st0" d="M64.7,15.1c-1.6-0.7-3-1.8-4.3-3.3v-0.4l4.2-4.3V6.5l-0.4-0.3h-0.6L58.9,11c0.1,0.6,0.3,1.1,0.7,1.4l0.3,0.2
		l0.1,0.3c1.7,1.7,3.6,3,5.7,3.8l0.5-0.4l-0.1-0.6L64.7,15.1z"/>
	<path class="st0" d="M86.5,16v-1.2l0.3-1.1v-1.5c0.1-1,0.3-1.9,0.7-2.7l-0.1-0.4l-1-0.8l-1.6,0.3h-1.4l-0.2,0.3v0.5l1,1l0.5-0.1
		l0.6,0.2l-0.5,3.7c-0.4,1-1.1,1.7-2,2.2l-0.6-0.1l-0.6-2.5v-2.2l-0.1-0.1l0.1-0.5l-0.1-0.5l0.3-1.1V8.1l0.9-3.3l1.2-1.4l0.7,0.1
		l0.1,0.7l1.1,0.9l0.6-0.5L85.7,3c-0.5-0.7-1.1-1.1-1.8-1.2c-0.7-0.1-1.2,0.1-1.7,0.4C81,3.6,80.3,5.3,80,7.2v1.6l-0.3,0.6v2.5
		l0.1,0.1v1.5l0.1,0.1v1.2l0.4,1.1c0.4,0.9,1.1,1.6,2,2.1c0.8,0.2,1.5-0.1,2-0.7c0.3,0.3,0.5,0.7,0.5,1.4l1.1,1l0.8-0.3
		c0.1-0.7,0-1.4-0.4-2.1v-1.2L86.5,16z"/>
	<path class="st0" d="M100.1,5.8c-0.1-1.2-0.3-2.2-0.8-3.3c-1.2-0.6-2.4-1.3-3.5-2l-1,0.1c-1.3,2.7-2,5.6-2.1,8.8v3.6l0.5,2.1
		c0.6,1.3,1.5,2.5,2.7,3.4H97l0.4-0.3c1.5-1.7,2.4-3.5,2.8-5.6v-1.5l0.1-0.1V8.7l-0.3-1.4V5.8z M98.8,10.2l-0.1,0.1v1.3
		c-0.3,1.9-1.1,3.7-2.4,5.3L96.2,17l-0.4-0.1c-0.8-1.3-1.3-2.6-1.5-4.1v-2.4l0.1-0.1V8.8c0.3-2.1,0.8-4,1.6-5.8l1.9,0.3l0.8,3.1v2.3
		l0.1,0.1V10.2z"/>
	<polygon class="st0" points="109.7,0.9 108.8,1.3 108.8,3.2 108.4,5.7 108.6,6.2 108.4,6.9 108.4,10.6 108.6,11 109.7,12.1 110,12 
		110.3,11.2 110.1,10.5 110.1,8.8 110.3,8.7 110.3,6.6 110.5,5.2 110.5,3.8 110.9,2.5 110.7,1.4 	"/>
	<path class="st0" d="M108.8,15.8l-0.4,1v0.9l0.9,0.8l0.8-0.1l0.6-1.2c0-0.7-0.2-1.3-0.5-1.8L108.8,15.8z"/>
	<polygon class="st0" points="115.8,0.9 114.8,1.3 114.8,3.2 114.4,5.7 114.6,6.2 114.4,6.9 114.4,10.6 114.6,11 115.8,12.1 116,12 
		116.3,11.2 116.2,10.5 116.2,8.8 116.3,8.7 116.3,6.6 116.5,5.2 116.5,3.8 116.9,2.5 116.7,1.4 	"/>
	<path class="st0" d="M114.8,15.8l-0.4,1v0.9l0.9,0.8l0.8-0.1l0.6-1.2c0-0.7-0.2-1.3-0.5-1.8L114.8,15.8z"/>
	<path class="st0" d="M0.9,0.2C0.8,0,0.5-0.1,0.2,0.1C0,0.2-0.1,0.5,0.1,0.8l10,16c0.1,0.2,0.3,0.2,0.4,0.2c0.1,0,0.2,0,0.3-0.1
		c0.2-0.1,0.3-0.5,0.2-0.7L0.9,0.2z"/>
	<path class="st0" d="M142.8,0.1c-0.2-0.1-0.5-0.1-0.7,0.2l-10,16c-0.1,0.2-0.1,0.5,0.2,0.7c0.1,0.1,0.2,0.1,0.3,0.1
		c0.2,0,0.3-0.1,0.4-0.2l10-16C143.1,0.5,143,0.2,142.8,0.1z"/>
</g>
</svg>
