<?xml version="1.0" encoding="utf-8"?>
<!-- Generator: Adobe Illustrator 22.1.0, SVG Export Plug-In . SVG Version: 6.00 Build 0)  -->
<svg version="1.1" id="sub_x5F_tit01" xmlns="http://www.w3.org/2000/svg" xmlns:xlink="http://www.w3.org/1999/xlink" x="0px"
	 y="0px" width="436px" height="77px" viewBox="0 0 436 77" style="enable-background:new 0 0 436 77;" xml:space="preserve">
<style type="text/css">
	.st0{fill:#616161;}
</style>
<g>
	<path class="st0" d="M57.3,56.1l-0.4-0.8c1.4-2.2,2.9-4.3,4.5-6.4L61.3,48l-1.1-0.7c-2.8,0.4-5.7,0.8-8.5,1.3h-1.5l-0.4,0.4v0.7
		l1.1,0.9l6.5-1.3h0.8c-2.7,4.2-5.4,8.3-8.1,12.4l0.3,1.3l0.9,0.5l0.5-0.1c1.2-2.2,2.4-4.4,3.7-6.5c2.4,1.6,4.7,3.2,7.1,4.8l1.1-0.4
		l-0.1-0.9C61.4,59,59.3,57.6,57.3,56.1z"/>
	<path class="st0" d="M88.9,45.9h-5.5L83.2,46h-2L81,45.8l0.1-0.4L81,44.9l-1.1-0.5l-0.8,0.3L74,53.3c-0.1,0.7,0.1,1.2,0.7,1.6
		l1.2-0.1c0.7-1.8,1.6-3.5,2.7-5.2l0.2-0.4l0.9-1.5l0.4-0.1l0.8,0.1h1.6l0.1-0.1h2.2l0.1-0.1h1.6l0.1-0.1l1.6,0.1
		c-1,2.6-1.9,5.1-2.9,7.5v0.4h-0.4v-0.7l-1.7-1.5c-1-0.9-1.7-1.9-2.2-3l-1.2-0.9l-0.7,0.1C79,49.6,79,50,79,50.5
		c1.5,2.4,3.4,4.2,5.8,5.5c-0.5,2-1.2,4-2.2,5.8v0.7l0.9,0.9l0.5-0.1c2.2-5.3,4.4-10.6,6.6-15.8l-0.3-1.1L88.9,45.9z"/>
	<path class="st0" d="M111.8,55.6l-0.1,0.4h-0.3c-2.6,1.9-5.1,3.7-7.8,5.4l1.1,1.2h1.3l0.1-0.1l0.1-0.4h0.3c3.5-2.6,6.9-5.4,10-8.5
		l-0.1-0.7C114.7,53.6,113.2,54.5,111.8,55.6z"/>
	<path class="st0" d="M106,55.2l0.8-0.3v-1.3l-0.4-0.8c-1.5-1.9-3-3.8-4.5-5.7c-0.6-0.2-1.1,0-1.6,0.4c1.2,2.1,2.6,4.2,4.2,6.2
		L106,55.2z"/>
	<path class="st0" d="M139.5,43.4l-0.8,0.4c-1.5,1.5-2.5,3.2-2.9,5l-0.9,0.1h-2.2c-3.1,0.5-6.2,1.3-9.2,2.5v0.8l0.8,0.7
		c2.6-0.9,5.2-1.7,7.9-2.4h1.5l0.1-0.1l0.7,0.3c-1.1,3.8-2.6,7.4-4.5,10.8v0.9l0.8,0.7l1.3-0.3c1.3-3,2.5-6,3.5-9.2
		c1,1,2.1,1.6,3.4,1.8c1.6-0.1,3-0.7,4.2-1.8c0.9-0.9,1.5-1.8,1.8-2.9V49c-0.1-1.7-0.7-3.2-1.7-4.5C142.1,44,140.8,43.6,139.5,43.4z
		 M143.2,50.2l-0.3,0.8l-1.8,2l-1.4,0.7c-0.7,0.1-1.3,0-1.7-0.4l-0.7-1.2c0.3-2.3,1-4.3,2.2-6.2l1.2-0.7l1.5,0.4l1,2.7V50.2z"/>
	<path class="st0" d="M159.4,50.5c-2.8,0.2-5.3,1.3-7.3,3.4c-0.9,1.5-1.5,3.2-1.7,5.1v1.3l0.2,0.8c0.5,0.5,1,0.7,1.7,0.7h1.4
		c0.8-0.2,1.5-0.6,2.1-1.3c2-2.6,3.5-5.4,4.5-8.4l1,0.5c1.7,1.8,2.8,3.9,3.3,6.1c0.1,0.5,0,1.1-0.3,1.5c0.1,0.5,0.4,0.9,0.9,1h0.6
		l0.5-0.6V59c-0.4-2.7-1.6-5-3.5-7C161.7,51.1,160.6,50.6,159.4,50.5z M158.3,53.5c-1.1,2.4-2.6,4.7-4.6,6.7l-0.8,0.5
		c-0.4,0.1-0.7,0-0.9-0.3c0.1-2,0.6-3.7,1.5-5.3c1.4-1.3,3-2.3,4.6-3l0.6,0.2L158.3,53.5z"/>
	<path class="st0" d="M190.7,45.7h2.6c1-0.1,1.8-0.4,2.4-0.8l-0.1-0.5l-1-0.5l-4.9,0.8l-0.9-0.2l-0.7-1.8V42l1.5-0.6l-0.1-0.7
		l-0.8-0.5h-1c-1.8,1.1-3.3,2.4-4.6,4l0.1,0.2l0.6,0.2l1.1,0.1l1-1.1h0.7l0.2,0.9l-0.3,0.3l-0.5,0.3h-1.4l-0.8,0.3l-2.1,0.5H180
		l-0.2-0.5l-0.8-0.5h-0.8c-1.6,1.2-3.2,2.5-4.8,4l-0.7,1.1l0.3,0.6c1.1-0.1,2-0.6,2.9-1.5h0.6v2.6l-0.3,0.3
		c-1.8,0.5-3.5,0.9-5.2,1.2v0.3l1.1,0.9l2.7-0.6l0.7,0.3c-1.1,2-2.2,3.8-3.4,5.6l-0.4,0.1v0.7l0.6,0.5l1-0.2
		c0.7-0.7,1.2-1.6,1.5-2.6l1.1,0.2v3.1l-0.3,1.6v0.3l0.8,0.7h1l0.5-0.6l-0.1-0.8v-5.8l0.5-0.4l2.5,0.8l0.7-0.2h1.6l1,0.6l0.8-0.3
		c0.6-0.1,1.1,0,1.7,0.4l-0.3,0.7c-1.1,0.3-2.1,0.6-3.1,0.8v0.2l0.8,0.8l1.1-0.2l1.3,0.2l-0.2,1.5l-0.6,0.2h-3.1l-0.6,0.4v0.4l1.1,1
		l8.4-1.1l0.8,0.2c1,0,1.7-0.2,2.2-0.7v-0.7l-0.5-0.4h-2.2l-1.7,0.5c-0.7,0.2-1.3,0-1.8-0.6l0.2-1.1l0.8-0.4h1.6l0.3-0.3l-0.1-0.7
		l-0.6-0.2H189l-0.4-0.4v-1l1.1-0.3h1.8l1-0.3c0.4-0.6,0.7-1.3,0.8-2.1v-2.7l-0.4-2.3l-0.7-0.5h-1.5l-0.2,0.2h-1.4l-0.6-0.8l0.2-1.4
		L190.7,45.7z M183.3,54.2l-0.2,0.1v1.5l-0.2,0.2l-0.2,0.2c-1.6-0.2-3.2-0.8-4.6-1.8l0.2-1.3c1.5-0.2,2.9-0.5,4.2-1h0.7V54.2z
		 M183.7,48.5V50l-0.3,1.2l-0.3,0.3l-1.2-0.3h-2l-0.7,0.3l-1-0.6l0.3-2.3l-0.3-1.1v-0.8l1.4-0.5l1.7,1.2l4.5-1h0.9l0.2,0.6v1.6
		l-0.8,0.9l-0.9-0.7l-1-0.6L183.7,48.5z M186.7,55.3v0.4l-0.6,0.2h-0.6l-0.6-0.8l0.8-1.2l1.2,0.4L186.7,55.3z M186.5,52.5l-0.2,0.3
		l-1.2-0.4l0.2-1.3l0.6-0.2h0.9l0.2,0.7L186.5,52.5z M190.8,54.6l-0.9,0.6l-1.5-0.4l0.4-1.4L190,53l1.3,0.4L190.8,54.6z M188.7,50.4
		l1.2-0.7l1.1,0.2l0.2,0.7l-0.3,1.2l-1.2,0.5l-1.1-0.5L188.7,50.4z"/>
	<path class="st0" d="M218.8,59.2c0.2-1.2,0.7-2,1.5-2.4c0.1-1,0.4-1.8,0.8-2.7v-2.2l0.1-0.1l-0.1-0.3v-2.5l-0.2-0.2v-2.4l-0.5-0.6
		h-3.3l-0.8,0.3l-1.3-0.2l0.3-0.9l1.6-0.9l0.3-0.6l-0.2-0.4l-2.4-0.6h-1.6l-0.2-0.1l-1.5-0.1l-0.1,0.2l0.3,0.8l1.9,0.3v1.1l-0.6,0.2
		c-0.7,0.4-1,1-1,1.8l0.1,0.9v1.5l-4.9-2.1l0.7-1.4h1.8l0.8-0.5l-0.1-0.4l-1-0.5l0.5-1.1c0.1-0.5,0-0.8-0.4-1
		c-0.5-0.1-0.9,0.2-1.3,0.8h-0.8l0.2-1.4l-0.1-0.9l-0.8-0.3c-0.4-0.1-0.7-0.1-0.9,0.1l0.1,0.5v2.7l-0.4,0.4l-0.9-0.2l-1.8-3.2
		l-0.9-0.5l-0.8,0.2c0.3,1.2,1.1,2.5,2.4,3.8l-0.3,1c-0.8,0-1.4,0.1-1.9,0.4v0.2l1.1,0.9l1.1-0.3h1v0.9l-3.7,3.6l-0.2,0.5l-1,0.4
		l-0.3,0.6v0.2l0.7,0.7l1-0.2l3.8-3.9h0.8c0,0.8,0.2,1.4,0.7,1.8l0.7-0.1c0-0.7,0.3-1.4,0.8-2.2c1.6,0.6,3.1,1.3,4.4,2.2
		c-0.2,1.2-0.4,2.4-0.7,3.6l-0.1,0.7l0.3,1.1l-0.2,0.7l0.2,0.7l1,0.3c1.2-0.6,2.6-1,4.1-1.3l1.1,0.3c-1.3,2.2-2.6,4.2-4.1,5.9
		c-0.1,0.4,0.1,0.8,0.5,1.1l1.3-0.3l2-3.2l0.7-0.2l3.1,2h0.7L222,62C221.3,61,220.2,60,218.8,59.2z M213.6,47.8l3.7-0.8l1.7,0.2
		l0.4,0.9l-0.4,1.2l-1.4,0.3h-2.4c-0.7,0-1.3-0.3-1.9-0.9L213.6,47.8z M214,50.5l1.4,0.2h2.9l0.2-0.2l1.1,0.7l-0.4,1.5l-0.3,0.3h-3
		l-1.2,0.3l-1.3-0.4C213.1,51.9,213.3,51.1,214,50.5z M216.4,55.7l-2.2,0.4l-1.3-0.2l0.3-1.2l3.7-0.9h1.8l0.2,0.9l-0.2,0.6l-0.3,0.3
		H216.4z"/>
	<path class="st0" d="M207,54.9l1.2,0.2c0.9,0,1.6-0.2,2.2-0.6l-0.2-0.5l-0.4-0.2H208l-0.2,0.2l-1.1-0.2l-0.2-1.1l-0.4-0.3l-1.1,0.1
		l-0.4,1.5c-1.1,0.2-2,0.5-2.8,0.8l0.2,0.4c0.4,0.4,1.1,0.6,2.1,0.6c-0.7,2.6-1.5,5-2.6,7.1v0.4l1,1l0.6-0.1c0.7-1.5,1.4-3.2,2.1-5
		c1.3,0.9,2.5,1.6,3.7,2.1l1-0.3v-0.3c-1.5-0.8-3-1.9-4.3-3.4l0.5-1.8L207,54.9z"/>
	<path class="st0" d="M229.6,60.6l-0.5-1.6l0.1-0.6l-0.1-0.6l0.1-0.5l-0.1-0.6v-1.2l-0.1-0.1l0.1-1v-3l0.1-0.1v-0.9l-0.7-0.6
		c-0.4-0.2-0.8-0.1-1.1,0.3l0.1,0.7v3l-0.1,0.1l0.1,0.3v3.3l0.1,0.1v2.2l0.4,1.3c0.2,0.6,0.6,1,1.2,1.2h0.4l0.6-0.7l-0.1-0.8
		L229.6,60.6z"/>
	<path class="st0" d="M239.7,57.2l0.1-0.7v-3.9l0.4-0.4l1.3,0.1l1.3-0.6v-0.4l-0.7-0.6l-1.1,0.1h-1.2l-0.1-0.7l0.1-1v-0.6l-0.8-0.8
		c-0.5-0.2-0.9-0.1-1.1,0.3l0.4,1.7l-0.1,1.2c-2.1,0.2-4,0.7-5.7,1.4l0.2,0.8l0.8,0.5c1.1-0.5,2.2-0.9,3.4-1.2c0.5-0.1,1,0,1.4,0.3
		v3.8l-0.4,0.4h-1.3l-1.6,0.8l-1,1.2v1.2l0.3,0.3c0.5,0.5,1,0.8,1.7,0.9h1.5c0.5-0.1,0.9-0.3,1.3-0.6l1-1.6h0.4
		c0.9,0.6,1.7,1.4,2.4,2.3c0.5,0.2,0.9,0.1,1.2-0.3l-0.1-0.7C242.4,59.5,241,58.4,239.7,57.2z M237.4,60.1l-0.4,0.3
		c-0.4,0.1-0.9,0-1.3-0.3v-0.4c0.4-0.7,0.9-1.2,1.6-1.4l0.7,0.3C238.1,59.1,237.9,59.6,237.4,60.1z"/>
	<path class="st0" d="M250.7,55.8c-0.5-0.1-1,0-1.4,0.3l2.8,5.8l1.2,0.5c0.5,0.1,0.8,0,0.9-0.4c-0.3-1.1-0.9-2.1-1.7-3
		C252.2,57.6,251.5,56.6,250.7,55.8z"/>
	<path class="st0" d="M271.5,42.6h-0.7c-2.7,3-5.3,6.1-7.9,9.3l-1,1.8c0,0.7,0.3,1.2,0.9,1.5l0.6-0.1c0.6-1.3,1.6-2.7,2.9-4.1
		l1.4,0.9h1.8l0.2-0.2l1.7,0.4v2.5l-0.3,0.7l-4.4,0.7c-0.1,0.5,0.2,1,0.7,1.3l2.3-0.3h1l0.4,1.6c-0.2,1-0.5,2-0.8,3.1h-3.2l-0.2-0.1
		h-1.6l0.1,0.8c0.3,0.5,0.7,0.8,1.3,0.8h4.9l3-0.5h1.8l0.1,0.2c0.8,0,1.5-0.2,2.1-0.7l-0.1-0.5l-1-0.5l-2.2,0.3h-2.2L273,61
		l-0.3-1.6v-1.6l0.3-1.1h2.3l0.2,0.2h1.5l0.3-0.3l-0.1-0.5l-1.6-0.7h-1.6l-0.8-0.7l0.2-2.6c1.3-0.5,2.5-0.8,3.6-1.1l-0.1-0.8
		l-0.7-0.4l-3.1,0.3h-2.2l-0.2,0.2h-2.9l-0.4-0.5c1.2-1.8,2.5-3.5,4-5c1.4,0.2,2.7,0.8,3.8,1.7c2.3,1.4,4.4,3.2,6.1,5.3l0.8,0.4v0.4
		l0.7,0.4l0.7-0.2v-0.6C279.6,48.4,275.7,45.2,271.5,42.6z"/>
	<path class="st0" d="M294.2,40.9h-1.7c-1.3,0.4-2.5,0.9-3.5,1.6l0.4,1.1l1.4,0.9l2.8-1.4c1.1-0.1,1.9,0.1,2.7,0.7
		c-2.1,6.5-5,12.8-8.8,18.6l0.4,1.1c0.8,0.8,1.8,1.2,3,1.2h3.1c1.3,0,2.4-0.5,3.2-1.4c0-0.7-0.2-1.3-0.7-1.8c-0.9,0-1.8,0.3-2.5,0.9
		h-2.8l-0.4-0.4c3-5.3,5.7-10.7,7.9-16.3v-2.5l-0.2-0.2C297.3,41.7,295.9,41,294.2,40.9z"/>
	<path class="st0" d="M316.2,53.5h-0.4l-1.1,0.9c-0.8,0.1-1.5-0.1-1.9-0.5L313,53v-2.7l0.4-1.7v-2.7l0.5-1.9v-1.8l-1.2-0.9
		c-0.1-0.6-0.4-1.1-0.9-1.4l-1.6,0.2l-6.7,15c-0.1,0.6,0.1,1.1,0.7,1.4l0.7,0.5c1.5-0.1,2.9-0.4,4.2-0.9l1.2,0.4l-0.2,0.9v3
		l-0.2,0.2v3.2l2.1,1.8l0.7-1.4l-0.2-0.5l0.2-0.9l-0.4-1.9v-2.8l0.4-1.4l1.4-0.5l1.9,0.5c0.8,0.2,1.5,0,2.1-0.7l-0.4-1.4L316.2,53.5
		z M311.1,46.6l-0.2,0.2v1.8l-0.2,0.2V51l-0.2,0.2v2.7l-0.4,0.4l-1.6,0.4h-1.9l3.9-9.7h0.5V46.6z"/>
	<path class="st0" d="M343.1,46.7h2.6c1-0.1,1.8-0.4,2.4-0.8l-0.1-0.5l-1-0.5l-4.9,0.8l-0.9-0.2l-0.7-1.8v-0.6l1.5-0.6l-0.1-0.7
		l-0.8-0.5h-1c-1.8,1.1-3.3,2.4-4.6,4l0.1,0.2l0.6,0.2l1.1,0.1l1-1.1h0.7l0.2,0.9l-0.3,0.3l-0.5,0.3h-1.4l-0.8,0.3l-2.1,0.5h-1.7
		l-0.2-0.5l-0.8-0.5h-0.8c-1.6,1.2-3.2,2.5-4.8,4l-0.7,1.1l0.3,0.6c1.1-0.1,2-0.6,2.9-1.5h0.6v2.6l-0.3,0.3
		c-1.8,0.5-3.5,0.9-5.2,1.2v0.3l1.1,0.9l2.7-0.6l0.7,0.3c-1.1,2-2.2,3.8-3.4,5.6l-0.4,0.1v0.7l0.6,0.5l1-0.2
		c0.7-0.7,1.2-1.6,1.5-2.6l1.1,0.2v3.1l-0.3,1.6v0.3l0.8,0.7h1l0.5-0.6l-0.1-0.8v-5.8l0.5-0.4l2.5,0.8l0.7-0.2h1.6l1,0.6l0.8-0.3
		c0.6-0.1,1.1,0,1.7,0.4l-0.3,0.7c-1.1,0.3-2.1,0.6-3.1,0.8v0.2l0.8,0.8l1.1-0.2l1.3,0.2l-0.2,1.5l-0.6,0.2H335l-0.6,0.4v0.4l1.1,1
		l8.4-1.1l0.8,0.2c1,0,1.7-0.2,2.2-0.7v-0.7l-0.5-0.4h-2.2l-1.7,0.5c-0.7,0.2-1.3,0-1.8-0.6l0.2-1.1l0.8-0.4h1.6l0.3-0.3l-0.1-0.7
		L343,59h-1.6l-0.4-0.4v-1l1.1-0.3h1.8l1-0.3c0.4-0.6,0.7-1.3,0.8-2.1v-2.7l-0.4-2.3l-0.7-0.5h-1.5l-0.2,0.2h-1.4l-0.6-0.8l0.2-1.4
		L343.1,46.7z M335.7,55.1l-0.2,0.1v1.5l-0.2,0.2l-0.2,0.2c-1.6-0.2-3.2-0.8-4.6-1.8l0.2-1.3c1.5-0.2,2.9-0.5,4.2-1h0.7V55.1z
		 M336.1,49.5V51l-0.3,1.2l-0.3,0.3l-1.2-0.3h-2l-0.7,0.3l-1-0.6l0.3-2.3l-0.3-1.1v-0.8l1.4-0.5l1.7,1.2l4.5-1h0.9l0.2,0.6v1.6
		l-0.8,0.9l-0.9-0.7l-1-0.6L336.1,49.5z M339.1,56.3v0.4l-0.6,0.2h-0.6l-0.6-0.8l0.8-1.2l1.2,0.4L339.1,56.3z M338.9,53.4l-0.2,0.3
		l-1.2-0.4l0.2-1.3l0.6-0.2h0.9l0.2,0.7L338.9,53.4z M343.2,55.6l-0.9,0.6l-1.5-0.4l0.4-1.4l1.3-0.5l1.3,0.4L343.2,55.6z
		 M341.1,51.3l1.2-0.7l1.1,0.2l0.2,0.7l-0.3,1.2l-1.2,0.5l-1.1-0.5L341.1,51.3z"/>
	<path class="st0" d="M371.2,60.1c0.2-1.2,0.7-2,1.5-2.4c0.1-1,0.4-1.8,0.8-2.7v-2.2l0.1-0.1l-0.1-0.3v-2.5l-0.2-0.2v-2.4l-0.5-0.6
		h-3.3l-0.8,0.3l-1.3-0.2l0.3-0.9l1.6-0.9l0.3-0.6l-0.2-0.4l-2.4-0.6h-1.6l-0.2-0.1l-1.5-0.1l-0.1,0.2l0.3,0.8l1.9,0.3v1.1l-0.6,0.2
		c-0.7,0.4-1,1-1,1.8l0.1,0.9v1.5l-4.9-2.1l0.7-1.4h1.8l0.8-0.5l-0.1-0.4l-1-0.5L362,44c0.1-0.5,0-0.8-0.4-1
		c-0.5-0.1-0.9,0.2-1.3,0.8h-0.8l0.2-1.4l-0.1-0.9l-0.8-0.3c-0.4-0.1-0.7-0.1-0.9,0.1l0.1,0.5v2.7l-0.4,0.4l-0.9-0.2l-1.8-3.2
		l-0.9-0.5l-0.8,0.2c0.3,1.2,1.1,2.5,2.4,3.8l-0.3,1c-0.8,0-1.4,0.1-1.9,0.4v0.2l1.1,0.9l1.1-0.3h1v0.9l-3.7,3.6l-0.2,0.5l-1,0.4
		l-0.3,0.6v0.2l0.7,0.7l1-0.2l3.8-3.9h0.8c0,0.8,0.2,1.4,0.7,1.8l0.7-0.1c0-0.7,0.3-1.4,0.8-2.2c1.6,0.6,3.1,1.3,4.4,2.2
		c-0.2,1.2-0.4,2.4-0.7,3.6l-0.1,0.7l0.3,1.1l-0.2,0.7l0.2,0.7l1,0.3c1.3-0.6,2.6-1,4.1-1.3l1.1,0.3c-1.3,2.2-2.6,4.2-4.1,5.9
		c-0.1,0.4,0.1,0.8,0.5,1.1l1.2-0.3l2-3.2l0.7-0.2l3.1,2h0.7l0.2-0.3C373.7,61.9,372.6,61,371.2,60.1z M366,48.7l3.7-0.8l1.7,0.2
		l0.4,0.9l-0.4,1.2l-1.4,0.3h-2.4c-0.7,0-1.3-0.3-1.9-0.9L366,48.7z M366.4,51.4l1.4,0.2h2.9l0.2-0.2l1.1,0.7l-0.4,1.5l-0.3,0.3h-3
		l-1.3,0.3l-1.3-0.4C365.5,52.9,365.7,52.1,366.4,51.4z M368.8,56.6l-2.2,0.4l-1.3-0.2l0.3-1.2l3.7-0.9h1.8l0.2,0.9l-0.2,0.6
		l-0.3,0.3H368.8z"/>
	<path class="st0" d="M359.4,55.8l1.3,0.2c0.9,0,1.6-0.2,2.2-0.6l-0.2-0.5l-0.4-0.2h-1.8l-0.2,0.2l-1.1-0.2l-0.2-1.1l-0.4-0.3
		l-1.1,0.1l-0.4,1.5c-1.1,0.2-2,0.5-2.8,0.8l0.2,0.4c0.4,0.4,1.1,0.6,2.1,0.6c-0.7,2.6-1.5,5-2.6,7.1V64l1,1l0.6-0.1
		c0.7-1.5,1.4-3.2,2.1-5c1.3,0.9,2.5,1.6,3.7,2.1l1-0.3v-0.3c-1.5-0.8-3-1.9-4.3-3.4l0.5-1.8L359.4,55.8z"/>
	<path class="st0" d="M142.7,15.1l-0.4,0.4l0.7,0.9l0.2-0.1l0.1,0.1l1.3-0.2h1l1.9-0.4h0.9c0.9-0.1,1.8-0.4,2.6-0.9
		c0-0.4-0.1-0.6-0.4-0.8c-2.1,0.5-4.3,0.8-6.5,1.1H142.7z"/>
	<path class="st0" d="M144.3,7.3l0.3,0.1l0.7-0.1l1.1,0.2h0.9l1.2,0.3l0.3,0.6c0.6,0.1,1.1-0.1,1.5-0.5L150,7
		c-1.1-0.4-2.3-0.7-3.6-0.8h-1.5l-0.1-0.1l-0.4,0.1H143c-0.4,0-0.7,0.1-0.9,0.4l0.6,0.9L144.3,7.3z"/>
	<path class="st0" d="M159.5,17.1l0.4-0.1l0.4-0.8c1-1.6,2.3-3,3.9-4.1l0.6,0.1c0.3,1.4,0.9,2.7,1.7,3.9l1,0.6
		c1-0.1,1.8-0.5,2.4-1.2l1.2-1.5c0.1-0.4,0-0.8-0.3-1l-0.6,0.1c-0.5,1.1-1.4,1.9-2.5,2.5l-0.4-0.1c-0.7-1.1-1.2-2.3-1.6-3.6
		c-0.4-0.4-0.8-0.7-1.3-0.8l-0.9,0.1l-1.9,1.8h-0.3c0.9-2.4,1.9-4.7,3-7l-0.5-0.6l-0.8,0.1c-1.3,3.7-2.7,7.3-4.3,10.8l0.1,0.6
		L159.5,17.1z"/>
	<path class="st0" d="M189.2,8.3c0.5,0.1,0.9-0.1,1.2-0.4l-0.1-0.5c-1.5-0.5-2.8-1.3-4.1-2.3l-0.6,0.1l0.1,0.6
		C186.9,6.9,188,7.7,189.2,8.3z"/>
	<path class="st0" d="M180.4,14.5l0.1,0.9c0.4,0.8,1,1.4,1.8,1.8h1.2l0.6-0.3c0.4-0.7,0.7-1.4,1-2.1c0.8,0.2,1.5,0.7,2.1,1.3
		c0.4,0.1,0.6-0.1,0.8-0.4l-0.1-0.6c-0.8-0.7-1.7-1.2-2.7-1.5l0.5-3.1l-0.1-0.5l0.1-0.3V8.9l-0.1-0.1l-0.6-0.4l-0.6,0.2l0.1,0.7
		l-0.1,0.9v1l-0.4,2.2C182.5,13.4,181.4,13.8,180.4,14.5z M182.9,16l-0.3,0.2c-0.4-0.1-0.7-0.3-0.9-0.6l0.1-0.4l1.2-0.6l0.4,0.2
		C183.4,15.2,183.2,15.7,182.9,16z"/>
	<path class="st0" d="M178.5,7.8h0.3l-1,3.8l0.1,1.1l0.5,0.6c0.4,0.1,0.8,0,1-0.3l-0.1-0.6h-0.2v-0.9c0.3-1.5,0.8-2.9,1.4-4.2
		l0.6-0.3h1.4l0.1-0.1h0.9l0.3-0.4L183,5.6l-1.5,0.3l-0.3-0.1l0.3-0.9l-0.1-0.4l-0.6-0.4l-0.6,0.1l-0.6,1.9l-3.3,1.2v0.4l0.7,0.7
		L178.5,7.8z"/>
	<path class="st0" d="M205.3,12.5c-0.3,0.1-0.7,0.1-1.2,0l-1.5-0.2c-0.4-0.1-0.7,0-0.9,0.2l0.2,0.7c0.4,0.3,0.9,0.4,1.5,0.4l0.6-0.1
		l0.4,0.1h1.8l0.6-0.3l-0.1-0.6l-1.2-0.4L205.3,12.5z"/>
	<path class="st0" d="M204.5,9.1h0.9c0.4-0.1,0.8-0.2,1.1-0.4l-0.2-0.7l-0.6-0.3c-1.8,0.3-3.4,0.8-5,1.4v0.5l0.5,0.5
		C202.3,9.7,203.4,9.4,204.5,9.1z"/>
	<path class="st0" d="M198.6,17.1c0.1-0.4,0.2-0.8,0.4-1.1l-0.3-0.6l-0.6,0.1h-0.4l-0.3-1.2v-1l-0.1-0.1l0.1-0.4v-2.1l0.1-0.1V9.7
		l0.4-1.2V7.8l-0.6-0.6c-0.3-0.1-0.6,0-0.8,0.2v1.2l-0.2,0.6v1.4l-0.1,0.1v3.4c0.1,1.2,0.6,2.2,1.5,3.1L198.6,17.1z"/>
	<path class="st0" d="M218.8,4.3h1.5l1.3-0.4l1.1,0.3l-0.1,1.2l-1,0.4h-1.2l-0.8-0.4L219,5.6l0.3,1.3v1.8l-0.2,1.2
		c-0.1,0.7,0.1,1.1,0.6,1.4h0.5l0.8-1l1.2,0.3c0.1,0.9,0,1.8-0.4,2.6l-1.4-0.9h-1l0.2,0.5c0.5,0.6,1.2,1,2,1.3
		c-0.1,0.9-0.4,1.6-0.8,2.1c0,0.4,0.1,0.7,0.4,0.9l0.9-0.1l0.7-2l4.7,2.2c0.3,0.1,0.5,0,0.6-0.3l-0.1-0.3c-0.6-0.5-1.3-0.9-2.2-1.1
		c-0.9-0.5-1.8-1.1-2.7-1.7l0.2-1.6v-1.1l0.3-0.6l0.8-0.4h1.4l0.3,0.2l1.4-0.5V9l-0.2-0.1c-0.2-0.9-0.6-1.7-1-2.3
		c-0.8-0.4-1.6-0.7-2.6-1V4.1l0.4-0.3l1.1,0.1h1.1c0.3,0,0.5-0.1,0.7-0.3L227,3.1l-0.6-0.4h-2.1l-0.2-0.2L224,1.8l-0.7-0.5l-0.6,0.2
		v1.3l-2.8,0.4h-1.5l-0.1-0.1L218,3.2l0.3,0.7L218.8,4.3z M222.3,9l-0.4,0.3H221l-0.6-0.7l0.1-1.6l1.1-0.4h0.8l0.2,0.9L222.3,9z
		 M223.6,7.4l0.4-0.7h0.6c0.6,0.2,1,0.6,1.2,1.2l-0.1,0.9l-0.6,0.3c-0.6,0.1-1.1-0.1-1.5-0.5V7.4z"/>
	<path class="st0" d="M211.5,12.5h0.3c0.9-1.1,1.8-2.3,2.7-3.7h0.6v3.8l-0.1,0.1v1.5l-0.2,0.9v1l0.8,0.9c0.3,0.1,0.5,0,0.7-0.2
		l-0.1-0.2v-1.6l0.1-0.1l-0.1-0.4l0.1-0.9v-2.1l0.1-0.1l-0.1-0.2l0.1-1l-0.1-0.8V8.1c0-0.4-0.1-0.9-0.4-1.4l1-2.3l-0.1-0.4l-1.1-0.5
		l-0.2,0c-0.8,2.4-2.1,4.6-3.8,6.6l-0.9,1.2C210.8,11.8,211,12.2,211.5,12.5z"/>
	<path class="st0" d="M232.1,10.1c1.5-0.8,3.1-1.4,4.9-1.7h0.4l-0.9,1.5h-0.2l-0.5,0.5c-1.4,1.9-2.8,3.7-4.1,5.7
		c-0.1,0.5,0.1,0.9,0.5,1.2l0.2,0.1h0.4l0.3-0.5c1-1.1,2.1-2.1,3.4-2.9h0.4l1,1.4c0.7,0.7,1.4,1.1,2.3,1.3c1.4-0.2,2.6-0.8,3.7-1.8
		l0.7-1.1l-0.1-0.4l-0.8,0.2l-0.1,0.3c-1,0.7-2.1,1.2-3.1,1.6h-0.8c-0.9-0.5-1.5-1.2-1.9-2.2l-1-0.6l-0.6,0.2h-0.4
		c0.8-1,1.5-1.9,2.2-3h0.2l1.2-1.3l0.2-0.4V7.8l-0.7-0.5H237L237,7.4l-0.5-0.1l0.3-0.9c-0.1-1.5-0.4-2.9-0.9-4.3l-0.7-0.5l-0.6,0.2
		l1,3.9v1.1l0.4,0.4v0.2c-1.6,0.3-3.1,0.8-4.5,1.6C231.5,9.5,231.7,9.8,232.1,10.1z"/>
	<path class="st0" d="M251.9,11.7l0.6,0.9h0.4l0.6-0.5c0.7-0.7,1.5-1.1,2.5-1.3h1.4l1.1,0.6l0.5,1l-0.5,1.5l-0.9,0.3h-1.2
		c-1.2,0.1-2.3,0.6-3.2,1.4l0.1,0.4l1.8,1l0.2-0.1l0.1,0.1h1.4c0.9-0.3,1.6-0.8,2.4-1.5l1-2v-1.1l-0.8-1.4c-0.6-0.7-1.4-1-2.3-1.1
		h-1.4l-0.3-0.1c1-1.3,1.8-2.7,2.5-4.2c0.1-0.4-0.1-0.8-0.4-1l-1.4-0.6H255c-0.8,0.1-1.6,0.3-2.4,0.6v0.3l0.7,0.6l2.2-0.6
		c0.4-0.1,0.7,0,0.9,0.2L256,6.6C254.9,8.5,253.5,10.2,251.9,11.7z M256.9,15.8l-0.8,0.4H255l-0.3-0.2l0.1-0.4l1.9-0.6h0.9
		L256.9,15.8z"/>
	<polygon class="st0" points="270.7,12.6 270.9,12.4 271.1,11.7 271,11.1 271,9.6 271.1,9.5 271.1,7.6 271.4,6.2 271.4,4.9 
		271.8,3.8 271.5,2.8 270.7,2.3 269.8,2.7 269.8,4.5 269.5,6.7 269.6,7.2 269.5,7.8 269.5,11.2 269.6,11.6 	"/>
	<path class="st0" d="M271,18.4l0.6-1.1c0-0.6-0.2-1.2-0.5-1.7l-1.3,0.4l-0.4,1v0.8l0.8,0.7L271,18.4z"/>
	<polygon class="st0" points="278.7,12.6 278.9,12.4 279.1,11.7 279,11.1 279,9.6 279.1,9.5 279.1,7.6 279.4,6.2 279.4,4.9 
		279.8,3.8 279.5,2.8 278.7,2.3 277.8,2.7 277.8,4.5 277.5,6.7 277.6,7.2 277.5,7.8 277.5,11.2 277.6,11.6 	"/>
	<path class="st0" d="M279,18.4l0.6-1.1c0-0.6-0.2-1.2-0.5-1.7l-1.3,0.4l-0.4,1v0.8l0.8,0.7L279,18.4z"/>
	<path class="st0" d="M124.1,16.8c0.1,0.2,0.3,0.2,0.4,0.2c0.1,0,0.2,0,0.3-0.1c0.2-0.1,0.3-0.5,0.2-0.7l-10-16
		c-0.1-0.2-0.5-0.3-0.7-0.2c-0.2,0.1-0.3,0.5-0.2,0.7L124.1,16.8z"/>
	<path class="st0" d="M301.2,16.9c0.1,0.1,0.2,0.1,0.3,0.1c0.2,0,0.3-0.1,0.4-0.2l10-16c0.1-0.2,0.1-0.5-0.2-0.7
		c-0.2-0.1-0.5-0.1-0.7,0.2l-10,16C300.9,16.5,301,16.8,301.2,16.9z"/>
	<path class="st0" d="M435.5,39.5c-6.1,0-11-4.9-11-11V28h-413v0.5c0,6.1-4.9,11-11,11H0v26h0.5c6.1,0,11,4.9,11,11V77h413v-0.5
		c0-6.1,4.9-11,11-11h0.5v-26H435.5z M435,64.5c-6.2,0.3-11.2,5.3-11.5,11.5h-411C12.2,69.8,7.2,64.8,1,64.5v-24
		c6.2-0.3,11.2-5.3,11.5-11.5h411c0.3,6.2,5.3,11.2,11.5,11.5V64.5z"/>
	<path class="st0" d="M419.9,33v-0.1H16.1V33c0,5.6-4.5,10.1-10.1,10.1H5.9v18.7H6c5.6,0,10.1,4.5,10.1,10.1v0.1h403.7V72
		c0-5.6,4.5-10.1,10.1-10.1h0.1V43.1H430C424.4,43.1,419.9,38.6,419.9,33z M429.9,61.7c-5.6,0.1-10.2,4.6-10.2,10.2H16.3
		c-0.1-5.6-4.6-10.2-10.2-10.2V43.3c5.6-0.1,10.2-4.6,10.2-10.2h403.3c0.1,5.6,4.6,10.2,10.2,10.2V61.7z"/>
</g>
</svg>
