<?xml version="1.0" encoding="utf-8"?>
<!-- Generator: Adobe Illustrator 22.1.0, SVG Export Plug-In . SVG Version: 6.00 Build 0)  -->
<svg version="1.1" id="tit02" xmlns="http://www.w3.org/2000/svg" xmlns:xlink="http://www.w3.org/1999/xlink" x="0px" y="0px"
	 width="212px" height="54.7px" viewBox="0 0 212 54.7" style="enable-background:new 0 0 212 54.7;" xml:space="preserve">
<style type="text/css">
	.st0{fill:#616161;}
</style>
<g>
	<path class="st0" d="M2.1,28.8L0.7,28l-0.4-1.9c3.9-5.8,7.8-11.7,11.6-17.7h-1.2l-9.3,1.9L0,9V8.1l0.6-0.6h2.1
		c4.1-0.7,8.1-1.4,12.2-1.9l1.5,1l0.2,1.3c-2.3,2.9-4.4,5.9-6.5,9.1l0.6,1.2c2.9,2.2,5.9,4.2,8.9,6.1l0.2,1.3l-1.5,0.6
		c-3.3-2.3-6.6-4.6-10.1-6.8c-1.9,3-3.7,6.1-5.3,9.3L2.1,28.8z"/>
	<path class="st0" d="M47.9,28.6l-1.3-1.3v-1c1.5-2.6,2.5-5.4,3.2-8.3c-3.4-1.9-6.1-4.5-8.3-7.9c0-0.8,0.1-1.3,0.2-1.7l0.9-0.2
		l1.7,1.3c0.7,1.6,1.8,3.1,3.2,4.3L50,16V17h0.6v-0.6c1.4-3.5,2.8-7.1,4.2-10.7l-2.3-0.2l-0.2,0.2H50l-0.2,0.2h-3.2L46.5,6h-2.3
		L43,5.9L42.5,6l-1.3,2.2l-0.3,0.6c-1.6,2.4-2.8,4.9-3.9,7.4l-1.7,0.2c-0.7-0.5-1.1-1.2-0.9-2.3l7.3-12.4l1.1-0.4l1.5,0.8l0.2,0.7
		l-0.2,0.6l0.4,0.4h2.8l0.2-0.2h7.9l2.1,0.7l0.4,1.5c-3.1,7.5-6.3,15-9.4,22.6L47.9,28.6z"/>
	<path class="st0" d="M82.3,16.9l-2.1-2.1C77.9,12,75.9,9,74.2,6c0.6-0.6,1.4-0.8,2.3-0.6c2.1,2.6,4.3,5.3,6.4,8.1l0.6,1.1v1.9
		L82.3,16.9z M80.4,27.5l-1.5-1.7c3.8-2.5,7.5-5.1,11.1-7.7h0.4l0.2-0.6c2-1.6,4.2-2.9,6.6-3.7l0.2,0.9C92.8,19.1,88,23.1,83,26.7
		h-0.4l-0.2,0.6l-0.2,0.2H80.4z"/>
	<path class="st0" d="M119,27.9l-1.1-0.9v-1.3c2.6-4.9,4.7-10,6.3-15.4l-0.9-0.4l-0.2,0.2h-2.1c-3.7,1-7.5,2.1-11.2,3.4l-1.2-0.9
		v-1.2c4.3-1.6,8.6-2.8,13.1-3.5h3.2l1.3-0.2c0.6-2.6,2-5,4.1-7.1l1.1-0.6c1.9,0.4,3.7,0.9,5.4,1.7c1.5,1.9,2.3,4,2.4,6.4v2.2
		c-0.5,1.5-1.4,2.9-2.6,4.1c-1.6,1.6-3.6,2.5-6,2.6c-1.9-0.4-3.5-1.2-4.9-2.6c-1.5,4.5-3.2,8.9-5,13.1L119,27.9z M133.8,13.7
		l2.6-2.8l0.4-1.1V7.1l-1.5-3.9l-2.1-0.6l-1.7,1c-1.8,2.6-2.8,5.6-3.2,8.8l0.9,1.7c0.6,0.5,1.4,0.7,2.4,0.6L133.8,13.7z"/>
	<path class="st0" d="M143.8,25.9c-0.7-0.5-1-1.1-0.8-2c0.7-2.3,1.9-4.2,3.7-5.8l2-0.4l0.6,0.3v0.3c-1.7,2.3-3,4.8-3.8,7.4
		L143.8,25.9z M152.5,29.1l-2.1-1.7l-0.1-0.1v-3.4l0.2-0.2v-4.6l0.2-0.2v-4l-2-0.5l-2.5,0.4l-1.3-1.1v-0.3c2.5-1.7,5.1-3.7,7.8-6
		h-1.4l-4.6,0.8l-1.3-1.1V6.8c2.5-1.8,4.9-4,7.2-6.6h1.8l0.7,1.2c-1.3,0.9-2.5,2.1-3.5,3.7l0.5,0.5h3l1.3,0.6l0.1,0.8
		c-1.5,1.6-3.3,3.4-5.4,5.2h4.1l0.8-0.2l2.3,0.6l0.1,0.9l-0.4,0.4h-2.2l-1.4-0.2l-1,0.5l-0.3,0.4V18l0.2,0.5l-0.2,0.2v2.9l-0.2,1
		l0.2,0.3v3.3l0.4,2.5C153.4,29.1,153,29.2,152.5,29.1z M161.3,23.3c-2.4-0.5-4.5-2-6.3-4.4l-0.1-0.3l1.3-0.3c1.8,0.4,3.3,1.4,4.5,3
		c0.7,0.5,0.9,1.1,0.8,1.9L161.3,23.3z M165.3,28.4l-1.7-1.7v-0.9l0.2-0.3v-4.7l0.2-0.9l0-2.3l-1.7-0.7v-1.5
		c0.7-2.8,1.6-5.7,2.9-8.6l-1.7-0.3l-3.2,0.8l-1.7-0.9l-0.1-0.7c1.2-0.5,2.6-0.9,4-1.2h2.4l0.2-0.2h4.5l2.4-0.7h2.4l0.9,0.9v0.9
		l-0.9,4.3l0.2,0.9l-1.2,3.2l-1.2,0.4l-1.5-1.1v-0.4c0.7-1.9,1.2-3.9,1.3-6.2l-0.7-0.6h-2.3l-1.6,0.3V7c0.4,0.5,0.6,1.1,0.4,1.7
		c-1.6,2.9-2.8,6-3.6,9.4l3,0.5l3.5-0.9h2.8l1-0.2l1.5,0.6l0.4,1.1l-0.7,2.6v2.6l1.8,1l0.1,1c-0.8,0.5-1.8,0.7-3.1,0.7l-1.1-0.2
		C170.7,27.1,167.9,27.7,165.3,28.4z M172.6,24.7l0.7-1.3v-3.6l-1.4-0.5l-4.9,1.4l-0.6,1v3.3l2,0.5L172.6,24.7z"/>
	<path class="st0" d="M193.6,28.6l-1.2-0.9l-0.2-0.9v-4.3l-0.2-0.2v-3.5l0.2-0.2v-4.2l-0.3-0.7h-0.8l-2.3,4.1v2l-1.4,0.8l-1.2-0.6
		l-0.4-1.4c2.6-6.1,5.5-12,8.7-17.8l1.7-0.4l1.3,1.1v0.9l-0.2,0.8c3,2.4,6,4.5,9.1,6.2c1.9,1.7,3.8,3.4,5.7,5v0.9l-1.6,0.6l-1.1-0.8
		l-1.4-1.9l-1.3-0.3l-0.3,2.4l0.2,0.2v3.2l-0.2,0.2v6.1l-0.8,2.2l-0.9,0.3c-1.2-0.5-1.8-1.4-1.7-2.8l0.4-0.6v-3.2l0.3-0.2v-8.2
		c0.2-1.3-0.3-2.4-1.4-3.3l-6.5-3.8c-1.7,2-2.9,4.3-3.7,6.8l2.7,1.3l0.1,1.2l-0.2,0.1v9.9l0.4,2.1l-0.2,0.9l0.2,1
		C194.9,28.7,194.3,28.8,193.6,28.6z"/>
</g>
<g>
	<path class="st0" d="M49.8,49.5l-0.5-0.6v-1.2l0.4-1.6l0.4-0.2l0.6,0.4l0.2,0.5l-0.4,1.5v1.2L50,49.5l-0.1-0.1L49.8,49.5z
		 M50.5,53.7L50,52.9c0.8-1.3,1.6-2.5,2.5-3.7c0.6-0.4,1.1-1,1.5-1.6v-0.3C53,46.1,52,44.9,51,43.8l-0.1-0.6l0.7-0.2
		c1.1,1,2.1,2.1,2.9,3.5h0.3l2.4-2.8h0.6l0.7,0.8l-0.4,0.5l-2.6,2.7v0.3l3.2,3.3l0.5,0.2c0.2,0.3,0.4,0.6,0.4,1
		c-0.3,0.2-0.7,0.4-1,0.4l-3.8-4.1c-1.3,1.5-2.6,3.1-3.6,4.8L50.5,53.7z M54.1,54.7l-0.2-0.1l-0.6-2.9l0.7-0.2l0.6,0.5l0.2,1.3v1
		L54.1,54.7z M54.7,43.4l-0.4-0.2v-1.3l-0.3-1.5l0.7-0.1l0.6,0.6l0.1,0.7v1.1l-0.5,0.6H54.7z M59.2,48.8c-0.5-0.7-0.8-1.6-0.9-2.5
		l0.1-0.1h0.9c0.4,0.7,0.7,1.4,0.7,2.2l-0.3,0.4H59.2z"/>
	<path class="st0" d="M69.5,54.5l-0.6-0.4l-0.2-0.9c1.8-2.7,3.7-5.5,5.4-8.3h-0.5l-4.4,0.9l-0.7-0.6v-0.4l0.3-0.3h1
		c1.9-0.3,3.8-0.6,5.7-0.9l0.7,0.5l0.1,0.6c-1.1,1.4-2.1,2.8-3,4.3l0.3,0.5c1.4,1,2.8,2,4.2,2.9l0.1,0.6l-0.7,0.3
		c-1.5-1.1-3.1-2.1-4.7-3.2c-0.9,1.4-1.7,2.9-2.5,4.4L69.5,54.5z"/>
	<path class="st0" d="M88.6,54.4L88,53.8v-0.5c0.7-1.2,1.2-2.5,1.5-3.9c-1.6-0.9-2.9-2.1-3.9-3.7c0-0.4,0-0.6,0.1-0.8l0.4-0.1
		l0.8,0.6c0.3,0.8,0.8,1.4,1.5,2l1.2,1V49h0.3v-0.3c0.7-1.6,1.3-3.3,2-5l-1.1-0.1l-0.1,0.1h-1.1l-0.1,0.1H88l-0.1,0.1h-1.1l-0.5-0.1
		L86,43.8l-0.6,1l-0.1,0.3c-0.7,1.1-1.3,2.3-1.8,3.5l-0.8,0.1c-0.3-0.2-0.5-0.6-0.4-1.1l3.5-5.8l0.5-0.2l0.7,0.4l0.1,0.3l-0.1,0.3
		l0.2,0.2h1.3l0.1-0.1h3.7l1,0.3l0.2,0.7c-1.5,3.5-3,7.1-4.4,10.6L88.6,54.4z"/>
	<path class="st0" d="M102.5,48.9l-1-1c-1.1-1.3-2-2.7-2.8-4.1c0.3-0.3,0.7-0.4,1.1-0.3c1,1.2,2,2.5,3,3.8l0.3,0.5v0.9L102.5,48.9z
		 M101.7,53.9l-0.7-0.8c1.8-1.2,3.5-2.4,5.2-3.6h0.2l0.1-0.3c0.9-0.8,2-1.4,3.1-1.8l0.1,0.4c-2.1,2.1-4.4,4-6.7,5.7h-0.2l-0.1,0.3
		l-0.1,0.1H101.7z"/>
	<path class="st0" d="M118,54.1l-0.5-0.4V53c1.2-2.3,2.2-4.7,3-7.2l-0.4-0.2l-0.1,0.1h-1c-1.8,0.5-3.5,1-5.3,1.6l-0.5-0.4v-0.5
		c2-0.8,4-1.3,6.2-1.7h1.5l0.6-0.1c0.3-1.2,0.9-2.3,1.9-3.3l0.5-0.3c0.9,0.2,1.7,0.4,2.5,0.8c0.7,0.9,1.1,1.9,1.2,3v1
		c-0.2,0.7-0.7,1.4-1.2,1.9c-0.8,0.8-1.7,1.2-2.8,1.2c-0.9-0.2-1.6-0.6-2.3-1.2c-0.7,2.1-1.5,4.2-2.4,6.2L118,54.1z M125,47.4
		l1.2-1.3l0.2-0.5v-1.2l-0.7-1.8l-1-0.3l-0.8,0.5c-0.8,1.2-1.3,2.6-1.5,4.1l0.4,0.8c0.3,0.2,0.7,0.3,1.1,0.3L125,47.4z"/>
	<path class="st0" d="M131.2,49.1l-0.8-0.7V48c0.2-0.3,0.4-0.4,0.7-0.3l0.1,0.1h2.5l1.2-0.2h1.4l0.1-0.1h2.9l3.1-0.4l0.5,0.4v0.1
		c-1,0.5-2.2,0.8-3.5,0.9h-1.4l-0.1,0.1h-1.1l-0.1,0.1h-1.5l-2.1,0.3H131.2z"/>
	<path class="st0" d="M149.5,54.4l-0.4-0.4v-4.6l-0.1-1.2h-0.7l-0.9,2.6l-0.3,0.1l-0.5-0.3l-0.2-0.9l3.6-6.6l0.9-0.1l0.4,0.7
		c-0.8,0.7-1.3,1.6-1.5,2.5l0.4,0.1v0v5.2l0.1,0.1v1.1l0.1,0.1v0.9l-0.3,0.6H149.5z M151.8,43.7l5-0.6l0.7,0.3v0.2l-0.8,0.3h-1.2
		c-0.5,0.6-0.9,1.4-1.1,2.4h1.6l0.1-0.1h1.1l0.1,0.4l-0.1,0.6c-0.9,2.3-1.6,4.5-2.4,6.7l-0.7,0.1l-0.3-0.2l-0.2-0.2v0
		c0.3-0.8,0.6-1.6,0.8-2.5l-0.9-1.5H153l-0.4,1.1l-0.5,0.1l-0.3-0.4v-0.7l2.1-5.3l-0.8-0.2l-1,0.1l-0.5-0.4L151.8,43.7z M155.3,50
		v-0.6l0.9-2.2l-1.1-0.2l-1.1,0.5l-0.3,0.9C154.1,48.9,154.6,49.5,155.3,50z M157.8,45.7h0.8l0.4,0.3l0.1,0.6l-0.2,0.5l0.2,0.2v0.9
		l0.2,1.5c-0.2,0.2-0.4,0.2-0.7,0.2l-0.4-0.4v-1.3l-0.1-0.9l-0.2-1.1V45.7z M162.2,53.9c-0.6,0-0.9-0.3-1-0.9l0.3-0.7v-1l0.1-0.1
		v-1.3l-0.1-0.1v-1.6l-0.1-0.1V47l-0.5-3.3l0.5-0.1L162,44l0.5,3.2l-0.1,0.4l0.1,0.1V49l0.2,0.8v2.7l-0.4,1.3L162.2,53.9z"/>
</g>
</svg>
