<?xml version="1.0" encoding="utf-8"?>
<!-- Generator: Adobe Illustrator 22.1.0, SVG Export Plug-In . SVG Version: 6.00 Build 0)  -->
<svg version="1.1" id="tit01" xmlns="http://www.w3.org/2000/svg" xmlns:xlink="http://www.w3.org/1999/xlink" x="0px" y="0px"
	 width="292.9px" height="36px" viewBox="0 0 292.9 36" style="enable-background:new 0 0 292.9 36;" xml:space="preserve">
<style type="text/css">
	.st0{fill:#616161;}
</style>
<g>
	<path class="st0" d="M17.2,32.6l-1-1.6l-4.7,0.9l-0.9-0.5l-0.4-0.9c1.8-0.6,3.7-1.1,5.9-1.5l0.3-1.4l-0.9-1.1h-0.8L12.8,27
		l-1.5-0.8l-0.4-1.6V20l-0.2-0.2v-2.1l-0.4-1.9l1.3-0.3c0.9,0.8,2,1.3,3.5,1.3l1-0.8V14l-1.6-0.5l-2.7,0.8l-1.3-1.5v-0.3
		c1.4-0.5,3.1-0.9,5-1V9.2l-1.2-2.6l-2.1-0.3L9.3,7.1L8.9,8l0.3,0.3v2.2l-0.4,1.3l-1.2,0.1l-1.4-1.5V7.8L5.2,7.2l-2,0.7h-2L0,6
		l0.1-0.4l2-0.2h2.4l1.3-0.5l0.3-1.6L4.9,0.7l1.3-0.3L7.5,1l1.3,3.5l1.8,0.3l3.6-0.7l0.4-0.4V1.2l-0.2-1L15.3,0l1.3,0.6L17,3
		l2.1,0.3L19.3,3h2.2l1.3,1.2v0.3c-1.5,0.8-3.2,1.2-5.3,1.2C17,6.4,16.8,7.3,17,8.3l1.7,2.6l1.2,0.3l3.2-0.5l1.3,0.8l0.1,0.9
		l-2.2,0.7l-0.2-0.2h-3.3c-0.6,0.7-0.8,1.5-0.6,2.4l1.5,0.8l0.6-0.2l0.1,0.1h3.9c0.6,0.7,0.9,1.7,0.7,2.9L25,20.8l0.2,0.8l-0.4,0.9
		v3l-0.9,0.7H19l-0.8,2.1c0.7,0.9,1.7,1.2,2.8,0.9l2.3-0.4l0.8,0.3l0.1,1.1c-2.4,0.2-4.4,0.6-5.8,1.1l-0.4,1.6L17.2,32.6z M25.6,36
		l-0.2-0.1h-3.1l-1.9-0.2l-0.2,0.2H17l-0.2-0.2h-4c-4.3-0.5-8.3-1.5-12.1-3.2l-0.2-0.7c0.9-0.5,1.9-1,3.1-1.4
		c0.8-0.8,1.2-1.9,1.2-3.1l-0.3-0.9c-1.6-0.2-3-0.8-4.1-1.9l-0.1-0.6l0.3-0.3h2.2c1.7,0.4,3.1,1.3,4.3,2.7l0.6,2.2l-1.4,3.7
		c2.4,0.8,4.8,1.3,7.3,1.6H18l0.2,0.2h2.9l0.2-0.2h3.4l0.6-0.2l1.9,0.8l0.1,0.7L25.6,36z M5.6,21.3l-2.7-1.2l-0.9-1.4l1.2-0.4
		c1.5,0.1,2.8,0.6,3.8,1.5l0.1,0.9C6.8,21.1,6.2,21.3,5.6,21.3z M15.6,21.4v-0.7c0.6-0.4,0.8-1.1,0.6-2.1c-0.7-0.5-1.5-0.7-2.4-0.5
		c-0.5,0.7-0.7,1.5-0.5,2.4L15.6,21.4z M16,24.3l0.3-0.9l-1.7-0.9l-1.1,1.3l2.1,0.9L16,24.3z M22.1,19.8l0.5-1.5l-0.7-0.6H19
		l-0.5,1.8l0.6,0.7h2.7L22.1,19.8z M22.3,24.2v-1.9c-0.7-0.7-1.6-1-2.8-0.9l-1,0.8v1.6c0.7,0.6,1.6,0.8,2.5,0.6L22.3,24.2z"/>
	<path class="st0" d="M50.3,32.8c-1.7-0.9-2.9-2.2-3.6-3.8v-2.3l1.7-2.8c-2.5-4.4-4.9-8.9-7-13.4c0.5-0.4,1.1-0.5,1.7-0.4l1.3,1.1
		l5.1,10.4l0.6,0.2c2-2.3,4.2-4.2,6.6-5.9l1.3,0.7l0.2,1.2l-2.9,2.4H55l-0.2,0.6c-2.2,2.2-4,4.5-5.5,7v0.9c0.4,0.9,1,1.5,1.9,1.7
		h1.5c2.1-0.8,4.1-1.8,5.9-3.2l0.6-0.7h1.5l1.1,1.9L61,28.9l-0.2,0.6c-2.4,1.4-4.9,2.5-7.4,3.4H50.3z"/>
	<path class="st0" d="M82.9,32.4l-1.3-1c-1.8-4.6-3.2-9.4-4-14.3l2.1-0.4l1.2,1.3V20c0.6,3.3,1.8,6.4,3.5,9.2l1,0.8v1.2l-0.6,1
		L82.9,32.4z M100.1,29.1l-0.8-0.4l-0.6-0.8v-5.4l-0.2-0.2v-1.9l-1-5.8c0.5-0.6,1.2-0.8,2.2-0.6l0.9,1.2v2.1l0.6,2.5v1.9l0.2,0.2
		v4.5l0.2,1.5l-0.6,1L100.1,29.1z"/>
	<path class="st0" d="M128.4,35.7v-0.3c-4-2.8-7.9-5.9-11.7-9.1v-1.1l1.1-0.3c3.6,2.3,7.1,4.9,10.5,7.7c0.8,0.6,1.2,1.3,1.2,2.3
		c-0.2,0.4-0.6,0.5-1.3,0.4v0.4H128.4z M131.4,24.4l-1-0.7v-0.8c0.7-0.6,1.1-1.5,1.1-2.5l-1.9-4.2h-1.3l-6.1,2h-1.7l-1.4-1.2v-0.7
		c2.9-1,5.9-1.8,9-2.6l0.2-0.7l-1.5-4h-1.6c-1.5,0.5-3,0.9-4.6,1.3h-1.8l-1.4-1.4V8.3c0.2-0.4,0.5-0.6,1-0.6h2.2l5.3-1.3l0.2-0.7
		l-0.4-1.8c0.4-0.3,1-0.4,1.6-0.3l1,1v1.2h1.3l4.8-0.9l1.6,1.2v0.6c-0.8,0.7-1.8,1.1-3,1.2l-1.1-0.2l-2.3,0.6l-0.2,0.9l1.5,3.6
		l0.7,0.2c1.9-0.6,3.7-1.1,5.5-1.5l1.4,0.7l0.3,1.1c-2,0.8-4.2,1.5-6.5,2.2v0.7c1,1.8,1.7,3.8,2,5.8c-0.5,1.1-1.2,1.8-2.3,2.3H131.4
		z"/>
	<path class="st0" d="M168.8,33.9c-1.4-0.5-2.7-1.3-4-2.3c-1.5-1.5-2.5-3.2-2.9-5.3v-2.6l-0.5-0.4h-3.9l-1.5,0.2l-1.4-0.9l-0.4-1.4
		l0.3-0.3h3.2l0.2,0.2h3l1.3-0.4l1.2-6.6l-1-0.2l-3.7,0.8l-1.4-0.6l-0.7-1.6l0.5-0.7h2.4l4.8-0.8l2.3-7.2l1-0.2l1.3,0.7l0.2,1.8
		l-1.6,4l1.4,0.5l0.2-0.3h2.6l1.4,1.1v0.6l-0.7,0.7h-4.8l-1,0.4l-1.6,6.9l0.5,0.5h2.2l2.2-0.4h3.6l0.8,1c-1.3,1-2.9,1.4-4.8,1.4H167
		l-2.2,0.6l-0.3,0.3v2.8c0.2,1.7,1.1,3.3,2.6,4.6c0.8,0.6,1.8,0.9,3,0.8l3.7-2.3l1-1.3l1-0.3l0.7,1.6c-1.2,1.9-2.8,3.4-4.7,4.5
		l-0.9,0.2H168.8z"/>
	<path class="st0" d="M193.9,32.7c-1,0-1.9-0.4-2.6-1.2l-0.4-1.3v-2.1c0.2-3,1.1-5.7,2.6-8.1c3.2-3.4,7.1-5.2,11.7-5.5
		c2,0.1,3.8,0.9,5.3,2.4c3.1,3.1,5,6.8,5.6,11.1V31l-0.7,0.9h-1c-0.9-0.2-1.4-0.8-1.5-1.7c0.5-0.8,0.7-1.6,0.6-2.4
		c-0.7-3.6-2.5-6.9-5.3-9.8l-1.5-0.7c-1.5,4.8-3.9,9.2-7.1,13.4c-1,1.1-2.1,1.8-3.4,2.1H193.9z M196.2,30.1
		c3.1-3.3,5.6-6.8,7.3-10.7l0.6-1.9l-1-0.4c-2.6,1-5.1,2.6-7.3,4.7c-1.5,2.5-2.3,5.3-2.4,8.5c0.4,0.5,0.9,0.7,1.5,0.6L196.2,30.1z"
		/>
	<path class="st0" d="M240.3,32.8c-1.7-0.9-2.9-2.2-3.6-3.8v-2.3l1.7-2.8c-2.5-4.4-4.9-8.9-7-13.4c0.5-0.4,1.1-0.5,1.7-0.4l1.3,1.1
		l5.1,10.4l0.6,0.2c2-2.3,4.2-4.2,6.6-5.9l1.3,0.7l0.2,1.2l-2.9,2.4H245l-0.2,0.6c-2.2,2.2-4,4.5-5.5,7v0.9c0.4,0.9,1,1.5,1.9,1.7
		h1.5c2.1-0.8,4.1-1.8,5.9-3.2l0.6-0.7h1.5l1.1,1.9l-0.7,0.4l-0.2,0.6c-2.4,1.4-4.9,2.5-7.4,3.4H240.3z"/>
	<path class="st0" d="M269.6,33.5c-0.9-0.4-1.5-1-1.9-1.9l-0.6-2.1v-3.6l-0.2-0.2v-5.3l-0.1-0.5l0.1-0.1V15l-0.2-1.2
		c0.4-0.6,1-0.7,1.7-0.5l1.2,0.9v1.4l-0.2,0.2v4.8l-0.2,1.6l0.2,0.2v1.9l0.2,1l-0.2,0.8l0.2,1l-0.2,1l0.8,2.5l0.7,0.4l0.2,1.3
		l-0.9,1.1H269.6z M291,32.3c-1-1.5-2.3-2.7-3.8-3.7h-0.7l-1.6,2.6c-0.6,0.5-1.3,0.8-2.1,0.9h-2.3c-1-0.1-1.9-0.6-2.6-1.4l-0.4-0.5
		v-1.9l1.6-1.9l2.5-1.3h2l0.7-0.7v-6.1c-0.6-0.4-1.3-0.6-2.2-0.4c-2,0.5-3.8,1.2-5.5,2l-1.3-0.7l-0.3-1.2c2.6-1.2,5.7-2,9.1-2.3
		l0.2-1.9l-0.6-2.7c0.3-0.6,0.9-0.7,1.7-0.4l1.3,1.3v0.9l-0.2,1.6l0.2,1.1h1.9l1.7-0.2l1,0.9v0.6l-2,0.9l-2-0.2l-0.7,0.7v6.2
		l-0.2,1.1c2.1,1.9,4.2,3.6,6.3,5.3l0.2,1.2C292.5,32.4,291.8,32.6,291,32.3z M282.6,29.9c0.9-0.7,1.2-1.5,1.1-2.6l-1.2-0.5
		c-1.1,0.4-2,1.2-2.5,2.3v0.7c0.6,0.5,1.3,0.6,2,0.5L282.6,29.9z"/>
</g>
</svg>
