<?xml version="1.0" encoding="utf-8"?>
<!-- Generator: Adobe Illustrator 22.1.0, SVG Export Plug-In . SVG Version: 6.00 Build 0)  -->
<svg version="1.1" id="dive-tit01" xmlns="http://www.w3.org/2000/svg" xmlns:xlink="http://www.w3.org/1999/xlink" x="0px" y="0px"
	 width="441.7px" height="113px" viewBox="0 0 441.7 113" style="enable-background:new 0 0 441.7 113;" xml:space="preserve">
<style type="text/css">
	.st0{fill:#FCEE21;}
	.st1{fill:#1DCD00;}
	.st2{opacity:0.2;}
	.st3{fill:#FFFFFF;}
	.st4{fill:#98EA88;}
	.st5{fill:#616161;}
</style>
<polygon class="st0" points="426.3,101 102.3,101 117.7,75 441.7,75 "/>
<g>
	<g>
		<g>
			<polygon class="st1" points="91.5,113 4.5,113 1,37 95,37 			"/>
		</g>
		<g>
			<polygon class="st1" points="95,52 1,52 0,51 96,51 			"/>
		</g>
		<g>
			<rect y="37" class="st1" width="96" height="14"/>
		</g>
		<g class="st2">
			<rect x="42" y="37" class="st3" width="12" height="76"/>
		</g>
		<g>
			<g>
				<path class="st4" d="M48.5,35h-24c-9-11,0-20,23-5C48.5,34,48.5,35,48.5,35z"/>
			</g>
			<g>
				<path class="st4" d="M47.5,35h24c9-11,0-20-23-5C47.5,34,47.5,35,47.5,35z"/>
			</g>
			<g>
				<polygon class="st4" points="48.5,33 23.5,9 35.5,0 48.5,29 				"/>
			</g>
			<g>
				<polygon class="st4" points="48.5,33 73.5,9 61.5,0 48.5,29 				"/>
			</g>
		</g>
	</g>
	<g>
		<path class="st3" d="M14,84.3l-1.6-1.2v-0.4c0.5-0.6,1.1-0.8,2-0.7l0.8,0.2l2.7-0.4v-2.6L17.8,79v-2.8l-0.5-1.1l-1.1-0.3l-3.8,0.7
			l-1.5-1.6c0.7-0.7,1.7-1,2.9-0.8h2.8l1.1-0.8v-2.5l-1.3-1.5v-3.8l0.2-0.2v-3.7l0.3-0.3h2c0.5,0.3,0.8,0.8,0.6,1.4l-0.3,1.5
			l0.7,0.6h4l1.6,0.2l1-0.2l0.2,0.2h7.7l2.5,0.6l0.3,1.2l-0.4,0.5h-3.3l-1.3-0.5h-9.1l-0.2-0.2h-3.1l-0.6,0.6v2.9
			c1.2,0.9,1.7,2,1.5,3.4l1.7,0.5l1.3-0.8l0.7-2.6l0.4-0.1l1.5,0.6l0.4,2.3l1.6,0.3l0.9-0.9v-2.2l1.4-0.2l0.9,0.5l0.7,2.3l1.7,0.3
			c0.8-1,1.2-2.1,1.2-3.2l0.4-0.1l1.5,0.6l0.6,1.9l0.4,0.4h2.4l0.9,0.7v0.6l-0.5,0.5h-2.4l-1.2,1l-0.2,2.1v2.6l1.5,0.7l2.5-0.6
			l2.6,0.6l0.3,0.8c-0.7,0.7-1.7,1.1-2.9,1.1l-1.3-0.3l-0.2,0.3h-2.9l-0.2,0.2h-2.3l-1.8,0.4h-2.7L29.1,83h-2.3l-1.6,0.4h-3.1
			L22,83.6h-2.2l-3.2,0.7H14z M18.8,96.7l-1.8-1.1l-0.1-1.2l2.3-8.7l0.8-0.2l1.3,0.6l0.2,1.1L20,94.7l0.2,0.6
			C20,96,19.5,96.5,18.8,96.7z M23,81.2l0.4-3l-0.1-0.8l0.1-0.2v-2.5l-2.3-0.3l-0.9,0.3v3.5l0.7,3.1l1.7,0.3L23,81.2z M26.9,92.8
			l-1.2-0.4l-0.4-0.7v-2.4l-0.2-0.2v-3.4l1.8-0.2l0.7,0.5c0.3,2,0.6,4,1,5.9C28.3,92.6,27.7,92.8,26.9,92.8z M29.4,80.7l0.6-0.5
			l-1.1-0.7v-1.2l0.2-0.2v-2.7l-0.8-1h-1.1l-1,0.7l-0.3,1.3v3.1l-0.5,1.6l2.4,0.5L29.4,80.7z M33.1,93.5l-1.6-0.7l-0.2-1.2l0.3-1.2
			l-0.5-1.8v-2.4l1.4-0.3l1.1,0.9l1,5.9L34,93.5H33.1z M34.1,80.3l0.3-1.1c-0.4-0.6-0.6-1.2-0.5-2l0.3-0.2v-2.6L32.3,74l-0.9,0.9
			v2.6l0.2,0.3v2.7l2.2,0.3L34.1,80.3z M42.4,91.3l-1.6-1.1c-0.6-1.7-1.1-3.4-1.5-5l0.7-0.5l2.2,1.2c0.7,1.4,1.3,2.8,1.8,4.3
			l-0.5,0.3L43,91.3H42.4z"/>
		<path class="st3" d="M76.4,96.1l-0.7-0.6l-0.3-2l0.7-1.1v-5.6l0.2-0.2v-2.7l-0.8-1.1h-0.8c-3.2-0.1-6.1,0.6-8.6,2.1l-6.8-4.6
			l0.1,1v7l0.2,1.6l-0.4,0.5h-1.9l-0.8-1.9l0.4-0.6v-4.6l-0.1-2.7l-1,0.7c-1.8,2.7-3.5,5.3-5.2,7.8l-1.4,0.3L48.1,89L48,88.1
			l5.3-7.6l-1.5-1.2v-0.5l4.9-1.5l0.8,0.1l0-6.9l-0.1-0.8l0.2-0.3h1.9l0.8,1.4l-0.4,3l1.2-1.6l1.8-0.2l0.6,1.1
			c-1.3,0.8-2.4,2-3.4,3.4v1.1h2.8l1.8-0.3l0.9,0.6l0.1,0.9c-0.3,0.4-0.8,0.7-1.4,0.7l-2.8,0.2l0.9,0.7l3.5,1.7
			c1.1-0.6,2.3-0.9,3.5-0.9l1.3,0.3l0.3-0.3h4.7l0.6-0.6V75l0.2-2.1l-0.2-0.3v-5.1L76,64.7l1.2-0.5l2,0.8l0.2,0.5l-0.2,0.2v10
			L78.9,76v4.3l0.4,0.4H82l1-0.1l1,1.4c-0.6,0.7-1.4,1-2.5,0.9l-1.5-0.2l-0.9,0.3l-0.3,0.9v8l-0.2,0.2v3
			C78.3,96,77.5,96.3,76.4,96.1z M54.5,76.4l-1.5-1.6l-1.9-5.5l1.5-0.1c1,0.7,1.7,1.8,1.8,3.2c0.7,1.2,1.1,2.5,1.1,3.8L54.5,76.4z
			 M73.4,78.3L66.3,75l-0.3-0.8c0.5-0.3,1.2-0.4,2-0.2l6.4,3.3l0.3,0.9L73.4,78.3z M71.9,72.9l-2.9-5c0.5-0.3,1.1-0.4,1.9-0.3
			c1.1,1.1,2.1,2.4,3,3.8v1.3L71.9,72.9z"/>
	</g>
</g>
<g>
	<path class="st5" d="M124,54.9c0.4-1.2,1.1-2.3,2.1-3.3l-0.2-1l-1-0.6l-1.1,0.2c-1.4,2-2.5,4.1-3.4,6.3v1l1.9,1.8h2.1l0.8-0.7
		l1.2-1.5l-0.7-1.6L124,54.9z"/>
	<path class="st5" d="M119.9,50.9l-0.2-0.8l-1-0.7l-1,0.2c-0.8,0.9-1.4,1.8-1.8,2.9l-0.5,0.2l-1.6,3.1l0.7,2.3l1.5,0.8h1.6l0.5-0.2
		l1.6-1.5v-1c-0.5-1-1.3-1.7-2.3-2.1v-0.5C118,52.5,118.9,51.6,119.9,50.9z"/>
	<path class="st5" d="M147.7,53.3l-2.7,0.3c-1.4,0-2.7-0.5-3.8-1.6h-1.1l-1.1,1.3V56l-0.5,0.8l0.2,2.2l-0.5,3.4v5.6l-0.3,0.3v8.5
		l0.6,2.9V83l0.2,0.3v3.5l0.3,0.8l1.9,0.8l2.7-0.8c5-7.6,8.6-15.8,10.7-24.6v-4.5l-1.6-2.7C151.3,54.3,149.6,53.5,147.7,53.3z
		 M150.9,61.4c-1.8,7.1-4.4,13.9-7.8,20.3l-0.3,0.3l-1.1-2.7v-5.4l-0.3-0.3l0.3-1.3V67l0.2-0.2v-5.4l0.6-2.2c1.4-1.4,3-2.3,4.8-2.7
		l2.4,0.6l1.1,1.6V61.4z"/>
	<path class="st5" d="M178.7,83.2l-1.9,0.8l-0.8-0.3l-0.8-1.6V70.8l0.3-0.3v-4l0.3-0.3l-0.3-1.4l0.3-0.8v-4.9l0.8-1.3l3.5-0.8v-1.3
		l-2.2-1.9l-2.2,0.3l-2.2-0.3l-1.4,0.3l-2.4-0.8l-1.9,0.6l0.8,2.4c1.1,0.7,2.2,1.4,3.5,1.9v3l-0.3,0.2v6.8l-0.2,0.3v4.3l-0.3,0.3
		v6.8l0.5,3l-0.2,2.2h-3l-0.3,0.3v1.9l2.2,1.9c3.8,0,7.2-1,10.3-3l-0.3-1.9L178.7,83.2z"/>
	<path class="st5" d="M208.8,51.8l-1.1,0.3c-2.5,8.2-4.7,16.6-6.5,25.2h-0.8l-0.3-1.9v-4.7l-0.3-0.3v-3.5l-0.3-0.3v-3
		c-0.4-4.2-1.4-8.1-3-11.7c-1.1-0.2-2.1,0-3,0.5c1.1,4.2,1.9,8.6,2.5,13.2v2.7l0.6,2.8v4.4c0.6,3.8,1.4,7.6,2.4,11.2l1.9,1.7
		l1.7-0.3c2.4-11,5.4-21.6,9-32.1l-0.3-3L208.8,51.8z"/>
	<path class="st5" d="M237.4,64.2l-8.3,2.4H228v-3.5l0.3-0.3V57l0.3-0.3l3.2-1.3h3.7c1.3-0.4,2.4-0.7,3.5-1.1v-1.6l-1.6-1.3h-2.9
		c-5,0.9-9.8,2.2-14.4,4v1.1l2.2,1.9l0.8-0.3l1.6,0.6V65l-0.3,0.3v3.2l-0.5,2.9v4.3l-0.3,0.3v8.3l-0.8,0.8v1.6l1.9,1.6
		c5.9,0,11-1.9,15.3-5.6v-0.8l-1.4-1.1c-3.2,1.3-6.4,2.4-9.6,3.5l-1.4-0.3l-0.2-0.8v-2.9L227,80l0.3-1.8v-5.6l0.5-1.3
		c2.9-1.3,5.8-2.2,8.9-2.9l1.8,0.3l1.4-0.3l1.8-1.6v-1.1l-1.6-1.3H237.4z"/>
	<path class="st5" d="M252,50.4l-1.6,0.6c-0.6,0.4-1,1-1.1,1.8l-0.8,0.5L249,55l1.4,1.1l2.1-0.8h0.8c-0.2,1.1-0.8,2-1.6,2.8v0.5
		l1.1,1.1l1.1-0.2c1.1-1.7,1.8-3.5,2.3-5.5c0.1-0.6-0.1-1.2-0.6-1.6C254.5,51.6,253.3,50.9,252,50.4z"/>
	<path class="st5" d="M262.8,51.8l-2.1-1.3l-1.4,0.3l-1.9,2.4v0.7c0.4,0.9,1.1,1.5,1.9,1.9l1.9-0.3v-0.2l0.5,0.2l-0.6,2.3l-1.1,0.7
		v1.1l1,0.7c0.6,0.1,1.2-0.1,1.6-0.5c0.9-1.2,1.4-2.5,1.6-4l-0.2-0.5l0.2-0.5C264.1,53.5,263.6,52.6,262.8,51.8z"/>
	<path class="st5" d="M294.3,76l-0.6-1.3c2.2-3.5,4.6-6.9,7.2-10.1l-0.2-1.5l-1.7-1.1c-4.5,0.6-9,1.3-13.5,2.1h-2.3l-0.6,0.7v1
		l1.7,1.5l10.3-2.1h1.3c-4.2,6.6-8.5,13.1-12.8,19.6l0.4,2.1l1.5,0.9l0.8-0.2c1.8-3.5,3.8-6.9,5.9-10.3c3.8,2.5,7.5,5,11.1,7.6
		l1.7-0.6l-0.2-1.5C300.9,80.6,297.6,78.4,294.3,76z"/>
	<path class="st5" d="M333.4,64.2l-0.3,0.1l-2.7-1.2l-0.2-0.5l0.4-0.4l0.1-0.8l-1.1-1.4l-1.2-0.1l-12.2,8.6
		c-0.5,0.9-0.6,1.7-0.1,2.5l1.7,0.5c2-2,4.3-3.7,6.8-5.3l0.5-0.4l2.2-1.5l0.6,0.1l1,0.7l2.1,1l0.3-0.1l3,1.4l0.3-0.1l2.1,1l0.3-0.1
		l2.1,1.1c-2.9,2.8-5.7,5.6-8.5,8.4l-0.2,0.5l-0.5-0.2l0.4-0.9l-1.4-3c-0.8-1.8-1.2-3.6-1.2-5.5l-1.1-2l-1-0.2
		c-0.3,0.3-0.6,0.8-0.9,1.5c0.6,4.1,2.1,7.7,4.5,10.9c-1.8,2.5-4,4.6-6.5,6.5l-0.4,0.9l0.7,1.8l0.8,0.1c6.2-5.8,12.3-11.5,18.5-17.3
		l0.3-1.6l-1.6-1.6L333.4,64.2z"/>
	<path class="st5" d="M372.1,77.5l-0.2,0.6h-0.4c-3.8,2.8-7.7,5.5-11.7,8.1l1.6,1.8h2l0.2-0.2l0.2-0.6h0.4c5.3-3.8,10.3-8,15.1-12.7
		l-0.2-1C376.5,74.5,374.2,75.8,372.1,77.5z"/>
	<path class="st5" d="M363.4,76.9l1.2-0.4v-2l-0.6-1.2c-2.2-2.9-4.5-5.7-6.7-8.5c-0.9-0.3-1.7-0.1-2.4,0.6c1.8,3.2,4,6.3,6.3,9.3
		L363.4,76.9z"/>
	<path class="st5" d="M413.6,58c-1.8-0.8-3.6-1.3-5.5-1.7l-1.1,0.6c-2.2,2.2-3.6,4.6-4.2,7.3l-1.4,0.2H398c-4.6,0.8-9.1,2-13.4,3.6
		v1.2l1.2,1c3.8-1.3,7.6-2.4,11.5-3.5h2.1l0.2-0.2l1,0.4c-1.7,5.5-3.8,10.7-6.5,15.7v1.3l1.1,0.9l1.9-0.4c1.9-4.3,3.6-8.8,5.2-13.4
		c1.4,1.4,3.1,2.3,5,2.7c2.4-0.1,4.4-1,6.1-2.7c1.3-1.3,2.2-2.7,2.7-4.2v-2.3C416,62.1,415.1,59.9,413.6,58z M413.4,66.2l-0.4,1.1
		l-2.7,2.9l-2.1,1c-1,0.1-1.9-0.1-2.5-0.6l-1-1.7c0.4-3.3,1.5-6.3,3.3-9l1.7-1l2.1,0.6l1.5,4V66.2z"/>
	<path class="st5" d="M162,32.1L162,32.1l-0.8-0.4l-0.4,0.3l0.2,1.7v1.6c0,0.6,0.2,1.2,0.7,1.6l0.3-0.1v-1.4l0.1-0.1v-1.7l-0.2-0.7
		V32.1z"/>
	<path class="st5" d="M158.7,32.2l-0.8-0.4l-0.4,0.2c0.2,0.9,0.5,1.8,0.9,2.6l-0.1,0.5l-0.4-0.1h-1.4l-0.1-0.1h-1.1l-0.1-0.1
		l-0.2-0.6l-0.4-0.4l-0.5,0.1c-0.9,1.6-1.9,3-2.9,4.5l0.5,0.8h0.3c0.8-1.1,1.6-2.3,2.4-3.4h1.1l0.1,0.1h1l0.1,0.1h0.8l0.1-0.1
		l0.7,0.2l-1,2.9l-3.4-1.5l-0.5,0.3l0.1,0.4c1.1,0.7,2.3,1.2,3.5,1.6l-1.5,4.9V45l0.4,0.4l0.5-0.1c0.6-1.6,1.2-3.2,1.7-4.8l0.3,0.1
		l0.4-0.2v-0.2l-0.4-0.4c0.3-1.3,0.7-2.6,1.3-3.7C159.4,34.6,159.1,33.4,158.7,32.2z"/>
	<path class="st5" d="M191.6,34.6c-2.9,2.5-5.7,5-8.5,7.5l0.6,0.7h0.5c1.3-1.4,2.6-2.7,4-3.9l0.4,0.3v0.9l0.2,1.5v0.9l-0.1,0.1
		l0.2,0.9v0.9l-0.1,0.1v0.2l0.6,0.4c0.4-0.1,0.7-0.2,0.9-0.6l-0.3-0.8v-0.9l-0.1-0.1v-1.6l-0.1-0.1v-0.8l-0.2-0.5v-0.9l-0.2-0.5
		v-0.6l3.1-2.5v-0.4l-0.5-0.4L191.6,34.6z"/>
	<path class="st5" d="M225.7,38l0.5-1.8v-2.9l0.1-0.1c-0.1-0.4-0.2-0.6-0.5-0.8c-0.3-0.1-0.6,0.1-0.8,0.3l0.1,0.2v1.3l0.1,0.1v1.5
		l-0.2,1.5c-0.1,0.4,0.1,0.6,0.3,0.8L225.7,38z"/>
	<path class="st5" d="M223.1,36v-1.2l-0.1-0.1v-0.9l-0.1-0.1v-0.9c-0.1-0.3-0.3-0.5-0.6-0.6c-0.3-0.1-0.6,0-0.7,0.2l0.3,1.5v1.2
		l0.1,0.1v1.2l-0.2,0.2H221l-0.1,0.1h-0.8l-0.1,0.1h-0.8c-1.6,0.3-3.2,0.8-4.8,1.4l0.1,0.5l0.5,0.3c1.6-0.7,3.3-1.2,5.1-1.5h0.8
		l0.1-0.1h0.9l0.1,0.1l-3.6,6.9c-0.1,0.3,0.1,0.6,0.3,0.8l0.7-0.1c1.2-2.6,2.6-5.1,4.1-7.5C223.5,36.9,223.4,36.5,223.1,36z"/>
</g>
</svg>
